<svg class="camisa" viewBox="0 0 100 59" xmlns="http://www.w3.org/2000/svg" role="img"><path d="M69.0 57.5 Q69.0 58.0 68.5 58.0 L31.4 58.0 Q31.0 58.0 31.0 57.5 L31.0 31.4 Q31.0 31.0 30.5 31.0 L30.4 31.0 Q30.0 31.0 30.0 31.4 L30.0 31.5 Q30.0 32.0 29.5 32.0 L29.4 32.0 Q29.0 32.0 28.7 32.3 L26.2 35.6 Q26.0 36.0 25.5 36.0 L24.4 36.0 Q24.0 36.0 23.8 35.6 L23.1 34.3 Q23.0 34.0 23.3 33.8 L24.6 33.1 Q25.0 33.0 25.0 32.5 L25.0 31.4 Q25.0 31.0 24.5 31.0 L24.4 31.0 Q24.0 31.0 24.0 30.5 L24.0 30.4 Q24.0 30.0 23.5 30.0 L23.4 30.0 Q23.0 30.0 23.0 29.5 L23.0 29.4 Q23.0 29.0 22.5 29.0 L22.4 29.0 Q22.0 29.0 22.0 28.5 L22.0 28.4 Q22.0 28.0 21.5 28.0 L21.4 28.0 Q21.0 28.0 21.0 27.5 L21.0 27.4 Q21.0 27.0 20.5 27.0 L20.4 27.0 Q20.0 27.0 20.0 26.5 L20.0 26.4 Q20.0 26.0 19.5 26.0 L19.4 26.0 Q19.0 26.0 19.0 25.5 L19.0 25.4 Q19.0 25.0 18.5 25.0 L18.4 25.0 Q18.0 25.0 17.7 24.6 L15.2 21.3 Q15.0 21.0 15.4 21.0 L15.5 21.0 Q16.0 21.0 16.0 20.5 L16.0 20.4 Q16.0 20.0 16.4 20.0 L16.5 20.0 Q17.0 20.0 17.0 19.5 L17.0 19.4 Q17.0 19.0 17.4 19.0 L17.5 19.0 Q18.0 19.0 18.0 18.5 L18.0 18.4 Q18.0 18.0 18.4 18.0 L18.5 18.0 Q19.0 18.0 19.0 17.5 L19.0 17.4 Q19.0 17.0 19.4 17.0 L19.5 17.0 Q20.0 17.0 20.0 16.5 L20.0 16.4 Q20.0 16.0 20.4 16.0 L20.5 16.0 Q21.0 16.0 21.0 15.5 L21.0 15.4 Q21.0 15.0 21.4 15.0 L21.5 15.0 Q22.0 15.0 22.0 14.5 L22.0 14.4 Q22.0 14.0 22.4 14.0 L22.5 14.0 Q23.0 14.0 23.0 13.5 L23.0 13.4 Q23.0 13.0 23.4 13.0 L23.5 13.0 Q24.0 13.0 24.0 12.5 L24.0 12.4 Q24.0 12.0 24.4 12.0 L24.5 12.0 Q25.0 12.0 25.0 11.5 L25.0 11.4 Q25.0 11.0 25.4 11.0 L25.5 11.0 Q26.0 11.0 26.0 10.5 L26.0 10.4 Q26.0 10.0 26.4 10.0 L26.5 10.0 Q27.0 10.0 27.2 9.6 L29.7 6.3 Q30.0 6.0 30.4 6.0 L40.5 6.0 Q41.0 6.0 41.0 6.4 L41.0 8.5 Q41.0 9.0 41.4 9.0 L41.5 9.0 Q42.0 9.0 42.2 9.3 L44.7 12.6 Q45.0 13.0 45.4 13.0 L46.5 13.0 Q47.0 13.0 47.0 13.4 L47.0 13.5 Q47.0 14.0 47.4 14.0 L48.5 14.0 Q49.0 14.0 49.0 14.4 L49.0 14.5 Q49.0 15.0 49.4 15.0 L50.5 15.0 Q51.0 15.0 51.0 14.5 L51.0 14.4 Q51.0 14.0 51.4 13.9 L54.5 13.1 Q55.0 13.0 55.0 12.5 L55.0 12.4 Q55.0 12.0 55.3 11.7 L58.6 9.2 Q59.0 9.0 59.0 8.5 L59.0 6.4 Q59.0 6.0 59.4 6.0 L69.5 6.0 Q70.0 6.0 70.0 6.4 L70.0 6.5 Q70.0 7.0 70.4 7.0 L70.5 7.0 Q71.0 7.0 71.0 7.4 L71.0 7.5 Q71.0 8.0 71.4 8.0 L71.5 8.0 Q72.0 8.0 72.0 8.4 L72.0 8.5 Q72.0 9.0 72.4 9.0 L72.5 9.0 Q73.0 9.0 73.0 9.4 L73.0 9.5 Q73.0 10.0 73.4 10.0 L73.5 10.0 Q74.0 10.0 74.0 10.4 L74.0 10.5 Q74.0 11.0 74.4 11.0 L74.5 11.0 Q75.0 11.0 75.0 11.4 L75.0 11.5 Q75.0 12.0 75.4 12.0 L75.5 12.0 Q76.0 12.0 76.0 12.4 L76.0 12.5 Q76.0 13.0 76.4 13.0 L76.5 13.0 Q77.0 13.0 77.0 13.4 L77.0 13.5 Q77.0 14.0 77.4 14.0 L77.5 14.0 Q78.0 14.0 78.0 14.4 L78.0 14.5 Q78.0 15.0 78.4 15.0 L78.5 15.0 Q79.0 15.0 79.0 15.4 L79.0 15.5 Q79.0 16.0 79.4 16.0 L79.5 16.0 Q80.0 16.0 80.0 16.4 L80.0 16.5 Q80.0 17.0 80.4 17.0 L80.5 17.0 Q81.0 17.0 81.0 17.4 L81.0 17.5 Q81.0 18.0 81.4 18.0 L81.5 18.0 Q82.0 18.0 82.2 18.3 L84.7 21.6 Q85.0 22.0 84.5 22.0 L84.4 22.0 Q84.0 22.0 84.0 22.4 L84.0 22.5 Q84.0 23.0 83.5 23.0 L83.4 23.0 Q83.0 23.0 83.0 23.4 L83.0 23.5 Q83.0 24.0 82.5 24.0 L82.4 24.0 Q82.0 24.0 82.0 24.4 L82.0 24.5 Q82.0 25.0 81.5 25.0 L81.4 25.0 Q81.0 25.0 81.0 25.4 L81.0 25.5 Q81.0 26.0 80.5 26.0 L80.4 26.0 Q80.0 26.0 80.0 26.4 L80.0 26.5 Q80.0 27.0 79.5 27.0 L79.4 27.0 Q79.0 27.0 79.0 27.4 L79.0 27.5 Q79.0 28.0 78.6 28.2 L75.3 30.7 Q75.0 31.0 75.0 31.4 L75.0 32.5 Q75.0 33.0 75.3 33.1 L76.6 33.8 Q77.0 34.0 76.8 34.3 L76.1 35.6 Q76.0 36.0 75.5 36.0 L74.4 36.0 Q74.0 36.0 74.0 35.5 L74.0 35.4 Q74.0 35.0 73.5 35.0 L73.4 35.0 Q73.0 35.0 73.0 34.5 L73.0 34.4 Q73.0 34.0 72.6 33.7 L69.3 31.2 Q69.0 31.0 69.0 31.4 Z M43.0 18.4 Q43.0 18.0 42.5 18.0 L41.4 18.0 Q41.0 18.0 41.0 18.4 L41.0 18.5 Q41.0 19.0 40.5 19.0 L39.4 19.0 Q39.0 19.0 39.0 19.4 L39.0 19.5 Q39.0 20.0 38.5 20.0 L38.4 20.0 Q38.0 20.0 38.0 19.5 L38.0 18.4 Q38.0 18.0 37.5 18.0 L37.4 18.0 Q37.0 18.0 37.0 18.4 L37.0 20.5 Q37.0 21.0 37.4 21.0 L38.5 21.0 Q39.0 21.0 39.0 20.5 L39.0 20.4 Q39.0 20.0 39.4 20.0 L40.5 20.0 Q41.0 20.0 41.0 19.5 L41.0 19.4 Q41.0 19.0 41.4 19.0 L42.5 19.0 Q43.0 19.0 43.0 18.5 Z" fill="rgb(255,255,255)" stroke="rgb(255,255,255)" stroke-width="0.1"/><path d="M54.5 12.0 Q55.0 12.0 55.0 12.4 L55.0 12.5 Q55.0 13.0 54.5 13.0 L53.4 13.0 Q53.0 13.0 53.0 13.4 L53.0 13.5 Q53.0 14.0 52.5 14.1 L49.4 14.9 Q49.0 15.0 49.0 14.5 L49.0 14.4 Q49.0 14.0 48.5 13.9 L45.4 13.1 Q45.0 13.0 45.0 12.5 L45.0 12.4 Q45.0 12.0 45.4 12.0 L47.5 12.0 Q48.0 12.0 48.0 11.5 L48.0 11.4 Q48.0 11.0 47.5 11.0 L45.4 11.0 Q45.0 11.0 45.0 11.4 L45.0 11.5 Q45.0 12.0 44.5 12.0 L44.4 12.0 Q44.0 12.0 44.1 11.6 L44.8 10.3 Q45.0 10.0 44.5 10.0 L43.4 10.0 Q43.0 10.0 43.0 9.5 L43.0 9.4 Q43.0 9.0 42.5 9.0 L42.4 9.0 Q42.0 9.0 42.0 8.5 L42.0 6.4 Q42.0 6.0 41.5 6.0 L30.4 6.0 Q30.0 6.0 30.0 6.4 L30.0 6.5 Q30.0 7.0 29.5 7.0 L29.4 7.0 Q29.0 7.0 29.0 7.4 L29.0 7.5 Q29.0 8.0 28.5 8.0 L28.4 8.0 Q28.0 8.0 28.0 8.4 L28.0 8.5 Q28.0 9.0 27.5 9.0 L27.4 9.0 Q27.0 9.0 27.0 9.4 L27.0 9.5 Q27.0 10.0 26.5 10.0 L26.4 10.0 Q26.0 10.0 26.0 10.4 L26.0 10.5 Q26.0 11.0 25.5 11.0 L25.4 11.0 Q25.0 11.0 25.0 11.4 L25.0 11.5 Q25.0 12.0 24.5 12.0 L24.4 12.0 Q24.0 12.0 24.0 12.4 L24.0 12.5 Q24.0 13.0 23.5 13.0 L23.4 13.0 Q23.0 13.0 23.0 13.4 L23.0 13.5 Q23.0 14.0 22.5 14.0 L22.4 14.0 Q22.0 14.0 22.0 14.4 L22.0 14.5 Q22.0 15.0 21.5 15.0 L21.4 15.0 Q21.0 15.0 21.0 15.4 L21.0 15.5 Q21.0 16.0 20.5 16.0 L20.4 16.0 Q20.0 16.0 20.0 16.4 L20.0 16.5 Q20.0 17.0 19.5 17.0 L19.4 17.0 Q19.0 17.0 19.0 17.4 L19.0 17.5 Q19.0 18.0 18.6 18.2 L15.3 20.7 Q15.0 21.0 15.0 21.4 L15.0 22.5 Q15.0 23.0 15.4 23.0 L15.5 23.0 Q16.0 23.0 16.0 23.4 L16.0 23.5 Q16.0 24.0 16.4 24.0 L16.5 24.0 Q17.0 24.0 17.0 24.4 L17.0 24.5 Q17.0 25.0 17.4 25.0 L17.5 25.0 Q18.0 25.0 18.0 25.4 L18.0 25.5 Q18.0 26.0 18.4 26.0 L18.5 26.0 Q19.0 26.0 19.0 26.4 L19.0 26.5 Q19.0 27.0 19.4 27.0 L19.5 27.0 Q20.0 27.0 20.0 27.4 L20.0 27.5 Q20.0 28.0 20.4 28.0 L20.5 28.0 Q21.0 28.0 21.0 28.4 L21.0 28.5 Q21.0 29.0 21.3 29.2 L24.6 31.7 Q25.0 32.0 24.7 32.3 L23.2 34.6 Q23.0 35.0 23.4 35.0 L23.5 35.0 Q24.0 35.0 24.0 35.4 L24.0 35.5 Q24.0 36.0 24.4 36.0 L25.5 36.0 Q26.0 36.0 26.0 36.4 L26.0 36.5 Q26.0 37.0 25.5 37.0 L24.4 37.0 Q24.0 37.0 24.0 36.5 L24.0 36.4 Q24.0 36.0 23.5 36.0 L23.4 36.0 Q23.0 36.0 23.0 35.5 L23.0 35.4 Q23.0 35.0 22.5 35.0 L22.4 35.0 Q22.0 35.0 22.0 34.5 L22.0 34.4 Q22.0 34.0 21.5 34.0 L21.4 34.0 Q21.0 34.0 21.0 33.5 L21.0 33.4 Q21.0 33.0 20.5 33.0 L20.4 33.0 Q20.0 33.0 20.0 32.5 L20.0 32.4 Q20.0 32.0 19.5 32.0 L19.4 32.0 Q19.0 32.0 19.0 31.5 L19.0 31.4 Q19.0 31.0 18.5 31.0 L18.4 31.0 Q18.0 31.0 18.0 30.5 L18.0 30.4 Q18.0 30.0 17.5 30.0 L17.4 30.0 Q17.0 30.0 17.0 29.5 L17.0 29.4 Q17.0 29.0 16.5 29.0 L16.4 29.0 Q16.0 29.0 16.0 28.5 L16.0 28.4 Q16.0 28.0 15.6 27.7 L12.3 25.2 Q12.0 25.0 12.0 24.5 L12.0 23.4 Q12.0 23.0 12.4 23.0 L12.5 23.0 Q13.0 23.0 13.0 22.5 L13.0 22.4 Q13.0 22.0 13.4 22.0 L13.5 22.0 Q14.0 22.0 14.0 21.5 L14.0 21.4 Q14.0 21.0 14.4 21.0 L14.5 21.0 Q15.0 21.0 15.0 20.5 L15.0 20.4 Q15.0 20.0 15.4 20.0 L15.5 20.0 Q16.0 20.0 16.0 19.5 L16.0 19.4 Q16.0 19.0 16.4 19.0 L16.5 19.0 Q17.0 19.0 17.0 18.5 L17.0 18.4 Q17.0 18.0 17.4 18.0 L17.5 18.0 Q18.0 18.0 18.0 17.5 L18.0 17.4 Q18.0 17.0 18.4 17.0 L18.5 17.0 Q19.0 17.0 19.0 16.5 L19.0 16.4 Q19.0 16.0 19.4 16.0 L19.5 16.0 Q20.0 16.0 20.0 15.5 L20.0 15.4 Q20.0 15.0 20.4 15.0 L20.5 15.0 Q21.0 15.0 21.0 14.5 L21.0 14.4 Q21.0 14.0 21.4 14.0 L21.5 14.0 Q22.0 14.0 22.0 13.5 L22.0 13.4 Q22.0 13.0 22.4 13.0 L22.5 13.0 Q23.0 13.0 23.0 12.5 L23.0 12.4 Q23.0 12.0 23.4 12.0 L23.5 12.0 Q24.0 12.0 24.0 11.5 L24.0 11.4 Q24.0 11.0 24.4 11.0 L24.5 11.0 Q25.0 11.0 25.0 10.5 L25.0 10.4 Q25.0 10.0 25.4 10.0 L25.5 10.0 Q26.0 10.0 26.0 9.5 L26.0 9.4 Q26.0 9.0 26.4 9.0 L26.5 9.0 Q27.0 9.0 27.2 8.6 L29.7 5.3 Q30.0 5.0 30.4 5.0 L43.5 5.0 Q44.0 5.0 44.0 5.4 L44.0 5.5 Q44.0 6.0 44.4 6.0 L44.5 6.0 Q45.0 6.0 45.0 6.4 L45.0 7.5 Q45.0 8.0 45.4 8.0 L45.5 8.0 Q46.0 8.0 46.2 8.3 L48.7 11.6 Q49.0 12.0 49.4 12.0 L50.5 12.0 Q51.0 12.0 51.0 11.5 L51.0 11.4 Q51.0 11.0 51.4 11.0 L51.5 11.0 Q52.0 11.0 52.0 11.4 L52.0 11.5 Q52.0 12.0 52.4 12.0 Z M52.0 10.4 Q52.0 10.0 52.3 9.7 L54.6 8.2 Q55.0 8.0 55.0 7.5 L55.0 6.4 Q55.0 6.0 55.4 6.0 L55.5 6.0 Q56.0 6.0 56.0 5.5 L56.0 5.4 Q56.0 5.0 56.4 5.0 L69.5 5.0 Q70.0 5.0 70.0 5.4 L70.0 5.5 Q70.0 6.0 70.4 6.0 L70.5 6.0 Q71.0 6.0 71.0 6.4 L71.0 6.5 Q71.0 7.0 71.4 7.0 L71.5 7.0 Q72.0 7.0 72.0 7.4 L72.0 7.5 Q72.0 8.0 72.4 8.0 L72.5 8.0 Q73.0 8.0 73.0 8.4 L73.0 8.5 Q73.0 9.0 73.4 9.0 L73.5 9.0 Q74.0 9.0 74.0 9.4 L74.0 9.5 Q74.0 10.0 74.4 10.0 L74.5 10.0 Q75.0 10.0 75.0 10.4 L75.0 10.5 Q75.0 11.0 75.4 11.0 L75.5 11.0 Q76.0 11.0 76.0 11.4 L76.0 11.5 Q76.0 12.0 76.4 12.0 L76.5 12.0 Q77.0 12.0 77.0 12.4 L77.0 12.5 Q77.0 13.0 77.4 13.0 L77.5 13.0 Q78.0 13.0 78.0 13.4 L78.0 13.5 Q78.0 14.0 78.4 14.0 L78.5 14.0 Q79.0 14.0 79.0 14.4 L79.0 14.5 Q79.0 15.0 79.4 15.0 L79.5 15.0 Q80.0 15.0 80.0 15.4 L80.0 15.5 Q80.0 16.0 80.4 16.0 L80.5 16.0 Q81.0 16.0 81.0 16.4 L81.0 16.5 Q81.0 17.0 81.4 17.0 L81.5 17.0 Q82.0 17.0 82.0 17.4 L82.0 17.5 Q82.0 18.0 82.4 18.0 L82.5 18.0 Q83.0 18.0 83.0 18.4 L83.0 18.5 Q83.0 19.0 83.4 19.0 L83.5 19.0 Q84.0 19.0 84.0 19.4 L84.0 19.5 Q84.0 20.0 84.3 20.2 L87.6 22.7 Q88.0 23.0 88.0 23.4 L88.0 24.5 Q88.0 25.0 87.5 25.0 L87.4 25.0 Q87.0 25.0 87.0 25.4 L87.0 25.5 Q87.0 26.0 86.5 26.0 L86.4 26.0 Q86.0 26.0 86.0 26.4 L86.0 26.5 Q86.0 27.0 85.5 27.0 L85.4 27.0 Q85.0 27.0 85.0 27.4 L85.0 27.5 Q85.0 28.0 84.5 28.0 L84.4 28.0 Q84.0 28.0 84.0 28.4 L84.0 28.5 Q84.0 29.0 83.5 29.0 L83.4 29.0 Q83.0 29.0 83.0 29.4 L83.0 29.5 Q83.0 30.0 82.5 30.0 L82.4 30.0 Q82.0 30.0 82.0 30.4 L82.0 30.5 Q82.0 31.0 81.5 31.0 L81.4 31.0 Q81.0 31.0 81.0 31.4 L81.0 31.5 Q81.0 32.0 80.5 32.0 L80.4 32.0 Q80.0 32.0 80.0 32.4 L80.0 32.5 Q80.0 33.0 79.5 33.0 L79.4 33.0 Q79.0 33.0 78.7 33.3 L76.2 36.6 Q76.0 37.0 75.5 37.0 L74.4 37.0 Q74.0 37.0 74.0 36.5 L74.0 36.4 Q74.0 36.0 74.4 36.0 L75.5 36.0 Q76.0 36.0 76.0 35.5 L76.0 35.4 Q76.0 35.0 76.4 35.0 L76.5 35.0 Q77.0 35.0 76.7 34.6 L75.2 32.3 Q75.0 32.0 75.4 32.0 L75.5 32.0 Q76.0 32.0 76.0 31.5 L76.0 31.4 Q76.0 31.0 76.4 31.0 L76.5 31.0 Q77.0 31.0 77.0 30.5 L77.0 30.4 Q77.0 30.0 77.4 30.0 L77.5 30.0 Q78.0 30.0 78.0 29.5 L78.0 29.4 Q78.0 29.0 78.4 29.0 L78.5 29.0 Q79.0 29.0 79.0 28.5 L79.0 28.4 Q79.0 28.0 79.4 28.0 L79.5 28.0 Q80.0 28.0 80.0 27.5 L80.0 27.4 Q80.0 27.0 80.4 27.0 L80.5 27.0 Q81.0 27.0 81.0 26.5 L81.0 26.4 Q81.0 26.0 81.3 25.7 L84.6 23.2 Q85.0 23.0 85.0 22.5 L85.0 21.4 Q85.0 21.0 84.5 21.0 L84.4 21.0 Q84.0 21.0 84.0 20.5 L84.0 20.4 Q84.0 20.0 83.5 20.0 L83.4 20.0 Q83.0 20.0 83.0 19.5 L83.0 19.4 Q83.0 19.0 82.5 19.0 L82.4 19.0 Q82.0 19.0 82.0 18.5 L82.0 18.4 Q82.0 18.0 81.5 18.0 L81.4 18.0 Q81.0 18.0 81.0 17.5 L81.0 17.4 Q81.0 17.0 80.5 17.0 L80.4 17.0 Q80.0 17.0 80.0 16.5 L80.0 16.4 Q80.0 16.0 79.5 16.0 L79.4 16.0 Q79.0 16.0 79.0 15.5 L79.0 15.4 Q79.0 15.0 78.5 15.0 L78.4 15.0 Q78.0 15.0 78.0 14.5 L78.0 14.4 Q78.0 14.0 77.5 14.0 L77.4 14.0 Q77.0 14.0 77.0 13.5 L77.0 13.4 Q77.0 13.0 76.5 13.0 L76.4 13.0 Q76.0 13.0 76.0 12.5 L76.0 12.4 Q76.0 12.0 75.5 12.0 L75.4 12.0 Q75.0 12.0 75.0 11.5 L75.0 11.4 Q75.0 11.0 74.5 11.0 L74.4 11.0 Q74.0 11.0 74.0 10.5 L74.0 10.4 Q74.0 10.0 73.5 10.0 L73.4 10.0 Q73.0 10.0 72.7 9.6 L70.2 6.3 Q70.0 6.0 69.5 6.0 L58.4 6.0 Q58.0 6.0 58.0 6.4 L58.0 8.5 Q58.0 9.0 57.5 9.0 L57.4 9.0 Q57.0 9.0 57.0 9.4 L57.0 9.5 Q57.0 10.0 56.5 10.0 L55.4 10.0 Q55.0 10.0 55.1 10.3 L55.8 11.6 Q56.0 12.0 55.5 12.0 L55.4 12.0 Q55.0 12.0 55.0 11.5 L55.0 11.4 Q55.0 11.0 54.5 11.0 L52.4 11.0 Q52.0 11.0 52.0 10.5 Z M70.0 58.5 Q70.0 59.0 69.5 59.0 L30.4 59.0 Q30.0 59.0 30.0 58.5 L30.0 33.4 Q30.0 33.0 29.5 33.0 L29.4 33.0 Q29.0 33.0 28.7 33.3 L27.2 35.6 Q27.0 36.0 26.5 36.0 L26.4 36.0 Q26.0 36.0 26.0 35.5 L26.0 35.4 Q26.0 35.0 26.4 35.0 L26.5 35.0 Q27.0 35.0 27.0 34.5 L27.0 34.4 Q27.0 34.0 27.3 33.7 L30.6 31.2 Q31.0 31.0 31.0 31.4 L31.0 57.5 Q31.0 58.0 31.4 58.0 L68.5 58.0 Q69.0 58.0 69.0 57.5 L69.0 31.4 Q69.0 31.0 69.4 31.0 L69.5 31.0 Q70.0 31.0 70.0 31.4 L70.0 31.5 Q70.0 32.0 70.3 32.2 L73.6 34.7 Q74.0 35.0 74.0 35.4 L74.0 35.5 Q74.0 36.0 73.5 36.0 L73.4 36.0 Q73.0 36.0 73.0 35.5 L73.0 35.4 Q73.0 35.0 72.6 34.7 L70.3 33.2 Q70.0 33.0 70.0 33.4 Z" fill="rgb(0,0,0)" stroke="rgb(0,0,0)" stroke-width="0.1"/><path d="M15.2 22.3 Q15.0 22.0 15.4 22.0 L15.5 22.0 Q16.0 22.0 16.0 22.4 L16.0 22.5 Q16.0 23.0 16.4 23.0 L16.5 23.0 Q17.0 23.0 17.0 23.4 L17.0 23.5 Q17.0 24.0 17.4 24.0 L17.5 24.0 Q18.0 24.0 18.0 24.4 L18.0 24.5 Q18.0 25.0 18.4 25.0 L18.5 25.0 Q19.0 25.0 19.0 25.4 L19.0 25.5 Q19.0 26.0 19.4 26.0 L19.5 26.0 Q20.0 26.0 20.0 26.4 L20.0 26.5 Q20.0 27.0 20.4 27.0 L20.5 27.0 Q21.0 27.0 21.0 27.4 L21.0 27.5 Q21.0 28.0 21.4 28.0 L21.5 28.0 Q22.0 28.0 22.2 28.3 L24.7 31.6 Q25.0 32.0 24.5 32.0 L24.4 32.0 Q24.0 32.0 24.0 31.5 L24.0 31.4 Q24.0 31.0 23.5 31.0 L23.4 31.0 Q23.0 31.0 23.0 30.5 L23.0 30.4 Q23.0 30.0 22.5 30.0 L22.4 30.0 Q22.0 30.0 22.0 29.5 L22.0 29.4 Q22.0 29.0 21.5 29.0 L21.4 29.0 Q21.0 29.0 21.0 28.5 L21.0 28.4 Q21.0 28.0 20.5 28.0 L20.4 28.0 Q20.0 28.0 20.0 27.5 L20.0 27.4 Q20.0 27.0 19.5 27.0 L19.4 27.0 Q19.0 27.0 19.0 26.5 L19.0 26.4 Q19.0 26.0 18.5 26.0 L18.4 26.0 Q18.0 26.0 17.7 25.6 Z M84.6 22.2 Q85.0 22.0 85.0 22.4 L85.0 22.5 Q85.0 23.0 84.5 23.0 L84.4 23.0 Q84.0 23.0 84.0 23.4 L84.0 23.5 Q84.0 24.0 83.5 24.0 L83.4 24.0 Q83.0 24.0 83.0 24.4 L83.0 24.5 Q83.0 25.0 82.5 25.0 L82.4 25.0 Q82.0 25.0 82.0 25.4 L82.0 25.5 Q82.0 26.0 81.5 26.0 L81.4 26.0 Q81.0 26.0 81.0 26.4 L81.0 26.5 Q81.0 27.0 80.5 27.0 L80.4 27.0 Q80.0 27.0 80.0 27.4 L80.0 27.5 Q80.0 28.0 79.5 28.0 L79.4 28.0 Q79.0 28.0 79.0 28.4 L79.0 28.5 Q79.0 29.0 78.6 29.2 L75.3 31.7 Q75.0 32.0 75.0 31.5 L75.0 31.4 Q75.0 31.0 75.4 31.0 L75.5 31.0 Q76.0 31.0 76.0 30.5 L76.0 30.4 Q76.0 30.0 76.4 30.0 L76.5 30.0 Q77.0 30.0 77.0 29.5 L77.0 29.4 Q77.0 29.0 77.4 29.0 L77.5 29.0 Q78.0 29.0 78.0 28.5 L78.0 28.4 Q78.0 28.0 78.4 28.0 L78.5 28.0 Q79.0 28.0 79.0 27.5 L79.0 27.4 Q79.0 27.0 79.4 27.0 L79.5 27.0 Q80.0 27.0 80.0 26.5 L80.0 26.4 Q80.0 26.0 80.4 26.0 L80.5 26.0 Q81.0 26.0 81.0 25.5 L81.0 25.4 Q81.0 25.0 81.3 24.7 Z" fill="rgb(23,23,23)" stroke="rgb(23,23,23)" stroke-width="0.1"/><path d="M48.0 11.5 Q48.0 12.0 47.5 11.9 L43.4 11.0 Q43.0 11.0 43.0 10.5 L43.0 10.4 Q43.0 10.0 42.6 9.8 L41.3 9.1 Q41.0 9.0 41.0 8.5 L41.0 6.4 Q41.0 6.0 41.4 6.0 L41.5 6.0 Q42.0 6.0 42.0 6.4 L42.0 8.5 Q42.0 9.0 42.4 9.0 L42.5 9.0 Q43.0 9.0 43.0 9.4 L43.0 9.5 Q43.0 10.0 43.4 10.0 L47.5 10.9 Q48.0 11.0 48.0 11.4 Z M52.4 11.9 Q52.0 12.0 52.0 11.5 L52.0 11.4 Q52.0 11.0 52.4 10.9 L56.5 10.0 Q57.0 10.0 57.0 9.5 L57.0 9.4 Q57.0 9.0 57.4 9.0 L57.5 9.0 Q58.0 9.0 58.0 8.5 L58.0 6.4 Q58.0 6.0 58.4 6.0 L58.5 6.0 Q59.0 6.0 59.0 6.4 L59.0 8.5 Q59.0 9.0 58.5 9.0 L58.4 9.0 Q58.0 9.0 57.8 9.3 L57.1 10.6 Q57.0 11.0 56.5 11.0 Z" fill="rgb(54,54,54)" stroke="rgb(54,54,54)" stroke-width="0.1"/><path d="M37.0 18.4 Q37.0 18.0 37.4 18.0 L37.5 18.0 Q38.0 18.0 38.0 18.4 L38.0 19.5 Q38.0 20.0 38.4 20.0 L38.5 20.0 Q39.0 20.0 39.0 20.4 L39.0 20.5 Q39.0 21.0 38.5 21.0 L37.4 21.0 Q37.0 21.0 37.0 20.5 Z M42.5 18.1 Q43.0 18.0 43.0 18.4 L43.0 18.5 Q43.0 19.0 42.5 19.1 L39.4 19.9 Q39.0 20.0 39.0 19.5 L39.0 19.4 Q39.0 19.0 39.4 18.9 Z" fill="rgb(218,173,49)" stroke="rgb(218,173,49)" stroke-width="0.1"/></svg>