<svg class="camisa" viewBox="0 0 100 59" xmlns="http://www.w3.org/2000/svg" role="img"><path d="M67.0 57.6 Q67.0 58.0 66.6 58.0 L50.4 58.0 Q50.0 58.0 50.0 57.6 L50.0 57.4 Q50.0 57.0 49.6 57.0 L49.4 57.0 Q49.0 57.0 49.0 57.4 L49.0 57.6 Q49.0 58.0 48.6 58.0 L46.4 58.0 Q46.0 58.0 46.1 57.6 L46.9 53.4 Q47.0 53.0 46.6 53.0 L46.4 53.0 Q46.0 53.0 46.0 53.4 L46.0 55.6 Q46.0 56.0 45.6 56.0 L45.4 56.0 Q45.0 56.0 44.8 56.4 L44.2 57.6 Q44.0 58.0 43.6 58.0 L38.4 58.0 Q38.0 58.0 38.0 57.6 L38.0 57.4 Q38.0 57.0 38.4 57.0 L41.6 57.0 Q42.0 57.0 42.0 56.6 L42.0 56.4 Q42.0 56.0 42.4 56.2 L43.6 56.8 Q44.0 57.0 44.0 56.6 L44.0 55.4 Q44.0 55.0 43.6 55.0 L42.4 55.0 Q42.0 55.0 42.0 55.4 L42.0 55.6 Q42.0 56.0 41.6 56.0 L38.4 56.0 Q38.0 56.0 38.0 56.4 L38.0 56.6 Q38.0 57.0 37.6 57.0 L35.4 57.0 Q35.0 57.0 35.0 56.6 L35.0 56.4 Q35.0 56.0 35.4 56.0 L35.6 56.0 Q36.0 56.0 36.0 55.6 L36.0 52.4 Q36.0 52.0 36.4 52.0 L36.6 52.0 Q37.0 52.0 37.0 51.6 L37.0 50.4 Q37.0 50.0 37.4 50.0 L37.6 50.0 Q38.0 50.0 38.0 49.6 L38.0 47.4 Q38.0 47.0 38.4 47.0 L38.6 47.0 Q39.0 47.0 39.0 46.6 L39.0 45.4 Q39.0 45.0 39.4 45.0 L39.6 45.0 Q40.0 45.0 40.1 44.6 L40.9 41.4 Q41.0 41.0 40.6 41.0 L40.4 41.0 Q40.0 41.0 40.0 41.4 L40.0 42.6 Q40.0 43.0 39.6 43.0 L39.4 43.0 Q39.0 43.0 39.0 43.4 L39.0 44.6 Q39.0 45.0 38.6 45.0 L38.4 45.0 Q38.0 45.0 38.0 45.4 L38.0 46.6 Q38.0 47.0 37.6 47.0 L37.4 47.0 Q37.0 47.0 37.0 47.4 L37.0 49.6 Q37.0 50.0 36.6 50.0 L36.4 50.0 Q36.0 50.0 36.0 50.4 L36.0 51.6 Q36.0 52.0 35.6 52.0 L35.4 52.0 Q35.0 52.0 35.0 52.4 L35.0 53.6 Q35.0 54.0 34.6 54.0 L34.4 54.0 Q34.0 54.0 34.0 54.4 L34.0 55.6 Q34.0 56.0 33.6 56.0 L33.4 56.0 Q33.0 56.0 33.0 55.6 L33.0 46.4 Q33.0 46.0 33.4 45.9 L36.6 45.1 Q37.0 45.0 37.0 44.6 L37.0 44.4 Q37.0 44.0 36.6 44.1 L33.4 44.9 Q33.0 45.0 33.0 44.6 L33.0 30.4 Q33.0 30.0 32.6 30.0 L32.4 30.0 Q32.0 30.0 32.0 29.6 L33.0 20.4 Q33.0 20.0 33.4 19.8 L34.6 19.2 Q35.0 19.0 35.0 19.4 L35.0 19.6 Q35.0 20.0 35.4 20.2 L36.6 20.8 Q37.0 21.0 37.0 21.4 L37.0 22.6 Q37.0 23.0 37.4 23.0 L37.6 23.0 Q38.0 23.0 38.1 23.4 L38.9 26.6 Q39.0 27.0 39.4 27.0 L39.6 27.0 Q40.0 27.0 40.2 27.4 L40.8 28.6 Q41.0 29.0 41.4 29.0 L42.6 29.0 Q43.0 29.0 43.0 29.4 L43.0 29.6 Q43.0 30.0 43.4 30.0 L43.6 30.0 Q44.0 30.0 43.8 29.6 L43.2 28.4 Q43.0 28.0 42.6 28.0 L41.4 28.0 Q41.0 28.0 41.0 27.6 L41.0 27.4 Q41.0 27.0 40.6 27.0 L40.4 27.0 Q40.0 27.0 40.0 26.6 L40.0 25.4 Q40.0 25.0 39.6 25.0 L39.4 25.0 Q39.0 25.0 39.0 24.6 L39.0 23.4 Q39.0 23.0 38.6 23.0 L38.4 23.0 Q38.0 23.0 38.0 22.6 L38.0 21.4 Q38.0 21.0 38.4 21.0 L39.6 21.0 Q40.0 21.0 40.0 21.4 L40.0 21.6 Q40.0 22.0 40.4 22.0 L40.6 22.0 Q41.0 22.0 41.0 21.6 L41.0 21.4 Q41.0 21.0 41.4 21.0 L41.6 21.0 Q42.0 21.0 42.0 20.6 L42.0 19.4 Q42.0 19.0 42.4 19.0 L43.6 19.0 Q44.0 19.0 44.0 18.6 L44.0 18.4 Q44.0 18.0 43.6 18.0 L42.4 18.0 Q42.0 18.0 42.0 18.4 L42.0 18.6 Q42.0 19.0 41.6 19.0 L41.4 19.0 Q41.0 19.0 41.2 18.6 L41.8 17.4 Q42.0 17.0 41.6 17.0 L40.4 17.0 Q40.0 17.0 40.0 17.4 L40.0 18.6 Q40.0 19.0 39.6 19.0 L39.4 19.0 Q39.0 19.0 39.0 18.6 L39.0 18.4 Q39.0 18.0 38.6 18.2 L37.4 18.8 Q37.0 19.0 37.2 19.4 L37.8 20.6 Q38.0 21.0 37.7 20.7 L34.3 18.3 Q34.0 18.0 34.2 17.6 L34.8 16.4 Q35.0 16.0 35.4 16.1 L39.6 16.9 Q40.0 17.0 40.0 16.6 L40.0 16.4 Q40.0 16.0 39.6 16.0 L37.4 16.0 Q37.0 16.0 37.0 15.6 L37.0 15.4 Q37.0 15.0 36.6 15.0 L36.4 15.0 Q36.0 15.0 36.0 14.6 L36.0 14.4 Q36.0 14.0 36.4 14.0 L37.6 14.0 Q38.0 14.0 38.0 13.6 L38.0 13.4 Q38.0 13.0 38.4 13.0 L39.6 13.0 Q40.0 13.0 40.0 12.6 L40.0 12.4 Q40.0 12.0 39.6 12.1 L35.4 12.9 Q35.0 13.0 35.0 13.4 L35.0 14.6 Q35.0 15.0 34.6 15.0 L34.4 15.0 Q34.0 15.0 34.0 15.4 L34.0 16.6 Q34.0 17.0 33.6 17.0 L33.4 17.0 Q33.0 17.0 33.0 17.4 L33.0 19.6 Q33.0 20.0 32.6 20.0 L32.4 20.0 Q32.0 20.0 32.0 20.4 L32.0 23.6 Q32.0 24.0 31.6 24.0 L31.4 24.0 Q31.0 24.0 31.0 24.4 L31.0 30.6 Q31.0 31.0 30.6 31.0 L30.4 31.0 Q30.0 31.0 29.8 31.3 L28.2 33.7 Q28.0 34.0 27.6 34.0 L27.4 34.0 Q27.0 34.0 27.0 33.6 L27.0 33.4 Q27.0 33.0 26.6 33.0 L26.4 33.0 Q26.0 33.0 26.0 32.6 L26.0 32.4 Q26.0 32.0 25.6 32.0 L25.4 32.0 Q25.0 32.0 25.0 31.6 L25.0 31.4 Q25.0 31.0 24.6 31.0 L24.4 31.0 Q24.0 31.0 24.0 30.6 L24.0 30.4 Q24.0 30.0 23.6 30.0 L23.4 30.0 Q23.0 30.0 23.0 29.6 L23.0 29.4 Q23.0 29.0 22.6 29.0 L22.4 29.0 Q22.0 29.0 22.0 28.6 L22.0 28.4 Q22.0 28.0 21.6 28.0 L21.4 28.0 Q21.0 28.0 21.0 27.6 L21.0 27.4 Q21.0 27.0 20.6 27.0 L20.4 27.0 Q20.0 27.0 20.0 26.6 L20.0 26.4 Q20.0 26.0 19.6 26.0 L19.4 26.0 Q19.0 26.0 19.0 25.6 L19.0 25.4 Q19.0 25.0 18.6 25.0 L18.4 25.0 Q18.0 25.0 17.7 24.7 L15.3 21.3 Q15.0 21.0 15.3 20.7 L18.7 18.3 Q19.0 18.0 19.0 18.4 L19.0 23.6 Q19.0 24.0 19.4 24.0 L19.6 24.0 Q20.0 24.0 20.0 23.6 L20.0 23.4 Q20.0 23.0 20.4 23.0 L20.6 23.0 Q21.0 23.0 21.0 22.6 L21.0 18.4 Q21.0 18.0 21.4 18.0 L21.6 18.0 Q22.0 18.0 22.0 17.6 L22.0 17.4 Q22.0 17.0 22.4 17.0 L23.6 17.0 Q24.0 17.0 24.0 16.6 L24.0 16.4 Q24.0 16.0 24.4 16.0 L30.6 16.0 Q31.0 16.0 31.0 15.6 L31.0 15.4 Q31.0 15.0 30.6 15.0 L30.4 15.0 Q30.0 15.0 30.1 14.6 L30.9 11.4 Q31.0 11.0 31.4 11.0 L32.6 11.0 Q33.0 11.0 33.0 11.4 L33.0 11.6 Q33.0 12.0 33.4 12.2 L34.6 12.8 Q35.0 13.0 35.0 12.6 L35.0 12.4 Q35.0 12.0 34.7 11.7 L31.3 9.3 Q31.0 9.0 31.0 9.4 L31.0 9.6 Q31.0 10.0 30.6 10.0 L30.4 10.0 Q30.0 10.0 30.0 10.4 L30.0 10.6 Q30.0 11.0 29.6 11.0 L29.4 11.0 Q29.0 11.0 28.7 11.3 L26.3 14.7 Q26.0 15.0 25.6 15.0 L25.4 15.0 Q25.0 15.0 25.0 14.6 L25.0 14.4 Q25.0 14.0 24.6 14.0 L23.4 14.0 Q23.0 14.0 23.0 13.6 L23.0 13.4 Q23.0 13.0 23.4 13.0 L23.6 13.0 Q24.0 13.0 24.0 12.6 L24.0 12.4 Q24.0 12.0 24.4 12.0 L24.6 12.0 Q25.0 12.0 25.3 11.7 L27.7 8.3 Q28.0 8.0 28.4 8.0 L29.6 8.0 Q30.0 8.0 30.0 8.4 L30.0 8.6 Q30.0 9.0 30.4 9.0 L30.6 9.0 Q31.0 9.0 31.0 8.6 L31.0 8.4 Q31.0 8.0 30.6 8.0 L30.4 8.0 Q30.0 8.0 30.0 7.6 L30.0 6.4 Q30.0 6.0 30.4 6.0 L39.6 6.0 Q40.0 6.0 40.0 6.4 L40.0 7.6 Q40.0 8.0 39.6 8.0 L38.4 8.0 Q38.0 8.0 38.0 8.4 L38.0 8.6 Q38.0 9.0 38.4 9.0 L40.6 9.0 Q41.0 9.0 41.0 9.4 L41.0 10.6 Q41.0 11.0 40.6 11.0 L40.4 11.0 Q40.0 11.0 40.0 11.4 L40.0 11.6 Q40.0 12.0 40.4 12.0 L41.6 12.0 Q42.0 12.0 42.0 12.4 L42.0 12.6 Q42.0 13.0 42.4 12.9 L45.6 12.1 Q46.0 12.0 46.3 12.3 L48.7 15.7 Q49.0 16.0 49.4 16.0 L50.6 16.0 Q51.0 16.0 51.0 15.6 L51.0 15.4 Q51.0 15.0 51.4 14.8 L52.6 14.2 Q53.0 14.0 53.0 14.4 L53.0 16.6 Q53.0 17.0 53.4 17.0 L53.6 17.0 Q54.0 17.0 54.0 17.4 L54.0 19.6 Q54.0 20.0 54.4 20.0 L54.6 20.0 Q55.0 20.0 55.0 20.4 L55.0 20.6 Q55.0 21.0 55.4 21.0 L55.6 21.0 Q56.0 21.0 56.0 20.6 L56.0 20.4 Q56.0 20.0 55.6 20.0 L55.4 20.0 Q55.0 20.0 55.0 19.6 L55.0 17.4 Q55.0 17.0 54.6 17.0 L54.4 17.0 Q54.0 17.0 54.0 16.6 L54.0 14.4 Q54.0 14.0 53.6 14.0 L53.4 14.0 Q53.0 14.0 53.2 13.6 L53.8 12.4 Q54.0 12.0 54.4 12.0 L55.6 12.0 Q56.0 12.0 56.0 12.4 L56.0 12.6 Q56.0 13.0 56.4 12.9 L59.6 12.1 Q60.0 12.0 60.0 12.4 L60.0 12.6 Q60.0 13.0 60.4 13.1 L63.6 13.9 Q64.0 14.0 64.0 14.4 L64.0 14.6 Q64.0 15.0 64.4 15.0 L64.6 15.0 Q65.0 15.0 65.0 15.4 L65.0 16.6 Q65.0 17.0 65.4 17.0 L65.6 17.0 Q66.0 17.0 66.0 17.4 L66.0 19.6 Q66.0 20.0 66.4 20.0 L66.6 20.0 Q67.0 20.0 67.0 20.4 L67.0 23.6 Q67.0 24.0 67.4 24.0 L67.6 24.0 Q68.0 24.0 68.0 24.4 L68.0 29.6 Q68.0 30.0 67.6 30.0 L67.4 30.0 Q67.0 30.0 67.0 30.4 L67.0 43.6 Q67.0 44.0 66.6 44.0 L66.4 44.0 Q66.0 44.0 66.0 44.4 L66.0 46.6 Q66.0 47.0 66.4 47.0 L66.6 47.0 Q67.0 47.0 67.0 47.4 Z M60.0 6.4 Q60.0 6.0 60.4 6.0 L69.6 6.0 Q70.0 6.0 70.0 6.4 L70.0 7.6 Q70.0 8.0 70.4 8.0 L71.6 8.0 Q72.0 8.0 72.0 8.4 L72.0 8.6 Q72.0 9.0 72.4 9.0 L72.6 9.0 Q73.0 9.0 73.0 9.4 L73.0 9.6 Q73.0 10.0 73.4 10.0 L73.6 10.0 Q74.0 10.0 74.3 10.3 L76.7 13.7 Q77.0 14.0 76.6 14.0 L75.4 14.0 Q75.0 14.0 75.0 14.4 L75.0 14.6 Q75.0 15.0 74.6 15.0 L74.4 15.0 Q74.0 15.0 74.0 14.6 L74.0 14.4 Q74.0 14.0 73.6 14.0 L73.4 14.0 Q73.0 14.0 73.0 13.6 L73.0 13.4 Q73.0 13.0 72.7 12.7 L69.3 10.3 Q69.0 10.0 69.0 9.6 L69.0 9.4 Q69.0 9.0 69.4 9.0 L69.6 9.0 Q70.0 9.0 70.0 8.6 L70.0 8.4 Q70.0 8.0 69.6 8.0 L69.4 8.0 Q69.0 8.0 69.0 8.4 L69.0 8.6 Q69.0 9.0 68.6 9.2 L67.4 9.8 Q67.0 10.0 67.0 10.4 L67.0 10.6 Q67.0 11.0 67.4 11.0 L68.6 11.0 Q69.0 11.0 69.0 11.4 L69.0 12.6 Q69.0 13.0 69.4 13.0 L69.6 13.0 Q70.0 13.0 70.0 13.4 L70.0 14.6 Q70.0 15.0 69.6 15.0 L69.4 15.0 Q69.0 15.0 69.0 15.4 L69.0 15.6 Q69.0 16.0 69.4 16.0 L75.6 16.0 Q76.0 16.0 76.0 16.4 L76.0 16.6 Q76.0 17.0 76.4 17.0 L77.6 17.0 Q78.0 17.0 78.0 17.4 L78.0 17.6 Q78.0 18.0 78.4 18.0 L78.6 18.0 Q79.0 18.0 79.0 18.4 L79.0 22.6 Q79.0 23.0 79.4 23.0 L79.6 23.0 Q80.0 23.0 80.0 23.4 L80.0 23.6 Q80.0 24.0 80.4 24.0 L80.6 24.0 Q81.0 24.0 81.0 23.6 L81.0 18.4 Q81.0 18.0 81.3 18.3 L84.7 20.7 Q85.0 21.0 85.0 21.4 L85.0 21.6 Q85.0 22.0 84.6 22.0 L84.4 22.0 Q84.0 22.0 84.0 22.4 L84.0 22.6 Q84.0 23.0 83.6 23.0 L83.4 23.0 Q83.0 23.0 83.0 23.4 L83.0 23.6 Q83.0 24.0 82.6 24.0 L82.4 24.0 Q82.0 24.0 82.0 24.4 L82.0 24.6 Q82.0 25.0 81.6 25.0 L81.4 25.0 Q81.0 25.0 81.0 25.4 L81.0 25.6 Q81.0 26.0 80.6 26.0 L80.4 26.0 Q80.0 26.0 80.0 26.4 L80.0 26.6 Q80.0 27.0 79.6 27.0 L79.4 27.0 Q79.0 27.0 79.0 27.4 L79.0 27.6 Q79.0 28.0 78.6 28.0 L78.4 28.0 Q78.0 28.0 78.0 28.4 L78.0 28.6 Q78.0 29.0 77.6 29.0 L77.4 29.0 Q77.0 29.0 77.0 29.4 L77.0 29.6 Q77.0 30.0 76.6 30.0 L76.4 30.0 Q76.0 30.0 75.7 30.3 L73.3 33.7 Q73.0 34.0 72.7 33.7 L69.3 31.3 Q69.0 31.0 69.0 30.6 L69.0 24.4 Q69.0 24.0 68.6 24.0 L68.4 24.0 Q68.0 24.0 67.9 23.6 L67.1 17.4 Q67.0 17.0 66.6 17.0 L66.4 17.0 Q66.0 17.0 66.0 16.6 L66.0 15.4 Q66.0 15.0 65.6 15.0 L65.4 15.0 Q65.0 15.0 65.0 14.6 L65.0 13.4 Q65.0 13.0 65.4 13.0 L65.6 13.0 Q66.0 13.0 66.2 12.6 L66.8 11.4 Q67.0 11.0 66.6 11.0 L66.4 11.0 Q66.0 11.0 65.8 11.4 L65.2 12.6 Q65.0 13.0 64.6 12.9 L60.4 12.1 Q60.0 12.0 60.0 11.6 L60.0 11.4 Q60.0 11.0 59.6 11.0 L59.4 11.0 Q59.0 11.0 59.0 10.6 L59.0 9.4 Q59.0 9.0 59.4 9.1 L64.6 9.9 Q65.0 10.0 65.0 9.6 L65.0 9.4 Q65.0 9.0 64.6 8.9 L60.4 8.1 Q60.0 8.0 60.0 7.6 Z M34.4 9.0 Q34.0 9.0 34.0 9.4 L34.0 9.6 Q34.0 10.0 34.4 10.0 L37.6 10.0 Q38.0 10.0 38.0 9.6 L38.0 9.4 Q38.0 9.0 37.6 9.0 Z M46.0 14.4 Q46.0 14.0 45.6 14.0 L45.4 14.0 Q45.0 14.0 45.0 14.4 L45.0 15.6 Q45.0 16.0 45.4 16.0 L45.6 16.0 Q46.0 16.0 46.0 15.6 Z M62.0 14.4 Q62.0 14.0 61.6 14.0 L61.4 14.0 Q61.0 14.0 61.0 14.4 L61.0 15.6 Q61.0 16.0 61.4 16.0 L61.6 16.0 Q62.0 16.0 62.0 15.6 Z M45.0 16.4 Q45.0 16.0 44.6 16.0 L44.4 16.0 Q44.0 16.0 44.0 16.4 L44.0 16.6 Q44.0 17.0 44.4 17.0 L44.6 17.0 Q45.0 17.0 45.0 16.6 Z M61.0 16.4 Q61.0 16.0 60.6 16.0 L60.4 16.0 Q60.0 16.0 60.0 16.4 L60.0 17.6 Q60.0 18.0 60.4 18.0 L60.6 18.0 Q61.0 18.0 61.0 17.6 Z M55.6 25.0 Q56.0 25.0 56.0 24.6 L56.0 22.4 Q56.0 22.0 55.7 21.8 L53.3 20.2 Q53.0 20.0 53.0 20.4 L53.0 20.6 Q53.0 21.0 53.4 21.2 L54.6 21.8 Q55.0 22.0 55.0 22.4 L55.0 24.6 Q55.0 25.0 55.4 25.0 Z M40.0 20.4 Q40.0 20.0 40.4 20.0 L40.6 20.0 Q41.0 20.0 41.0 20.4 L41.0 20.6 Q41.0 21.0 40.6 21.0 L40.4 21.0 Q40.0 21.0 40.0 20.6 Z M51.4 21.0 Q51.0 21.0 51.0 21.4 L51.0 21.6 Q51.0 22.0 51.4 22.0 L52.6 22.0 Q53.0 22.0 53.0 21.6 L53.0 21.4 Q53.0 21.0 52.6 21.0 Z M50.1 23.4 Q50.0 23.0 49.6 23.0 L49.4 23.0 Q49.0 23.0 49.0 23.4 L49.0 29.6 Q49.0 30.0 48.6 30.0 L48.4 30.0 Q48.0 30.0 48.0 30.4 L48.0 30.6 Q48.0 31.0 47.6 31.0 L45.4 31.0 Q45.0 31.0 45.0 31.4 L45.0 31.6 Q45.0 32.0 45.4 32.0 L45.6 32.0 Q46.0 32.0 46.0 32.4 L46.0 33.6 Q46.0 34.0 46.4 34.0 L46.6 34.0 Q47.0 34.0 47.0 34.4 L47.0 34.6 Q47.0 35.0 46.6 34.8 L45.4 34.2 Q45.0 34.0 45.1 34.4 L45.9 37.6 Q46.0 38.0 46.4 38.0 L46.6 38.0 Q47.0 38.0 47.1 37.6 L47.9 34.4 Q48.0 34.0 48.4 34.0 L48.6 34.0 Q49.0 34.0 49.0 34.4 L49.0 34.6 Q49.0 35.0 49.3 35.3 L52.7 37.7 Q53.0 38.0 53.0 37.6 L53.0 35.4 Q53.0 35.0 52.6 34.9 L49.4 34.1 Q49.0 34.0 49.0 33.6 L49.0 31.4 Q49.0 31.0 49.4 31.0 L49.6 31.0 Q50.0 31.0 50.0 30.6 L50.0 30.4 Q50.0 30.0 50.4 30.0 L51.6 30.0 Q52.0 30.0 52.0 29.6 L52.0 28.4 Q52.0 28.0 51.6 28.2 L50.4 28.8 Q50.0 29.0 50.0 28.6 L50.0 28.4 Q50.0 28.0 50.4 28.0 L50.6 28.0 Q51.0 28.0 50.9 27.6 Z M67.0 24.4 Q67.0 24.0 66.6 24.0 L66.4 24.0 Q66.0 24.0 66.0 24.4 L66.0 25.6 Q66.0 26.0 66.4 26.0 L66.6 26.0 Q67.0 26.0 67.0 25.6 Z M55.0 25.4 Q55.0 25.0 54.6 25.0 L54.4 25.0 Q54.0 25.0 54.0 25.4 L54.0 26.6 Q54.0 27.0 54.4 27.0 L54.6 27.0 Q55.0 27.0 55.0 26.6 Z M66.0 26.4 Q66.0 26.0 65.6 26.0 L65.4 26.0 Q65.0 26.0 65.0 26.4 L65.0 27.6 Q65.0 28.0 65.4 28.0 L65.6 28.0 Q66.0 28.0 66.0 27.6 Z M30.0 27.4 Q30.0 27.0 29.6 27.0 L29.4 27.0 Q29.0 27.0 29.0 27.4 L29.0 27.6 Q29.0 28.0 29.4 28.0 L29.6 28.0 Q30.0 28.0 30.0 27.6 Z M54.0 27.4 Q54.0 27.0 53.6 27.0 L53.4 27.0 Q53.0 27.0 53.0 27.4 L53.0 27.6 Q53.0 28.0 53.4 28.0 L53.6 28.0 Q54.0 28.0 54.0 27.6 Z M71.6 30.0 Q72.0 30.0 72.0 29.6 L72.0 28.4 Q72.0 28.0 71.6 27.8 L70.4 27.2 Q70.0 27.0 70.0 27.4 L70.0 27.6 Q70.0 28.0 70.4 28.0 L70.6 28.0 Q71.0 28.0 71.0 28.4 L71.0 29.6 Q71.0 30.0 71.4 30.0 Z M25.0 28.4 Q25.0 28.0 24.6 28.0 L24.4 28.0 Q24.0 28.0 24.0 28.4 L24.0 28.6 Q24.0 29.0 24.4 29.0 L24.6 29.0 Q25.0 29.0 25.0 28.6 Z M29.0 28.4 Q29.0 28.0 28.6 28.0 L28.4 28.0 Q28.0 28.0 28.0 28.4 L28.0 29.6 Q28.0 30.0 28.4 30.0 L28.6 30.0 Q29.0 30.0 29.0 29.6 Z M63.0 36.6 Q63.0 37.0 63.4 37.0 L63.6 37.0 Q64.0 37.0 64.0 36.6 L64.0 34.4 Q64.0 34.0 64.4 34.0 L64.6 34.0 Q65.0 34.0 65.0 33.6 L65.0 28.4 Q65.0 28.0 64.6 28.2 L63.4 28.8 Q63.0 29.0 63.0 29.4 Z M76.0 28.4 Q76.0 28.0 75.6 28.0 L75.4 28.0 Q75.0 28.0 75.0 28.4 L75.0 28.6 Q75.0 29.0 75.4 29.0 L75.6 29.0 Q76.0 29.0 76.0 28.6 Z M43.0 30.4 Q43.0 30.0 42.6 30.0 L42.4 30.0 Q42.0 30.0 42.0 30.4 L42.0 30.6 Q42.0 31.0 42.4 31.0 L42.6 31.0 Q43.0 31.0 43.0 30.6 Z M42.0 31.4 Q42.0 31.0 41.6 31.0 L41.4 31.0 Q41.0 31.0 41.0 31.4 L41.0 31.6 Q41.0 32.0 41.4 32.0 L41.6 32.0 Q42.0 32.0 42.0 31.6 Z M43.4 32.0 Q43.0 32.0 43.0 32.4 L43.0 32.6 Q43.0 33.0 43.4 33.2 L44.6 33.8 Q45.0 34.0 45.0 33.6 L45.0 32.4 Q45.0 32.0 44.6 32.0 Z M41.4 33.0 Q41.0 33.0 41.0 33.4 L41.0 33.6 Q41.0 34.0 41.4 34.0 L42.6 34.0 Q43.0 34.0 43.0 33.6 L43.0 33.4 Q43.0 33.0 42.6 33.0 Z M63.0 37.4 Q63.0 37.0 62.6 37.0 L62.4 37.0 Q62.0 37.0 62.0 37.4 L62.0 39.6 Q62.0 40.0 62.4 40.0 L62.6 40.0 Q63.0 40.0 63.0 39.6 Z M41.0 39.4 Q41.0 39.0 40.6 39.0 L40.4 39.0 Q40.0 39.0 40.0 39.4 L40.0 39.6 Q40.0 40.0 40.4 40.0 L40.6 40.0 Q41.0 40.0 41.0 39.6 Z M66.0 39.4 Q66.0 39.0 65.6 39.0 L65.4 39.0 Q65.0 39.0 65.0 39.4 L65.0 39.6 Q65.0 40.0 65.4 40.0 L65.6 40.0 Q66.0 40.0 66.0 39.6 Z M54.4 40.1 Q54.0 40.0 54.0 40.4 L54.0 40.6 Q54.0 41.0 54.4 41.0 L55.6 41.0 Q56.0 41.0 56.0 41.4 L56.0 41.6 Q56.0 42.0 56.4 42.1 L59.6 42.9 Q60.0 43.0 60.2 43.4 L60.8 44.6 Q61.0 45.0 61.4 45.0 L61.6 45.0 Q62.0 45.0 62.0 44.6 L62.0 44.4 Q62.0 44.0 62.4 43.8 L63.6 43.2 Q64.0 43.0 64.0 42.6 L64.0 41.4 Q64.0 41.0 64.4 41.0 L64.6 41.0 Q65.0 41.0 65.0 40.6 L65.0 40.4 Q65.0 40.0 64.6 40.0 L64.4 40.0 Q64.0 40.0 64.0 40.4 L64.0 40.6 Q64.0 41.0 63.6 41.0 L63.4 41.0 Q63.0 41.0 63.0 41.4 L63.0 42.6 Q63.0 43.0 62.6 43.2 L61.4 43.8 Q61.0 44.0 61.1 43.6 L61.9 40.4 Q62.0 40.0 61.6 40.0 L61.4 40.0 Q61.0 40.0 61.0 40.4 L61.0 41.6 Q61.0 42.0 60.6 42.0 L58.4 42.0 Q58.0 42.0 58.0 41.6 L58.0 41.4 Q58.0 41.0 57.6 40.9 Z M35.4 41.2 Q35.0 41.0 35.0 41.4 L35.0 41.6 Q35.0 42.0 35.4 42.2 L36.6 42.8 Q37.0 43.0 37.0 42.6 L37.0 42.4 Q37.0 42.0 36.6 41.8 Z M49.0 41.4 Q49.0 41.0 48.6 41.0 L48.4 41.0 Q48.0 41.0 48.0 41.4 L48.0 44.6 Q48.0 45.0 48.4 45.0 L48.6 45.0 Q49.0 45.0 49.0 44.6 Z M52.4 41.0 Q52.0 41.0 52.0 41.4 L52.0 41.6 Q52.0 42.0 52.4 42.0 L53.6 42.0 Q54.0 42.0 54.0 41.6 L54.0 41.4 Q54.0 41.0 53.6 41.0 Z M52.4 44.0 Q52.0 44.0 52.0 44.4 L52.0 44.6 Q52.0 45.0 52.4 45.0 L53.6 45.0 Q54.0 45.0 54.0 45.4 L54.0 45.6 Q54.0 46.0 54.4 46.0 L54.6 46.0 Q55.0 46.0 54.8 45.6 L54.2 44.4 Q54.0 44.0 53.6 44.0 Z M44.0 47.4 Q44.0 47.0 43.6 47.0 L43.4 47.0 Q43.0 47.0 43.0 47.4 L43.0 48.6 Q43.0 49.0 43.4 49.0 L43.6 49.0 Q44.0 49.0 44.0 48.6 Z M48.0 47.4 Q48.0 47.0 47.6 47.0 L47.4 47.0 Q47.0 47.0 47.0 47.4 L47.0 47.6 Q47.0 48.0 47.4 48.0 L47.6 48.0 Q48.0 48.0 48.0 47.6 Z M60.0 47.4 Q60.0 47.0 59.6 47.0 L59.4 47.0 Q59.0 47.0 59.0 47.4 L59.0 51.6 Q59.0 52.0 59.4 52.0 L59.6 52.0 Q60.0 52.0 60.0 51.6 Z M66.0 47.4 Q66.0 47.0 65.6 47.0 L65.4 47.0 Q65.0 47.0 65.0 47.4 L65.0 48.6 Q65.0 49.0 65.4 49.0 L65.6 49.0 Q66.0 49.0 66.0 48.6 Z M46.4 48.0 Q46.0 48.0 46.0 48.4 L46.0 49.6 Q46.0 50.0 46.4 50.2 L47.6 50.8 Q48.0 51.0 48.0 50.6 L48.0 50.4 Q48.0 50.0 47.6 50.0 L47.4 50.0 Q47.0 50.0 47.0 49.6 L47.0 48.4 Q47.0 48.0 46.6 48.0 Z M53.0 48.4 Q53.0 48.0 52.6 48.0 L52.4 48.0 Q52.0 48.0 52.0 48.4 L52.0 51.6 Q52.0 52.0 52.4 52.0 L52.6 52.0 Q53.0 52.0 53.0 51.6 Z M43.0 49.4 Q43.0 49.0 42.6 49.0 L42.4 49.0 Q42.0 49.0 42.0 49.4 L42.0 51.6 Q42.0 52.0 42.4 52.0 L42.6 52.0 Q43.0 52.0 43.0 51.6 Z M56.0 49.4 Q56.0 49.0 55.6 49.0 L55.4 49.0 Q55.0 49.0 55.0 49.4 L55.0 51.6 Q55.0 52.0 55.4 52.0 L55.6 52.0 Q56.0 52.0 56.0 51.6 Z M63.0 49.4 Q63.0 49.0 62.6 49.0 L62.4 49.0 Q62.0 49.0 62.0 49.4 L62.0 49.6 Q62.0 50.0 62.4 50.0 L62.6 50.0 Q63.0 50.0 63.0 49.6 Z M45.4 50.2 Q45.0 50.0 45.0 50.4 L45.0 52.6 Q45.0 53.0 45.4 53.0 L45.6 53.0 Q46.0 53.0 46.2 52.6 L46.8 51.4 Q47.0 51.0 46.6 50.8 Z M62.0 50.4 Q62.0 50.0 61.6 50.0 L61.4 50.0 Q61.0 50.0 61.0 50.4 L61.0 51.6 Q61.0 52.0 61.4 52.0 L61.6 52.0 Q62.0 52.0 62.0 51.6 Z M64.0 51.4 Q64.0 51.0 63.6 51.0 L63.4 51.0 Q63.0 51.0 63.0 51.4 L63.0 53.6 Q63.0 54.0 63.4 54.0 L63.6 54.0 Q64.0 54.0 64.0 53.6 Z M42.0 52.4 Q42.0 52.0 41.6 52.0 L41.4 52.0 Q41.0 52.0 41.0 52.4 L41.0 53.6 Q41.0 54.0 41.4 54.0 L41.6 54.0 Q42.0 54.0 42.0 53.6 Z M52.0 52.4 Q52.0 52.0 51.6 52.0 L51.4 52.0 Q51.0 52.0 51.0 52.4 L51.0 54.6 Q51.0 55.0 51.4 55.0 L51.6 55.0 Q52.0 55.0 52.0 54.6 Z M55.0 52.4 Q55.0 52.0 54.6 52.0 L54.4 52.0 Q54.0 52.0 54.0 52.4 L54.0 54.6 Q54.0 55.0 54.4 55.0 L54.6 55.0 Q55.0 55.0 55.0 54.6 Z M59.0 52.4 Q59.0 52.0 58.6 52.0 L58.4 52.0 Q58.0 52.0 58.0 52.4 L58.0 56.6 Q58.0 57.0 58.4 57.0 L58.6 57.0 Q59.0 57.0 59.0 56.6 Z M63.0 54.4 Q63.0 54.0 62.6 54.0 L62.4 54.0 Q62.0 54.0 62.0 54.4 L62.0 55.6 Q62.0 56.0 62.4 56.0 L62.6 56.0 Q63.0 56.0 63.0 55.6 Z M49.0 55.4 Q49.0 55.0 48.6 55.0 L48.4 55.0 Q48.0 55.0 48.0 55.4 L48.0 56.6 Q48.0 57.0 48.4 57.0 L48.6 57.0 Q49.0 57.0 49.0 56.6 Z" fill="rgb(237,230,220)" stroke="rgb(237,230,220)" stroke-width="0.12"/><path d="M19.4 23.8 Q19.0 24.0 19.0 23.6 L19.0 17.4 Q19.0 17.0 19.4 17.0 L19.6 17.0 Q20.0 17.0 20.2 16.7 L21.8 14.3 Q22.0 14.0 22.4 14.0 L24.6 14.0 Q25.0 14.0 25.0 14.4 L25.0 14.6 Q25.0 15.0 25.4 15.0 L25.6 15.0 Q26.0 15.0 26.0 14.6 L26.0 14.4 Q26.0 14.0 26.4 14.0 L26.6 14.0 Q27.0 14.0 27.0 13.6 L27.0 13.4 Q27.0 13.0 27.3 12.7 L30.7 10.3 Q31.0 10.0 31.0 9.6 L31.0 9.4 Q31.0 9.0 30.6 8.8 L29.4 8.2 Q29.0 8.0 29.0 7.6 L29.0 7.4 Q29.0 7.0 29.4 7.0 L29.6 7.0 Q30.0 7.0 30.0 7.4 L30.0 7.6 Q30.0 8.0 30.4 8.0 L30.6 8.0 Q31.0 8.0 31.0 8.4 L31.0 8.6 Q31.0 9.0 31.4 9.0 L31.6 9.0 Q32.0 9.0 32.0 9.4 L32.0 9.6 Q32.0 10.0 32.4 10.0 L32.6 10.0 Q33.0 10.0 33.3 10.3 L35.7 13.7 Q36.0 14.0 35.6 14.0 L35.4 14.0 Q35.0 14.0 34.8 13.7 L33.2 11.3 Q33.0 11.0 32.6 11.0 L31.4 11.0 Q31.0 11.0 31.0 11.4 L31.0 12.6 Q31.0 13.0 30.6 13.0 L30.4 13.0 Q30.0 13.0 30.0 13.4 L30.0 14.6 Q30.0 15.0 30.4 15.0 L30.6 15.0 Q31.0 15.0 31.0 15.4 L31.0 15.6 Q31.0 16.0 30.6 16.0 L24.4 16.0 Q24.0 16.0 24.0 16.4 L24.0 16.6 Q24.0 17.0 23.6 17.0 L22.4 17.0 Q22.0 17.0 22.0 17.4 L22.0 17.6 Q22.0 18.0 21.6 18.0 L21.4 18.0 Q21.0 18.0 21.0 18.4 L21.0 22.6 Q21.0 23.0 20.6 23.2 Z M81.0 23.6 Q81.0 24.0 80.6 23.8 L79.4 23.2 Q79.0 23.0 79.0 22.6 L79.0 18.4 Q79.0 18.0 78.6 18.0 L78.4 18.0 Q78.0 18.0 78.0 17.6 L78.0 17.4 Q78.0 17.0 77.6 17.0 L76.4 17.0 Q76.0 17.0 76.0 16.6 L76.0 16.4 Q76.0 16.0 75.6 16.0 L69.4 16.0 Q69.0 16.0 69.0 15.6 L69.0 15.4 Q69.0 15.0 69.4 15.0 L69.6 15.0 Q70.0 15.0 69.9 14.6 L69.1 11.4 Q69.0 11.0 68.6 11.0 L67.4 11.0 Q67.0 11.0 66.8 11.3 L65.2 13.7 Q65.0 14.0 64.6 14.0 L64.4 14.0 Q64.0 14.0 64.0 13.6 L64.0 13.4 Q64.0 13.0 64.4 13.0 L64.6 13.0 Q65.0 13.0 65.0 12.6 L65.0 12.4 Q65.0 12.0 65.4 12.0 L65.6 12.0 Q66.0 12.0 66.0 11.6 L66.0 11.4 Q66.0 11.0 66.4 11.0 L66.6 11.0 Q67.0 11.0 67.0 10.6 L67.0 10.4 Q67.0 10.0 67.3 9.7 L70.7 7.3 Q71.0 7.0 70.8 7.3 L69.2 9.7 Q69.0 10.0 69.4 10.0 L69.6 10.0 Q70.0 10.0 70.0 10.4 L70.0 10.6 Q70.0 11.0 70.4 11.0 L70.6 11.0 Q71.0 11.0 71.3 11.3 L73.7 14.7 Q74.0 15.0 74.4 15.0 L74.6 15.0 Q75.0 15.0 75.0 14.6 L75.0 14.4 Q75.0 14.0 75.4 14.0 L77.6 14.0 Q78.0 14.0 78.0 14.4 L78.0 14.6 Q78.0 15.0 78.3 15.2 L80.7 16.8 Q81.0 17.0 81.0 17.4 Z M34.4 10.0 Q34.0 10.0 34.0 9.6 L34.0 9.4 Q34.0 9.0 34.4 9.0 L37.6 9.0 Q38.0 9.0 38.0 8.6 L38.0 8.4 Q38.0 8.0 38.4 8.0 L39.6 8.0 Q40.0 8.0 40.0 8.4 L40.0 8.6 Q40.0 9.0 39.6 9.0 L38.4 9.0 Q38.0 9.0 38.0 9.4 L38.0 9.6 Q38.0 10.0 37.6 10.0 Z M65.0 9.6 Q65.0 10.0 64.6 10.0 L62.4 10.0 Q62.0 10.0 62.0 9.6 L62.0 9.4 Q62.0 9.0 61.6 9.0 L60.4 9.0 Q60.0 9.0 60.0 8.6 L60.0 8.4 Q60.0 8.0 60.4 8.1 L64.6 8.9 Q65.0 9.0 65.0 9.4 Z M45.6 14.0 Q46.0 14.0 46.0 14.4 L46.0 15.6 Q46.0 16.0 45.6 16.2 L44.4 16.8 Q44.0 17.0 44.0 16.6 L44.0 16.4 Q44.0 16.0 44.4 16.0 L44.6 16.0 Q45.0 16.0 45.0 15.6 L45.0 14.4 Q45.0 14.0 45.4 14.0 Z M53.1 14.4 Q53.0 14.0 53.4 14.0 L53.6 14.0 Q54.0 14.0 54.0 14.4 L54.0 16.6 Q54.0 17.0 54.4 17.0 L54.6 17.0 Q55.0 17.0 55.0 17.4 L55.0 19.6 Q55.0 20.0 55.4 20.0 L55.6 20.0 Q56.0 20.0 56.0 20.4 L56.0 20.6 Q56.0 21.0 55.6 21.0 L55.4 21.0 Q55.0 21.0 55.0 21.4 L55.0 21.6 Q55.0 22.0 55.4 22.0 L55.6 22.0 Q56.0 22.0 56.0 22.4 L56.0 24.6 Q56.0 25.0 55.6 25.0 L55.4 25.0 Q55.0 25.0 55.0 25.4 L55.0 26.6 Q55.0 27.0 54.6 27.0 L54.4 27.0 Q54.0 27.0 54.0 27.4 L54.0 27.6 Q54.0 28.0 53.6 28.0 L53.4 28.0 Q53.0 28.0 53.0 27.6 L53.0 27.4 Q53.0 27.0 53.4 27.0 L53.6 27.0 Q54.0 27.0 54.0 26.6 L54.0 25.4 Q54.0 25.0 54.4 25.0 L54.6 25.0 Q55.0 25.0 55.0 24.6 L55.0 22.4 Q55.0 22.0 54.6 22.0 L54.4 22.0 Q54.0 22.0 54.2 21.6 L54.8 20.4 Q55.0 20.0 54.6 20.0 L54.4 20.0 Q54.0 20.0 53.8 20.4 L53.2 21.6 Q53.0 22.0 52.6 22.0 L51.4 22.0 Q51.0 22.0 51.0 21.6 L51.0 21.4 Q51.0 21.0 51.4 21.0 L52.6 21.0 Q53.0 21.0 53.0 20.6 L53.0 20.4 Q53.0 20.0 53.4 20.0 L53.6 20.0 Q54.0 20.0 53.9 19.6 Z M61.6 14.0 Q62.0 14.0 62.0 14.4 L62.0 15.6 Q62.0 16.0 61.6 16.0 L61.4 16.0 Q61.0 16.0 61.0 16.4 L61.0 17.6 Q61.0 18.0 60.6 18.0 L60.4 18.0 Q60.0 18.0 60.0 17.6 L60.0 16.4 Q60.0 16.0 60.4 16.0 L60.6 16.0 Q61.0 16.0 61.0 15.6 L61.0 14.4 Q61.0 14.0 61.4 14.0 Z M35.0 15.4 Q35.0 15.0 35.4 15.1 L39.6 15.9 Q40.0 16.0 40.0 16.4 L40.0 16.6 Q40.0 17.0 40.4 17.0 L41.6 17.0 Q42.0 17.0 42.0 17.4 L42.0 17.6 Q42.0 18.0 41.6 18.2 L40.4 18.8 Q40.0 19.0 40.0 18.6 L40.0 17.4 Q40.0 17.0 39.6 17.0 L37.4 17.0 Q37.0 17.0 37.0 16.6 L37.0 16.4 Q37.0 16.0 36.6 16.0 L35.4 16.0 Q35.0 16.0 35.0 15.6 Z M34.2 18.3 Q34.0 18.0 34.3 18.3 L37.7 20.7 Q38.0 21.0 38.0 21.4 L38.0 22.6 Q38.0 23.0 38.4 23.0 L38.6 23.0 Q39.0 23.0 39.1 23.4 L39.9 26.6 Q40.0 27.0 40.4 27.2 L43.6 28.8 Q44.0 29.0 43.8 29.3 L42.2 31.7 Q42.0 32.0 41.6 32.0 L41.4 32.0 Q41.0 32.0 41.0 31.6 L41.0 31.4 Q41.0 31.0 41.4 31.0 L41.6 31.0 Q42.0 31.0 42.2 30.6 L42.8 29.4 Q43.0 29.0 42.6 29.0 L41.4 29.0 Q41.0 29.0 41.0 28.6 L41.0 28.4 Q41.0 28.0 40.6 27.8 L39.4 27.2 Q39.0 27.0 39.0 26.6 L39.0 25.4 Q39.0 25.0 38.6 25.0 L38.4 25.0 Q38.0 25.0 37.9 24.6 L37.1 21.4 Q37.0 21.0 36.6 21.0 L36.4 21.0 Q36.0 21.0 35.8 20.7 Z M38.0 20.4 Q38.0 20.0 38.4 20.0 L38.6 20.0 Q39.0 20.0 39.0 20.4 L39.0 20.6 Q39.0 21.0 38.6 21.0 L38.4 21.0 Q38.0 21.0 38.0 20.6 Z M49.6 23.0 Q50.0 23.0 50.1 23.4 L51.9 29.6 Q52.0 30.0 51.6 30.0 L50.4 30.0 Q50.0 30.0 50.0 30.4 L50.0 30.6 Q50.0 31.0 49.6 31.0 L49.4 31.0 Q49.0 31.0 49.0 31.4 L49.0 33.6 Q49.0 34.0 49.4 34.1 L52.6 34.9 Q53.0 35.0 53.0 35.4 L53.0 37.6 Q53.0 38.0 52.6 38.0 L52.4 38.0 Q52.0 38.0 51.7 37.7 L49.3 34.3 Q49.0 34.0 48.6 34.0 L48.4 34.0 Q48.0 34.0 48.0 34.4 L48.0 35.6 Q48.0 36.0 47.6 36.0 L47.4 36.0 Q47.0 36.0 47.0 36.4 L47.0 37.6 Q47.0 38.0 46.6 38.0 L46.4 38.0 Q46.0 38.0 46.0 37.6 L46.0 36.4 Q46.0 36.0 45.6 36.0 L45.4 36.0 Q45.0 36.0 45.0 35.6 L45.0 34.4 Q45.0 34.0 45.4 34.2 L46.6 34.8 Q47.0 35.0 47.0 34.6 L47.0 34.4 Q47.0 34.0 46.6 34.0 L46.4 34.0 Q46.0 34.0 46.0 33.6 L46.0 32.4 Q46.0 32.0 45.6 32.0 L45.4 32.0 Q45.0 32.0 45.0 32.4 L45.0 33.6 Q45.0 34.0 44.6 34.0 L44.4 34.0 Q44.0 34.0 44.0 33.6 L44.0 33.4 Q44.0 33.0 43.6 33.0 L43.4 33.0 Q43.0 33.0 43.0 33.4 L43.0 33.6 Q43.0 34.0 42.6 34.0 L41.4 34.0 Q41.0 34.0 41.0 33.6 L41.0 33.4 Q41.0 33.0 41.4 33.0 L42.6 33.0 Q43.0 33.0 43.0 32.6 L43.0 32.4 Q43.0 32.0 43.4 32.0 L44.6 32.0 Q45.0 32.0 45.0 31.6 L45.0 31.4 Q45.0 31.0 45.4 31.0 L47.6 31.0 Q48.0 31.0 48.0 30.6 L48.0 30.4 Q48.0 30.0 48.4 30.0 L48.6 30.0 Q49.0 30.0 49.0 29.6 L49.0 23.4 Q49.0 23.0 49.4 23.0 Z M66.6 24.0 Q67.0 24.0 67.0 24.4 L67.0 25.6 Q67.0 26.0 66.6 26.0 L66.4 26.0 Q66.0 26.0 66.0 26.4 L66.0 27.6 Q66.0 28.0 65.6 28.0 L65.4 28.0 Q65.0 28.0 65.0 28.4 L65.0 33.6 Q65.0 34.0 64.6 34.0 L64.4 34.0 Q64.0 34.0 63.9 34.4 L63.1 39.6 Q63.0 40.0 62.6 40.0 L62.4 40.0 Q62.0 40.0 62.0 40.4 L62.0 41.6 Q62.0 42.0 61.6 42.0 L61.4 42.0 Q61.0 42.0 61.0 42.4 L61.0 43.6 Q61.0 44.0 61.4 44.0 L61.6 44.0 Q62.0 44.0 62.0 44.4 L62.0 44.6 Q62.0 45.0 61.6 45.0 L61.4 45.0 Q61.0 45.0 61.0 44.6 L61.0 44.4 Q61.0 44.0 60.6 44.0 L60.4 44.0 Q60.0 44.0 60.0 43.6 L60.0 43.4 Q60.0 43.0 59.6 43.0 L58.4 43.0 Q58.0 43.0 58.0 42.6 L58.0 42.4 Q58.0 42.0 58.4 42.0 L60.6 42.0 Q61.0 42.0 61.1 41.6 L61.9 37.4 Q62.0 37.0 62.4 37.0 L62.6 37.0 Q63.0 37.0 63.0 36.6 L63.0 29.4 Q63.0 29.0 63.4 28.8 L64.6 28.2 Q65.0 28.0 65.0 27.6 L65.0 26.4 Q65.0 26.0 65.4 26.0 L65.6 26.0 Q66.0 26.0 66.0 25.6 L66.0 24.4 Q66.0 24.0 66.4 24.0 Z M28.4 30.0 Q28.0 30.0 28.0 29.6 L28.0 28.4 Q28.0 28.0 28.4 27.8 L29.6 27.2 Q30.0 27.0 30.0 27.4 L30.0 27.6 Q30.0 28.0 29.6 28.0 L29.4 28.0 Q29.0 28.0 29.0 28.4 L29.0 29.6 Q29.0 30.0 28.6 30.0 Z M51.0 28.4 Q51.0 28.0 50.6 28.0 L50.4 28.0 Q50.0 28.0 50.0 28.4 L50.0 28.6 Q50.0 29.0 50.4 29.0 L50.6 29.0 Q51.0 29.0 51.0 28.6 Z M72.0 29.6 Q72.0 30.0 71.6 30.0 L71.4 30.0 Q71.0 30.0 71.0 29.6 L71.0 28.4 Q71.0 28.0 70.6 28.0 L70.4 28.0 Q70.0 28.0 70.0 27.6 L70.0 27.4 Q70.0 27.0 70.4 27.2 L71.6 27.8 Q72.0 28.0 72.0 28.4 Z M24.0 28.4 Q24.0 28.0 24.4 28.0 L24.6 28.0 Q25.0 28.0 25.0 28.4 L25.0 28.6 Q25.0 29.0 24.6 29.0 L24.4 29.0 Q24.0 29.0 24.0 28.6 Z M75.0 28.4 Q75.0 28.0 75.4 28.0 L75.6 28.0 Q76.0 28.0 76.0 28.4 L76.0 28.6 Q76.0 29.0 75.6 29.0 L75.4 29.0 Q75.0 29.0 75.0 28.6 Z M40.0 39.4 Q40.0 39.0 40.4 39.0 L40.6 39.0 Q41.0 39.0 41.0 39.4 L41.0 39.6 Q41.0 40.0 40.6 40.0 L40.4 40.0 Q40.0 40.0 40.0 39.6 Z M62.4 43.8 Q62.0 44.0 62.0 43.6 L62.0 43.4 Q62.0 43.0 62.4 43.0 L62.6 43.0 Q63.0 43.0 63.0 42.6 L63.0 41.4 Q63.0 41.0 63.3 40.8 L65.7 39.2 Q66.0 39.0 66.0 39.4 L66.0 39.6 Q66.0 40.0 65.6 40.2 L64.4 40.8 Q64.0 41.0 64.0 41.4 L64.0 42.6 Q64.0 43.0 63.6 43.2 Z M58.0 41.6 Q58.0 42.0 57.6 42.0 L56.4 42.0 Q56.0 42.0 56.0 41.6 L56.0 41.4 Q56.0 41.0 55.6 41.1 L52.4 41.9 Q52.0 42.0 52.0 41.6 L52.0 41.4 Q52.0 41.0 52.4 40.9 L55.6 40.1 Q56.0 40.0 56.0 40.4 L56.0 40.6 Q56.0 41.0 56.4 41.0 L57.6 41.0 Q58.0 41.0 58.0 41.4 Z M35.2 41.4 Q35.0 41.0 35.4 41.0 L35.6 41.0 Q36.0 41.0 36.2 41.4 L36.8 42.6 Q37.0 43.0 36.6 43.0 L36.4 43.0 Q36.0 43.0 35.8 42.6 Z M40.6 41.0 Q41.0 41.0 41.0 41.4 L41.0 42.6 Q41.0 43.0 40.6 43.0 L40.4 43.0 Q40.0 43.0 40.0 43.4 L40.0 44.6 Q40.0 45.0 39.6 45.0 L39.4 45.0 Q39.0 45.0 39.0 45.4 L39.0 46.6 Q39.0 47.0 38.6 47.0 L38.4 47.0 Q38.0 47.0 38.0 47.4 L38.0 49.6 Q38.0 50.0 37.6 50.0 L37.4 50.0 Q37.0 50.0 37.0 50.4 L37.0 51.6 Q37.0 52.0 36.6 52.0 L36.4 52.0 Q36.0 52.0 36.0 52.4 L36.0 55.6 Q36.0 56.0 35.6 56.0 L35.4 56.0 Q35.0 56.0 35.0 56.4 L35.0 56.6 Q35.0 57.0 35.4 57.0 L37.6 57.0 Q38.0 57.0 38.0 57.4 L38.0 57.6 Q38.0 58.0 37.6 58.0 L33.4 58.0 Q33.0 58.0 33.0 57.6 L33.0 56.4 Q33.0 56.0 33.4 56.0 L33.6 56.0 Q34.0 56.0 34.0 55.6 L34.0 54.4 Q34.0 54.0 34.4 54.0 L34.6 54.0 Q35.0 54.0 35.0 53.6 L35.0 52.4 Q35.0 52.0 35.4 52.0 L35.6 52.0 Q36.0 52.0 36.0 51.6 L36.0 50.4 Q36.0 50.0 36.4 50.0 L36.6 50.0 Q37.0 50.0 37.0 49.6 L37.0 47.4 Q37.0 47.0 37.4 47.0 L37.6 47.0 Q38.0 47.0 38.0 46.6 L38.0 45.4 Q38.0 45.0 38.4 45.0 L38.6 45.0 Q39.0 45.0 39.0 44.6 L39.0 43.4 Q39.0 43.0 39.4 43.0 L39.6 43.0 Q40.0 43.0 40.0 42.6 L40.0 41.4 Q40.0 41.0 40.4 41.0 Z M48.0 41.4 Q48.0 41.0 48.4 41.0 L48.6 41.0 Q49.0 41.0 49.0 41.4 L49.0 44.6 Q49.0 45.0 48.6 45.0 L48.4 45.0 Q48.0 45.0 48.0 44.6 Z M36.6 44.1 Q37.0 44.0 37.0 44.4 L37.0 44.6 Q37.0 45.0 36.6 45.1 L33.4 45.9 Q33.0 46.0 33.0 45.6 L33.0 45.4 Q33.0 45.0 33.4 44.9 Z M52.0 44.4 Q52.0 44.0 52.4 44.0 L53.6 44.0 Q54.0 44.0 54.2 44.4 L54.8 45.6 Q55.0 46.0 54.6 46.0 L54.4 46.0 Q54.0 46.0 54.0 45.6 L54.0 45.4 Q54.0 45.0 53.6 45.0 L52.4 45.0 Q52.0 45.0 52.0 44.6 Z M66.6 44.0 Q67.0 44.0 67.0 44.4 L67.0 46.6 Q67.0 47.0 66.6 47.0 L66.4 47.0 Q66.0 47.0 66.0 47.4 L66.0 48.6 Q66.0 49.0 65.6 49.0 L65.4 49.0 Q65.0 49.0 65.1 48.6 L65.9 44.4 Q66.0 44.0 66.4 44.0 Z M43.6 47.0 Q44.0 47.0 43.9 47.4 L43.1 51.6 Q43.0 52.0 42.6 52.0 L42.4 52.0 Q42.0 52.0 42.0 52.4 L42.0 53.6 Q42.0 54.0 41.6 54.0 L41.4 54.0 Q41.0 54.0 41.1 53.6 L41.9 49.4 Q42.0 49.0 42.4 49.0 L42.6 49.0 Q43.0 49.0 43.0 48.6 L43.0 47.4 Q43.0 47.0 43.4 47.0 Z M44.4 58.0 Q44.0 58.0 44.0 57.6 L44.0 57.4 Q44.0 57.0 44.4 56.8 L45.6 56.2 Q46.0 56.0 45.9 55.6 L45.1 50.4 Q45.0 50.0 45.4 50.2 L46.6 50.8 Q47.0 51.0 47.0 50.6 L47.0 50.4 Q47.0 50.0 46.6 50.0 L46.4 50.0 Q46.0 50.0 46.0 49.6 L46.0 48.4 Q46.0 48.0 46.4 47.8 L47.6 47.2 Q48.0 47.0 48.0 47.4 L48.0 47.6 Q48.0 48.0 47.6 48.0 L47.4 48.0 Q47.0 48.0 47.0 48.4 L47.0 49.6 Q47.0 50.0 47.4 50.0 L47.6 50.0 Q48.0 50.0 48.0 50.4 L48.0 50.6 Q48.0 51.0 47.6 51.2 L46.4 51.8 Q46.0 52.0 46.0 52.4 L46.0 52.6 Q46.0 53.0 46.4 53.0 L46.6 53.0 Q47.0 53.0 47.0 53.4 L47.0 55.6 Q47.0 56.0 46.6 56.0 L46.4 56.0 Q46.0 56.0 46.0 56.4 L46.0 57.6 Q46.0 58.0 45.6 58.0 Z M59.6 47.0 Q60.0 47.0 60.0 47.4 L60.0 51.6 Q60.0 52.0 59.6 52.0 L59.4 52.0 Q59.0 52.0 59.0 52.4 L59.0 56.6 Q59.0 57.0 58.6 57.0 L58.4 57.0 Q58.0 57.0 58.0 56.6 L58.0 52.4 Q58.0 52.0 58.4 52.0 L58.6 52.0 Q59.0 52.0 59.0 51.6 L59.0 47.4 Q59.0 47.0 59.4 47.0 Z M52.6 48.0 Q53.0 48.0 53.0 48.4 L53.0 51.6 Q53.0 52.0 52.6 52.0 L52.4 52.0 Q52.0 52.0 52.0 52.4 L52.0 54.6 Q52.0 55.0 51.6 55.0 L51.4 55.0 Q51.0 55.0 51.1 54.6 L51.9 48.4 Q52.0 48.0 52.4 48.0 Z M55.6 49.0 Q56.0 49.0 56.0 49.4 L56.0 51.6 Q56.0 52.0 55.6 52.0 L55.4 52.0 Q55.0 52.0 55.0 52.4 L55.0 54.6 Q55.0 55.0 54.6 55.0 L54.4 55.0 Q54.0 55.0 54.0 54.6 L54.0 52.4 Q54.0 52.0 54.4 52.0 L54.6 52.0 Q55.0 52.0 55.0 51.6 L55.0 49.4 Q55.0 49.0 55.4 49.0 Z M61.4 52.0 Q61.0 52.0 61.0 51.6 L61.0 50.4 Q61.0 50.0 61.4 49.8 L62.6 49.2 Q63.0 49.0 63.0 49.4 L63.0 49.6 Q63.0 50.0 62.6 50.0 L62.4 50.0 Q62.0 50.0 62.0 50.4 L62.0 51.6 Q62.0 52.0 61.6 52.0 Z M63.6 51.0 Q64.0 51.0 64.0 51.4 L64.0 53.6 Q64.0 54.0 63.6 54.0 L63.4 54.0 Q63.0 54.0 63.0 54.4 L63.0 55.6 Q63.0 56.0 62.6 56.0 L62.4 56.0 Q62.0 56.0 62.1 55.6 L62.9 51.4 Q63.0 51.0 63.4 51.0 Z M38.4 57.0 Q38.0 57.0 38.0 56.6 L38.0 56.4 Q38.0 56.0 38.4 56.0 L41.6 56.0 Q42.0 56.0 42.0 55.6 L42.0 55.4 Q42.0 55.0 42.4 55.0 L43.6 55.0 Q44.0 55.0 44.0 55.4 L44.0 56.6 Q44.0 57.0 43.6 57.0 L43.4 57.0 Q43.0 57.0 43.0 56.6 L43.0 56.4 Q43.0 56.0 42.6 56.0 L42.4 56.0 Q42.0 56.0 42.0 56.4 L42.0 56.6 Q42.0 57.0 41.6 57.0 Z M48.0 55.4 Q48.0 55.0 48.4 55.0 L48.6 55.0 Q49.0 55.0 49.0 55.4 L49.0 56.6 Q49.0 57.0 49.4 57.0 L49.6 57.0 Q50.0 57.0 50.0 57.4 L50.0 57.6 Q50.0 58.0 49.6 57.8 L48.4 57.2 Q48.0 57.0 48.0 56.6 Z" fill="rgb(209,202,194)" stroke="rgb(209,202,194)" stroke-width="0.12"/><path d="M50.6 13.0 Q51.0 13.0 51.0 13.4 L51.0 13.6 Q51.0 14.0 50.6 14.0 L49.4 14.0 Q49.0 14.0 49.0 13.6 L49.0 13.4 Q49.0 13.0 48.6 13.0 L48.4 13.0 Q48.0 13.0 48.0 12.6 L48.0 12.4 Q48.0 12.0 47.6 12.0 L47.4 12.0 Q47.0 12.0 47.0 11.6 L47.0 11.4 Q47.0 11.0 46.7 10.7 L43.3 8.3 Q43.0 8.0 43.0 7.6 L43.0 6.4 Q43.0 6.0 42.6 6.0 L30.4 6.0 Q30.0 6.0 30.0 6.4 L30.0 6.6 Q30.0 7.0 29.6 7.0 L29.4 7.0 Q29.0 7.0 29.0 7.4 L29.0 7.6 Q29.0 8.0 28.6 8.0 L28.4 8.0 Q28.0 8.0 28.0 8.4 L28.0 8.6 Q28.0 9.0 27.6 9.0 L27.4 9.0 Q27.0 9.0 27.0 9.4 L27.0 9.6 Q27.0 10.0 26.6 10.0 L26.4 10.0 Q26.0 10.0 26.0 10.4 L26.0 10.6 Q26.0 11.0 25.6 11.0 L25.4 11.0 Q25.0 11.0 25.0 11.4 L25.0 11.6 Q25.0 12.0 24.6 12.0 L24.4 12.0 Q24.0 12.0 24.0 12.4 L24.0 12.6 Q24.0 13.0 23.6 13.0 L23.4 13.0 Q23.0 13.0 23.0 13.4 L23.0 13.6 Q23.0 14.0 22.6 14.0 L22.4 14.0 Q22.0 14.0 22.0 14.4 L22.0 14.6 Q22.0 15.0 21.6 15.0 L21.4 15.0 Q21.0 15.0 21.0 15.4 L21.0 15.6 Q21.0 16.0 20.6 16.0 L20.4 16.0 Q20.0 16.0 20.0 16.4 L20.0 16.6 Q20.0 17.0 19.6 17.0 L19.4 17.0 Q19.0 17.0 19.0 17.4 L19.0 17.6 Q19.0 18.0 18.6 18.0 L18.4 18.0 Q18.0 18.0 18.0 18.4 L18.0 18.6 Q18.0 19.0 17.6 19.0 L17.4 19.0 Q17.0 19.0 17.0 19.4 L17.0 19.6 Q17.0 20.0 16.7 20.3 L13.3 22.7 Q13.0 23.0 13.0 23.4 L13.0 24.6 Q13.0 25.0 13.4 25.0 L13.6 25.0 Q14.0 25.0 14.0 25.4 L14.0 25.6 Q14.0 26.0 14.4 26.0 L14.6 26.0 Q15.0 26.0 15.0 26.4 L15.0 26.6 Q15.0 27.0 15.4 27.0 L15.6 27.0 Q16.0 27.0 16.0 27.4 L16.0 27.6 Q16.0 28.0 16.4 28.0 L16.6 28.0 Q17.0 28.0 17.0 28.4 L17.0 28.6 Q17.0 29.0 17.4 29.0 L17.6 29.0 Q18.0 29.0 18.0 29.4 L18.0 29.6 Q18.0 30.0 18.4 30.0 L18.6 30.0 Q19.0 30.0 19.0 30.4 L19.0 30.6 Q19.0 31.0 19.4 31.0 L19.6 31.0 Q20.0 31.0 20.0 31.4 L20.0 31.6 Q20.0 32.0 20.4 32.0 L20.6 32.0 Q21.0 32.0 21.3 32.3 L23.7 35.7 Q24.0 36.0 24.4 36.0 L25.6 36.0 Q26.0 36.0 26.0 36.4 L26.0 36.6 Q26.0 37.0 25.6 37.0 L24.4 37.0 Q24.0 37.0 24.0 36.6 L24.0 36.4 Q24.0 36.0 23.6 36.0 L23.4 36.0 Q23.0 36.0 23.0 35.6 L23.0 35.4 Q23.0 35.0 22.6 35.0 L22.4 35.0 Q22.0 35.0 22.0 34.6 L22.0 34.4 Q22.0 34.0 21.6 34.0 L21.4 34.0 Q21.0 34.0 21.0 33.6 L21.0 33.4 Q21.0 33.0 20.6 33.0 L20.4 33.0 Q20.0 33.0 20.0 32.6 L20.0 32.4 Q20.0 32.0 19.6 32.0 L19.4 32.0 Q19.0 32.0 19.0 31.6 L19.0 31.4 Q19.0 31.0 18.6 31.0 L18.4 31.0 Q18.0 31.0 18.0 30.6 L18.0 30.4 Q18.0 30.0 17.6 30.0 L17.4 30.0 Q17.0 30.0 17.0 29.6 L17.0 29.4 Q17.0 29.0 16.6 29.0 L16.4 29.0 Q16.0 29.0 16.0 28.6 L16.0 28.4 Q16.0 28.0 15.7 27.7 L12.3 25.3 Q12.0 25.0 12.0 24.6 L12.0 23.4 Q12.0 23.0 12.4 23.0 L12.6 23.0 Q13.0 23.0 13.0 22.6 L13.0 22.4 Q13.0 22.0 13.4 22.0 L13.6 22.0 Q14.0 22.0 14.0 21.6 L14.0 21.4 Q14.0 21.0 14.4 21.0 L14.6 21.0 Q15.0 21.0 15.0 20.6 L15.0 20.4 Q15.0 20.0 15.4 20.0 L15.6 20.0 Q16.0 20.0 16.0 19.6 L16.0 19.4 Q16.0 19.0 16.4 19.0 L16.6 19.0 Q17.0 19.0 17.0 18.6 L17.0 18.4 Q17.0 18.0 17.4 18.0 L17.6 18.0 Q18.0 18.0 18.0 17.6 L18.0 17.4 Q18.0 17.0 18.4 17.0 L18.6 17.0 Q19.0 17.0 19.0 16.6 L19.0 16.4 Q19.0 16.0 19.4 16.0 L19.6 16.0 Q20.0 16.0 20.0 15.6 L20.0 15.4 Q20.0 15.0 20.4 15.0 L20.6 15.0 Q21.0 15.0 21.0 14.6 L21.0 14.4 Q21.0 14.0 21.4 14.0 L21.6 14.0 Q22.0 14.0 22.0 13.6 L22.0 13.4 Q22.0 13.0 22.4 13.0 L22.6 13.0 Q23.0 13.0 23.0 12.6 L23.0 12.4 Q23.0 12.0 23.4 12.0 L23.6 12.0 Q24.0 12.0 24.0 11.6 L24.0 11.4 Q24.0 11.0 24.4 11.0 L24.6 11.0 Q25.0 11.0 25.0 10.6 L25.0 10.4 Q25.0 10.0 25.4 10.0 L25.6 10.0 Q26.0 10.0 26.0 9.6 L26.0 9.4 Q26.0 9.0 26.4 9.0 L26.6 9.0 Q27.0 9.0 27.3 8.7 L29.7 5.3 Q30.0 5.0 30.4 5.0 L42.6 5.0 Q43.0 5.0 43.0 5.4 L43.0 5.6 Q43.0 6.0 43.4 6.0 L43.6 6.0 Q44.0 6.0 44.0 6.4 L44.0 7.6 Q44.0 8.0 44.4 8.0 L44.6 8.0 Q45.0 8.0 45.0 8.4 L45.0 8.6 Q45.0 9.0 45.4 9.0 L45.6 9.0 Q46.0 9.0 46.3 9.3 L48.7 12.7 Q49.0 13.0 49.4 13.0 Z M51.0 12.4 Q51.0 12.0 51.4 12.0 L51.6 12.0 Q52.0 12.0 52.0 11.6 L52.0 11.4 Q52.0 11.0 52.3 10.7 L55.7 8.3 Q56.0 8.0 56.0 7.6 L56.0 6.4 Q56.0 6.0 56.4 6.0 L56.6 6.0 Q57.0 6.0 57.0 5.6 L57.0 5.4 Q57.0 5.0 57.4 5.0 L69.6 5.0 Q70.0 5.0 70.0 5.4 L70.0 5.6 Q70.0 6.0 70.4 6.0 L70.6 6.0 Q71.0 6.0 71.0 6.4 L71.0 6.6 Q71.0 7.0 71.4 7.0 L71.6 7.0 Q72.0 7.0 72.0 7.4 L72.0 7.6 Q72.0 8.0 72.4 8.0 L72.6 8.0 Q73.0 8.0 73.0 8.4 L73.0 8.6 Q73.0 9.0 73.4 9.0 L73.6 9.0 Q74.0 9.0 74.0 9.4 L74.0 9.6 Q74.0 10.0 74.4 10.0 L74.6 10.0 Q75.0 10.0 75.0 10.4 L75.0 10.6 Q75.0 11.0 75.4 11.0 L75.6 11.0 Q76.0 11.0 76.0 11.4 L76.0 11.6 Q76.0 12.0 76.4 12.0 L76.6 12.0 Q77.0 12.0 77.0 12.4 L77.0 12.6 Q77.0 13.0 77.4 13.0 L77.6 13.0 Q78.0 13.0 78.0 13.4 L78.0 13.6 Q78.0 14.0 78.4 14.0 L78.6 14.0 Q79.0 14.0 79.0 14.4 L79.0 14.6 Q79.0 15.0 79.4 15.0 L79.6 15.0 Q80.0 15.0 80.0 15.4 L80.0 15.6 Q80.0 16.0 80.4 16.0 L80.6 16.0 Q81.0 16.0 81.0 16.4 L81.0 16.6 Q81.0 17.0 81.4 17.0 L81.6 17.0 Q82.0 17.0 82.0 17.4 L82.0 17.6 Q82.0 18.0 82.4 18.0 L82.6 18.0 Q83.0 18.0 83.0 18.4 L83.0 18.6 Q83.0 19.0 83.4 19.0 L83.6 19.0 Q84.0 19.0 84.0 19.4 L84.0 19.6 Q84.0 20.0 84.3 20.3 L87.7 22.7 Q88.0 23.0 88.0 23.4 L88.0 24.6 Q88.0 25.0 87.6 25.0 L87.4 25.0 Q87.0 25.0 87.0 25.4 L87.0 25.6 Q87.0 26.0 86.6 26.0 L86.4 26.0 Q86.0 26.0 86.0 26.4 L86.0 26.6 Q86.0 27.0 85.6 27.0 L85.4 27.0 Q85.0 27.0 85.0 27.4 L85.0 27.6 Q85.0 28.0 84.6 28.0 L84.4 28.0 Q84.0 28.0 84.0 28.4 L84.0 28.6 Q84.0 29.0 83.6 29.0 L83.4 29.0 Q83.0 29.0 83.0 29.4 L83.0 29.6 Q83.0 30.0 82.6 30.0 L82.4 30.0 Q82.0 30.0 82.0 30.4 L82.0 30.6 Q82.0 31.0 81.6 31.0 L81.4 31.0 Q81.0 31.0 81.0 31.4 L81.0 31.6 Q81.0 32.0 80.6 32.0 L80.4 32.0 Q80.0 32.0 80.0 32.4 L80.0 32.6 Q80.0 33.0 79.6 33.0 L79.4 33.0 Q79.0 33.0 78.7 33.3 L76.3 36.7 Q76.0 37.0 75.6 37.0 L74.4 37.0 Q74.0 37.0 74.0 36.6 L74.0 36.4 Q74.0 36.0 74.4 36.0 L75.6 36.0 Q76.0 36.0 76.0 35.6 L76.0 35.4 Q76.0 35.0 76.4 35.0 L76.6 35.0 Q77.0 35.0 77.0 34.6 L77.0 34.4 Q77.0 34.0 77.4 34.0 L77.6 34.0 Q78.0 34.0 78.0 33.6 L78.0 33.4 Q78.0 33.0 78.4 33.0 L78.6 33.0 Q79.0 33.0 79.0 32.6 L79.0 32.4 Q79.0 32.0 79.4 32.0 L79.6 32.0 Q80.0 32.0 80.0 31.6 L80.0 31.4 Q80.0 31.0 80.4 31.0 L80.6 31.0 Q81.0 31.0 81.0 30.6 L81.0 30.4 Q81.0 30.0 81.4 30.0 L81.6 30.0 Q82.0 30.0 82.0 29.6 L82.0 29.4 Q82.0 29.0 82.4 29.0 L82.6 29.0 Q83.0 29.0 83.0 28.6 L83.0 28.4 Q83.0 28.0 83.3 27.7 L86.7 25.3 Q87.0 25.0 87.0 24.6 L87.0 23.4 Q87.0 23.0 86.6 23.0 L86.4 23.0 Q86.0 23.0 86.0 22.6 L86.0 22.4 Q86.0 22.0 85.6 22.0 L85.4 22.0 Q85.0 22.0 85.0 21.6 L85.0 21.4 Q85.0 21.0 84.6 21.0 L84.4 21.0 Q84.0 21.0 84.0 20.6 L84.0 20.4 Q84.0 20.0 83.6 20.0 L83.4 20.0 Q83.0 20.0 83.0 19.6 L83.0 19.4 Q83.0 19.0 82.6 19.0 L82.4 19.0 Q82.0 19.0 82.0 18.6 L82.0 18.4 Q82.0 18.0 81.6 18.0 L81.4 18.0 Q81.0 18.0 81.0 17.6 L81.0 17.4 Q81.0 17.0 80.6 17.0 L80.4 17.0 Q80.0 17.0 80.0 16.6 L80.0 16.4 Q80.0 16.0 79.6 16.0 L79.4 16.0 Q79.0 16.0 79.0 15.6 L79.0 15.4 Q79.0 15.0 78.6 15.0 L78.4 15.0 Q78.0 15.0 78.0 14.6 L78.0 14.4 Q78.0 14.0 77.6 14.0 L77.4 14.0 Q77.0 14.0 77.0 13.6 L77.0 13.4 Q77.0 13.0 76.6 13.0 L76.4 13.0 Q76.0 13.0 76.0 12.6 L76.0 12.4 Q76.0 12.0 75.6 12.0 L75.4 12.0 Q75.0 12.0 75.0 11.6 L75.0 11.4 Q75.0 11.0 74.6 11.0 L74.4 11.0 Q74.0 11.0 74.0 10.6 L74.0 10.4 Q74.0 10.0 73.6 10.0 L73.4 10.0 Q73.0 10.0 72.7 9.7 L70.3 6.3 Q70.0 6.0 69.6 6.0 L57.4 6.0 Q57.0 6.0 57.0 6.4 L57.0 7.6 Q57.0 8.0 56.6 8.0 L56.4 8.0 Q56.0 8.0 56.0 8.4 L56.0 8.6 Q56.0 9.0 55.6 9.0 L55.4 9.0 Q55.0 9.0 54.7 9.3 L52.3 12.7 Q52.0 13.0 51.6 13.0 L51.4 13.0 Q51.0 13.0 51.0 12.6 Z M70.0 58.6 Q70.0 59.0 69.6 59.0 L30.4 59.0 Q30.0 59.0 30.0 58.6 L30.0 33.4 Q30.0 33.0 29.6 33.0 L29.4 33.0 Q29.0 33.0 28.8 33.3 L27.2 35.7 Q27.0 36.0 26.6 36.0 L26.4 36.0 Q26.0 36.0 26.0 35.6 L26.0 35.4 Q26.0 35.0 26.4 35.0 L26.6 35.0 Q27.0 35.0 27.0 34.6 L27.0 34.4 Q27.0 34.0 27.3 33.7 L30.7 31.3 Q31.0 31.0 31.0 31.4 L31.0 57.6 Q31.0 58.0 31.4 58.0 L68.6 58.0 Q69.0 58.0 69.0 57.6 L69.0 31.4 Q69.0 31.0 69.4 31.0 L69.6 31.0 Q70.0 31.0 70.0 31.4 L70.0 31.6 Q70.0 32.0 70.3 32.3 L73.7 34.7 Q74.0 35.0 74.0 35.4 L74.0 35.6 Q74.0 36.0 73.6 36.0 L73.4 36.0 Q73.0 36.0 73.0 35.6 L73.0 35.4 Q73.0 35.0 72.7 34.8 L70.3 33.2 Q70.0 33.0 70.0 33.4 Z" fill="rgb(0,0,0)" stroke="rgb(0,0,0)" stroke-width="0.12"/><path d="M46.0 11.6 Q46.0 12.0 45.6 12.0 L43.4 12.0 Q43.0 12.0 42.9 11.6 L42.1 6.4 Q42.0 6.0 42.4 6.0 L42.6 6.0 Q43.0 6.0 43.0 6.4 L43.0 7.6 Q43.0 8.0 43.3 8.2 L45.7 9.8 Q46.0 10.0 46.0 10.4 Z M54.4 12.0 Q54.0 12.0 54.0 11.6 L54.0 10.4 Q54.0 10.0 54.4 10.0 L54.6 10.0 Q55.0 10.0 55.0 9.6 L55.0 9.4 Q55.0 9.0 55.4 8.8 L56.6 8.2 Q57.0 8.0 57.0 7.6 L57.0 6.4 Q57.0 6.0 57.4 6.0 L57.6 6.0 Q58.0 6.0 57.9 6.4 L57.1 11.6 Q57.0 12.0 56.6 12.0 Z M37.0 19.4 Q37.0 19.0 37.4 19.0 L37.6 19.0 Q38.0 19.0 38.0 18.6 L38.0 18.4 Q38.0 18.0 38.4 18.0 L38.6 18.0 Q39.0 18.0 39.0 18.4 L39.0 18.6 Q39.0 19.0 39.4 19.0 L41.6 19.0 Q42.0 19.0 42.0 19.4 L42.0 20.6 Q42.0 21.0 41.6 21.2 L40.4 21.8 Q40.0 22.0 40.2 21.6 L40.8 20.4 Q41.0 20.0 40.6 20.2 L39.4 20.8 Q39.0 21.0 39.0 20.6 L39.0 20.4 Q39.0 20.0 38.6 20.0 L37.4 20.0 Q37.0 20.0 37.0 19.6 Z M42.0 18.4 Q42.0 18.0 42.4 18.0 L43.6 18.0 Q44.0 18.0 44.0 18.4 L44.0 18.6 Q44.0 19.0 43.6 19.0 L42.4 19.0 Q42.0 19.0 42.0 18.6 Z M14.3 22.3 Q14.0 22.0 14.4 22.0 L15.6 22.0 Q16.0 22.0 16.0 22.4 L16.0 22.6 Q16.0 23.0 16.4 23.0 L16.6 23.0 Q17.0 23.0 17.0 23.4 L17.0 23.6 Q17.0 24.0 17.4 24.0 L17.6 24.0 Q18.0 24.0 18.0 24.4 L18.0 24.6 Q18.0 25.0 18.4 25.0 L18.6 25.0 Q19.0 25.0 19.0 25.4 L19.0 25.6 Q19.0 26.0 19.4 26.0 L19.6 26.0 Q20.0 26.0 20.0 26.4 L20.0 26.6 Q20.0 27.0 20.4 27.0 L20.6 27.0 Q21.0 27.0 21.0 27.4 L21.0 27.6 Q21.0 28.0 21.4 28.0 L21.6 28.0 Q22.0 28.0 22.0 28.4 L22.0 28.6 Q22.0 29.0 22.4 29.0 L22.6 29.0 Q23.0 29.0 23.0 29.4 L23.0 29.6 Q23.0 30.0 23.3 30.3 L26.7 32.7 Q27.0 33.0 27.0 33.4 L27.0 34.6 Q27.0 35.0 26.6 35.0 L26.4 35.0 Q26.0 35.0 26.0 34.6 L26.0 34.4 Q26.0 34.0 25.6 34.0 L25.4 34.0 Q25.0 34.0 25.0 33.6 L25.0 33.4 Q25.0 33.0 24.6 33.0 L24.4 33.0 Q24.0 33.0 24.0 32.6 L24.0 32.4 Q24.0 32.0 23.6 32.0 L23.4 32.0 Q23.0 32.0 23.0 31.6 L23.0 31.4 Q23.0 31.0 22.6 31.0 L22.4 31.0 Q22.0 31.0 22.0 30.6 L22.0 30.4 Q22.0 30.0 21.6 30.0 L21.4 30.0 Q21.0 30.0 21.0 29.6 L21.0 29.4 Q21.0 29.0 20.6 29.0 L20.4 29.0 Q20.0 29.0 20.0 28.6 L20.0 28.4 Q20.0 28.0 19.6 28.0 L19.4 28.0 Q19.0 28.0 19.0 27.6 L19.0 27.4 Q19.0 27.0 18.6 27.0 L18.4 27.0 Q18.0 27.0 18.0 26.6 L18.0 26.4 Q18.0 26.0 17.6 26.0 L17.4 26.0 Q17.0 26.0 16.7 25.7 Z M85.6 22.0 Q86.0 22.0 86.0 22.4 L86.0 22.6 Q86.0 23.0 85.6 23.0 L85.4 23.0 Q85.0 23.0 85.0 23.4 L85.0 23.6 Q85.0 24.0 84.6 24.0 L84.4 24.0 Q84.0 24.0 84.0 24.4 L84.0 24.6 Q84.0 25.0 83.6 25.0 L83.4 25.0 Q83.0 25.0 83.0 25.4 L83.0 25.6 Q83.0 26.0 82.6 26.0 L82.4 26.0 Q82.0 26.0 82.0 26.4 L82.0 26.6 Q82.0 27.0 81.6 27.0 L81.4 27.0 Q81.0 27.0 81.0 27.4 L81.0 27.6 Q81.0 28.0 80.6 28.0 L80.4 28.0 Q80.0 28.0 80.0 28.4 L80.0 28.6 Q80.0 29.0 79.6 29.0 L79.4 29.0 Q79.0 29.0 79.0 29.4 L79.0 29.6 Q79.0 30.0 78.6 30.0 L78.4 30.0 Q78.0 30.0 78.0 30.4 L78.0 30.6 Q78.0 31.0 77.6 31.0 L77.4 31.0 Q77.0 31.0 77.0 31.4 L77.0 31.6 Q77.0 32.0 76.7 32.3 L73.3 34.7 Q73.0 35.0 73.0 34.6 L73.0 33.4 Q73.0 33.0 73.4 33.0 L73.6 33.0 Q74.0 33.0 74.0 32.6 L74.0 32.4 Q74.0 32.0 74.4 32.0 L74.6 32.0 Q75.0 32.0 75.0 31.6 L75.0 31.4 Q75.0 31.0 75.4 31.0 L75.6 31.0 Q76.0 31.0 76.0 30.6 L76.0 30.4 Q76.0 30.0 76.4 30.0 L76.6 30.0 Q77.0 30.0 77.0 29.6 L77.0 29.4 Q77.0 29.0 77.4 29.0 L77.6 29.0 Q78.0 29.0 78.0 28.6 L78.0 28.4 Q78.0 28.0 78.4 28.0 L78.6 28.0 Q79.0 28.0 79.0 27.6 L79.0 27.4 Q79.0 27.0 79.4 27.0 L79.6 27.0 Q80.0 27.0 80.0 26.6 L80.0 26.4 Q80.0 26.0 80.4 26.0 L80.6 26.0 Q81.0 26.0 81.3 25.7 L83.7 22.3 Q84.0 22.0 84.4 22.0 Z M31.0 30.4 Q31.0 30.0 31.4 30.0 L31.6 30.0 Q32.0 30.0 32.0 30.4 L32.0 57.6 Q32.0 58.0 31.6 58.0 L31.4 58.0 Q31.0 58.0 31.0 57.6 Z M68.0 30.4 Q68.0 30.0 68.4 30.0 L68.6 30.0 Q69.0 30.0 69.0 30.4 L69.0 57.6 Q69.0 58.0 68.6 58.0 L68.4 58.0 Q68.0 58.0 68.0 57.6 Z" fill="rgb(104,15,0)" stroke="rgb(104,15,0)" stroke-width="0.12"/><path d="M32.4 58.0 Q32.0 58.0 32.0 57.6 L32.0 30.4 Q32.0 30.0 31.6 30.0 L31.4 30.0 Q31.0 30.0 31.0 29.6 L31.0 24.4 Q31.0 24.0 31.4 24.0 L31.6 24.0 Q32.0 24.0 32.0 23.6 L32.0 20.4 Q32.0 20.0 32.4 20.0 L32.6 20.0 Q33.0 20.0 33.1 19.6 L33.9 15.4 Q34.0 15.0 34.4 15.0 L34.6 15.0 Q35.0 15.0 35.2 14.6 L35.8 13.4 Q36.0 13.0 36.4 13.0 L37.6 13.0 Q38.0 13.0 38.0 12.6 L38.0 12.4 Q38.0 12.0 38.4 11.9 L41.6 11.1 Q42.0 11.0 42.0 11.4 L42.0 11.6 Q42.0 12.0 41.6 12.0 L40.4 12.0 Q40.0 12.0 40.0 12.4 L40.0 12.6 Q40.0 13.0 39.6 13.0 L38.4 13.0 Q38.0 13.0 38.0 13.4 L38.0 13.6 Q38.0 14.0 37.6 14.0 L36.4 14.0 Q36.0 14.0 36.0 14.4 L36.0 14.6 Q36.0 15.0 35.6 15.0 L35.4 15.0 Q35.0 15.0 34.9 15.4 L34.1 19.6 Q34.0 20.0 33.6 20.0 L33.4 20.0 Q33.0 20.0 33.0 20.4 L33.0 23.6 Q33.0 24.0 32.6 24.0 L32.4 24.0 Q32.0 24.0 32.0 24.4 L32.0 29.6 Q32.0 30.0 32.4 30.0 L32.6 30.0 Q33.0 30.0 33.0 30.4 L33.0 57.6 Q33.0 58.0 32.6 58.0 Z M68.0 57.6 Q68.0 58.0 67.6 58.0 L67.4 58.0 Q67.0 58.0 67.0 57.6 L67.0 30.4 Q67.0 30.0 67.4 30.0 L67.6 30.0 Q68.0 30.0 68.0 29.6 L68.0 24.4 Q68.0 24.0 67.6 24.0 L67.4 24.0 Q67.0 24.0 67.0 23.6 L67.0 20.4 Q67.0 20.0 66.6 20.0 L66.4 20.0 Q66.0 20.0 65.9 19.6 L65.1 15.4 Q65.0 15.0 64.6 15.0 L64.4 15.0 Q64.0 15.0 64.0 14.6 L64.0 14.4 Q64.0 14.0 63.6 14.0 L62.4 14.0 Q62.0 14.0 62.0 13.6 L62.0 13.4 Q62.0 13.0 61.6 13.0 L60.4 13.0 Q60.0 13.0 60.0 12.6 L60.0 12.4 Q60.0 12.0 59.6 12.0 L58.4 12.0 Q58.0 12.0 58.0 11.6 L58.0 11.4 Q58.0 11.0 58.4 11.0 L59.6 11.0 Q60.0 11.0 60.0 11.4 L60.0 11.6 Q60.0 12.0 60.4 12.0 L61.6 12.0 Q62.0 12.0 62.0 12.4 L62.0 12.6 Q62.0 13.0 62.4 13.0 L63.6 13.0 Q64.0 13.0 64.0 13.4 L64.0 13.6 Q64.0 14.0 64.4 14.2 L65.6 14.8 Q66.0 15.0 66.1 15.4 L66.9 19.6 Q67.0 20.0 67.4 20.0 L67.6 20.0 Q68.0 20.0 68.0 20.4 L68.0 23.6 Q68.0 24.0 68.4 24.0 L68.6 24.0 Q69.0 24.0 69.0 24.4 L69.0 29.6 Q69.0 30.0 68.6 30.0 L68.4 30.0 Q68.0 30.0 68.0 30.4 Z M14.3 23.3 Q14.0 23.0 14.4 23.0 L14.6 23.0 Q15.0 23.0 15.0 23.4 L15.0 23.6 Q15.0 24.0 15.4 24.0 L15.6 24.0 Q16.0 24.0 16.0 24.4 L16.0 24.6 Q16.0 25.0 16.4 25.0 L16.6 25.0 Q17.0 25.0 17.0 25.4 L17.0 25.6 Q17.0 26.0 17.4 26.0 L17.6 26.0 Q18.0 26.0 18.0 26.4 L18.0 26.6 Q18.0 27.0 18.4 27.0 L18.6 27.0 Q19.0 27.0 19.0 27.4 L19.0 27.6 Q19.0 28.0 19.4 28.0 L19.6 28.0 Q20.0 28.0 20.0 28.4 L20.0 28.6 Q20.0 29.0 20.4 29.0 L20.6 29.0 Q21.0 29.0 21.0 29.4 L21.0 29.6 Q21.0 30.0 21.4 30.0 L21.6 30.0 Q22.0 30.0 22.0 30.4 L22.0 30.6 Q22.0 31.0 22.4 31.0 L22.6 31.0 Q23.0 31.0 23.3 31.3 L25.7 34.7 Q26.0 35.0 25.6 35.0 L25.4 35.0 Q25.0 35.0 25.0 34.6 L25.0 34.4 Q25.0 34.0 24.6 34.0 L24.4 34.0 Q24.0 34.0 24.0 33.6 L24.0 33.4 Q24.0 33.0 23.6 33.0 L23.4 33.0 Q23.0 33.0 23.0 32.6 L23.0 32.4 Q23.0 32.0 22.6 32.0 L22.4 32.0 Q22.0 32.0 22.0 31.6 L22.0 31.4 Q22.0 31.0 21.6 31.0 L21.4 31.0 Q21.0 31.0 21.0 30.6 L21.0 30.4 Q21.0 30.0 20.6 30.0 L20.4 30.0 Q20.0 30.0 20.0 29.6 L20.0 29.4 Q20.0 29.0 19.6 29.0 L19.4 29.0 Q19.0 29.0 19.0 28.6 L19.0 28.4 Q19.0 28.0 18.6 28.0 L18.4 28.0 Q18.0 28.0 18.0 27.6 L18.0 27.4 Q18.0 27.0 17.6 27.0 L17.4 27.0 Q17.0 27.0 16.7 26.7 Z M85.7 23.3 Q86.0 23.0 86.0 23.4 L86.0 23.6 Q86.0 24.0 85.6 24.0 L85.4 24.0 Q85.0 24.0 85.0 24.4 L85.0 24.6 Q85.0 25.0 84.6 25.0 L84.4 25.0 Q84.0 25.0 84.0 25.4 L84.0 25.6 Q84.0 26.0 83.6 26.0 L83.4 26.0 Q83.0 26.0 83.0 26.4 L83.0 26.6 Q83.0 27.0 82.6 27.0 L82.4 27.0 Q82.0 27.0 82.0 27.4 L82.0 27.6 Q82.0 28.0 81.6 28.0 L81.4 28.0 Q81.0 28.0 81.0 28.4 L81.0 28.6 Q81.0 29.0 80.6 29.0 L80.4 29.0 Q80.0 29.0 80.0 29.4 L80.0 29.6 Q80.0 30.0 79.6 30.0 L79.4 30.0 Q79.0 30.0 79.0 30.4 L79.0 30.6 Q79.0 31.0 78.6 31.0 L78.4 31.0 Q78.0 31.0 78.0 31.4 L78.0 31.6 Q78.0 32.0 77.7 32.3 L74.3 34.7 Q74.0 35.0 74.0 34.6 L74.0 34.4 Q74.0 34.0 74.4 34.0 L74.6 34.0 Q75.0 34.0 75.0 33.6 L75.0 33.4 Q75.0 33.0 75.4 33.0 L75.6 33.0 Q76.0 33.0 76.0 32.6 L76.0 32.4 Q76.0 32.0 76.4 32.0 L76.6 32.0 Q77.0 32.0 77.0 31.6 L77.0 31.4 Q77.0 31.0 77.4 31.0 L77.6 31.0 Q78.0 31.0 78.0 30.6 L78.0 30.4 Q78.0 30.0 78.4 30.0 L78.6 30.0 Q79.0 30.0 79.0 29.6 L79.0 29.4 Q79.0 29.0 79.4 29.0 L79.6 29.0 Q80.0 29.0 80.0 28.6 L80.0 28.4 Q80.0 28.0 80.4 28.0 L80.6 28.0 Q81.0 28.0 81.0 27.6 L81.0 27.4 Q81.0 27.0 81.4 27.0 L81.6 27.0 Q82.0 27.0 82.0 26.6 L82.0 26.4 Q82.0 26.0 82.3 25.7 Z" fill="rgb(179,151,86)" stroke="rgb(179,151,86)" stroke-width="0.12"/><path d="M40.0 6.4 Q40.0 6.0 40.4 6.0 L40.6 6.0 Q41.0 6.0 41.1 6.4 L41.9 10.6 Q42.0 11.0 41.6 11.0 L41.4 11.0 Q41.0 11.0 41.0 10.6 L41.0 9.4 Q41.0 9.0 40.6 9.0 L40.4 9.0 Q40.0 9.0 40.0 8.6 Z M59.6 6.0 Q60.0 6.0 60.0 6.4 L60.0 8.6 Q60.0 9.0 59.6 9.0 L59.4 9.0 Q59.0 9.0 59.0 9.4 L59.0 10.6 Q59.0 11.0 58.6 11.0 L58.4 11.0 Q58.0 11.0 58.1 10.6 L58.9 6.4 Q59.0 6.0 59.4 6.0 Z M46.0 11.4 Q46.0 11.0 46.4 11.0 L46.6 11.0 Q47.0 11.0 47.2 11.3 L48.8 13.7 Q49.0 14.0 49.4 14.0 L50.6 14.0 Q51.0 14.0 51.2 13.7 L52.8 11.3 Q53.0 11.0 53.4 11.0 L53.6 11.0 Q54.0 11.0 54.0 11.4 L54.0 12.6 Q54.0 13.0 53.6 13.0 L53.4 13.0 Q53.0 13.0 52.8 13.3 L51.2 15.7 Q51.0 16.0 50.6 16.0 L49.4 16.0 Q49.0 16.0 49.0 15.6 L49.0 15.4 Q49.0 15.0 48.7 14.8 L46.3 13.2 Q46.0 13.0 46.0 12.6 Z M42.0 12.4 Q42.0 12.0 42.4 12.0 L42.6 12.0 Q43.0 12.0 43.0 12.4 L43.0 12.6 Q43.0 13.0 42.6 13.0 L42.4 13.0 Q42.0 13.0 42.0 12.6 Z M57.0 12.4 Q57.0 12.0 57.4 12.0 L57.6 12.0 Q58.0 12.0 58.0 12.4 L58.0 12.6 Q58.0 13.0 57.6 13.0 L57.4 13.0 Q57.0 13.0 57.0 12.6 Z M13.0 23.4 Q13.0 23.0 13.4 23.0 L13.6 23.0 Q14.0 23.0 14.0 23.4 L14.0 23.6 Q14.0 24.0 14.4 24.0 L14.6 24.0 Q15.0 24.0 15.0 24.4 L15.0 24.6 Q15.0 25.0 15.4 25.0 L15.6 25.0 Q16.0 25.0 16.0 25.4 L16.0 25.6 Q16.0 26.0 16.4 26.0 L16.6 26.0 Q17.0 26.0 17.0 26.4 L17.0 26.6 Q17.0 27.0 17.4 27.0 L17.6 27.0 Q18.0 27.0 18.0 27.4 L18.0 27.6 Q18.0 28.0 18.4 28.0 L18.6 28.0 Q19.0 28.0 19.0 28.4 L19.0 28.6 Q19.0 29.0 19.4 29.0 L19.6 29.0 Q20.0 29.0 20.0 29.4 L20.0 29.6 Q20.0 30.0 20.4 30.0 L20.6 30.0 Q21.0 30.0 21.0 30.4 L21.0 30.6 Q21.0 31.0 21.4 31.0 L21.6 31.0 Q22.0 31.0 22.0 31.4 L22.0 31.6 Q22.0 32.0 22.4 32.0 L22.6 32.0 Q23.0 32.0 23.3 32.3 L25.7 35.7 Q26.0 36.0 25.6 36.0 L24.4 36.0 Q24.0 36.0 24.0 35.6 L24.0 35.4 Q24.0 35.0 23.6 35.0 L23.4 35.0 Q23.0 35.0 23.0 34.6 L23.0 34.4 Q23.0 34.0 22.6 34.0 L22.4 34.0 Q22.0 34.0 22.0 33.6 L22.0 33.4 Q22.0 33.0 21.6 33.0 L21.4 33.0 Q21.0 33.0 21.0 32.6 L21.0 32.4 Q21.0 32.0 20.6 32.0 L20.4 32.0 Q20.0 32.0 20.0 31.6 L20.0 31.4 Q20.0 31.0 19.6 31.0 L19.4 31.0 Q19.0 31.0 19.0 30.6 L19.0 30.4 Q19.0 30.0 18.6 30.0 L18.4 30.0 Q18.0 30.0 18.0 29.6 L18.0 29.4 Q18.0 29.0 17.6 29.0 L17.4 29.0 Q17.0 29.0 17.0 28.6 L17.0 28.4 Q17.0 28.0 16.7 27.7 L13.3 25.3 Q13.0 25.0 13.0 24.6 Z M86.7 23.3 Q87.0 23.0 87.0 23.4 L87.0 24.6 Q87.0 25.0 86.6 25.0 L86.4 25.0 Q86.0 25.0 86.0 25.4 L86.0 25.6 Q86.0 26.0 85.6 26.0 L85.4 26.0 Q85.0 26.0 85.0 26.4 L85.0 26.6 Q85.0 27.0 84.6 27.0 L84.4 27.0 Q84.0 27.0 84.0 27.4 L84.0 27.6 Q84.0 28.0 83.6 28.0 L83.4 28.0 Q83.0 28.0 83.0 28.4 L83.0 28.6 Q83.0 29.0 82.6 29.0 L82.4 29.0 Q82.0 29.0 82.0 29.4 L82.0 29.6 Q82.0 30.0 81.6 30.0 L81.4 30.0 Q81.0 30.0 81.0 30.4 L81.0 30.6 Q81.0 31.0 80.6 31.0 L80.4 31.0 Q80.0 31.0 80.0 31.4 L80.0 31.6 Q80.0 32.0 79.6 32.0 L79.4 32.0 Q79.0 32.0 78.7 32.3 L76.3 35.7 Q76.0 36.0 75.6 36.0 L74.4 36.0 Q74.0 36.0 74.0 35.6 L74.0 35.4 Q74.0 35.0 74.4 35.0 L74.6 35.0 Q75.0 35.0 75.0 34.6 L75.0 34.4 Q75.0 34.0 75.4 34.0 L75.6 34.0 Q76.0 34.0 76.0 33.6 L76.0 33.4 Q76.0 33.0 76.4 33.0 L76.6 33.0 Q77.0 33.0 77.0 32.6 L77.0 32.4 Q77.0 32.0 77.4 32.0 L77.6 32.0 Q78.0 32.0 78.0 31.6 L78.0 31.4 Q78.0 31.0 78.4 31.0 L78.6 31.0 Q79.0 31.0 79.0 30.6 L79.0 30.4 Q79.0 30.0 79.4 30.0 L79.6 30.0 Q80.0 30.0 80.0 29.6 L80.0 29.4 Q80.0 29.0 80.4 29.0 L80.6 29.0 Q81.0 29.0 81.0 28.6 L81.0 28.4 Q81.0 28.0 81.4 28.0 L81.6 28.0 Q82.0 28.0 82.0 27.6 L82.0 27.4 Q82.0 27.0 82.4 27.0 L82.6 27.0 Q83.0 27.0 83.0 26.6 L83.0 26.4 Q83.0 26.0 83.3 25.7 Z" fill="rgb(6,45,34)" stroke="rgb(6,45,34)" stroke-width="0.12"/><path d="M41.1 6.4 Q41.0 6.0 41.4 6.0 L41.6 6.0 Q42.0 6.0 42.0 6.4 L42.0 8.6 Q42.0 9.0 42.4 9.0 L42.6 9.0 Q43.0 9.0 43.0 9.4 L43.0 11.6 Q43.0 12.0 43.4 12.0 L43.6 12.0 Q44.0 12.0 44.0 12.4 L44.0 12.6 Q44.0 13.0 43.6 12.8 L42.4 12.2 Q42.0 12.0 41.9 11.6 Z M58.6 6.0 Q59.0 6.0 58.9 6.4 L58.1 11.6 Q58.0 12.0 57.6 12.2 L56.4 12.8 Q56.0 13.0 56.0 12.6 L56.0 12.4 Q56.0 12.0 56.4 12.0 L56.6 12.0 Q57.0 12.0 57.0 11.6 L57.0 9.4 Q57.0 9.0 57.4 9.0 L57.6 9.0 Q58.0 9.0 58.0 8.6 L58.0 6.4 Q58.0 6.0 58.4 6.0 Z" fill="rgb(131,114,66)" stroke="rgb(131,114,66)" stroke-width="0.12"/></svg>