<svg class="camisa" viewBox="0 0 100 59" xmlns="http://www.w3.org/2000/svg" role="img"><path d="M61.3 6.3 Q61.0 6.0 61.4 6.0 L62.6 6.0 Q63.0 6.0 63.0 6.4 L63.0 6.6 Q63.0 7.0 63.4 7.0 L64.6 7.0 Q65.0 7.0 65.0 6.6 L65.0 6.4 Q65.0 6.0 65.4 6.0 L69.6 6.0 Q70.0 6.0 70.2 6.3 L71.8 8.7 Q72.0 9.0 71.6 9.0 L71.4 9.0 Q71.0 9.0 71.0 8.6 L71.0 8.4 Q71.0 8.0 70.6 8.0 L69.4 8.0 Q69.0 8.0 69.0 8.4 L69.0 8.6 Q69.0 9.0 68.6 8.8 L67.4 8.2 Q67.0 8.0 67.0 8.4 L67.0 8.6 Q67.0 9.0 66.6 9.0 L65.4 9.0 Q65.0 9.0 65.0 9.4 L65.0 9.6 Q65.0 10.0 64.6 10.0 L64.4 10.0 Q64.0 10.0 63.7 9.7 Z M28.0 8.4 Q28.0 8.0 28.4 8.0 L28.6 8.0 Q29.0 8.0 29.0 8.4 L29.0 9.6 Q29.0 10.0 28.6 10.0 L28.4 10.0 Q28.0 10.0 28.0 9.6 Z M69.6 10.0 Q70.0 10.0 70.0 10.4 L70.0 12.6 Q70.0 13.0 69.6 12.9 L66.4 12.1 Q66.0 12.0 66.2 11.6 L66.8 10.4 Q67.0 10.0 67.4 10.0 Z M25.0 11.4 Q25.0 11.0 25.4 11.0 L26.6 11.0 Q27.0 11.0 27.0 11.4 L27.0 11.6 Q27.0 12.0 26.6 12.0 L25.4 12.0 Q25.0 12.0 25.0 11.6 Z M72.0 11.4 Q72.0 11.0 72.4 11.0 L72.6 11.0 Q73.0 11.0 73.0 11.4 L73.0 11.6 Q73.0 12.0 73.4 12.0 L74.6 12.0 Q75.0 12.0 75.2 12.3 L76.8 14.7 Q77.0 15.0 76.6 15.0 L75.4 15.0 Q75.0 15.0 74.8 14.6 L74.2 13.4 Q74.0 13.0 73.6 13.0 L72.4 13.0 Q72.0 13.0 72.0 12.6 Z M69.0 57.6 Q69.0 58.0 68.6 58.0 L31.4 58.0 Q31.0 58.0 31.0 57.6 L31.0 25.4 Q31.0 25.0 31.4 25.0 L31.6 25.0 Q32.0 25.0 32.0 24.6 L32.0 22.4 Q32.0 22.0 31.6 22.0 L28.4 22.0 Q28.0 22.0 28.0 21.6 L28.0 20.4 Q28.0 20.0 28.4 20.0 L28.6 20.0 Q29.0 20.0 29.0 20.4 L29.0 20.6 Q29.0 21.0 29.4 21.0 L30.6 21.0 Q31.0 21.0 31.0 20.6 L31.0 20.4 Q31.0 20.0 30.6 20.0 L30.4 20.0 Q30.0 20.0 30.0 19.6 L30.0 18.4 Q30.0 18.0 29.6 18.0 L26.4 18.0 Q26.0 18.0 25.8 17.6 L25.2 16.4 Q25.0 16.0 25.4 16.0 L28.6 16.0 Q29.0 16.0 29.0 16.4 L29.0 16.6 Q29.0 17.0 29.4 17.0 L30.6 17.0 Q31.0 17.0 31.0 17.4 L31.0 17.6 Q31.0 18.0 31.4 18.0 L32.6 18.0 Q33.0 18.0 33.0 18.4 L33.0 18.6 Q33.0 19.0 33.4 19.0 L33.6 19.0 Q34.0 19.0 34.2 18.6 L34.8 17.4 Q35.0 17.0 34.6 16.9 L31.4 16.1 Q31.0 16.0 31.0 15.6 L31.0 14.4 Q31.0 14.0 31.4 14.0 L31.6 14.0 Q32.0 14.0 32.0 14.4 L32.0 14.6 Q32.0 15.0 32.4 15.0 L33.6 15.0 Q34.0 15.0 34.0 15.4 L34.0 15.6 Q34.0 16.0 34.4 15.9 L40.6 15.1 Q41.0 15.0 41.0 14.6 L41.0 14.4 Q41.0 14.0 41.4 14.0 L47.6 14.0 Q48.0 14.0 48.0 14.4 L48.0 14.6 Q48.0 15.0 48.4 15.0 L51.6 15.0 Q52.0 15.0 52.0 14.6 L52.0 14.4 Q52.0 14.0 52.4 14.0 L58.6 14.0 Q59.0 14.0 59.0 14.4 L59.0 14.6 Q59.0 15.0 59.4 15.0 L62.6 15.0 Q63.0 15.0 63.0 15.4 L63.0 15.6 Q63.0 16.0 63.3 16.2 L65.7 17.8 Q66.0 18.0 66.1 18.4 L66.9 21.6 Q67.0 22.0 67.4 22.0 L67.6 22.0 Q68.0 22.0 68.1 22.4 L68.9 27.6 Q69.0 28.0 69.4 28.0 L70.6 28.0 Q71.0 28.0 71.0 28.4 L71.0 28.6 Q71.0 29.0 71.4 29.0 L71.6 29.0 Q72.0 29.0 72.0 29.4 L72.0 30.6 Q72.0 31.0 71.6 31.0 L70.4 31.0 Q70.0 31.0 70.2 30.6 L70.8 29.4 Q71.0 29.0 70.6 29.2 L69.4 29.8 Q69.0 30.0 69.0 30.4 Z M72.6 14.0 Q73.0 14.0 73.0 14.4 L73.0 15.6 Q73.0 16.0 72.6 16.2 L71.4 16.8 Q71.0 17.0 70.8 16.6 L70.2 15.4 Q70.0 15.0 70.4 15.0 L70.6 15.0 Q71.0 15.0 71.0 14.6 L71.0 14.4 Q71.0 14.0 71.4 14.0 Z M74.0 16.4 Q74.0 16.0 74.4 16.0 L75.6 16.0 Q76.0 16.0 76.0 16.4 L76.0 17.6 Q76.0 18.0 75.6 18.0 L74.4 18.0 Q74.0 18.0 74.0 17.6 Z M71.0 19.6 Q71.0 20.0 70.6 20.0 L69.4 20.0 Q69.0 20.0 69.0 19.6 L69.0 17.4 Q69.0 17.0 69.4 17.2 L70.6 17.8 Q71.0 18.0 71.0 18.4 Z M19.0 18.4 Q19.0 18.0 19.4 18.0 L19.6 18.0 Q20.0 18.0 20.0 18.4 L20.0 18.6 Q20.0 19.0 19.6 19.0 L19.4 19.0 Q19.0 19.0 19.0 18.6 Z M21.0 18.4 Q21.0 18.0 21.4 18.0 L21.6 18.0 Q22.0 18.0 22.0 18.4 L22.0 18.6 Q22.0 19.0 21.6 19.0 L21.4 19.0 Q21.0 19.0 21.0 18.6 Z M44.9 19.4 Q45.0 19.0 44.6 19.0 L42.4 19.0 Q42.0 19.0 42.0 19.4 L42.0 19.6 Q42.0 20.0 41.6 20.0 L41.4 20.0 Q41.0 20.0 41.0 19.6 L41.0 19.4 Q41.0 19.0 40.6 19.0 L39.4 19.0 Q39.0 19.0 38.8 19.4 L37.2 22.6 Q37.0 23.0 37.4 23.0 L38.6 23.0 Q39.0 23.0 39.0 22.6 L39.0 22.4 Q39.0 22.0 39.4 22.0 L39.6 22.0 Q40.0 22.0 40.0 22.4 L40.0 22.6 Q40.0 23.0 40.4 23.0 L43.6 23.0 Q44.0 23.0 44.1 22.6 Z M25.6 19.0 Q26.0 19.0 26.0 19.4 L26.0 21.6 Q26.0 22.0 25.6 22.0 L24.4 22.0 Q24.0 22.0 24.0 21.6 L24.0 21.4 Q24.0 21.0 24.4 21.0 L24.6 21.0 Q25.0 21.0 25.0 20.6 L25.0 19.4 Q25.0 19.0 25.4 19.0 Z M72.4 22.0 Q72.0 22.0 72.0 21.6 L72.0 20.4 Q72.0 20.0 72.4 19.8 L73.6 19.2 Q74.0 19.0 74.2 19.4 L74.8 20.6 Q75.0 21.0 74.6 21.0 L74.4 21.0 Q74.0 21.0 74.0 21.4 L74.0 21.6 Q74.0 22.0 73.6 22.0 Z M19.0 20.4 Q19.0 20.0 19.4 20.0 L19.6 20.0 Q20.0 20.0 20.0 20.4 L20.0 20.6 Q20.0 21.0 19.6 21.0 L19.4 21.0 Q19.0 21.0 19.0 20.6 Z M21.0 20.4 Q21.0 20.0 21.4 20.0 L21.6 20.0 Q22.0 20.0 22.0 20.4 L22.0 20.6 Q22.0 21.0 21.6 21.0 L21.4 21.0 Q21.0 21.0 21.0 20.6 Z M43.6 20.2 Q44.0 20.0 44.0 20.4 L44.0 20.6 Q44.0 21.0 43.6 21.2 L42.4 21.8 Q42.0 22.0 42.0 21.6 L42.0 21.4 Q42.0 21.0 42.4 20.8 Z M78.4 27.0 Q78.0 27.0 78.0 26.6 L78.0 25.4 Q78.0 25.0 78.4 25.0 L79.6 25.0 Q80.0 25.0 80.2 24.6 L81.8 21.4 Q82.0 21.0 82.4 21.0 L84.6 21.0 Q85.0 21.0 85.0 21.4 L85.0 22.6 Q85.0 23.0 84.6 23.0 L84.4 23.0 Q84.0 23.0 83.7 23.3 L81.3 26.7 Q81.0 27.0 80.6 27.0 Z M17.0 22.4 Q17.0 22.0 17.4 22.0 L22.6 22.0 Q23.0 22.0 23.0 22.4 L23.0 23.6 Q23.0 24.0 23.4 24.0 L23.6 24.0 Q24.0 24.0 24.0 24.4 L24.0 24.6 Q24.0 25.0 23.6 25.0 L22.4 25.0 Q22.0 25.0 22.0 24.6 L22.0 24.4 Q22.0 24.0 21.6 24.0 L21.4 24.0 Q21.0 24.0 21.0 24.4 L21.0 24.6 Q21.0 25.0 20.6 25.0 L20.4 25.0 Q20.0 25.0 20.0 24.6 L20.0 24.4 Q20.0 24.0 19.6 24.2 L18.4 24.8 Q18.0 25.0 18.0 24.6 L18.0 23.4 Q18.0 23.0 17.6 23.0 L17.4 23.0 Q17.0 23.0 17.0 22.6 Z M24.2 23.4 Q24.0 23.0 24.4 23.0 L25.6 23.0 Q26.0 23.0 26.0 23.4 L26.0 24.6 Q26.0 25.0 25.6 25.0 L25.4 25.0 Q25.0 25.0 24.8 24.6 Z M28.0 23.4 Q28.0 23.0 28.4 23.0 L29.6 23.0 Q30.0 23.0 30.0 23.4 L30.0 23.6 Q30.0 24.0 29.6 24.2 L28.4 24.8 Q28.0 25.0 28.0 24.6 Z M71.0 26.4 Q71.0 26.0 71.4 26.0 L72.6 26.0 Q73.0 26.0 73.0 26.4 L73.0 26.6 Q73.0 27.0 73.4 27.0 L73.6 27.0 Q74.0 27.0 74.0 27.4 L74.0 28.6 Q74.0 29.0 74.4 29.0 L77.6 29.0 Q78.0 29.0 78.0 29.4 L78.0 29.6 Q78.0 30.0 77.7 30.3 L74.3 32.7 Q74.0 33.0 74.0 32.6 L74.0 29.4 Q74.0 29.0 73.6 29.0 L72.4 29.0 Q72.0 29.0 72.2 28.6 L72.8 27.4 Q73.0 27.0 72.6 27.2 L71.4 27.8 Q71.0 28.0 71.0 27.6 Z" fill="rgb(216,230,230)" stroke="rgb(216,230,230)" stroke-width="0.12"/><path d="M36.6 6.2 Q37.0 6.0 37.0 6.4 L37.0 6.6 Q37.0 7.0 36.6 7.2 L35.4 7.8 Q35.0 8.0 35.0 7.6 L35.0 7.4 Q35.0 7.0 35.4 6.8 Z M41.0 6.4 Q41.0 6.0 41.4 6.0 L42.6 6.0 Q43.0 6.0 43.0 6.4 L43.0 7.6 Q43.0 8.0 43.4 8.0 L43.6 8.0 Q44.0 8.0 44.2 8.4 L44.8 9.6 Q45.0 10.0 45.4 10.0 L46.6 10.0 Q47.0 10.0 47.0 10.4 L47.0 10.6 Q47.0 11.0 47.4 11.0 L52.6 11.0 Q53.0 11.0 53.0 10.6 L53.0 10.4 Q53.0 10.0 53.4 10.0 L54.6 10.0 Q55.0 10.0 55.0 9.6 L55.0 9.4 Q55.0 9.0 55.4 8.8 L56.6 8.2 Q57.0 8.0 57.0 7.6 L57.0 6.4 Q57.0 6.0 57.4 6.0 L58.6 6.0 Q59.0 6.0 59.0 6.4 L59.0 8.6 Q59.0 9.0 59.4 9.0 L62.6 9.0 Q63.0 9.0 63.0 9.4 L63.0 10.6 Q63.0 11.0 62.6 11.0 L62.4 11.0 Q62.0 11.0 62.0 10.6 L62.0 10.4 Q62.0 10.0 61.6 10.0 L60.4 10.0 Q60.0 10.0 60.0 10.4 L60.0 10.6 Q60.0 11.0 59.6 11.2 L58.4 11.8 Q58.0 12.0 58.0 12.4 L58.0 13.6 Q58.0 14.0 57.6 14.0 L57.4 14.0 Q57.0 14.0 57.0 13.6 L57.0 11.4 Q57.0 11.0 56.6 11.0 L56.4 11.0 Q56.0 11.0 56.0 11.4 L56.0 11.6 Q56.0 12.0 55.6 12.1 L52.4 12.9 Q52.0 13.0 52.0 13.4 L52.0 14.6 Q52.0 15.0 51.6 15.0 L48.4 15.0 Q48.0 15.0 48.0 14.6 L48.0 13.4 Q48.0 13.0 47.6 12.9 L44.4 12.1 Q44.0 12.0 44.0 11.6 L44.0 11.4 Q44.0 11.0 43.7 10.8 L41.3 9.2 Q41.0 9.0 41.0 8.6 Z M60.0 6.4 Q60.0 6.0 60.4 6.0 L60.6 6.0 Q61.0 6.0 61.0 6.4 L61.0 6.6 Q61.0 7.0 60.6 7.0 L60.4 7.0 Q60.0 7.0 60.0 6.6 Z M30.2 8.3 Q30.0 8.0 30.4 8.0 L30.6 8.0 Q31.0 8.0 31.2 8.3 L32.8 10.7 Q33.0 11.0 32.6 11.0 L32.4 11.0 Q32.0 11.0 31.8 10.7 Z M40.0 9.6 Q40.0 10.0 39.6 10.2 L38.4 10.8 Q38.0 11.0 38.0 10.6 L38.0 9.4 Q38.0 9.0 37.6 9.0 L37.4 9.0 Q37.0 9.0 37.0 9.4 L37.0 9.6 Q37.0 10.0 36.6 10.0 L36.4 10.0 Q36.0 10.0 36.0 9.6 L36.0 9.4 Q36.0 9.0 36.4 8.8 L37.6 8.2 Q38.0 8.0 38.0 8.4 L38.0 8.6 Q38.0 9.0 38.4 9.0 L39.6 9.0 Q40.0 9.0 40.0 9.4 Z M59.0 9.4 Q59.0 9.0 58.6 9.0 L58.4 9.0 Q58.0 9.0 58.0 9.4 L58.0 10.6 Q58.0 11.0 58.4 11.0 L58.6 11.0 Q59.0 11.0 59.0 10.6 Z M64.4 11.0 Q64.0 11.0 64.0 10.6 L64.0 10.4 Q64.0 10.0 64.4 10.0 L65.6 10.0 Q66.0 10.0 66.0 9.6 L66.0 9.4 Q66.0 9.0 66.4 9.0 L66.6 9.0 Q67.0 9.0 66.8 9.4 L66.2 10.6 Q66.0 11.0 65.6 11.0 Z M69.2 9.4 Q69.0 9.0 69.3 9.2 L71.7 10.8 Q72.0 11.0 72.0 11.4 L72.0 12.6 Q72.0 13.0 71.6 13.0 L71.4 13.0 Q71.0 13.0 71.0 13.4 L71.0 13.6 Q71.0 14.0 70.6 14.0 L70.4 14.0 Q70.0 14.0 70.0 13.6 L70.0 13.4 Q70.0 13.0 70.4 13.0 L70.6 13.0 Q71.0 13.0 71.0 12.6 L71.0 11.4 Q71.0 11.0 70.6 11.0 L70.4 11.0 Q70.0 11.0 69.8 10.6 Z M27.0 12.4 Q27.0 12.0 27.4 12.0 L29.6 12.0 Q30.0 12.0 30.0 12.4 L30.0 12.6 Q30.0 13.0 29.6 13.0 L27.4 13.0 Q27.0 13.0 27.0 12.6 Z M63.0 12.4 Q63.0 12.0 63.4 12.0 L63.6 12.0 Q64.0 12.0 64.0 12.4 L64.0 14.6 Q64.0 15.0 63.6 15.0 L63.4 15.0 Q63.0 15.0 63.0 14.6 Z M30.0 15.6 Q30.0 16.0 29.6 16.0 L28.4 16.0 Q28.0 16.0 27.8 15.6 L27.2 14.4 Q27.0 14.0 27.4 14.0 L27.6 14.0 Q28.0 14.0 28.0 14.4 L28.0 14.6 Q28.0 15.0 28.4 15.0 L29.6 15.0 Q30.0 15.0 30.0 15.4 Z M65.0 14.4 Q65.0 14.0 65.4 14.0 L67.6 14.0 Q68.0 14.0 68.0 14.4 L68.0 16.6 Q68.0 17.0 68.4 17.0 L68.6 17.0 Q69.0 17.0 69.0 17.4 L69.0 18.6 Q69.0 19.0 68.6 19.0 L68.4 19.0 Q68.0 19.0 68.2 19.4 L68.8 20.6 Q69.0 21.0 68.6 21.0 L68.4 21.0 Q68.0 21.0 68.0 21.4 L68.0 21.6 Q68.0 22.0 67.6 22.0 L67.4 22.0 Q67.0 22.0 67.2 21.6 L67.8 20.4 Q68.0 20.0 67.7 19.8 L65.3 18.2 Q65.0 18.0 65.0 17.6 L65.0 17.4 Q65.0 17.0 65.4 17.0 L66.6 17.0 Q67.0 17.0 67.0 16.6 L67.0 16.4 Q67.0 16.0 66.6 16.0 L65.4 16.0 Q65.0 16.0 65.0 15.6 Z M21.0 15.4 Q21.0 15.0 21.4 15.0 L21.6 15.0 Q22.0 15.0 22.0 15.4 L22.0 15.6 Q22.0 16.0 21.6 16.0 L21.4 16.0 Q21.0 16.0 21.0 15.6 Z M77.6 15.2 Q78.0 15.0 78.0 15.4 L78.0 16.6 Q78.0 17.0 77.6 17.0 L76.4 17.0 Q76.0 17.0 76.0 16.6 L76.0 16.4 Q76.0 16.0 76.4 15.8 Z M79.0 16.4 Q79.0 16.0 79.4 16.0 L79.6 16.0 Q80.0 16.0 80.0 16.4 L80.0 16.6 Q80.0 17.0 79.6 17.0 L79.4 17.0 Q79.0 17.0 79.0 16.6 Z M32.0 17.4 Q32.0 17.0 32.4 17.0 L32.6 17.0 Q33.0 17.0 33.0 17.4 L33.0 17.6 Q33.0 18.0 32.6 18.0 L32.4 18.0 Q32.0 18.0 32.0 17.6 Z M23.0 18.4 Q23.0 18.0 23.4 18.0 L24.6 18.0 Q25.0 18.0 25.0 18.4 L25.0 20.6 Q25.0 21.0 24.6 21.0 L24.4 21.0 Q24.0 21.0 24.0 21.4 L24.0 21.6 Q24.0 22.0 23.6 22.0 L23.4 22.0 Q23.0 22.0 23.0 21.6 Z M81.0 18.4 Q81.0 18.0 81.4 18.0 L81.6 18.0 Q82.0 18.0 82.0 18.4 L82.0 19.6 Q82.0 20.0 81.6 20.0 L81.4 20.0 Q81.0 20.0 81.0 19.6 Z M44.6 19.0 Q45.0 19.0 44.9 19.4 L44.1 22.6 Q44.0 23.0 43.6 23.0 L41.4 23.0 Q41.0 23.0 41.0 22.6 L41.0 21.4 Q41.0 21.0 41.4 21.0 L41.6 21.0 Q42.0 21.0 42.0 21.4 L42.0 21.6 Q42.0 22.0 42.4 21.8 L43.6 21.2 Q44.0 21.0 44.0 20.6 L44.0 20.4 Q44.0 20.0 43.6 20.2 L42.4 20.8 Q42.0 21.0 42.0 20.6 L42.0 19.4 Q42.0 19.0 42.4 19.0 Z M74.6 21.0 Q75.0 21.0 75.0 21.4 L75.0 23.6 Q75.0 24.0 74.6 24.0 L74.4 24.0 Q74.0 24.0 74.0 23.6 L74.0 23.4 Q74.0 23.0 73.6 23.0 L70.4 23.0 Q70.0 23.0 70.0 23.4 L70.0 23.6 Q70.0 24.0 69.6 24.0 L69.4 24.0 Q69.0 24.0 69.2 23.6 L69.8 22.4 Q70.0 22.0 70.4 22.0 L73.6 22.0 Q74.0 22.0 74.0 21.6 L74.0 21.4 Q74.0 21.0 74.4 21.0 Z M76.0 21.4 Q76.0 21.0 76.4 21.0 L76.6 21.0 Q77.0 21.0 77.0 21.4 L77.0 21.6 Q77.0 22.0 76.6 22.0 L76.4 22.0 Q76.0 22.0 76.0 21.6 Z M79.0 21.4 Q79.0 21.0 79.4 21.0 L79.6 21.0 Q80.0 21.0 80.0 21.4 L80.0 21.6 Q80.0 22.0 79.6 22.0 L79.4 22.0 Q79.0 22.0 79.0 21.6 Z M27.0 34.6 Q27.0 35.0 26.6 35.0 L26.4 35.0 Q26.0 35.0 26.0 34.6 L26.0 34.4 Q26.0 34.0 25.6 34.0 L25.4 34.0 Q25.0 34.0 25.0 33.6 L25.0 33.4 Q25.0 33.0 24.6 33.0 L24.4 33.0 Q24.0 33.0 24.0 32.6 L24.0 32.4 Q24.0 32.0 23.6 32.0 L23.4 32.0 Q23.0 32.0 23.0 31.6 L23.0 31.4 Q23.0 31.0 22.6 31.0 L22.4 31.0 Q22.0 31.0 22.0 30.6 L22.0 30.4 Q22.0 30.0 21.6 30.0 L21.4 30.0 Q21.0 30.0 21.0 29.6 L21.0 29.4 Q21.0 29.0 20.6 29.0 L20.4 29.0 Q20.0 29.0 20.0 28.6 L20.0 28.4 Q20.0 28.0 19.6 28.0 L19.4 28.0 Q19.0 28.0 19.0 27.6 L19.0 27.4 Q19.0 27.0 18.6 27.0 L18.4 27.0 Q18.0 27.0 18.0 26.6 L18.0 26.4 Q18.0 26.0 17.6 26.0 L17.4 26.0 Q17.0 26.0 16.7 25.7 L14.3 22.3 Q14.0 22.0 14.4 22.0 L14.6 22.0 Q15.0 22.0 15.0 22.4 L15.0 22.6 Q15.0 23.0 15.4 23.0 L15.6 23.0 Q16.0 23.0 16.0 23.4 L16.0 23.6 Q16.0 24.0 16.4 24.0 L16.6 24.0 Q17.0 24.0 17.0 24.4 L17.0 24.6 Q17.0 25.0 17.4 25.0 L17.6 25.0 Q18.0 25.0 18.0 25.4 L18.0 25.6 Q18.0 26.0 18.4 26.0 L18.6 26.0 Q19.0 26.0 19.0 26.4 L19.0 26.6 Q19.0 27.0 19.4 27.0 L19.6 27.0 Q20.0 27.0 20.0 27.4 L20.0 27.6 Q20.0 28.0 20.4 28.0 L20.6 28.0 Q21.0 28.0 21.3 28.3 L23.7 31.7 Q24.0 32.0 24.4 32.0 L25.6 32.0 Q26.0 32.0 26.0 32.4 L26.0 33.6 Q26.0 34.0 26.4 34.0 L26.6 34.0 Q27.0 34.0 27.0 34.4 Z M85.7 22.3 Q86.0 22.0 86.0 22.4 L86.0 22.6 Q86.0 23.0 85.6 23.0 L85.4 23.0 Q85.0 23.0 85.0 23.4 L85.0 23.6 Q85.0 24.0 84.6 24.0 L84.4 24.0 Q84.0 24.0 84.0 24.4 L84.0 24.6 Q84.0 25.0 83.6 25.0 L83.4 25.0 Q83.0 25.0 83.0 25.4 L83.0 25.6 Q83.0 26.0 82.6 26.0 L82.4 26.0 Q82.0 26.0 82.0 26.4 L82.0 26.6 Q82.0 27.0 81.6 27.0 L81.4 27.0 Q81.0 27.0 81.0 27.4 L81.0 27.6 Q81.0 28.0 80.6 28.0 L80.4 28.0 Q80.0 28.0 80.0 28.4 L80.0 28.6 Q80.0 29.0 79.6 29.0 L79.4 29.0 Q79.0 29.0 79.0 29.4 L79.0 29.6 Q79.0 30.0 78.6 30.0 L78.4 30.0 Q78.0 30.0 78.0 30.4 L78.0 30.6 Q78.0 31.0 77.6 31.0 L77.4 31.0 Q77.0 31.0 77.0 31.4 L77.0 31.6 Q77.0 32.0 76.7 32.3 L73.3 34.7 Q73.0 35.0 73.0 34.6 L73.0 34.4 Q73.0 34.0 73.4 34.0 L73.6 34.0 Q74.0 34.0 74.0 33.6 L74.0 33.4 Q74.0 33.0 74.4 33.0 L74.6 33.0 Q75.0 33.0 75.0 32.6 L75.0 32.4 Q75.0 32.0 75.4 32.0 L75.6 32.0 Q76.0 32.0 76.0 31.6 L76.0 31.4 Q76.0 31.0 76.4 31.0 L76.6 31.0 Q77.0 31.0 77.0 30.6 L77.0 30.4 Q77.0 30.0 77.4 30.0 L77.6 30.0 Q78.0 30.0 78.0 29.6 L78.0 29.4 Q78.0 29.0 78.4 29.0 L78.6 29.0 Q79.0 29.0 79.0 28.6 L79.0 28.4 Q79.0 28.0 79.4 28.0 L79.6 28.0 Q80.0 28.0 80.0 27.6 L80.0 27.4 Q80.0 27.0 80.4 27.0 L80.6 27.0 Q81.0 27.0 81.0 26.6 L81.0 26.4 Q81.0 26.0 81.4 26.0 L81.6 26.0 Q82.0 26.0 82.0 25.6 L82.0 25.4 Q82.0 25.0 82.3 24.7 Z M31.0 23.4 Q31.0 23.0 31.4 23.0 L31.6 23.0 Q32.0 23.0 32.0 23.4 L32.0 23.6 Q32.0 24.0 31.6 24.0 L31.4 24.0 Q31.0 24.0 31.0 23.6 Z M74.4 27.0 Q74.0 27.0 74.0 26.6 L74.0 25.4 Q74.0 25.0 74.4 25.0 L75.6 25.0 Q76.0 25.0 76.0 25.4 L76.0 25.6 Q76.0 26.0 76.4 26.0 L76.6 26.0 Q77.0 26.0 76.8 25.6 L76.2 24.4 Q76.0 24.0 76.4 23.8 L77.6 23.2 Q78.0 23.0 78.0 23.4 L78.0 25.6 Q78.0 26.0 77.6 26.0 L77.4 26.0 Q77.0 26.0 77.0 26.4 L77.0 26.6 Q77.0 27.0 76.6 27.0 Z M13.3 24.3 Q13.0 24.0 13.4 24.0 L13.6 24.0 Q14.0 24.0 14.0 24.4 L14.0 24.6 Q14.0 25.0 14.4 25.0 L14.6 25.0 Q15.0 25.0 15.0 25.4 L15.0 25.6 Q15.0 26.0 15.4 26.0 L15.6 26.0 Q16.0 26.0 16.0 26.4 L16.0 26.6 Q16.0 27.0 16.4 27.0 L16.6 27.0 Q17.0 27.0 17.0 27.4 L17.0 27.6 Q17.0 28.0 17.4 28.0 L17.6 28.0 Q18.0 28.0 18.0 28.4 L18.0 28.6 Q18.0 29.0 18.4 29.0 L18.6 29.0 Q19.0 29.0 19.0 29.4 L19.0 29.6 Q19.0 30.0 19.4 30.0 L19.6 30.0 Q20.0 30.0 20.0 30.4 L20.0 30.6 Q20.0 31.0 20.4 31.0 L20.6 31.0 Q21.0 31.0 21.0 31.4 L21.0 31.6 Q21.0 32.0 21.4 32.0 L21.6 32.0 Q22.0 32.0 22.3 32.3 L24.7 35.7 Q25.0 36.0 24.6 36.0 L24.4 36.0 Q24.0 36.0 24.0 35.6 L24.0 35.4 Q24.0 35.0 23.6 35.0 L23.4 35.0 Q23.0 35.0 23.0 34.6 L23.0 34.4 Q23.0 34.0 22.6 34.0 L22.4 34.0 Q22.0 34.0 22.0 33.6 L22.0 33.4 Q22.0 33.0 21.6 33.0 L21.4 33.0 Q21.0 33.0 21.0 32.6 L21.0 32.4 Q21.0 32.0 20.6 32.0 L20.4 32.0 Q20.0 32.0 20.0 31.6 L20.0 31.4 Q20.0 31.0 19.6 31.0 L19.4 31.0 Q19.0 31.0 19.0 30.6 L19.0 30.4 Q19.0 30.0 18.6 30.0 L18.4 30.0 Q18.0 30.0 18.0 29.6 L18.0 29.4 Q18.0 29.0 17.6 29.0 L17.4 29.0 Q17.0 29.0 17.0 28.6 L17.0 28.4 Q17.0 28.0 16.6 28.0 L16.4 28.0 Q16.0 28.0 15.7 27.7 Z M72.6 24.0 Q73.0 24.0 73.0 24.4 L73.0 24.6 Q73.0 25.0 72.6 25.0 L71.4 25.0 Q71.0 25.0 71.0 25.4 L71.0 25.6 Q71.0 26.0 70.6 26.0 L70.4 26.0 Q70.0 26.0 70.2 25.6 L70.8 24.4 Q71.0 24.0 71.4 24.0 Z M86.7 24.3 Q87.0 24.0 87.0 24.4 L87.0 24.6 Q87.0 25.0 86.6 25.0 L86.4 25.0 Q86.0 25.0 86.0 25.4 L86.0 25.6 Q86.0 26.0 85.6 26.0 L85.4 26.0 Q85.0 26.0 85.0 26.4 L85.0 26.6 Q85.0 27.0 84.6 27.0 L84.4 27.0 Q84.0 27.0 84.0 27.4 L84.0 27.6 Q84.0 28.0 83.6 28.0 L83.4 28.0 Q83.0 28.0 83.0 28.4 L83.0 28.6 Q83.0 29.0 82.6 29.0 L82.4 29.0 Q82.0 29.0 82.0 29.4 L82.0 29.6 Q82.0 30.0 81.6 30.0 L81.4 30.0 Q81.0 30.0 81.0 30.4 L81.0 30.6 Q81.0 31.0 80.6 31.0 L80.4 31.0 Q80.0 31.0 80.0 31.4 L80.0 31.6 Q80.0 32.0 79.6 32.0 L79.4 32.0 Q79.0 32.0 79.0 32.4 L79.0 32.6 Q79.0 33.0 78.7 33.3 L75.3 35.7 Q75.0 36.0 75.0 35.6 L75.0 35.4 Q75.0 35.0 75.4 35.0 L75.6 35.0 Q76.0 35.0 76.0 34.6 L76.0 34.4 Q76.0 34.0 76.4 34.0 L76.6 34.0 Q77.0 34.0 77.0 33.6 L77.0 33.4 Q77.0 33.0 77.4 33.0 L77.6 33.0 Q78.0 33.0 78.0 32.6 L78.0 32.4 Q78.0 32.0 78.4 32.0 L78.6 32.0 Q79.0 32.0 79.0 31.6 L79.0 31.4 Q79.0 31.0 79.4 31.0 L79.6 31.0 Q80.0 31.0 80.0 30.6 L80.0 30.4 Q80.0 30.0 80.4 30.0 L80.6 30.0 Q81.0 30.0 81.0 29.6 L81.0 29.4 Q81.0 29.0 81.4 29.0 L81.6 29.0 Q82.0 29.0 82.0 28.6 L82.0 28.4 Q82.0 28.0 82.4 28.0 L82.6 28.0 Q83.0 28.0 83.0 27.6 L83.0 27.4 Q83.0 27.0 83.3 26.7 Z M25.0 26.4 Q25.0 26.0 25.4 26.0 L25.6 26.0 Q26.0 26.0 26.0 26.4 L26.0 26.6 Q26.0 27.0 25.6 27.0 L25.4 27.0 Q25.0 27.0 25.0 26.6 Z M27.0 26.4 Q27.0 26.0 27.4 26.0 L27.6 26.0 Q28.0 26.0 28.0 26.4 L28.0 26.6 Q28.0 27.0 27.6 27.0 L27.4 27.0 Q27.0 27.0 27.0 26.6 Z M30.0 26.4 Q30.0 26.0 30.4 26.0 L30.6 26.0 Q31.0 26.0 31.0 26.4 L31.0 26.6 Q31.0 27.0 30.6 27.0 L30.4 27.0 Q30.0 27.0 30.0 26.6 Z M74.0 28.4 Q74.0 28.0 74.4 28.0 L74.6 28.0 Q75.0 28.0 75.0 28.4 L75.0 28.6 Q75.0 29.0 74.6 29.0 L74.4 29.0 Q74.0 29.0 74.0 28.6 Z M24.0 29.4 Q24.0 29.0 24.4 29.0 L24.6 29.0 Q25.0 29.0 25.0 29.4 L25.0 30.6 Q25.0 31.0 24.6 31.0 L24.4 31.0 Q24.0 31.0 24.0 30.6 Z M73.0 32.6 Q73.0 33.0 72.6 33.0 L71.4 33.0 Q71.0 33.0 71.0 32.6 L71.0 31.4 Q71.0 31.0 71.4 31.0 L71.6 31.0 Q72.0 31.0 72.0 30.6 L72.0 30.4 Q72.0 30.0 72.4 30.0 L72.6 30.0 Q73.0 30.0 73.0 30.4 Z" fill="rgb(84,108,126)" stroke="rgb(84,108,126)" stroke-width="0.12"/><path d="M52.6 10.0 Q53.0 10.0 53.0 10.4 L53.0 10.6 Q53.0 11.0 52.6 11.0 L47.4 11.0 Q47.0 11.0 47.0 10.6 L47.0 10.4 Q47.0 10.0 46.6 10.0 L45.4 10.0 Q45.0 10.0 45.0 9.6 L45.0 9.4 Q45.0 9.0 44.6 8.8 L43.4 8.2 Q43.0 8.0 43.0 7.6 L43.0 6.4 Q43.0 6.0 42.6 6.0 L30.4 6.0 Q30.0 6.0 30.0 6.4 L30.0 6.6 Q30.0 7.0 29.6 7.0 L29.4 7.0 Q29.0 7.0 29.0 7.4 L29.0 7.6 Q29.0 8.0 28.6 8.0 L28.4 8.0 Q28.0 8.0 28.0 8.4 L28.0 8.6 Q28.0 9.0 27.6 9.0 L27.4 9.0 Q27.0 9.0 27.0 9.4 L27.0 9.6 Q27.0 10.0 26.6 10.0 L26.4 10.0 Q26.0 10.0 26.0 10.4 L26.0 10.6 Q26.0 11.0 25.6 11.0 L25.4 11.0 Q25.0 11.0 25.0 11.4 L25.0 11.6 Q25.0 12.0 24.6 12.0 L24.4 12.0 Q24.0 12.0 24.0 12.4 L24.0 12.6 Q24.0 13.0 23.6 13.0 L23.4 13.0 Q23.0 13.0 23.0 13.4 L23.0 13.6 Q23.0 14.0 22.6 14.0 L22.4 14.0 Q22.0 14.0 22.0 14.4 L22.0 14.6 Q22.0 15.0 21.6 15.0 L21.4 15.0 Q21.0 15.0 21.0 15.4 L21.0 15.6 Q21.0 16.0 20.6 16.0 L20.4 16.0 Q20.0 16.0 20.0 16.4 L20.0 16.6 Q20.0 17.0 19.6 17.0 L19.4 17.0 Q19.0 17.0 19.0 17.4 L19.0 17.6 Q19.0 18.0 18.6 18.0 L18.4 18.0 Q18.0 18.0 18.0 18.4 L18.0 18.6 Q18.0 19.0 17.6 19.0 L17.4 19.0 Q17.0 19.0 17.0 19.4 L17.0 19.6 Q17.0 20.0 16.7 20.3 L13.3 22.7 Q13.0 23.0 13.0 23.4 L13.0 24.6 Q13.0 25.0 13.4 25.0 L13.6 25.0 Q14.0 25.0 14.0 25.4 L14.0 25.6 Q14.0 26.0 14.4 26.0 L14.6 26.0 Q15.0 26.0 15.0 26.4 L15.0 26.6 Q15.0 27.0 15.4 27.0 L15.6 27.0 Q16.0 27.0 16.0 27.4 L16.0 27.6 Q16.0 28.0 16.4 28.0 L16.6 28.0 Q17.0 28.0 17.0 28.4 L17.0 28.6 Q17.0 29.0 17.4 29.0 L17.6 29.0 Q18.0 29.0 18.0 29.4 L18.0 29.6 Q18.0 30.0 18.4 30.0 L18.6 30.0 Q19.0 30.0 19.0 30.4 L19.0 30.6 Q19.0 31.0 19.4 31.0 L19.6 31.0 Q20.0 31.0 20.0 31.4 L20.0 31.6 Q20.0 32.0 20.4 32.0 L20.6 32.0 Q21.0 32.0 21.3 32.3 L23.7 35.7 Q24.0 36.0 24.4 36.0 L25.6 36.0 Q26.0 36.0 26.0 36.4 L26.0 36.6 Q26.0 37.0 25.6 37.0 L24.4 37.0 Q24.0 37.0 24.0 36.6 L24.0 36.4 Q24.0 36.0 23.6 36.0 L23.4 36.0 Q23.0 36.0 23.0 35.6 L23.0 35.4 Q23.0 35.0 22.6 35.0 L22.4 35.0 Q22.0 35.0 22.0 34.6 L22.0 34.4 Q22.0 34.0 21.6 34.0 L21.4 34.0 Q21.0 34.0 21.0 33.6 L21.0 33.4 Q21.0 33.0 20.6 33.0 L20.4 33.0 Q20.0 33.0 20.0 32.6 L20.0 32.4 Q20.0 32.0 19.6 32.0 L19.4 32.0 Q19.0 32.0 19.0 31.6 L19.0 31.4 Q19.0 31.0 18.6 31.0 L18.4 31.0 Q18.0 31.0 18.0 30.6 L18.0 30.4 Q18.0 30.0 17.6 30.0 L17.4 30.0 Q17.0 30.0 17.0 29.6 L17.0 29.4 Q17.0 29.0 16.6 29.0 L16.4 29.0 Q16.0 29.0 16.0 28.6 L16.0 28.4 Q16.0 28.0 15.7 27.7 L12.3 25.3 Q12.0 25.0 12.0 24.6 L12.0 23.4 Q12.0 23.0 12.4 23.0 L12.6 23.0 Q13.0 23.0 13.0 22.6 L13.0 22.4 Q13.0 22.0 13.4 22.0 L13.6 22.0 Q14.0 22.0 14.0 21.6 L14.0 21.4 Q14.0 21.0 14.4 21.0 L14.6 21.0 Q15.0 21.0 15.0 20.6 L15.0 20.4 Q15.0 20.0 15.4 20.0 L15.6 20.0 Q16.0 20.0 16.0 19.6 L16.0 19.4 Q16.0 19.0 16.4 19.0 L16.6 19.0 Q17.0 19.0 17.0 18.6 L17.0 18.4 Q17.0 18.0 17.4 18.0 L17.6 18.0 Q18.0 18.0 18.0 17.6 L18.0 17.4 Q18.0 17.0 18.4 17.0 L18.6 17.0 Q19.0 17.0 19.0 16.6 L19.0 16.4 Q19.0 16.0 19.4 16.0 L19.6 16.0 Q20.0 16.0 20.0 15.6 L20.0 15.4 Q20.0 15.0 20.4 15.0 L20.6 15.0 Q21.0 15.0 21.0 14.6 L21.0 14.4 Q21.0 14.0 21.4 14.0 L21.6 14.0 Q22.0 14.0 22.0 13.6 L22.0 13.4 Q22.0 13.0 22.4 13.0 L22.6 13.0 Q23.0 13.0 23.0 12.6 L23.0 12.4 Q23.0 12.0 23.4 12.0 L23.6 12.0 Q24.0 12.0 24.0 11.6 L24.0 11.4 Q24.0 11.0 24.4 11.0 L24.6 11.0 Q25.0 11.0 25.0 10.6 L25.0 10.4 Q25.0 10.0 25.4 10.0 L25.6 10.0 Q26.0 10.0 26.0 9.6 L26.0 9.4 Q26.0 9.0 26.4 9.0 L26.6 9.0 Q27.0 9.0 27.3 8.7 L29.7 5.3 Q30.0 5.0 30.4 5.0 L42.6 5.0 Q43.0 5.0 43.2 5.4 L44.8 8.6 Q45.0 9.0 45.4 9.0 L46.6 9.0 Q47.0 9.0 47.0 9.4 L47.0 9.6 Q47.0 10.0 47.4 10.0 Z M53.0 9.4 Q53.0 9.0 53.4 9.0 L54.6 9.0 Q55.0 9.0 55.2 8.6 L56.8 5.4 Q57.0 5.0 57.4 5.0 L69.6 5.0 Q70.0 5.0 70.0 5.4 L70.0 5.6 Q70.0 6.0 70.4 6.0 L70.6 6.0 Q71.0 6.0 71.0 6.4 L71.0 6.6 Q71.0 7.0 71.4 7.0 L71.6 7.0 Q72.0 7.0 72.0 7.4 L72.0 7.6 Q72.0 8.0 72.4 8.0 L72.6 8.0 Q73.0 8.0 73.0 8.4 L73.0 8.6 Q73.0 9.0 73.4 9.0 L73.6 9.0 Q74.0 9.0 74.0 9.4 L74.0 9.6 Q74.0 10.0 74.4 10.0 L74.6 10.0 Q75.0 10.0 75.0 10.4 L75.0 10.6 Q75.0 11.0 75.4 11.0 L75.6 11.0 Q76.0 11.0 76.0 11.4 L76.0 11.6 Q76.0 12.0 76.4 12.0 L76.6 12.0 Q77.0 12.0 77.0 12.4 L77.0 12.6 Q77.0 13.0 77.4 13.0 L77.6 13.0 Q78.0 13.0 78.0 13.4 L78.0 13.6 Q78.0 14.0 78.4 14.0 L78.6 14.0 Q79.0 14.0 79.0 14.4 L79.0 14.6 Q79.0 15.0 79.4 15.0 L79.6 15.0 Q80.0 15.0 80.0 15.4 L80.0 15.6 Q80.0 16.0 80.4 16.0 L80.6 16.0 Q81.0 16.0 81.0 16.4 L81.0 16.6 Q81.0 17.0 81.4 17.0 L81.6 17.0 Q82.0 17.0 82.0 17.4 L82.0 17.6 Q82.0 18.0 82.4 18.0 L82.6 18.0 Q83.0 18.0 83.0 18.4 L83.0 18.6 Q83.0 19.0 83.4 19.0 L83.6 19.0 Q84.0 19.0 84.0 19.4 L84.0 19.6 Q84.0 20.0 84.3 20.3 L87.7 22.7 Q88.0 23.0 88.0 23.4 L88.0 24.6 Q88.0 25.0 87.6 25.0 L87.4 25.0 Q87.0 25.0 87.0 25.4 L87.0 25.6 Q87.0 26.0 86.6 26.0 L86.4 26.0 Q86.0 26.0 86.0 26.4 L86.0 26.6 Q86.0 27.0 85.6 27.0 L85.4 27.0 Q85.0 27.0 85.0 27.4 L85.0 27.6 Q85.0 28.0 84.6 28.0 L84.4 28.0 Q84.0 28.0 84.0 28.4 L84.0 28.6 Q84.0 29.0 83.6 29.0 L83.4 29.0 Q83.0 29.0 83.0 29.4 L83.0 29.6 Q83.0 30.0 82.6 30.0 L82.4 30.0 Q82.0 30.0 82.0 30.4 L82.0 30.6 Q82.0 31.0 81.6 31.0 L81.4 31.0 Q81.0 31.0 81.0 31.4 L81.0 31.6 Q81.0 32.0 80.6 32.0 L80.4 32.0 Q80.0 32.0 80.0 32.4 L80.0 32.6 Q80.0 33.0 79.6 33.0 L79.4 33.0 Q79.0 33.0 78.7 33.3 L76.3 36.7 Q76.0 37.0 75.6 37.0 L74.4 37.0 Q74.0 37.0 74.0 36.6 L74.0 36.4 Q74.0 36.0 74.4 36.0 L75.6 36.0 Q76.0 36.0 76.0 35.6 L76.0 35.4 Q76.0 35.0 76.4 35.0 L76.6 35.0 Q77.0 35.0 77.0 34.6 L77.0 34.4 Q77.0 34.0 77.4 34.0 L77.6 34.0 Q78.0 34.0 78.0 33.6 L78.0 33.4 Q78.0 33.0 78.4 33.0 L78.6 33.0 Q79.0 33.0 79.0 32.6 L79.0 32.4 Q79.0 32.0 79.4 32.0 L79.6 32.0 Q80.0 32.0 80.0 31.6 L80.0 31.4 Q80.0 31.0 80.4 31.0 L80.6 31.0 Q81.0 31.0 81.0 30.6 L81.0 30.4 Q81.0 30.0 81.4 30.0 L81.6 30.0 Q82.0 30.0 82.0 29.6 L82.0 29.4 Q82.0 29.0 82.4 29.0 L82.6 29.0 Q83.0 29.0 83.0 28.6 L83.0 28.4 Q83.0 28.0 83.3 27.7 L86.7 25.3 Q87.0 25.0 87.0 24.6 L87.0 23.4 Q87.0 23.0 86.6 23.0 L86.4 23.0 Q86.0 23.0 86.0 22.6 L86.0 22.4 Q86.0 22.0 85.6 22.0 L85.4 22.0 Q85.0 22.0 85.0 21.6 L85.0 21.4 Q85.0 21.0 84.6 21.0 L84.4 21.0 Q84.0 21.0 84.0 20.6 L84.0 20.4 Q84.0 20.0 83.6 20.0 L83.4 20.0 Q83.0 20.0 83.0 19.6 L83.0 19.4 Q83.0 19.0 82.6 19.0 L82.4 19.0 Q82.0 19.0 82.0 18.6 L82.0 18.4 Q82.0 18.0 81.6 18.0 L81.4 18.0 Q81.0 18.0 81.0 17.6 L81.0 17.4 Q81.0 17.0 80.6 17.0 L80.4 17.0 Q80.0 17.0 80.0 16.6 L80.0 16.4 Q80.0 16.0 79.6 16.0 L79.4 16.0 Q79.0 16.0 79.0 15.6 L79.0 15.4 Q79.0 15.0 78.6 15.0 L78.4 15.0 Q78.0 15.0 78.0 14.6 L78.0 14.4 Q78.0 14.0 77.6 14.0 L77.4 14.0 Q77.0 14.0 77.0 13.6 L77.0 13.4 Q77.0 13.0 76.6 13.0 L76.4 13.0 Q76.0 13.0 76.0 12.6 L76.0 12.4 Q76.0 12.0 75.6 12.0 L75.4 12.0 Q75.0 12.0 75.0 11.6 L75.0 11.4 Q75.0 11.0 74.6 11.0 L74.4 11.0 Q74.0 11.0 74.0 10.6 L74.0 10.4 Q74.0 10.0 73.6 10.0 L73.4 10.0 Q73.0 10.0 72.7 9.7 L70.3 6.3 Q70.0 6.0 69.6 6.0 L57.4 6.0 Q57.0 6.0 57.0 6.4 L57.0 7.6 Q57.0 8.0 56.6 8.0 L56.4 8.0 Q56.0 8.0 55.8 8.4 L55.2 9.6 Q55.0 10.0 54.6 10.0 L53.4 10.0 Q53.0 10.0 53.0 9.6 Z M70.0 58.6 Q70.0 59.0 69.6 59.0 L30.4 59.0 Q30.0 59.0 30.0 58.6 L30.0 33.4 Q30.0 33.0 29.6 33.0 L29.4 33.0 Q29.0 33.0 28.8 33.3 L27.2 35.7 Q27.0 36.0 26.6 36.0 L26.4 36.0 Q26.0 36.0 26.0 35.6 L26.0 35.4 Q26.0 35.0 26.4 35.0 L26.6 35.0 Q27.0 35.0 27.0 34.6 L27.0 34.4 Q27.0 34.0 27.3 33.7 L30.7 31.3 Q31.0 31.0 31.0 31.4 L31.0 57.6 Q31.0 58.0 31.4 58.0 L68.6 58.0 Q69.0 58.0 69.0 57.6 L69.0 31.4 Q69.0 31.0 69.4 31.0 L69.6 31.0 Q70.0 31.0 70.0 31.4 L70.0 31.6 Q70.0 32.0 70.3 32.3 L73.7 34.7 Q74.0 35.0 74.0 35.4 L74.0 35.6 Q74.0 36.0 73.6 36.0 L73.4 36.0 Q73.0 36.0 73.0 35.6 L73.0 35.4 Q73.0 35.0 72.7 34.8 L70.3 33.2 Q70.0 33.0 70.0 33.4 Z" fill="rgb(0,0,0)" stroke="rgb(0,0,0)" stroke-width="0.12"/><path d="M33.6 6.0 Q34.0 6.0 33.8 6.4 L33.2 7.6 Q33.0 8.0 32.6 8.0 L30.4 8.0 Q30.0 8.0 30.0 8.4 L30.0 8.6 Q30.0 9.0 29.6 9.0 L29.4 9.0 Q29.0 9.0 29.0 8.6 L29.0 8.4 Q29.0 8.0 29.4 8.0 L29.6 8.0 Q30.0 8.0 30.0 7.6 L30.0 6.4 Q30.0 6.0 30.4 6.0 Z M40.6 6.0 Q41.0 6.0 41.0 6.4 L41.0 8.6 Q41.0 9.0 40.6 9.0 L38.4 9.0 Q38.0 9.0 38.0 8.6 L38.0 8.4 Q38.0 8.0 37.6 8.0 L37.4 8.0 Q37.0 8.0 37.2 7.6 L37.8 6.4 Q38.0 6.0 38.4 6.0 Z M64.0 6.4 Q64.0 6.0 64.4 6.0 L64.6 6.0 Q65.0 6.0 65.0 6.4 L65.0 6.6 Q65.0 7.0 64.6 7.0 L64.4 7.0 Q64.0 7.0 64.0 6.6 Z M60.0 7.4 Q60.0 7.0 60.4 7.0 L61.6 7.0 Q62.0 7.0 62.0 7.4 L62.0 7.6 Q62.0 8.0 61.6 8.0 L60.4 8.0 Q60.0 8.0 60.0 7.6 Z M67.0 8.4 Q67.0 8.0 67.4 8.0 L67.6 8.0 Q68.0 8.0 68.0 8.4 L68.0 8.6 Q68.0 9.0 67.6 9.0 L67.4 9.0 Q67.0 9.0 67.0 8.6 Z M58.0 9.4 Q58.0 9.0 58.4 9.0 L58.6 9.0 Q59.0 9.0 59.0 9.4 L59.0 10.6 Q59.0 11.0 58.6 11.0 L58.4 11.0 Q58.0 11.0 58.0 10.6 Z M63.0 9.4 Q63.0 9.0 63.4 9.0 L63.6 9.0 Q64.0 9.0 64.0 9.4 L64.0 9.6 Q64.0 10.0 63.6 10.0 L63.4 10.0 Q63.0 10.0 63.0 9.6 Z M72.0 9.4 Q72.0 9.0 72.4 9.0 L72.6 9.0 Q73.0 9.0 73.0 9.4 L73.0 9.6 Q73.0 10.0 72.6 10.0 L72.4 10.0 Q72.0 10.0 72.0 9.6 Z M70.0 14.6 Q70.0 15.0 69.6 15.0 L68.4 15.0 Q68.0 15.0 68.0 14.6 L68.0 14.4 Q68.0 14.0 67.6 14.0 L64.4 14.0 Q64.0 14.0 64.0 13.6 L64.0 12.4 Q64.0 12.0 64.4 11.8 L65.6 11.2 Q66.0 11.0 66.2 11.4 L66.8 12.6 Q67.0 13.0 67.4 13.0 L69.6 13.0 Q70.0 13.0 70.0 13.4 Z M59.4 15.0 Q59.0 15.0 59.0 14.6 L59.0 13.4 Q59.0 13.0 59.4 13.0 L60.6 13.0 Q61.0 13.0 61.0 12.6 L61.0 12.4 Q61.0 12.0 61.4 12.0 L61.6 12.0 Q62.0 12.0 62.0 12.4 L62.0 14.6 Q62.0 15.0 61.6 15.0 Z M30.6 13.0 Q31.0 13.0 31.0 13.4 L31.0 13.6 Q31.0 14.0 30.6 14.0 L29.4 14.0 Q29.0 14.0 29.0 14.4 L29.0 14.6 Q29.0 15.0 28.6 15.0 L28.4 15.0 Q28.0 15.0 28.2 14.6 L28.8 13.4 Q29.0 13.0 29.4 13.0 Z M43.0 13.4 Q43.0 13.0 43.4 13.0 L45.6 13.0 Q46.0 13.0 46.0 13.4 L46.0 13.6 Q46.0 14.0 45.6 14.0 L43.4 14.0 Q43.0 14.0 43.0 13.6 Z M76.0 13.4 Q76.0 13.0 76.4 13.0 L76.6 13.0 Q77.0 13.0 77.0 13.4 L77.0 13.6 Q77.0 14.0 76.6 14.0 L76.4 14.0 Q76.0 14.0 76.0 13.6 Z M32.0 14.4 Q32.0 14.0 32.4 14.0 L32.6 14.0 Q33.0 14.0 33.0 14.4 L33.0 14.6 Q33.0 15.0 32.6 15.0 L32.4 15.0 Q32.0 15.0 32.0 14.6 Z M71.4 22.0 Q71.0 22.0 71.0 21.6 L71.0 21.4 Q71.0 21.0 70.6 21.0 L70.4 21.0 Q70.0 21.0 70.0 20.6 L70.0 20.4 Q70.0 20.0 70.4 20.0 L70.6 20.0 Q71.0 20.0 71.0 19.6 L71.0 18.4 Q71.0 18.0 70.6 18.0 L70.4 18.0 Q70.0 18.0 69.8 17.6 L69.2 16.4 Q69.0 16.0 69.4 16.0 L70.6 16.0 Q71.0 16.0 71.0 16.4 L71.0 16.6 Q71.0 17.0 71.4 17.0 L71.6 17.0 Q72.0 17.0 72.0 16.6 L72.0 16.4 Q72.0 16.0 72.4 16.0 L72.6 16.0 Q73.0 16.0 73.0 15.6 L73.0 14.4 Q73.0 14.0 73.4 14.0 L73.6 14.0 Q74.0 14.0 74.0 14.4 L74.0 14.6 Q74.0 15.0 74.4 15.0 L74.6 15.0 Q75.0 15.0 75.0 15.4 L75.0 15.6 Q75.0 16.0 74.6 16.0 L74.4 16.0 Q74.0 16.0 74.0 16.4 L74.0 17.6 Q74.0 18.0 74.4 18.0 L75.6 18.0 Q76.0 18.0 76.0 18.4 L76.0 19.6 Q76.0 20.0 75.6 20.0 L74.4 20.0 Q74.0 20.0 74.0 19.6 L74.0 19.4 Q74.0 19.0 73.6 19.0 L73.4 19.0 Q73.0 19.0 73.0 19.4 L73.0 19.6 Q73.0 20.0 72.6 20.0 L72.4 20.0 Q72.0 20.0 72.0 20.4 L72.0 21.6 Q72.0 22.0 71.6 22.0 Z M16.4 21.0 Q16.0 21.0 16.0 20.6 L16.0 20.4 Q16.0 20.0 16.4 20.0 L16.6 20.0 Q17.0 20.0 17.3 19.7 L19.7 16.3 Q20.0 16.0 20.3 16.2 L22.7 17.8 Q23.0 18.0 23.0 18.4 L23.0 18.6 Q23.0 19.0 22.6 19.0 L22.4 19.0 Q22.0 19.0 22.0 18.6 L22.0 18.4 Q22.0 18.0 21.6 18.0 L19.4 18.0 Q19.0 18.0 19.0 18.4 L19.0 18.6 Q19.0 19.0 18.6 19.0 L18.4 19.0 Q18.0 19.0 18.2 19.4 L18.8 20.6 Q19.0 21.0 19.4 21.0 L21.6 21.0 Q22.0 21.0 22.0 21.4 L22.0 21.6 Q22.0 22.0 21.6 22.0 L17.4 22.0 Q17.0 22.0 17.0 21.6 L17.0 21.4 Q17.0 21.0 16.6 21.0 Z M29.0 16.4 Q29.0 16.0 29.4 16.0 L29.6 16.0 Q30.0 16.0 30.0 16.4 L30.0 16.6 Q30.0 17.0 29.6 17.0 L29.4 17.0 Q29.0 17.0 29.0 16.6 Z M25.0 17.4 Q25.0 17.0 25.4 17.0 L25.6 17.0 Q26.0 17.0 26.0 17.4 L26.0 17.6 Q26.0 18.0 25.6 18.0 L25.4 18.0 Q25.0 18.0 25.0 17.6 Z M31.0 17.4 Q31.0 17.0 31.4 17.0 L31.6 17.0 Q32.0 17.0 32.0 17.4 L32.0 17.6 Q32.0 18.0 31.6 18.0 L31.4 18.0 Q31.0 18.0 31.0 17.6 Z M27.0 19.4 Q27.0 19.0 27.4 19.0 L28.6 19.0 Q29.0 19.0 29.0 18.6 L29.0 18.4 Q29.0 18.0 29.4 18.0 L29.6 18.0 Q30.0 18.0 30.0 18.4 L30.0 19.6 Q30.0 20.0 30.4 20.0 L30.6 20.0 Q31.0 20.0 31.0 20.4 L31.0 20.6 Q31.0 21.0 30.6 21.0 L29.4 21.0 Q29.0 21.0 29.0 20.6 L29.0 20.4 Q29.0 20.0 28.6 20.0 L27.4 20.0 Q27.0 20.0 27.0 19.6 Z M33.0 18.4 Q33.0 18.0 33.4 18.0 L33.6 18.0 Q34.0 18.0 34.0 18.4 L34.0 18.6 Q34.0 19.0 33.6 19.0 L33.4 19.0 Q33.0 19.0 33.0 18.6 Z M37.4 23.0 Q37.0 23.0 37.2 22.6 L38.8 19.4 Q39.0 19.0 39.4 19.0 L40.6 19.0 Q41.0 19.0 41.0 19.4 L41.0 19.6 Q41.0 20.0 41.4 20.0 L41.6 20.0 Q42.0 20.0 42.0 20.4 L42.0 20.6 Q42.0 21.0 41.6 21.0 L41.4 21.0 Q41.0 21.0 41.0 21.4 L41.0 22.6 Q41.0 23.0 40.6 23.0 L40.4 23.0 Q40.0 23.0 40.0 22.6 L40.0 22.4 Q40.0 22.0 39.6 22.0 L39.4 22.0 Q39.0 22.0 39.0 22.4 L39.0 22.6 Q39.0 23.0 38.6 23.0 Z M22.0 20.4 Q22.0 20.0 22.4 20.0 L22.6 20.0 Q23.0 20.0 23.0 20.4 L23.0 20.6 Q23.0 21.0 22.6 21.0 L22.4 21.0 Q22.0 21.0 22.0 20.6 Z M83.6 20.0 Q84.0 20.0 84.0 20.4 L84.0 20.6 Q84.0 21.0 83.6 21.0 L82.4 21.0 Q82.0 21.0 82.0 21.4 L82.0 21.6 Q82.0 22.0 81.6 22.0 L81.4 22.0 Q81.0 22.0 81.2 21.6 L81.8 20.4 Q82.0 20.0 82.4 20.0 Z M25.4 26.0 Q25.0 26.0 25.0 25.6 L25.0 25.4 Q25.0 25.0 25.4 25.0 L28.6 25.0 Q29.0 25.0 29.0 24.6 L29.0 24.4 Q29.0 24.0 29.3 23.8 L31.7 22.2 Q32.0 22.0 31.7 22.3 L29.3 25.7 Q29.0 26.0 28.6 26.0 Z M13.3 23.3 Q13.0 23.0 13.4 23.0 L13.6 23.0 Q14.0 23.0 14.0 23.4 L14.0 23.6 Q14.0 24.0 14.4 24.0 L14.6 24.0 Q15.0 24.0 15.0 24.4 L15.0 24.6 Q15.0 25.0 15.4 25.0 L15.6 25.0 Q16.0 25.0 16.0 25.4 L16.0 25.6 Q16.0 26.0 16.4 26.0 L16.6 26.0 Q17.0 26.0 17.0 26.4 L17.0 26.6 Q17.0 27.0 17.4 27.0 L17.6 27.0 Q18.0 27.0 18.0 27.4 L18.0 27.6 Q18.0 28.0 18.4 28.0 L18.6 28.0 Q19.0 28.0 19.0 28.4 L19.0 28.6 Q19.0 29.0 19.4 29.0 L19.6 29.0 Q20.0 29.0 20.0 29.4 L20.0 29.6 Q20.0 30.0 20.4 30.0 L20.6 30.0 Q21.0 30.0 21.0 30.4 L21.0 30.6 Q21.0 31.0 21.4 31.0 L21.6 31.0 Q22.0 31.0 22.0 31.4 L22.0 31.6 Q22.0 32.0 22.4 32.0 L22.6 32.0 Q23.0 32.0 23.3 32.3 L25.7 35.7 Q26.0 36.0 25.6 36.0 L25.4 36.0 Q25.0 36.0 25.0 35.6 L25.0 35.4 Q25.0 35.0 24.6 35.0 L24.4 35.0 Q24.0 35.0 24.0 34.6 L24.0 34.4 Q24.0 34.0 23.6 34.0 L23.4 34.0 Q23.0 34.0 23.0 33.6 L23.0 33.4 Q23.0 33.0 22.6 33.0 L22.4 33.0 Q22.0 33.0 22.0 32.6 L22.0 32.4 Q22.0 32.0 21.6 32.0 L21.4 32.0 Q21.0 32.0 21.0 31.6 L21.0 31.4 Q21.0 31.0 20.6 31.0 L20.4 31.0 Q20.0 31.0 20.0 30.6 L20.0 30.4 Q20.0 30.0 19.6 30.0 L19.4 30.0 Q19.0 30.0 19.0 29.6 L19.0 29.4 Q19.0 29.0 18.6 29.0 L18.4 29.0 Q18.0 29.0 18.0 28.6 L18.0 28.4 Q18.0 28.0 17.6 28.0 L17.4 28.0 Q17.0 28.0 17.0 27.6 L17.0 27.4 Q17.0 27.0 16.6 27.0 L16.4 27.0 Q16.0 27.0 15.7 26.7 Z M23.2 23.4 Q23.0 23.0 23.4 23.0 L23.6 23.0 Q24.0 23.0 24.2 23.4 L24.8 24.6 Q25.0 25.0 24.6 25.0 L24.4 25.0 Q24.0 25.0 23.8 24.6 Z M78.0 23.4 Q78.0 23.0 78.4 23.0 L80.6 23.0 Q81.0 23.0 81.0 23.4 L81.0 23.6 Q81.0 24.0 80.6 24.0 L78.4 24.0 Q78.0 24.0 78.0 23.6 Z M86.7 23.3 Q87.0 23.0 87.0 23.4 L87.0 23.6 Q87.0 24.0 86.6 24.0 L86.4 24.0 Q86.0 24.0 86.0 24.4 L86.0 24.6 Q86.0 25.0 85.6 25.0 L85.4 25.0 Q85.0 25.0 85.0 25.4 L85.0 25.6 Q85.0 26.0 84.6 26.0 L84.4 26.0 Q84.0 26.0 84.0 26.4 L84.0 26.6 Q84.0 27.0 83.6 27.0 L83.4 27.0 Q83.0 27.0 83.0 27.4 L83.0 27.6 Q83.0 28.0 82.6 28.0 L82.4 28.0 Q82.0 28.0 82.0 28.4 L82.0 28.6 Q82.0 29.0 81.6 29.0 L81.4 29.0 Q81.0 29.0 81.0 29.4 L81.0 29.6 Q81.0 30.0 80.6 30.0 L80.4 30.0 Q80.0 30.0 80.0 30.4 L80.0 30.6 Q80.0 31.0 79.6 31.0 L79.4 31.0 Q79.0 31.0 79.0 31.4 L79.0 31.6 Q79.0 32.0 78.6 32.0 L78.4 32.0 Q78.0 32.0 78.0 32.4 L78.0 32.6 Q78.0 33.0 77.7 33.3 L74.3 35.7 Q74.0 36.0 74.0 35.6 L74.0 35.4 Q74.0 35.0 74.4 35.0 L74.6 35.0 Q75.0 35.0 75.0 34.6 L75.0 34.4 Q75.0 34.0 75.4 34.0 L75.6 34.0 Q76.0 34.0 76.0 33.6 L76.0 33.4 Q76.0 33.0 76.4 33.0 L76.6 33.0 Q77.0 33.0 77.0 32.6 L77.0 32.4 Q77.0 32.0 77.4 32.0 L77.6 32.0 Q78.0 32.0 78.0 31.6 L78.0 31.4 Q78.0 31.0 78.4 31.0 L78.6 31.0 Q79.0 31.0 79.0 30.6 L79.0 30.4 Q79.0 30.0 79.4 30.0 L79.6 30.0 Q80.0 30.0 80.0 29.6 L80.0 29.4 Q80.0 29.0 80.4 29.0 L80.6 29.0 Q81.0 29.0 81.0 28.6 L81.0 28.4 Q81.0 28.0 81.4 28.0 L81.6 28.0 Q82.0 28.0 82.0 27.6 L82.0 27.4 Q82.0 27.0 82.4 27.0 L82.6 27.0 Q83.0 27.0 83.0 26.6 L83.0 26.4 Q83.0 26.0 83.3 25.7 Z M19.0 24.4 Q19.0 24.0 19.4 24.0 L19.6 24.0 Q20.0 24.0 20.0 24.4 L20.0 24.6 Q20.0 25.0 19.6 25.0 L19.4 25.0 Q19.0 25.0 19.0 24.6 Z M74.0 33.6 Q74.0 34.0 73.6 34.0 L73.4 34.0 Q73.0 34.0 73.0 33.6 L73.0 30.4 Q73.0 30.0 72.6 30.0 L72.4 30.0 Q72.0 30.0 72.0 29.6 L72.0 29.4 Q72.0 29.0 71.7 29.2 L69.3 30.8 Q69.0 31.0 69.0 30.6 L69.0 30.4 Q69.0 30.0 69.4 30.0 L69.6 30.0 Q70.0 30.0 70.3 29.7 L72.7 26.3 Q73.0 26.0 73.4 26.0 L73.6 26.0 Q74.0 26.0 74.0 26.4 L74.0 26.6 Q74.0 27.0 73.6 27.0 L73.4 27.0 Q73.0 27.0 72.8 27.4 L72.2 28.6 Q72.0 29.0 72.4 29.2 L73.6 29.8 Q74.0 30.0 74.0 30.4 Z M70.0 27.4 Q70.0 27.0 70.4 27.0 L70.6 27.0 Q71.0 27.0 71.0 27.4 L71.0 27.6 Q71.0 28.0 70.6 28.0 L70.4 28.0 Q70.0 28.0 70.0 27.6 Z M79.0 27.4 Q79.0 27.0 79.4 27.0 L79.6 27.0 Q80.0 27.0 80.0 27.4 L80.0 27.6 Q80.0 28.0 79.6 28.0 L79.4 28.0 Q79.0 28.0 79.0 27.6 Z M21.2 28.3 Q21.0 28.0 21.4 28.0 L21.6 28.0 Q22.0 28.0 22.2 28.3 L23.8 30.7 Q24.0 31.0 23.6 31.0 L23.4 31.0 Q23.0 31.0 22.8 30.7 Z M75.0 28.4 Q75.0 28.0 75.4 28.0 L75.6 28.0 Q76.0 28.0 76.0 28.4 L76.0 28.6 Q76.0 29.0 75.6 29.0 L75.4 29.0 Q75.0 29.0 75.0 28.6 Z" fill="rgb(155,190,206)" stroke="rgb(155,190,206)" stroke-width="0.12"/><path d="M31.4 9.0 Q31.0 9.0 31.0 8.6 L31.0 8.4 Q31.0 8.0 31.4 8.0 L33.6 8.0 Q34.0 8.0 34.0 7.6 L34.0 6.4 Q34.0 6.0 34.4 6.0 L35.6 6.0 Q36.0 6.0 36.0 6.4 L36.0 6.6 Q36.0 7.0 35.6 7.0 L35.4 7.0 Q35.0 7.0 35.0 7.4 L35.0 8.6 Q35.0 9.0 34.6 9.0 Z M29.0 7.4 Q29.0 7.0 29.4 7.0 L29.6 7.0 Q30.0 7.0 30.0 7.4 L30.0 7.6 Q30.0 8.0 29.6 8.0 L29.4 8.0 Q29.0 8.0 29.0 7.6 Z M43.6 11.0 Q44.0 11.0 44.0 11.4 L44.0 12.6 Q44.0 13.0 43.6 13.0 L42.4 13.0 Q42.0 13.0 42.0 13.4 L42.0 13.6 Q42.0 14.0 41.6 14.0 L40.4 14.0 Q40.0 14.0 40.0 14.4 L40.0 14.6 Q40.0 15.0 39.6 15.0 L37.4 15.0 Q37.0 15.0 37.0 15.4 L37.0 15.6 Q37.0 16.0 36.6 16.0 L36.4 16.0 Q36.0 16.0 36.0 15.6 L36.0 15.4 Q36.0 15.0 35.6 15.0 L34.4 15.0 Q34.0 15.0 34.0 14.6 L34.0 14.4 Q34.0 14.0 33.6 14.0 L32.4 14.0 Q32.0 14.0 32.0 13.6 L32.0 11.4 Q32.0 11.0 31.6 11.0 L31.4 11.0 Q31.0 11.0 31.0 11.4 L31.0 11.6 Q31.0 12.0 30.6 12.0 L29.4 12.0 Q29.0 12.0 29.2 11.6 L29.8 10.4 Q30.0 10.0 30.4 10.0 L31.6 10.0 Q32.0 10.0 32.0 10.4 L32.0 10.6 Q32.0 11.0 32.4 11.0 L35.6 11.0 Q36.0 11.0 36.0 10.6 L36.0 10.4 Q36.0 10.0 36.4 10.0 L36.6 10.0 Q37.0 10.0 37.0 10.4 L37.0 10.6 Q37.0 11.0 37.4 11.0 L40.6 11.0 Q41.0 11.0 41.0 10.6 L41.0 10.4 Q41.0 10.0 41.4 10.0 L42.6 10.0 Q43.0 10.0 43.0 10.4 L43.0 10.6 Q43.0 11.0 43.4 11.0 Z M60.6 10.2 Q61.0 10.0 61.0 10.4 L61.0 11.6 Q61.0 12.0 60.7 12.2 L58.3 13.8 Q58.0 14.0 58.0 13.6 L58.0 13.4 Q58.0 13.0 58.4 13.0 L58.6 13.0 Q59.0 13.0 59.0 12.6 L59.0 11.4 Q59.0 11.0 59.4 10.8 Z M71.0 10.4 Q71.0 10.0 71.4 10.0 L71.6 10.0 Q72.0 10.0 72.0 10.4 L72.0 10.6 Q72.0 11.0 71.6 11.0 L71.4 11.0 Q71.0 11.0 71.0 10.6 Z M52.4 14.0 Q52.0 14.0 52.0 13.6 L52.0 13.4 Q52.0 13.0 52.4 13.0 L53.6 13.0 Q54.0 13.0 54.0 12.6 L54.0 12.4 Q54.0 12.0 54.4 12.0 L55.6 12.0 Q56.0 12.0 56.0 11.6 L56.0 11.4 Q56.0 11.0 56.4 11.0 L56.6 11.0 Q57.0 11.0 57.0 11.4 L57.0 13.6 Q57.0 14.0 56.6 14.0 Z M62.0 11.4 Q62.0 11.0 62.4 11.0 L63.6 11.0 Q64.0 11.0 64.0 11.4 L64.0 11.6 Q64.0 12.0 63.6 12.0 L62.4 12.0 Q62.0 12.0 62.0 11.6 Z M75.8 15.7 Q76.0 16.0 75.6 16.0 L75.4 16.0 Q75.0 16.0 74.8 15.6 L74.2 14.4 Q74.0 14.0 73.6 14.0 L71.4 14.0 Q71.0 14.0 71.0 14.4 L71.0 14.6 Q71.0 15.0 70.7 15.2 L68.3 16.8 Q68.0 17.0 68.0 16.6 L68.0 16.4 Q68.0 16.0 68.3 15.8 L70.7 14.2 Q71.0 14.0 70.8 13.6 L70.2 12.4 Q70.0 12.0 70.4 12.0 L70.6 12.0 Q71.0 12.0 71.0 12.4 L71.0 12.6 Q71.0 13.0 71.4 13.0 L73.6 13.0 Q74.0 13.0 74.2 13.3 Z M46.0 13.4 Q46.0 13.0 46.4 13.0 L47.6 13.0 Q48.0 13.0 48.0 13.4 L48.0 13.6 Q48.0 14.0 47.6 14.0 L46.4 14.0 Q46.0 14.0 46.0 13.6 Z M77.0 14.4 Q77.0 14.0 77.4 14.0 L77.6 14.0 Q78.0 14.0 78.0 14.4 L78.0 14.6 Q78.0 15.0 77.6 15.0 L77.4 15.0 Q77.0 15.0 77.0 14.6 Z M64.0 16.4 Q64.0 16.0 64.4 16.0 L66.6 16.0 Q67.0 16.0 67.0 16.4 L67.0 16.6 Q67.0 17.0 66.6 17.0 L64.4 17.0 Q64.0 17.0 64.0 16.6 Z M22.0 17.4 Q22.0 17.0 22.4 17.0 L22.6 17.0 Q23.0 17.0 23.0 17.4 L23.0 17.6 Q23.0 18.0 22.6 18.0 L22.4 18.0 Q22.0 18.0 22.0 17.6 Z M66.2 19.4 Q66.0 19.0 66.4 19.0 L66.6 19.0 Q67.0 19.0 67.2 19.4 L67.8 20.6 Q68.0 21.0 67.6 21.0 L67.4 21.0 Q67.0 21.0 66.8 20.6 Z M82.6 19.2 Q83.0 19.0 83.0 19.4 L83.0 19.6 Q83.0 20.0 82.6 20.2 L81.4 20.8 Q81.0 21.0 81.0 20.6 L81.0 20.4 Q81.0 20.0 81.4 19.8 Z M15.0 21.4 Q15.0 21.0 15.4 21.2 L16.6 21.8 Q17.0 22.0 17.0 22.4 L17.0 23.6 Q17.0 24.0 16.6 23.8 L15.4 23.2 Q15.0 23.0 15.0 22.6 Z M22.0 21.4 Q22.0 21.0 22.4 21.0 L22.6 21.0 Q23.0 21.0 23.0 21.4 L23.0 21.6 Q23.0 22.0 22.6 22.0 L22.4 22.0 Q22.0 22.0 22.0 21.6 Z M73.6 23.0 Q74.0 23.0 74.0 23.4 L74.0 23.6 Q74.0 24.0 73.6 24.0 L71.4 24.0 Q71.0 24.0 71.0 24.4 L71.0 24.6 Q71.0 25.0 71.4 25.0 L73.6 25.0 Q74.0 25.0 74.0 25.4 L74.0 25.6 Q74.0 26.0 73.6 26.0 L71.4 26.0 Q71.0 26.0 71.0 26.4 L71.0 26.6 Q71.0 27.0 70.6 27.2 L69.4 27.8 Q69.0 28.0 69.0 27.6 L69.0 27.4 Q69.0 27.0 69.4 26.8 L70.6 26.2 Q71.0 26.0 71.0 25.6 L71.0 25.4 Q71.0 25.0 70.6 25.2 L69.4 25.8 Q69.0 26.0 69.0 25.6 L69.0 24.4 Q69.0 24.0 69.4 24.0 L69.6 24.0 Q70.0 24.0 70.0 23.6 L70.0 23.4 Q70.0 23.0 70.4 23.0 Z M19.0 25.4 Q19.0 25.0 19.4 25.0 L19.6 25.0 Q20.0 25.0 20.0 25.4 L20.0 25.6 Q20.0 26.0 19.6 26.0 L19.4 26.0 Q19.0 26.0 19.0 25.6 Z M26.0 26.4 Q26.0 26.0 26.4 26.0 L26.6 26.0 Q27.0 26.0 27.0 26.4 L27.0 26.6 Q27.0 27.0 26.6 27.0 L26.4 27.0 Q26.0 27.0 26.0 26.6 Z M20.0 27.4 Q20.0 27.0 20.4 27.0 L23.6 27.0 Q24.0 27.0 24.0 27.4 L24.0 27.6 Q24.0 28.0 23.6 28.0 L20.4 28.0 Q20.0 28.0 20.0 27.6 Z M24.0 31.4 Q24.0 31.0 24.4 31.0 L24.6 31.0 Q25.0 31.0 25.0 31.4 L25.0 31.6 Q25.0 32.0 24.6 32.0 L24.4 32.0 Q24.0 32.0 24.0 31.6 Z" fill="rgb(83,132,169)" stroke="rgb(83,132,169)" stroke-width="0.12"/><path d="M36.6 7.0 Q37.0 7.0 37.0 7.4 L37.0 8.6 Q37.0 9.0 36.6 9.2 L35.4 9.8 Q35.0 10.0 35.0 9.6 L35.0 9.4 Q35.0 9.0 35.4 9.0 L35.6 9.0 Q36.0 9.0 36.0 8.6 L36.0 7.4 Q36.0 7.0 36.4 7.0 Z M29.0 9.4 Q29.0 9.0 29.4 9.0 L30.6 9.0 Q31.0 9.0 31.0 9.4 L31.0 9.6 Q31.0 10.0 30.6 10.0 L29.4 10.0 Q29.0 10.0 29.0 9.6 Z M32.0 9.4 Q32.0 9.0 32.4 9.0 L33.6 9.0 Q34.0 9.0 34.0 9.4 L34.0 9.6 Q34.0 10.0 33.6 10.0 L32.4 10.0 Q32.0 10.0 32.0 9.6 Z M26.6 12.0 Q27.0 12.0 26.9 12.4 L26.1 15.6 Q26.0 16.0 25.6 16.0 L24.4 16.0 Q24.0 16.0 24.0 15.6 L24.0 15.4 Q24.0 15.0 23.6 15.0 L23.4 15.0 Q23.0 15.0 23.0 15.4 L23.0 16.6 Q23.0 17.0 22.6 17.0 L22.4 17.0 Q22.0 17.0 22.0 16.6 L22.0 15.4 Q22.0 15.0 22.4 15.0 L22.6 15.0 Q23.0 15.0 23.2 14.6 L23.8 13.4 Q24.0 13.0 24.4 13.0 L25.6 13.0 Q26.0 13.0 26.0 12.6 L26.0 12.4 Q26.0 12.0 26.4 12.0 Z M63.0 15.4 Q63.0 15.0 63.4 15.0 L64.6 15.0 Q65.0 15.0 65.0 15.4 L65.0 15.6 Q65.0 16.0 64.6 16.0 L63.4 16.0 Q63.0 16.0 63.0 15.6 Z M78.6 17.0 Q79.0 17.0 79.0 17.4 L79.0 21.6 Q79.0 22.0 78.6 22.0 L78.4 22.0 Q78.0 22.0 78.0 21.6 L78.0 21.4 Q78.0 21.0 77.6 21.0 L75.4 21.0 Q75.0 21.0 75.0 20.6 L75.0 20.4 Q75.0 20.0 75.4 20.0 L75.6 20.0 Q76.0 20.0 76.0 19.6 L76.0 17.4 Q76.0 17.0 76.4 17.0 Z M68.3 23.8 Q68.0 24.0 68.0 23.6 L68.0 23.4 Q68.0 23.0 68.4 23.0 L68.6 23.0 Q69.0 23.0 68.8 22.6 L68.2 21.4 Q68.0 21.0 68.4 20.8 L69.6 20.2 Q70.0 20.0 70.2 20.4 L70.8 21.6 Q71.0 22.0 70.7 22.2 Z M76.6 22.2 Q77.0 22.0 77.0 22.4 L77.0 23.6 Q77.0 24.0 76.6 24.0 L75.4 24.0 Q75.0 24.0 75.0 23.6 L75.0 23.4 Q75.0 23.0 75.4 22.8 Z M20.0 26.4 Q20.0 26.0 20.4 26.0 L20.6 26.0 Q21.0 26.0 21.0 25.6 L21.0 25.4 Q21.0 25.0 21.4 25.0 L23.6 25.0 Q24.0 25.0 24.0 25.4 L24.0 25.6 Q24.0 26.0 24.3 26.2 L26.7 27.8 Q27.0 28.0 27.0 27.6 L27.0 27.4 Q27.0 27.0 27.3 26.7 L30.7 24.3 Q31.0 24.0 31.0 24.4 L31.0 24.6 Q31.0 25.0 30.6 25.2 L29.4 25.8 Q29.0 26.0 29.0 26.4 L29.0 27.6 Q29.0 28.0 29.4 28.0 L30.6 28.0 Q31.0 28.0 31.0 28.4 L31.0 30.6 Q31.0 31.0 30.6 31.0 L30.4 31.0 Q30.0 31.0 29.8 31.4 L29.2 32.6 Q29.0 33.0 28.6 33.0 L27.4 33.0 Q27.0 33.0 27.0 33.4 L27.0 33.6 Q27.0 34.0 26.6 34.0 L26.4 34.0 Q26.0 34.0 26.0 33.6 L26.0 32.4 Q26.0 32.0 25.6 32.0 L25.4 32.0 Q25.0 32.0 25.0 31.6 L25.0 28.4 Q25.0 28.0 24.6 28.0 L24.4 28.0 Q24.0 28.0 24.0 27.6 L24.0 27.4 Q24.0 27.0 23.6 27.0 L20.4 27.0 Q20.0 27.0 20.0 26.6 Z" fill="rgb(36,39,63)" stroke="rgb(36,39,63)" stroke-width="0.12"/><path d="M37.0 6.4 Q37.0 6.0 37.4 6.0 L37.6 6.0 Q38.0 6.0 38.0 6.4 L38.0 6.6 Q38.0 7.0 37.6 7.0 L37.4 7.0 Q37.0 7.0 37.0 6.6 Z M59.0 8.4 Q59.0 8.0 59.4 8.0 L60.6 8.0 Q61.0 8.0 61.0 8.4 L61.0 8.6 Q61.0 9.0 60.6 9.0 L59.4 9.0 Q59.0 9.0 59.0 8.6 Z M65.0 9.4 Q65.0 9.0 65.4 9.0 L65.6 9.0 Q66.0 9.0 66.0 9.4 L66.0 9.6 Q66.0 10.0 65.6 10.0 L65.4 10.0 Q65.0 10.0 65.0 9.6 Z M68.0 9.4 Q68.0 9.0 68.4 9.0 L68.6 9.0 Q69.0 9.0 69.0 9.4 L69.0 9.6 Q69.0 10.0 68.6 10.0 L68.4 10.0 Q68.0 10.0 68.0 9.6 Z M70.0 9.4 Q70.0 9.0 70.4 9.1 L73.6 9.9 Q74.0 10.0 74.2 10.3 L75.8 12.7 Q76.0 13.0 75.6 13.0 L75.4 13.0 Q75.0 13.0 74.8 12.6 L74.2 11.4 Q74.0 11.0 73.6 10.9 L70.4 10.1 Q70.0 10.0 70.0 9.6 Z M37.0 10.4 Q37.0 10.0 37.4 10.0 L37.6 10.0 Q38.0 10.0 38.0 10.4 L38.0 10.6 Q38.0 11.0 37.6 11.0 L37.4 11.0 Q37.0 11.0 37.0 10.6 Z M61.0 10.4 Q61.0 10.0 61.4 10.0 L61.6 10.0 Q62.0 10.0 62.0 10.4 L62.0 10.6 Q62.0 11.0 61.6 11.0 L61.4 11.0 Q61.0 11.0 61.0 10.6 Z M63.0 10.4 Q63.0 10.0 63.4 10.0 L63.6 10.0 Q64.0 10.0 64.0 10.4 L64.0 10.6 Q64.0 11.0 63.6 11.0 L63.4 11.0 Q63.0 11.0 63.0 10.6 Z M31.6 11.0 Q32.0 11.0 31.9 11.4 L31.1 15.6 Q31.0 16.0 31.4 16.0 L32.6 16.0 Q33.0 16.0 33.0 16.4 L33.0 16.6 Q33.0 17.0 32.6 17.0 L30.4 17.0 Q30.0 17.0 30.0 16.6 L30.0 14.4 Q30.0 14.0 30.4 14.0 L30.6 14.0 Q31.0 14.0 31.0 13.6 L31.0 11.4 Q31.0 11.0 31.4 11.0 Z M24.0 12.4 Q24.0 12.0 24.4 12.0 L24.6 12.0 Q25.0 12.0 25.0 12.4 L25.0 12.6 Q25.0 13.0 24.6 13.0 L24.4 13.0 Q24.0 13.0 24.0 12.6 Z M44.0 12.4 Q44.0 12.0 44.4 12.0 L44.6 12.0 Q45.0 12.0 45.0 12.4 L45.0 12.6 Q45.0 13.0 44.6 13.0 L44.4 13.0 Q44.0 13.0 44.0 12.6 Z M60.0 12.4 Q60.0 12.0 60.4 12.0 L60.6 12.0 Q61.0 12.0 61.0 12.4 L61.0 12.6 Q61.0 13.0 60.6 13.0 L60.4 13.0 Q60.0 13.0 60.0 12.6 Z M62.0 12.4 Q62.0 12.0 62.4 12.0 L62.6 12.0 Q63.0 12.0 63.0 12.4 L63.0 14.6 Q63.0 15.0 62.6 15.0 L62.4 15.0 Q62.0 15.0 62.0 14.6 Z M33.0 14.4 Q33.0 14.0 33.4 14.0 L33.6 14.0 Q34.0 14.0 34.0 14.4 L34.0 14.6 Q34.0 15.0 33.6 15.0 L33.4 15.0 Q33.0 15.0 33.0 14.6 Z M40.0 14.4 Q40.0 14.0 40.4 14.0 L40.6 14.0 Q41.0 14.0 41.0 14.4 L41.0 14.6 Q41.0 15.0 40.6 15.0 L40.4 15.0 Q40.0 15.0 40.0 14.6 Z M27.0 15.4 Q27.0 15.0 27.4 15.0 L27.6 15.0 Q28.0 15.0 28.0 15.4 L28.0 15.6 Q28.0 16.0 27.6 16.0 L27.4 16.0 Q27.0 16.0 27.0 15.6 Z M35.0 15.4 Q35.0 15.0 35.4 15.0 L35.6 15.0 Q36.0 15.0 36.0 15.4 L36.0 15.6 Q36.0 16.0 35.6 16.0 L35.4 16.0 Q35.0 16.0 35.0 15.6 Z M68.0 15.4 Q68.0 15.0 68.4 15.0 L68.6 15.0 Q69.0 15.0 69.0 15.4 L69.0 15.6 Q69.0 16.0 68.6 16.0 L68.4 16.0 Q68.0 16.0 68.0 15.6 Z M24.0 16.4 Q24.0 16.0 24.4 16.0 L24.6 16.0 Q25.0 16.0 25.0 16.4 L25.0 16.6 Q25.0 17.0 24.6 17.0 L24.4 17.0 Q24.0 17.0 24.0 16.6 Z M34.0 17.4 Q34.0 17.0 34.4 17.0 L34.6 17.0 Q35.0 17.0 35.0 17.4 L35.0 17.6 Q35.0 18.0 34.6 18.0 L34.4 18.0 Q34.0 18.0 34.0 17.6 Z M25.0 18.4 Q25.0 18.0 25.4 18.0 L27.6 18.0 Q28.0 18.0 28.0 18.4 L28.0 18.6 Q28.0 19.0 27.6 19.0 L25.4 19.0 Q25.0 19.0 25.0 18.6 Z M80.6 21.2 Q81.0 21.0 81.0 21.4 L81.0 21.6 Q81.0 22.0 80.6 22.2 L79.4 22.8 Q79.0 23.0 79.0 22.6 L79.0 22.4 Q79.0 22.0 79.4 21.8 Z M14.3 23.3 Q14.0 23.0 14.4 23.0 L14.6 23.0 Q15.0 23.0 15.0 23.4 L15.0 23.6 Q15.0 24.0 15.4 24.0 L15.6 24.0 Q16.0 24.0 16.0 24.4 L16.0 24.6 Q16.0 25.0 16.4 25.0 L16.6 25.0 Q17.0 25.0 17.0 25.4 L17.0 25.6 Q17.0 26.0 17.4 26.0 L17.6 26.0 Q18.0 26.0 18.0 26.4 L18.0 26.6 Q18.0 27.0 18.4 27.0 L18.6 27.0 Q19.0 27.0 19.0 27.4 L19.0 27.6 Q19.0 28.0 19.4 28.0 L19.6 28.0 Q20.0 28.0 20.0 28.4 L20.0 28.6 Q20.0 29.0 20.4 29.0 L20.6 29.0 Q21.0 29.0 21.0 29.4 L21.0 29.6 Q21.0 30.0 21.4 30.0 L21.6 30.0 Q22.0 30.0 22.0 30.4 L22.0 30.6 Q22.0 31.0 22.4 31.0 L22.6 31.0 Q23.0 31.0 23.3 31.3 L25.7 34.7 Q26.0 35.0 25.6 35.0 L25.4 35.0 Q25.0 35.0 25.0 34.6 L25.0 34.4 Q25.0 34.0 24.6 34.0 L24.4 34.0 Q24.0 34.0 24.0 33.6 L24.0 33.4 Q24.0 33.0 23.6 33.0 L23.4 33.0 Q23.0 33.0 23.0 32.6 L23.0 32.4 Q23.0 32.0 22.6 32.0 L22.4 32.0 Q22.0 32.0 22.0 31.6 L22.0 31.4 Q22.0 31.0 21.6 31.0 L21.4 31.0 Q21.0 31.0 21.0 30.6 L21.0 30.4 Q21.0 30.0 20.6 30.0 L20.4 30.0 Q20.0 30.0 20.0 29.6 L20.0 29.4 Q20.0 29.0 19.6 29.0 L19.4 29.0 Q19.0 29.0 19.0 28.6 L19.0 28.4 Q19.0 28.0 18.6 28.0 L18.4 28.0 Q18.0 28.0 18.0 27.6 L18.0 27.4 Q18.0 27.0 17.6 27.0 L17.4 27.0 Q17.0 27.0 16.7 26.7 Z M17.0 23.4 Q17.0 23.0 17.4 23.0 L17.6 23.0 Q18.0 23.0 18.0 23.4 L18.0 24.6 Q18.0 25.0 18.4 25.0 L18.6 25.0 Q19.0 25.0 19.0 25.4 L19.0 25.6 Q19.0 26.0 18.6 25.8 L17.4 25.2 Q17.0 25.0 17.0 24.6 Z M85.7 23.3 Q86.0 23.0 86.0 23.4 L86.0 23.6 Q86.0 24.0 85.6 24.0 L85.4 24.0 Q85.0 24.0 85.0 24.4 L85.0 24.6 Q85.0 25.0 84.6 25.0 L84.4 25.0 Q84.0 25.0 84.0 25.4 L84.0 25.6 Q84.0 26.0 83.6 26.0 L83.4 26.0 Q83.0 26.0 83.0 26.4 L83.0 26.6 Q83.0 27.0 82.6 27.0 L82.4 27.0 Q82.0 27.0 82.0 27.4 L82.0 27.6 Q82.0 28.0 81.6 28.0 L81.4 28.0 Q81.0 28.0 81.0 28.4 L81.0 28.6 Q81.0 29.0 80.6 29.0 L80.4 29.0 Q80.0 29.0 80.0 29.4 L80.0 29.6 Q80.0 30.0 79.6 30.0 L79.4 30.0 Q79.0 30.0 79.0 30.4 L79.0 30.6 Q79.0 31.0 78.6 31.0 L78.4 31.0 Q78.0 31.0 78.0 31.4 L78.0 31.6 Q78.0 32.0 77.7 32.3 L74.3 34.7 Q74.0 35.0 74.0 34.6 L74.0 34.4 Q74.0 34.0 74.4 34.0 L74.6 34.0 Q75.0 34.0 75.0 33.6 L75.0 33.4 Q75.0 33.0 75.4 33.0 L75.6 33.0 Q76.0 33.0 76.0 32.6 L76.0 32.4 Q76.0 32.0 76.4 32.0 L76.6 32.0 Q77.0 32.0 77.0 31.6 L77.0 31.4 Q77.0 31.0 77.4 31.0 L77.6 31.0 Q78.0 31.0 78.0 30.6 L78.0 30.4 Q78.0 30.0 78.4 30.0 L78.6 30.0 Q79.0 30.0 79.0 29.6 L79.0 29.4 Q79.0 29.0 79.4 29.0 L79.6 29.0 Q80.0 29.0 80.0 28.6 L80.0 28.4 Q80.0 28.0 80.4 28.0 L80.6 28.0 Q81.0 28.0 81.0 27.6 L81.0 27.4 Q81.0 27.0 81.4 27.0 L81.6 27.0 Q82.0 27.0 82.0 26.6 L82.0 26.4 Q82.0 26.0 82.3 25.7 Z M21.0 24.4 Q21.0 24.0 21.4 24.0 L21.6 24.0 Q22.0 24.0 22.0 24.4 L22.0 24.6 Q22.0 25.0 21.6 25.0 L21.4 25.0 Q21.0 25.0 21.0 24.6 Z M78.0 24.4 Q78.0 24.0 78.4 24.0 L78.6 24.0 Q79.0 24.0 79.0 24.4 L79.0 24.6 Q79.0 25.0 78.6 25.0 L78.4 25.0 Q78.0 25.0 78.0 24.6 Z M76.0 25.4 Q76.0 25.0 76.4 25.0 L76.6 25.0 Q77.0 25.0 77.0 25.4 L77.0 25.6 Q77.0 26.0 76.6 26.0 L76.4 26.0 Q76.0 26.0 76.0 25.6 Z M78.6 27.2 Q79.0 27.0 79.0 27.4 L79.0 27.6 Q79.0 28.0 78.6 28.2 L77.4 28.8 Q77.0 29.0 77.0 28.6 L77.0 28.4 Q77.0 28.0 77.4 27.8 Z M22.2 28.4 Q22.0 28.0 22.4 28.0 L22.6 28.0 Q23.0 28.0 23.2 28.4 L23.8 29.6 Q24.0 30.0 23.6 30.0 L23.4 30.0 Q23.0 30.0 22.8 29.6 Z M72.0 33.4 Q72.0 33.0 72.4 33.0 L72.6 33.0 Q73.0 33.0 73.0 33.4 L73.0 33.6 Q73.0 34.0 72.6 34.0 L72.4 34.0 Q72.0 34.0 72.0 33.6 Z" fill="rgb(146,162,170)" stroke="rgb(146,162,170)" stroke-width="0.12"/><path d="M33.4 11.0 Q33.0 11.0 33.0 10.6 L33.0 10.4 Q33.0 10.0 33.3 9.8 L35.7 8.2 Q36.0 8.0 36.0 8.4 L36.0 8.6 Q36.0 9.0 35.6 9.0 L35.4 9.0 Q35.0 9.0 35.2 9.4 L35.8 10.6 Q36.0 11.0 35.6 11.0 Z M61.0 8.4 Q61.0 8.0 61.4 8.0 L61.6 8.0 Q62.0 8.0 62.0 8.4 L62.0 8.6 Q62.0 9.0 61.6 9.0 L61.4 9.0 Q61.0 9.0 61.0 8.6 Z M37.0 9.4 Q37.0 9.0 37.4 9.0 L37.6 9.0 Q38.0 9.0 38.0 9.4 L38.0 9.6 Q38.0 10.0 37.6 10.0 L37.4 10.0 Q37.0 10.0 37.0 9.6 Z M41.6 9.0 Q42.0 9.0 41.8 9.4 L41.2 10.6 Q41.0 11.0 40.6 11.0 L39.4 11.0 Q39.0 11.0 39.2 10.6 L39.8 9.4 Q40.0 9.0 40.4 9.0 Z M29.6 10.2 Q30.0 10.0 30.0 10.4 L30.0 10.6 Q30.0 11.0 29.6 11.2 L28.4 11.8 Q28.0 12.0 28.0 11.6 L28.0 11.4 Q28.0 11.0 28.4 10.8 Z M25.0 12.4 Q25.0 12.0 25.4 12.0 L25.6 12.0 Q26.0 12.0 26.0 12.4 L26.0 12.6 Q26.0 13.0 25.6 13.0 L25.4 13.0 Q25.0 13.0 25.0 12.6 Z M58.0 12.4 Q58.0 12.0 58.4 12.0 L58.6 12.0 Q59.0 12.0 59.0 12.4 L59.0 12.6 Q59.0 13.0 58.6 13.0 L58.4 13.0 Q58.0 13.0 58.0 12.6 Z M23.6 13.2 Q24.0 13.0 24.0 13.4 L24.0 13.6 Q24.0 14.0 23.6 14.0 L23.4 14.0 Q23.0 14.0 23.2 14.4 L23.8 15.6 Q24.0 16.0 23.6 16.0 L23.4 16.0 Q23.0 16.0 22.8 15.6 L22.2 14.4 Q22.0 14.0 22.4 13.8 Z M27.6 13.2 Q28.0 13.0 28.0 13.4 L28.0 13.6 Q28.0 14.0 27.6 14.2 L26.4 14.8 Q26.0 15.0 26.0 14.6 L26.0 14.4 Q26.0 14.0 26.4 13.8 Z M64.0 14.4 Q64.0 14.0 64.4 14.0 L64.6 14.0 Q65.0 14.0 65.0 14.4 L65.0 14.6 Q65.0 15.0 64.6 15.0 L64.4 15.0 Q64.0 15.0 64.0 14.6 Z M21.0 16.4 Q21.0 16.0 21.4 16.0 L21.6 16.0 Q22.0 16.0 22.0 16.4 L22.0 16.6 Q22.0 17.0 21.6 17.0 L21.4 17.0 Q21.0 17.0 21.0 16.6 Z M81.0 20.6 Q81.0 21.0 80.6 21.0 L79.4 21.0 Q79.0 21.0 79.0 20.6 L79.0 17.4 Q79.0 17.0 78.6 17.0 L78.4 17.0 Q78.0 17.0 78.0 16.6 L78.0 16.4 Q78.0 16.0 78.4 16.0 L78.6 16.0 Q79.0 16.0 79.0 16.4 L79.0 16.6 Q79.0 17.0 79.4 17.0 L80.6 17.0 Q81.0 17.0 81.0 17.4 Z M23.0 17.4 Q23.0 17.0 23.4 17.0 L24.6 17.0 Q25.0 17.0 25.0 17.4 L25.0 17.6 Q25.0 18.0 24.6 18.0 L23.4 18.0 Q23.0 18.0 23.0 17.6 Z M68.0 19.4 Q68.0 19.0 68.4 19.0 L68.6 19.0 Q69.0 19.0 69.0 19.4 L69.0 19.6 Q69.0 20.0 68.6 20.0 L68.4 20.0 Q68.0 20.0 68.0 19.6 Z M75.0 21.4 Q75.0 21.0 75.4 21.0 L75.6 21.0 Q76.0 21.0 76.0 21.4 L76.0 22.6 Q76.0 23.0 75.6 23.0 L75.4 23.0 Q75.0 23.0 75.0 22.6 Z M77.0 21.4 Q77.0 21.0 77.4 21.0 L77.6 21.0 Q78.0 21.0 78.2 21.4 L78.8 22.6 Q79.0 23.0 78.6 23.0 L77.4 23.0 Q77.0 23.0 77.0 22.6 Z M68.0 22.4 Q68.0 22.0 68.4 22.0 L68.6 22.0 Q69.0 22.0 69.0 22.4 L69.0 22.6 Q69.0 23.0 68.6 23.0 L68.4 23.0 Q68.0 23.0 68.0 22.6 Z M29.4 28.0 Q29.0 28.0 29.0 27.6 L29.0 26.4 Q29.0 26.0 29.3 25.8 L31.7 24.2 Q32.0 24.0 32.0 24.4 L32.0 24.6 Q32.0 25.0 31.6 25.2 L30.4 25.8 Q30.0 26.0 30.2 26.4 L30.8 27.6 Q31.0 28.0 30.6 28.0 Z M68.0 24.4 Q68.0 24.0 68.4 24.0 L68.6 24.0 Q69.0 24.0 69.0 24.4 L69.0 24.6 Q69.0 25.0 68.6 25.0 L68.4 25.0 Q68.0 25.0 68.0 24.6 Z M73.0 24.4 Q73.0 24.0 73.4 24.0 L75.6 24.0 Q76.0 24.0 76.0 24.4 L76.0 24.6 Q76.0 25.0 75.6 25.0 L73.4 25.0 Q73.0 25.0 73.0 24.6 Z M20.6 25.2 Q21.0 25.0 21.0 25.4 L21.0 25.6 Q21.0 26.0 20.6 26.2 L19.4 26.8 Q19.0 27.0 19.0 26.6 L19.0 26.4 Q19.0 26.0 19.4 25.8 Z M24.0 25.4 Q24.0 25.0 24.4 25.0 L24.6 25.0 Q25.0 25.0 25.0 25.4 L25.0 25.6 Q25.0 26.0 24.6 26.0 L24.4 26.0 Q24.0 26.0 24.0 25.6 Z M69.0 26.4 Q69.0 26.0 69.4 26.0 L69.6 26.0 Q70.0 26.0 70.0 26.4 L70.0 26.6 Q70.0 27.0 69.6 27.0 L69.4 27.0 Q69.0 27.0 69.0 26.6 Z M74.0 27.4 Q74.0 27.0 74.4 27.0 L75.6 27.0 Q76.0 27.0 76.0 27.4 L76.0 27.6 Q76.0 28.0 75.6 28.0 L74.4 28.0 Q74.0 28.0 74.0 27.6 Z M77.2 27.4 Q77.0 27.0 77.4 27.0 L77.6 27.0 Q78.0 27.0 78.2 27.4 L78.8 28.6 Q79.0 29.0 78.6 29.0 L78.4 29.0 Q78.0 29.0 77.8 28.6 Z M24.0 28.4 Q24.0 28.0 24.4 28.0 L24.6 28.0 Q25.0 28.0 25.0 28.4 L25.0 28.6 Q25.0 29.0 24.6 29.0 L24.4 29.0 Q24.0 29.0 24.0 28.6 Z M27.0 33.4 Q27.0 33.0 27.4 33.0 L27.6 33.0 Q28.0 33.0 28.0 33.4 L28.0 33.6 Q28.0 34.0 27.6 34.0 L27.4 34.0 Q27.0 34.0 27.0 33.6 Z" fill="rgb(55,84,114)" stroke="rgb(55,84,114)" stroke-width="0.12"/><path d="M63.0 6.4 Q63.0 6.0 63.4 6.0 L63.6 6.0 Q64.0 6.0 64.0 6.4 L64.0 6.6 Q64.0 7.0 63.6 7.0 L63.4 7.0 Q63.0 7.0 63.0 6.6 Z M59.0 7.4 Q59.0 7.0 59.4 7.0 L59.6 7.0 Q60.0 7.0 60.0 7.4 L60.0 7.6 Q60.0 8.0 59.6 8.0 L59.4 8.0 Q59.0 8.0 59.0 7.6 Z M62.0 8.4 Q62.0 8.0 62.4 8.0 L62.6 8.0 Q63.0 8.0 63.0 8.4 L63.0 8.6 Q63.0 9.0 62.6 9.0 L62.4 9.0 Q62.0 9.0 62.0 8.6 Z M69.0 8.4 Q69.0 8.0 69.4 8.0 L70.6 8.0 Q71.0 8.0 71.0 8.4 L71.0 8.6 Q71.0 9.0 70.6 9.0 L69.4 9.0 Q69.0 9.0 69.0 8.6 Z M26.8 9.4 Q27.0 9.0 27.4 9.2 L28.6 9.8 Q29.0 10.0 28.8 10.4 L28.2 11.6 Q28.0 12.0 27.6 11.8 L26.4 11.2 Q26.0 11.0 26.2 10.6 Z M66.0 10.4 Q66.0 10.0 66.4 10.0 L66.6 10.0 Q67.0 10.0 67.0 10.4 L67.0 10.6 Q67.0 11.0 66.6 11.0 L66.4 11.0 Q66.0 11.0 66.0 10.6 Z M73.0 11.4 Q73.0 11.0 73.4 11.0 L73.6 11.0 Q74.0 11.0 74.0 11.4 L74.0 11.6 Q74.0 12.0 73.6 12.0 L73.4 12.0 Q73.0 12.0 73.0 11.6 Z M67.0 12.4 Q67.0 12.0 67.4 12.0 L67.6 12.0 Q68.0 12.0 68.0 12.4 L68.0 12.6 Q68.0 13.0 67.6 13.0 L67.4 13.0 Q67.0 13.0 67.0 12.6 Z M34.0 15.4 Q34.0 15.0 34.4 15.0 L34.6 15.0 Q35.0 15.0 35.0 15.4 L35.0 15.6 Q35.0 16.0 34.6 16.0 L34.4 16.0 Q34.0 16.0 34.0 15.6 Z M22.6 19.0 Q23.0 19.0 23.0 19.4 L23.0 19.6 Q23.0 20.0 22.6 20.0 L21.4 20.0 Q21.0 20.0 21.0 20.4 L21.0 20.6 Q21.0 21.0 20.6 21.0 L20.4 21.0 Q20.0 21.0 20.0 20.6 L20.0 20.4 Q20.0 20.0 19.6 20.0 L18.4 20.0 Q18.0 20.0 18.0 19.6 L18.0 19.4 Q18.0 19.0 18.4 19.0 L19.6 19.0 Q20.0 19.0 20.0 18.6 L20.0 18.4 Q20.0 18.0 20.4 18.0 L20.6 18.0 Q21.0 18.0 21.0 18.4 L21.0 18.6 Q21.0 19.0 21.4 19.0 Z M31.0 22.6 Q31.0 23.0 30.6 23.0 L28.4 23.0 Q28.0 23.0 28.0 23.4 L28.0 24.6 Q28.0 25.0 27.6 25.0 L26.4 25.0 Q26.0 25.0 26.0 24.6 L26.0 23.4 Q26.0 23.0 25.6 23.0 L23.4 23.0 Q23.0 23.0 23.0 22.6 L23.0 22.4 Q23.0 22.0 23.4 22.0 L25.6 22.0 Q26.0 22.0 26.0 21.6 L26.0 19.4 Q26.0 19.0 26.4 19.0 L26.6 19.0 Q27.0 19.0 27.0 19.4 L27.0 19.6 Q27.0 20.0 27.4 20.0 L27.6 20.0 Q28.0 20.0 28.0 20.4 L28.0 21.6 Q28.0 22.0 28.4 22.0 L30.6 22.0 Q31.0 22.0 31.0 22.4 Z M80.0 22.4 Q80.0 22.0 80.4 22.0 L80.6 22.0 Q81.0 22.0 81.0 22.4 L81.0 22.6 Q81.0 23.0 80.6 23.0 L80.4 23.0 Q80.0 23.0 80.0 22.6 Z M79.0 24.4 Q79.0 24.0 79.4 24.0 L79.6 24.0 Q80.0 24.0 80.0 24.4 L80.0 24.6 Q80.0 25.0 79.6 25.0 L79.4 25.0 Q79.0 25.0 79.0 24.6 Z M76.0 28.4 Q76.0 28.0 76.4 28.0 L76.6 28.0 Q77.0 28.0 77.0 28.4 L77.0 28.6 Q77.0 29.0 76.6 29.0 L76.4 29.0 Q76.0 29.0 76.0 28.6 Z" fill="rgb(183,207,216)" stroke="rgb(183,207,216)" stroke-width="0.12"/><path d="M59.0 6.4 Q59.0 6.0 59.4 6.0 L59.6 6.0 Q60.0 6.0 60.0 6.4 L60.0 6.6 Q60.0 7.0 59.6 7.0 L59.4 7.0 Q59.0 7.0 59.0 6.6 Z M33.0 7.4 Q33.0 7.0 33.4 7.0 L33.6 7.0 Q34.0 7.0 34.0 7.4 L34.0 7.6 Q34.0 8.0 33.6 8.0 L33.4 8.0 Q33.0 8.0 33.0 7.6 Z M67.0 9.4 Q67.0 9.0 67.4 9.0 L67.6 9.0 Q68.0 9.0 68.0 9.4 L68.0 9.6 Q68.0 10.0 67.6 10.0 L67.4 10.0 Q67.0 10.0 67.0 9.6 Z M61.0 11.4 Q61.0 11.0 61.4 11.0 L61.6 11.0 Q62.0 11.0 62.0 11.4 L62.0 11.6 Q62.0 12.0 61.6 12.0 L61.4 12.0 Q61.0 12.0 61.0 11.6 Z M64.0 11.4 Q64.0 11.0 64.4 11.0 L64.6 11.0 Q65.0 11.0 65.0 11.4 L65.0 11.6 Q65.0 12.0 64.6 12.0 L64.4 12.0 Q64.0 12.0 64.0 11.6 Z M70.0 11.4 Q70.0 11.0 70.4 11.0 L70.6 11.0 Q71.0 11.0 71.0 11.4 L71.0 11.6 Q71.0 12.0 70.6 12.0 L70.4 12.0 Q70.0 12.0 70.0 11.6 Z M30.0 12.4 Q30.0 12.0 30.4 12.0 L30.6 12.0 Q31.0 12.0 31.0 12.4 L31.0 12.6 Q31.0 13.0 30.6 13.0 L30.4 13.0 Q30.0 13.0 30.0 12.6 Z M45.0 12.4 Q45.0 12.0 45.4 12.0 L45.6 12.0 Q46.0 12.0 46.0 12.4 L46.0 12.6 Q46.0 13.0 45.6 13.0 L45.4 13.0 Q45.0 13.0 45.0 12.6 Z M28.2 13.4 Q28.0 13.0 28.4 13.0 L28.6 13.0 Q29.0 13.0 29.2 13.4 L29.8 14.6 Q30.0 15.0 29.6 15.0 L29.4 15.0 Q29.0 15.0 28.8 14.6 Z M42.0 13.4 Q42.0 13.0 42.4 13.0 L42.6 13.0 Q43.0 13.0 43.0 13.4 L43.0 13.6 Q43.0 14.0 42.6 14.0 L42.4 14.0 Q42.0 14.0 42.0 13.6 Z M76.0 15.4 Q76.0 15.0 76.4 15.0 L76.6 15.0 Q77.0 15.0 77.0 15.4 L77.0 15.6 Q77.0 16.0 76.6 16.0 L76.4 16.0 Q76.0 16.0 76.0 15.6 Z M78.0 15.4 Q78.0 15.0 78.4 15.0 L78.6 15.0 Q79.0 15.0 79.0 15.4 L79.0 15.6 Q79.0 16.0 78.6 16.0 L78.4 16.0 Q78.0 16.0 78.0 15.6 Z M33.0 17.4 Q33.0 17.0 33.4 17.0 L33.6 17.0 Q34.0 17.0 34.0 17.4 L34.0 17.6 Q34.0 18.0 33.6 18.0 L33.4 18.0 Q33.0 18.0 33.0 17.6 Z M28.0 18.4 Q28.0 18.0 28.4 18.0 L28.6 18.0 Q29.0 18.0 29.0 18.4 L29.0 18.6 Q29.0 19.0 28.6 19.0 L28.4 19.0 Q28.0 19.0 28.0 18.6 Z M16.0 21.4 Q16.0 21.0 16.4 21.0 L16.6 21.0 Q17.0 21.0 17.0 21.4 L17.0 21.6 Q17.0 22.0 16.6 22.0 L16.4 22.0 Q16.0 22.0 16.0 21.6 Z M77.0 26.4 Q77.0 26.0 77.4 26.0 L77.6 26.0 Q78.0 26.0 78.0 26.4 L78.0 26.6 Q78.0 27.0 77.6 27.0 L77.4 27.0 Q77.0 27.0 77.0 26.6 Z M23.0 28.4 Q23.0 28.0 23.4 28.0 L23.6 28.0 Q24.0 28.0 24.0 28.4 L24.0 28.6 Q24.0 29.0 23.6 29.0 L23.4 29.0 Q23.0 29.0 23.0 28.6 Z M73.0 29.4 Q73.0 29.0 73.4 29.0 L73.6 29.0 Q74.0 29.0 74.0 29.4 L74.0 29.6 Q74.0 30.0 73.6 30.0 L73.4 30.0 Q73.0 30.0 73.0 29.6 Z" fill="rgb(118,145,160)" stroke="rgb(118,145,160)" stroke-width="0.12"/><path d="M26.0 15.4 Q26.0 15.0 26.4 15.0 L26.6 15.0 Q27.0 15.0 27.0 15.4 L27.0 15.6 Q27.0 16.0 26.6 16.0 L26.4 16.0 Q26.0 16.0 26.0 15.6 Z M23.0 16.4 Q23.0 16.0 23.4 16.0 L23.6 16.0 Q24.0 16.0 24.0 16.4 L24.0 16.6 Q24.0 17.0 23.6 17.0 L23.4 17.0 Q23.0 17.0 23.0 16.6 Z M26.0 27.4 Q26.0 27.0 26.4 27.0 L26.6 27.0 Q27.0 27.0 27.0 27.4 L27.0 27.6 Q27.0 28.0 26.6 28.0 L26.4 28.0 Q26.0 28.0 26.0 27.6 Z M76.0 27.4 Q76.0 27.0 76.4 27.0 L76.6 27.0 Q77.0 27.0 77.0 27.4 L77.0 27.6 Q77.0 28.0 76.6 28.0 L76.4 28.0 Q76.0 28.0 76.0 27.6 Z M70.0 31.4 Q70.0 31.0 70.4 31.0 L70.6 31.0 Q71.0 31.0 71.0 31.4 L71.0 31.6 Q71.0 32.0 70.6 32.0 L70.4 32.0 Q70.0 32.0 70.0 31.6 Z" fill="rgb(59,66,82)" stroke="rgb(59,66,82)" stroke-width="0.12"/></svg>