<svg class="camisa" viewBox="0 0 100 59" xmlns="http://www.w3.org/2000/svg" role="img"><path d="M70.00 58.58 Q70.00 59.00 69.58 59.00 L30.42 59.00 Q30.00 59.00 30.00 58.58 L30.00 33.42 Q30.00 33.00 29.58 33.00 L29.42 33.00 Q29.00 33.00 28.75 33.34 L26.25 36.66 Q26.00 37.00 25.58 37.00 L24.42 37.00 Q24.00 37.00 24.00 36.58 L24.00 36.42 Q24.00 36.00 23.58 36.00 L23.42 36.00 Q23.00 36.00 23.00 35.58 L23.00 35.42 Q23.00 35.00 22.58 35.00 L22.42 35.00 Q22.00 35.00 22.00 34.58 L22.00 34.42 Q22.00 34.00 21.58 34.00 L21.42 34.00 Q21.00 34.00 21.00 33.58 L21.00 33.42 Q21.00 33.00 20.58 33.00 L20.42 33.00 Q20.00 33.00 20.00 32.58 L20.00 32.42 Q20.00 32.00 19.58 32.00 L19.42 32.00 Q19.00 32.00 19.00 31.58 L19.00 31.42 Q19.00 31.00 18.58 31.00 L18.42 31.00 Q18.00 31.00 18.00 30.58 L18.00 30.42 Q18.00 30.00 17.58 30.00 L17.42 30.00 Q17.00 30.00 17.00 29.58 L17.00 29.42 Q17.00 29.00 16.58 29.00 L16.42 29.00 Q16.00 29.00 16.00 28.58 L16.00 28.42 Q16.00 28.00 15.66 27.75 L12.34 25.25 Q12.00 25.00 12.00 24.58 L12.00 23.42 Q12.00 23.00 12.42 23.00 L12.58 23.00 Q13.00 23.00 13.00 22.58 L13.00 22.42 Q13.00 22.00 13.42 22.00 L13.58 22.00 Q14.00 22.00 14.00 21.58 L14.00 21.42 Q14.00 21.00 14.42 21.00 L14.58 21.00 Q15.00 21.00 15.00 20.58 L15.00 20.42 Q15.00 20.00 15.42 20.00 L15.58 20.00 Q16.00 20.00 16.00 19.58 L16.00 19.42 Q16.00 19.00 16.42 19.00 L16.58 19.00 Q17.00 19.00 17.00 18.58 L17.00 18.42 Q17.00 18.00 17.42 18.00 L17.58 18.00 Q18.00 18.00 18.00 17.58 L18.00 17.42 Q18.00 17.00 18.42 17.00 L18.58 17.00 Q19.00 17.00 19.25 16.66 L21.75 13.34 Q22.00 13.00 22.42 13.00 L22.58 13.00 Q23.00 13.00 23.00 13.42 L23.00 14.58 Q23.00 15.00 23.35 15.23 L25.65 16.77 Q26.00 17.00 26.00 16.58 L26.00 16.42 Q26.00 16.00 26.42 16.00 L26.58 16.00 Q27.00 16.00 27.00 15.58 L27.00 15.42 Q27.00 15.00 27.42 15.00 L27.58 15.00 Q28.00 15.00 28.00 14.58 L28.00 14.42 Q28.00 14.00 28.42 14.00 L28.58 14.00 Q29.00 14.00 29.25 13.66 L31.75 10.34 Q32.00 10.00 32.42 10.00 L40.58 10.00 Q41.00 10.00 41.19 10.38 L42.81 13.62 Q43.00 14.00 43.41 13.92 L47.59 13.08 Q48.00 13.00 48.00 13.42 L48.00 16.58 Q48.00 17.00 47.58 17.00 L34.42 17.00 Q34.00 17.00 34.00 17.42 L34.00 19.58 Q34.00 20.00 33.58 20.00 L33.42 20.00 Q33.00 20.00 33.00 20.42 L33.00 27.58 Q33.00 28.00 33.42 28.00 L66.58 28.00 Q67.00 28.00 67.00 27.58 L67.00 20.42 Q67.00 20.00 66.58 20.00 L66.42 20.00 Q66.00 20.00 66.00 19.58 L66.00 17.42 Q66.00 17.00 65.58 17.00 L52.42 17.00 Q52.00 17.00 52.00 16.58 L52.00 13.42 Q52.00 13.00 52.41 13.08 L56.59 13.92 Q57.00 14.00 57.19 13.62 L58.81 10.38 Q59.00 10.00 59.42 10.00 L67.58 10.00 Q68.00 10.00 68.00 10.42 L68.00 10.58 Q68.00 11.00 68.42 11.00 L68.58 11.00 Q69.00 11.00 69.00 11.42 L69.00 11.58 Q69.00 12.00 69.42 12.00 L69.58 12.00 Q70.00 12.00 70.00 12.42 L70.00 12.58 Q70.00 13.00 70.42 13.00 L70.58 13.00 Q71.00 13.00 71.00 13.42 L71.00 13.58 Q71.00 14.00 71.34 14.25 L74.66 16.75 Q75.00 17.00 75.00 16.58 L75.00 16.42 Q75.00 16.00 75.38 15.81 L76.62 15.19 Q77.00 15.00 77.00 14.58 L77.00 13.42 Q77.00 13.00 76.58 13.00 L76.42 13.00 Q76.00 13.00 76.00 12.58 L76.00 12.42 Q76.00 12.00 75.58 12.00 L75.42 12.00 Q75.00 12.00 75.00 11.58 L75.00 11.42 Q75.00 11.00 74.58 11.00 L74.42 11.00 Q74.00 11.00 74.00 10.58 L74.00 10.42 Q74.00 10.00 73.58 10.00 L73.42 10.00 Q73.00 10.00 72.75 9.66 L70.25 6.34 Q70.00 6.00 69.58 6.00 L58.42 6.00 Q58.00 6.00 58.00 6.42 L58.00 8.58 Q58.00 9.00 57.58 9.00 L57.42 9.00 Q57.00 9.00 56.90 9.41 L56.10 12.59 Q56.00 13.00 55.59 12.92 L51.41 12.08 Q51.00 12.00 51.00 12.42 L51.00 15.58 Q51.00 16.00 50.58 16.00 L49.42 16.00 Q49.00 16.00 49.00 15.58 L49.00 12.42 Q49.00 12.00 48.59 12.08 L44.41 12.92 Q44.00 13.00 44.00 12.58 L44.00 11.42 Q44.00 11.00 43.58 11.00 L43.42 11.00 Q43.00 11.00 43.00 10.58 L43.00 9.42 Q43.00 9.00 42.58 9.00 L42.42 9.00 Q42.00 9.00 42.00 8.58 L42.00 6.42 Q42.00 6.00 41.58 6.00 L30.42 6.00 Q30.00 6.00 30.00 6.42 L30.00 6.58 Q30.00 7.00 29.58 7.00 L29.42 7.00 Q29.00 7.00 29.00 7.42 L29.00 7.58 Q29.00 8.00 28.58 8.00 L28.42 8.00 Q28.00 8.00 28.00 8.42 L28.00 8.58 Q28.00 9.00 27.58 9.00 L27.42 9.00 Q27.00 9.00 26.75 9.34 L24.25 12.66 Q24.00 13.00 23.58 13.00 L23.42 13.00 Q23.00 13.00 23.00 12.58 L23.00 12.42 Q23.00 12.00 23.42 12.00 L23.58 12.00 Q24.00 12.00 24.00 11.58 L24.00 11.42 Q24.00 11.00 24.42 11.00 L24.58 11.00 Q25.00 11.00 25.00 10.58 L25.00 10.42 Q25.00 10.00 25.42 10.00 L25.58 10.00 Q26.00 10.00 26.00 9.58 L26.00 9.42 Q26.00 9.00 26.42 9.00 L26.58 9.00 Q27.00 9.00 27.25 8.66 L29.75 5.34 Q30.00 5.00 30.42 5.00 L43.58 5.00 Q44.00 5.00 44.00 5.42 L44.00 5.58 Q44.00 6.00 44.42 6.00 L44.58 6.00 Q45.00 6.00 45.00 6.42 L45.00 7.58 Q45.00 8.00 45.42 8.00 L45.58 8.00 Q46.00 8.00 46.23 8.35 L47.77 10.65 Q48.00 11.00 48.42 11.00 L51.58 11.00 Q52.00 11.00 52.00 10.58 L52.00 10.42 Q52.00 10.00 52.35 9.77 L54.65 8.23 Q55.00 8.00 55.00 7.58 L55.00 6.42 Q55.00 6.00 55.42 6.00 L55.58 6.00 Q56.00 6.00 56.00 5.58 L56.00 5.42 Q56.00 5.00 56.42 5.00 L69.58 5.00 Q70.00 5.00 70.00 5.42 L70.00 5.58 Q70.00 6.00 70.42 6.00 L70.58 6.00 Q71.00 6.00 71.00 6.42 L71.00 6.58 Q71.00 7.00 71.42 7.00 L71.58 7.00 Q72.00 7.00 72.00 7.42 L72.00 7.58 Q72.00 8.00 72.42 8.00 L72.58 8.00 Q73.00 8.00 73.00 8.42 L73.00 8.58 Q73.00 9.00 73.42 9.00 L73.58 9.00 Q74.00 9.00 74.00 9.42 L74.00 9.58 Q74.00 10.00 74.42 10.00 L74.58 10.00 Q75.00 10.00 75.00 10.42 L75.00 10.58 Q75.00 11.00 75.42 11.00 L75.58 11.00 Q76.00 11.00 76.00 11.42 L76.00 11.58 Q76.00 12.00 76.42 12.00 L76.58 12.00 Q77.00 12.00 77.00 12.42 L77.00 12.58 Q77.00 13.00 77.42 13.00 L77.58 13.00 Q78.00 13.00 78.00 13.42 L78.00 13.58 Q78.00 14.00 78.42 14.00 L78.58 14.00 Q79.00 14.00 79.00 14.42 L79.00 14.58 Q79.00 15.00 79.42 15.00 L79.58 15.00 Q80.00 15.00 80.00 15.42 L80.00 15.58 Q80.00 16.00 80.42 16.00 L80.58 16.00 Q81.00 16.00 81.00 16.42 L81.00 16.58 Q81.00 17.00 81.42 17.00 L81.58 17.00 Q82.00 17.00 82.00 17.42 L82.00 17.58 Q82.00 18.00 82.42 18.00 L82.58 18.00 Q83.00 18.00 83.00 18.42 L83.00 18.58 Q83.00 19.00 83.42 19.00 L83.58 19.00 Q84.00 19.00 84.00 19.42 L84.00 19.58 Q84.00 20.00 84.34 20.25 L87.66 22.75 Q88.00 23.00 88.00 23.42 L88.00 24.58 Q88.00 25.00 87.58 25.00 L87.42 25.00 Q87.00 25.00 87.00 25.42 L87.00 25.58 Q87.00 26.00 86.58 26.00 L86.42 26.00 Q86.00 26.00 86.00 26.42 L86.00 26.58 Q86.00 27.00 85.58 27.00 L85.42 27.00 Q85.00 27.00 85.00 27.42 L85.00 27.58 Q85.00 28.00 84.58 28.00 L84.42 28.00 Q84.00 28.00 84.00 28.42 L84.00 28.58 Q84.00 29.00 83.58 29.00 L83.42 29.00 Q83.00 29.00 83.00 29.42 L83.00 29.58 Q83.00 30.00 82.58 30.00 L82.42 30.00 Q82.00 30.00 82.00 30.42 L82.00 30.58 Q82.00 31.00 81.58 31.00 L81.42 31.00 Q81.00 31.00 81.00 31.42 L81.00 31.58 Q81.00 32.00 80.58 32.00 L80.42 32.00 Q80.00 32.00 80.00 32.42 L80.00 32.58 Q80.00 33.00 79.58 33.00 L79.42 33.00 Q79.00 33.00 78.75 33.34 L76.25 36.66 Q76.00 37.00 75.58 37.00 L74.42 37.00 Q74.00 37.00 74.00 36.58 L74.00 36.42 Q74.00 36.00 73.66 35.75 L70.34 33.25 Q70.00 33.00 70.00 33.42 Z M39.58 7.00 Q40.00 7.00 40.00 7.42 L40.00 7.58 Q40.00 8.00 39.58 8.00 L31.42 8.00 Q31.00 8.00 31.00 8.42 L31.00 8.58 Q31.00 9.00 30.58 9.00 L30.42 9.00 Q30.00 9.00 30.00 9.42 L30.00 9.58 Q30.00 10.00 29.58 10.00 L29.42 10.00 Q29.00 10.00 29.00 10.42 L29.00 10.58 Q29.00 11.00 28.58 11.00 L28.42 11.00 Q28.00 11.00 28.00 11.42 L28.00 11.58 Q28.00 12.00 27.66 12.25 L24.34 14.75 Q24.00 15.00 24.00 14.58 L24.00 14.42 Q24.00 14.00 24.42 14.00 L24.58 14.00 Q25.00 14.00 25.00 13.58 L25.00 13.42 Q25.00 13.00 25.42 13.00 L25.58 13.00 Q26.00 13.00 26.00 12.58 L26.00 12.42 Q26.00 12.00 26.42 12.00 L26.58 12.00 Q27.00 12.00 27.00 11.58 L27.00 11.42 Q27.00 11.00 27.42 11.00 L27.58 11.00 Q28.00 11.00 28.25 10.66 L30.75 7.34 Q31.00 7.00 31.42 7.00 Z M60.00 7.42 Q60.00 7.00 60.42 7.00 L68.58 7.00 Q69.00 7.00 69.00 7.42 L69.00 7.58 Q69.00 8.00 69.42 8.00 L69.58 8.00 Q70.00 8.00 70.00 8.42 L70.00 8.58 Q70.00 9.00 70.42 9.00 L70.58 9.00 Q71.00 9.00 71.00 9.42 L71.00 9.58 Q71.00 10.00 71.42 10.00 L71.58 10.00 Q72.00 10.00 72.00 10.42 L72.00 10.58 Q72.00 11.00 72.42 11.00 L72.58 11.00 Q73.00 11.00 73.25 11.34 L75.75 14.66 Q76.00 15.00 75.58 15.00 L75.42 15.00 Q75.00 15.00 75.00 14.58 L75.00 14.42 Q75.00 14.00 74.58 14.00 L74.42 14.00 Q74.00 14.00 74.00 13.58 L74.00 13.42 Q74.00 13.00 73.58 13.00 L73.42 13.00 Q73.00 13.00 73.00 12.58 L73.00 12.42 Q73.00 12.00 72.58 12.00 L72.42 12.00 Q72.00 12.00 71.75 11.66 L69.25 8.34 Q69.00 8.00 68.58 8.00 L60.42 8.00 Q60.00 8.00 60.00 7.58 Z M31.42 39.00 Q31.00 39.00 31.00 39.42 L31.00 49.58 Q31.00 50.00 31.42 50.00 L68.58 50.00 Q69.00 50.00 69.00 49.58 L69.00 39.42 Q69.00 39.00 68.58 39.00 Z" fill="rgb(0,0,0)" stroke="rgb(0,0,0)" stroke-width="0.12"/><path d="M40.58 9.00 Q41.00 9.00 41.00 9.42 L41.00 9.58 Q41.00 10.00 40.58 10.00 L32.42 10.00 Q32.00 10.00 32.00 10.42 L32.00 10.58 Q32.00 11.00 31.58 11.00 L31.42 11.00 Q31.00 11.00 31.00 11.42 L31.00 11.58 Q31.00 12.00 30.58 12.00 L30.42 12.00 Q30.00 12.00 30.00 12.42 L30.00 12.58 Q30.00 13.00 29.58 13.00 L29.42 13.00 Q29.00 13.00 29.00 13.42 L29.00 13.58 Q29.00 14.00 28.66 14.25 L25.34 16.75 Q25.00 17.00 24.81 16.62 L24.19 15.38 Q24.00 15.00 24.42 15.00 L24.58 15.00 Q25.00 15.00 25.00 14.58 L25.00 14.42 Q25.00 14.00 25.42 14.00 L25.58 14.00 Q26.00 14.00 26.00 13.58 L26.00 13.42 Q26.00 13.00 26.42 13.00 L26.58 13.00 Q27.00 13.00 27.00 12.58 L27.00 12.42 Q27.00 12.00 27.34 11.75 L30.66 9.25 Q31.00 9.00 31.00 8.58 L31.00 8.42 Q31.00 8.00 30.58 8.00 L30.42 8.00 Q30.00 8.00 30.00 8.42 L30.00 8.58 Q30.00 9.00 29.58 9.00 L29.42 9.00 Q29.00 9.00 29.00 9.42 L29.00 9.58 Q29.00 10.00 28.58 10.00 L28.42 10.00 Q28.00 10.00 28.00 10.42 L28.00 10.58 Q28.00 11.00 27.58 11.00 L27.42 11.00 Q27.00 11.00 27.00 11.42 L27.00 11.58 Q27.00 12.00 26.66 12.25 L23.34 14.75 Q23.00 15.00 23.00 14.58 L23.00 13.42 Q23.00 13.00 23.42 13.00 L23.58 13.00 Q24.00 13.00 24.00 12.58 L24.00 12.42 Q24.00 12.00 24.42 12.00 L24.58 12.00 Q25.00 12.00 25.00 11.58 L25.00 11.42 Q25.00 11.00 25.42 11.00 L25.58 11.00 Q26.00 11.00 26.00 10.58 L26.00 10.42 Q26.00 10.00 26.42 10.00 L26.58 10.00 Q27.00 10.00 27.25 9.66 L29.75 6.34 Q30.00 6.00 30.42 6.00 L39.58 6.00 Q40.00 6.00 40.00 6.42 L40.00 6.58 Q40.00 7.00 39.58 7.00 L31.42 7.00 Q31.00 7.00 31.00 7.42 L31.00 7.58 Q31.00 8.00 31.42 8.00 L39.58 8.00 Q40.00 8.00 40.00 8.42 L40.00 8.58 Q40.00 9.00 40.42 9.00 Z M41.00 6.42 Q41.00 6.00 41.42 6.00 L41.58 6.00 Q42.00 6.00 42.00 6.42 L42.00 8.58 Q42.00 9.00 42.42 9.00 L42.58 9.00 Q43.00 9.00 43.10 9.41 L43.90 12.59 Q44.00 13.00 43.58 13.00 L43.42 13.00 Q43.00 13.00 43.00 12.58 L43.00 11.42 Q43.00 11.00 42.58 11.00 L42.42 11.00 Q42.00 11.00 42.00 10.58 L42.00 9.42 Q42.00 9.00 41.58 9.00 L41.42 9.00 Q41.00 9.00 41.00 8.58 Z M56.42 13.00 Q56.00 13.00 56.00 12.58 L56.00 11.42 Q56.00 11.00 56.42 11.00 L56.58 11.00 Q57.00 11.00 57.00 10.58 L57.00 9.42 Q57.00 9.00 57.42 9.00 L57.58 9.00 Q58.00 9.00 58.00 8.58 L58.00 6.42 Q58.00 6.00 58.42 6.00 L58.58 6.00 Q59.00 6.00 59.00 6.42 L59.00 8.58 Q59.00 9.00 59.42 9.00 L59.58 9.00 Q60.00 9.00 60.00 8.58 L60.00 8.42 Q60.00 8.00 60.42 8.00 L68.58 8.00 Q69.00 8.00 69.00 8.42 L69.00 8.58 Q69.00 9.00 69.42 9.00 L69.58 9.00 Q70.00 9.00 70.00 9.42 L70.00 9.58 Q70.00 10.00 70.42 10.00 L70.58 10.00 Q71.00 10.00 71.00 10.42 L71.00 10.58 Q71.00 11.00 71.42 11.00 L71.58 11.00 Q72.00 11.00 72.00 11.42 L72.00 11.58 Q72.00 12.00 72.42 12.00 L72.58 12.00 Q73.00 12.00 73.25 12.34 L75.75 15.66 Q76.00 16.00 75.62 16.19 L74.38 16.81 Q74.00 17.00 74.00 16.58 L74.00 16.42 Q74.00 16.00 73.58 16.00 L73.42 16.00 Q73.00 16.00 73.00 15.58 L73.00 15.42 Q73.00 15.00 72.58 15.00 L72.42 15.00 Q72.00 15.00 72.00 14.58 L72.00 14.42 Q72.00 14.00 71.58 14.00 L71.42 14.00 Q71.00 14.00 70.75 13.66 L68.25 10.34 Q68.00 10.00 67.58 10.00 L59.42 10.00 Q59.00 10.00 59.00 9.58 L59.00 9.42 Q59.00 9.00 58.58 9.00 L58.42 9.00 Q58.00 9.00 58.00 9.42 L58.00 10.58 Q58.00 11.00 57.58 11.00 L57.42 11.00 Q57.00 11.00 57.00 11.42 L57.00 12.58 Q57.00 13.00 56.58 13.00 Z M60.00 6.42 Q60.00 6.00 60.42 6.00 L69.58 6.00 Q70.00 6.00 70.00 6.42 L70.00 6.58 Q70.00 7.00 70.42 7.00 L70.58 7.00 Q71.00 7.00 71.00 7.42 L71.00 7.58 Q71.00 8.00 71.42 8.00 L71.58 8.00 Q72.00 8.00 72.00 8.42 L72.00 8.58 Q72.00 9.00 72.42 9.00 L72.58 9.00 Q73.00 9.00 73.00 9.42 L73.00 9.58 Q73.00 10.00 73.34 10.25 L76.66 12.75 Q77.00 13.00 77.00 13.42 L77.00 14.58 Q77.00 15.00 76.58 15.00 L76.42 15.00 Q76.00 15.00 76.00 14.58 L76.00 14.42 Q76.00 14.00 75.58 14.00 L75.42 14.00 Q75.00 14.00 75.00 13.58 L75.00 13.42 Q75.00 13.00 74.58 13.00 L74.42 13.00 Q74.00 13.00 74.00 12.58 L74.00 12.42 Q74.00 12.00 73.58 12.00 L73.42 12.00 Q73.00 12.00 73.00 11.58 L73.00 11.42 Q73.00 11.00 72.58 11.00 L72.42 11.00 Q72.00 11.00 71.75 10.66 L69.25 7.34 Q69.00 7.00 68.58 7.00 L60.42 7.00 Q60.00 7.00 60.00 6.58 Z M67.00 27.58 Q67.00 28.00 66.58 28.00 L33.42 28.00 Q33.00 28.00 33.00 27.58 L33.00 20.42 Q33.00 20.00 33.42 20.00 L33.58 20.00 Q34.00 20.00 34.00 19.58 L34.00 17.42 Q34.00 17.00 34.42 17.00 L65.58 17.00 Q66.00 17.00 66.00 17.42 L66.00 19.58 Q66.00 20.00 66.42 20.00 L66.58 20.00 Q67.00 20.00 67.00 20.42 Z M44.58 22.00 Q45.00 22.00 45.00 21.58 L45.00 21.42 Q45.00 21.00 44.66 20.75 L41.34 18.25 Q41.00 18.00 41.00 18.42 L41.00 19.58 Q41.00 20.00 41.42 20.00 L41.58 20.00 Q42.00 20.00 42.19 20.38 L42.81 21.62 Q43.00 22.00 43.42 22.00 Z M39.35 19.23 Q39.00 19.00 39.00 19.42 L39.00 20.58 Q39.00 21.00 39.42 21.00 L39.58 21.00 Q40.00 21.00 40.00 21.42 L40.00 21.58 Q40.00 22.00 40.42 22.00 L41.58 22.00 Q42.00 22.00 42.00 21.58 L42.00 21.42 Q42.00 21.00 41.65 20.77 Z M39.00 21.42 Q39.00 21.00 38.58 21.00 L38.42 21.00 Q38.00 21.00 38.00 21.42 L38.00 21.58 Q38.00 22.00 38.42 22.00 L38.58 22.00 Q39.00 22.00 39.00 21.58 Z M31.00 39.42 Q31.00 39.00 31.42 39.00 L68.58 39.00 Q69.00 39.00 69.00 39.42 L69.00 49.58 Q69.00 50.00 68.58 50.00 L31.42 50.00 Q31.00 50.00 31.00 49.58 Z" fill="rgb(239,0,0)" stroke="rgb(239,0,0)" stroke-width="0.12"/><path d="M55.59 12.92 Q56.00 13.00 56.00 13.42 L56.00 13.58 Q56.00 14.00 55.59 13.90 L52.41 13.10 Q52.00 13.00 52.00 13.42 L52.00 16.58 Q52.00 17.00 51.58 17.00 L48.42 17.00 Q48.00 17.00 48.00 16.58 L48.00 13.42 Q48.00 13.00 47.59 13.10 L44.41 13.90 Q44.00 14.00 44.00 13.58 L44.00 13.42 Q44.00 13.00 44.42 13.00 L45.58 13.00 Q46.00 13.00 46.00 12.58 L46.00 12.42 Q46.00 12.00 46.42 12.00 L48.58 12.00 Q49.00 12.00 49.00 12.42 L49.00 15.58 Q49.00 16.00 49.42 16.00 L50.58 16.00 Q51.00 16.00 51.00 15.58 L51.00 12.42 Q51.00 12.00 51.41 12.08 Z" fill="rgb(20,20,20)" stroke="rgb(20,20,20)" stroke-width="0.12"/><path d="M40.00 6.42 Q40.00 6.00 40.42 6.00 L40.58 6.00 Q41.00 6.00 41.00 6.42 L41.00 8.58 Q41.00 9.00 41.42 9.00 L41.58 9.00 Q42.00 9.00 42.00 9.42 L42.00 10.58 Q42.00 11.00 42.42 11.00 L42.58 11.00 Q43.00 11.00 43.00 11.42 L43.00 12.58 Q43.00 13.00 43.42 13.00 L43.58 13.00 Q44.00 13.00 44.00 13.42 L44.00 13.58 Q44.00 14.00 43.62 13.81 L42.38 13.19 Q42.00 13.00 42.00 12.58 L42.00 11.42 Q42.00 11.00 41.58 11.00 L41.42 11.00 Q41.00 11.00 41.00 10.58 L41.00 9.42 Q41.00 9.00 40.58 9.00 L40.42 9.00 Q40.00 9.00 40.00 8.58 Z M59.58 6.00 Q60.00 6.00 60.00 6.42 L60.00 8.58 Q60.00 9.00 59.58 9.00 L59.42 9.00 Q59.00 9.00 58.90 9.41 L58.10 12.59 Q58.00 13.00 57.62 13.19 L56.38 13.81 Q56.00 14.00 56.00 13.58 L56.00 13.42 Q56.00 13.00 56.42 13.00 L56.58 13.00 Q57.00 13.00 57.00 12.58 L57.00 11.42 Q57.00 11.00 57.42 11.00 L57.58 11.00 Q58.00 11.00 58.00 10.58 L58.00 9.42 Q58.00 9.00 58.42 9.00 L58.58 9.00 Q59.00 9.00 59.00 8.58 L59.00 6.42 Q59.00 6.00 59.42 6.00 Z" fill="rgb(170,0,0)" stroke="rgb(170,0,0)" stroke-width="0.12"/><path d="M44.75 21.66 Q45.00 22.00 44.58 22.00 L43.42 22.00 Q43.00 22.00 43.00 21.58 L43.00 21.42 Q43.00 21.00 42.58 21.00 L42.42 21.00 Q42.00 21.00 42.00 21.42 L42.00 21.58 Q42.00 22.00 41.58 22.00 L40.42 22.00 Q40.00 22.00 40.00 21.58 L40.00 21.42 Q40.00 21.00 39.62 21.19 L38.38 21.81 Q38.00 22.00 38.00 21.58 L38.00 21.42 Q38.00 21.00 38.42 21.00 L38.58 21.00 Q39.00 21.00 39.00 20.58 L39.00 19.42 Q39.00 19.00 39.35 19.23 L41.65 20.77 Q42.00 21.00 42.00 20.58 L42.00 20.42 Q42.00 20.00 41.58 20.00 L41.42 20.00 Q41.00 20.00 41.00 19.58 L41.00 18.42 Q41.00 18.00 41.42 18.00 L41.58 18.00 Q42.00 18.00 42.25 18.34 Z" fill="rgb(255,255,255)" stroke="rgb(255,255,255)" stroke-width="0.12"/></svg>