<svg class="camisa" viewBox="0 0 100 59" xmlns="http://www.w3.org/2000/svg" role="img"><path d="M70.0 58.6 Q70.0 59.0 69.6 59.0 L30.4 59.0 Q30.0 59.0 30.0 58.6 L30.0 33.4 Q30.0 33.0 29.6 33.0 L29.4 33.0 Q29.0 33.0 28.7 33.3 L26.3 36.7 Q26.0 37.0 25.6 37.0 L24.4 37.0 Q24.0 37.0 24.0 36.6 L24.0 36.4 Q24.0 36.0 24.4 36.0 L25.6 36.0 Q26.0 36.0 26.0 35.6 L26.0 35.4 Q26.0 35.0 26.4 35.0 L26.6 35.0 Q27.0 35.0 27.0 34.6 L27.0 34.4 Q27.0 34.0 27.3 33.7 L30.7 31.3 Q31.0 31.0 31.0 31.4 L31.0 57.6 Q31.0 58.0 31.4 58.0 L32.6 58.0 Q33.0 58.0 33.0 57.6 L33.0 28.4 Q33.0 28.0 32.6 28.0 L32.4 28.0 Q32.0 28.0 32.0 27.6 L32.0 27.4 Q32.0 27.0 31.6 27.0 L30.4 27.0 Q30.0 27.0 30.0 27.4 L30.0 27.6 Q30.0 28.0 29.6 28.0 L29.4 28.0 Q29.0 28.0 28.7 28.3 L26.3 31.7 Q26.0 32.0 25.6 32.0 L24.4 32.0 Q24.0 32.0 24.0 31.6 L24.0 31.4 Q24.0 31.0 23.6 31.0 L23.4 31.0 Q23.0 31.0 23.0 30.6 L23.0 30.4 Q23.0 30.0 22.6 30.0 L22.4 30.0 Q22.0 30.0 22.0 29.6 L22.0 29.4 Q22.0 29.0 21.6 29.0 L21.4 29.0 Q21.0 29.0 21.0 28.6 L21.0 28.4 Q21.0 28.0 20.6 28.0 L20.4 28.0 Q20.0 28.0 20.0 27.6 L20.0 27.4 Q20.0 27.0 19.6 27.0 L19.4 27.0 Q19.0 27.0 19.0 26.6 L19.0 26.4 Q19.0 26.0 18.6 26.0 L18.4 26.0 Q18.0 26.0 18.0 25.6 L18.0 25.4 Q18.0 25.0 17.7 24.7 L14.3 22.3 Q14.0 22.0 14.0 22.4 L14.0 22.6 Q14.0 23.0 13.6 23.0 L13.4 23.0 Q13.0 23.0 13.0 23.4 L13.0 24.6 Q13.0 25.0 13.4 25.0 L13.6 25.0 Q14.0 25.0 14.0 25.4 L14.0 25.6 Q14.0 26.0 14.4 26.0 L14.6 26.0 Q15.0 26.0 15.0 26.4 L15.0 26.6 Q15.0 27.0 15.4 27.0 L15.6 27.0 Q16.0 27.0 16.0 27.4 L16.0 27.6 Q16.0 28.0 16.4 28.0 L16.6 28.0 Q17.0 28.0 17.0 28.4 L17.0 28.6 Q17.0 29.0 17.4 29.0 L17.6 29.0 Q18.0 29.0 18.0 29.4 L18.0 29.6 Q18.0 30.0 18.4 30.0 L18.6 30.0 Q19.0 30.0 19.0 30.4 L19.0 30.6 Q19.0 31.0 19.4 31.0 L19.6 31.0 Q20.0 31.0 20.0 31.4 L20.0 31.6 Q20.0 32.0 20.3 32.3 L23.7 34.7 Q24.0 35.0 24.0 35.4 L24.0 35.6 Q24.0 36.0 23.6 36.0 L23.4 36.0 Q23.0 36.0 23.0 35.6 L23.0 35.4 Q23.0 35.0 22.6 35.0 L22.4 35.0 Q22.0 35.0 22.0 34.6 L22.0 34.4 Q22.0 34.0 21.6 34.0 L21.4 34.0 Q21.0 34.0 21.0 33.6 L21.0 33.4 Q21.0 33.0 20.6 33.0 L20.4 33.0 Q20.0 33.0 20.0 32.6 L20.0 32.4 Q20.0 32.0 19.6 32.0 L19.4 32.0 Q19.0 32.0 19.0 31.6 L19.0 31.4 Q19.0 31.0 18.6 31.0 L18.4 31.0 Q18.0 31.0 18.0 30.6 L18.0 30.4 Q18.0 30.0 17.6 30.0 L17.4 30.0 Q17.0 30.0 17.0 29.6 L17.0 29.4 Q17.0 29.0 16.6 29.0 L16.4 29.0 Q16.0 29.0 16.0 28.6 L16.0 28.4 Q16.0 28.0 15.7 27.7 L12.3 25.3 Q12.0 25.0 12.0 24.6 L12.0 23.4 Q12.0 23.0 12.4 23.0 L12.6 23.0 Q13.0 23.0 13.0 22.6 L13.0 22.4 Q13.0 22.0 13.4 22.0 L13.6 22.0 Q14.0 22.0 14.0 21.6 L14.0 21.4 Q14.0 21.0 14.4 21.0 L14.6 21.0 Q15.0 21.0 15.0 20.6 L15.0 20.4 Q15.0 20.0 15.4 20.0 L15.6 20.0 Q16.0 20.0 16.0 19.6 L16.0 19.4 Q16.0 19.0 16.4 19.0 L16.6 19.0 Q17.0 19.0 17.0 18.6 L17.0 18.4 Q17.0 18.0 17.4 18.0 L17.6 18.0 Q18.0 18.0 18.0 17.6 L18.0 17.4 Q18.0 17.0 18.4 17.0 L18.6 17.0 Q19.0 17.0 19.0 16.6 L19.0 16.4 Q19.0 16.0 19.4 16.0 L19.6 16.0 Q20.0 16.0 20.0 15.6 L20.0 15.4 Q20.0 15.0 20.4 15.0 L20.6 15.0 Q21.0 15.0 21.0 14.6 L21.0 14.4 Q21.0 14.0 21.4 14.0 L21.6 14.0 Q22.0 14.0 22.0 13.6 L22.0 13.4 Q22.0 13.0 22.4 13.0 L22.6 13.0 Q23.0 13.0 23.0 12.6 L23.0 12.4 Q23.0 12.0 23.4 12.0 L23.6 12.0 Q24.0 12.0 24.0 11.6 L24.0 11.4 Q24.0 11.0 24.4 11.0 L24.6 11.0 Q25.0 11.0 25.0 10.6 L25.0 10.4 Q25.0 10.0 25.4 10.0 L25.6 10.0 Q26.0 10.0 26.0 9.6 L26.0 9.4 Q26.0 9.0 26.4 9.0 L26.6 9.0 Q27.0 9.0 27.3 8.7 L29.7 5.3 Q30.0 5.0 30.4 5.0 L43.6 5.0 Q44.0 5.0 44.0 5.4 L44.0 5.6 Q44.0 6.0 44.4 6.0 L44.6 6.0 Q45.0 6.0 45.0 6.4 L45.0 7.6 Q45.0 8.0 45.4 8.0 L45.6 8.0 Q46.0 8.0 46.2 8.4 L46.8 9.6 Q47.0 10.0 47.4 10.1 L50.6 10.9 Q51.0 11.0 51.0 11.4 L51.0 11.6 Q51.0 12.0 50.6 11.9 L47.4 11.1 Q47.0 11.0 47.0 10.6 L47.0 10.4 Q47.0 10.0 46.7 9.8 L44.3 8.2 Q44.0 8.0 44.0 7.6 L44.0 6.4 Q44.0 6.0 43.6 6.0 L41.4 6.0 Q41.0 6.0 40.8 6.3 L39.2 8.7 Q39.0 9.0 39.4 9.0 L42.6 9.0 Q43.0 9.0 43.2 9.4 L43.8 10.6 Q44.0 11.0 44.4 11.0 L45.6 11.0 Q46.0 11.0 46.0 11.4 L46.0 11.6 Q46.0 12.0 46.4 12.0 L47.6 12.0 Q48.0 12.0 48.0 12.4 L48.0 12.6 Q48.0 13.0 48.4 13.0 L51.6 13.0 Q52.0 13.0 52.0 12.6 L52.0 12.4 Q52.0 12.0 52.4 11.9 L55.6 11.1 Q56.0 11.0 56.2 10.6 L56.8 9.4 Q57.0 9.0 57.4 9.0 L60.6 9.0 Q61.0 9.0 60.8 8.7 L59.2 6.3 Q59.0 6.0 58.6 6.0 L56.4 6.0 Q56.0 6.0 56.0 6.4 L56.0 7.6 Q56.0 8.0 55.6 8.0 L55.4 8.0 Q55.0 8.0 54.8 8.3 L53.2 10.7 Q53.0 11.0 52.6 11.0 L51.4 11.0 Q51.0 11.0 51.0 10.6 L51.0 10.4 Q51.0 10.0 51.4 10.0 L52.6 10.0 Q53.0 10.0 53.0 9.6 L53.0 9.4 Q53.0 9.0 53.4 8.8 L54.6 8.2 Q55.0 8.0 55.0 7.6 L55.0 6.4 Q55.0 6.0 55.4 6.0 L55.6 6.0 Q56.0 6.0 56.0 5.6 L56.0 5.4 Q56.0 5.0 56.4 5.0 L69.6 5.0 Q70.0 5.0 70.0 5.4 L70.0 5.6 Q70.0 6.0 70.4 6.0 L70.6 6.0 Q71.0 6.0 71.0 6.4 L71.0 6.6 Q71.0 7.0 71.4 7.0 L71.6 7.0 Q72.0 7.0 72.0 7.4 L72.0 7.6 Q72.0 8.0 72.4 8.0 L72.6 8.0 Q73.0 8.0 73.0 8.4 L73.0 8.6 Q73.0 9.0 73.4 9.0 L73.6 9.0 Q74.0 9.0 74.0 9.4 L74.0 9.6 Q74.0 10.0 74.4 10.0 L74.6 10.0 Q75.0 10.0 75.0 10.4 L75.0 10.6 Q75.0 11.0 75.4 11.0 L75.6 11.0 Q76.0 11.0 76.0 11.4 L76.0 11.6 Q76.0 12.0 76.4 12.0 L76.6 12.0 Q77.0 12.0 77.0 12.4 L77.0 12.6 Q77.0 13.0 77.4 13.0 L77.6 13.0 Q78.0 13.0 78.0 13.4 L78.0 13.6 Q78.0 14.0 78.4 14.0 L78.6 14.0 Q79.0 14.0 79.0 14.4 L79.0 14.6 Q79.0 15.0 79.4 15.0 L79.6 15.0 Q80.0 15.0 80.0 15.4 L80.0 15.6 Q80.0 16.0 80.4 16.0 L80.6 16.0 Q81.0 16.0 81.0 16.4 L81.0 16.6 Q81.0 17.0 81.4 17.0 L81.6 17.0 Q82.0 17.0 82.0 17.4 L82.0 17.6 Q82.0 18.0 82.4 18.0 L82.6 18.0 Q83.0 18.0 83.0 18.4 L83.0 18.6 Q83.0 19.0 83.4 19.0 L83.6 19.0 Q84.0 19.0 84.0 19.4 L84.0 19.6 Q84.0 20.0 84.3 20.3 L87.7 22.7 Q88.0 23.0 88.0 23.4 L88.0 24.6 Q88.0 25.0 87.6 25.0 L87.4 25.0 Q87.0 25.0 87.0 25.4 L87.0 25.6 Q87.0 26.0 86.6 26.0 L86.4 26.0 Q86.0 26.0 86.0 26.4 L86.0 26.6 Q86.0 27.0 85.6 27.0 L85.4 27.0 Q85.0 27.0 85.0 27.4 L85.0 27.6 Q85.0 28.0 84.6 28.0 L84.4 28.0 Q84.0 28.0 84.0 28.4 L84.0 28.6 Q84.0 29.0 83.6 29.0 L83.4 29.0 Q83.0 29.0 83.0 29.4 L83.0 29.6 Q83.0 30.0 82.6 30.0 L82.4 30.0 Q82.0 30.0 82.0 30.4 L82.0 30.6 Q82.0 31.0 81.6 31.0 L81.4 31.0 Q81.0 31.0 81.0 31.4 L81.0 31.6 Q81.0 32.0 80.6 32.0 L80.4 32.0 Q80.0 32.0 80.0 32.4 L80.0 32.6 Q80.0 33.0 79.6 33.0 L79.4 33.0 Q79.0 33.0 78.7 33.3 L76.3 36.7 Q76.0 37.0 75.6 37.0 L74.4 37.0 Q74.0 37.0 74.0 36.6 L74.0 36.4 Q74.0 36.0 74.4 36.0 L75.6 36.0 Q76.0 36.0 76.0 35.6 L76.0 35.4 Q76.0 35.0 76.4 35.0 L76.6 35.0 Q77.0 35.0 77.0 34.6 L77.0 34.4 Q77.0 34.0 77.4 34.0 L77.6 34.0 Q78.0 34.0 78.0 33.6 L78.0 33.4 Q78.0 33.0 78.4 33.0 L78.6 33.0 Q79.0 33.0 79.0 32.6 L79.0 32.4 Q79.0 32.0 79.4 32.0 L79.6 32.0 Q80.0 32.0 80.0 31.6 L80.0 31.4 Q80.0 31.0 80.4 31.0 L80.6 31.0 Q81.0 31.0 81.0 30.6 L81.0 30.4 Q81.0 30.0 81.4 30.0 L81.6 30.0 Q82.0 30.0 82.0 29.6 L82.0 29.4 Q82.0 29.0 82.4 29.0 L82.6 29.0 Q83.0 29.0 83.0 28.6 L83.0 28.4 Q83.0 28.0 83.3 27.7 L86.7 25.3 Q87.0 25.0 87.0 24.6 L87.0 23.4 Q87.0 23.0 86.6 22.8 L85.4 22.2 Q85.0 22.0 85.0 22.4 L85.0 22.6 Q85.0 23.0 84.6 23.0 L84.4 23.0 Q84.0 23.0 84.0 23.4 L84.0 23.6 Q84.0 24.0 83.6 24.0 L83.4 24.0 Q83.0 24.0 83.0 24.4 L83.0 24.6 Q83.0 25.0 82.6 25.0 L82.4 25.0 Q82.0 25.0 82.0 25.4 L82.0 25.6 Q82.0 26.0 81.6 26.0 L81.4 26.0 Q81.0 26.0 81.0 26.4 L81.0 26.6 Q81.0 27.0 80.6 27.0 L80.4 27.0 Q80.0 27.0 80.0 27.4 L80.0 27.6 Q80.0 28.0 79.6 28.0 L79.4 28.0 Q79.0 28.0 78.7 28.3 L76.3 31.7 Q76.0 32.0 75.6 32.0 L74.4 32.0 Q74.0 32.0 74.0 31.6 L74.0 31.4 Q74.0 31.0 73.6 31.0 L73.4 31.0 Q73.0 31.0 72.7 30.7 L70.3 27.3 Q70.0 27.0 69.6 27.0 L68.4 27.0 Q68.0 27.0 68.0 27.4 L68.0 27.6 Q68.0 28.0 67.6 28.0 L67.4 28.0 Q67.0 28.0 67.0 28.4 L67.0 57.6 Q67.0 58.0 67.4 58.0 L68.6 58.0 Q69.0 58.0 69.0 57.6 L69.0 31.4 Q69.0 31.0 69.4 31.0 L69.6 31.0 Q70.0 31.0 70.0 31.4 L70.0 31.6 Q70.0 32.0 70.3 32.3 L73.7 34.7 Q74.0 35.0 74.0 35.4 L74.0 35.6 Q74.0 36.0 73.6 36.0 L73.4 36.0 Q73.0 36.0 73.0 35.6 L73.0 35.4 Q73.0 35.0 72.7 34.8 L70.3 33.2 Q70.0 33.0 70.0 33.4 Z M58.6 21.0 Q59.0 21.0 59.0 20.6 L59.0 20.4 Q59.0 20.0 58.6 20.0 L53.4 20.0 Q53.0 20.0 53.0 19.6 L53.0 19.4 Q53.0 19.0 52.6 19.0 L49.4 19.0 Q49.0 19.0 49.0 18.6 L49.0 18.4 Q49.0 18.0 48.6 18.0 L43.4 18.0 Q43.0 18.0 43.0 18.4 L43.0 18.6 Q43.0 19.0 42.6 19.1 L39.4 19.9 Q39.0 20.0 39.0 19.6 L39.0 19.4 Q39.0 19.0 39.4 19.0 L40.6 19.0 Q41.0 19.0 41.0 18.6 L41.0 18.4 Q41.0 18.0 41.4 18.0 L42.6 18.0 Q43.0 18.0 43.0 17.6 L43.0 17.4 Q43.0 17.0 42.6 17.0 L41.4 17.0 Q41.0 17.0 41.0 17.4 L41.0 17.6 Q41.0 18.0 40.6 18.0 L38.4 18.0 Q38.0 18.0 38.0 17.6 L38.0 17.4 Q38.0 17.0 37.6 17.0 L37.4 17.0 Q37.0 17.0 37.2 17.4 L38.8 20.6 Q39.0 21.0 39.4 21.0 Z M31.4 18.0 Q31.0 18.0 31.0 18.4 L31.0 18.6 Q31.0 19.0 31.4 19.0 L34.6 19.0 Q35.0 19.0 35.2 19.3 L36.8 21.7 Q37.0 22.0 37.4 22.0 L38.6 22.0 Q39.0 22.0 39.0 21.6 L39.0 21.4 Q39.0 21.0 38.6 21.0 L37.4 21.0 Q37.0 21.0 37.0 20.6 L37.0 18.4 Q37.0 18.0 36.6 18.0 Z M54.4 18.0 Q54.0 18.0 54.0 18.4 L54.0 18.6 Q54.0 19.0 54.4 19.0 L59.6 19.0 Q60.0 19.0 60.0 19.4 L60.0 19.6 Q60.0 20.0 60.4 20.0 L63.6 20.0 Q64.0 20.0 64.0 20.4 L64.0 20.6 Q64.0 21.0 64.4 21.0 L68.6 21.0 Q69.0 21.0 69.0 20.6 L69.0 18.4 Q69.0 18.0 68.6 18.0 Z M31.4 20.0 Q31.0 20.0 31.0 20.4 L31.0 20.6 Q31.0 21.0 31.4 21.0 L33.6 21.0 Q34.0 21.0 34.0 20.6 L34.0 20.4 Q34.0 20.0 33.6 20.0 Z" fill="rgb(0,0,0)" stroke="rgb(0,0,0)" stroke-width="0.12"/><path d="M60.6 7.8 Q61.0 8.0 61.0 8.4 L61.0 8.6 Q61.0 9.0 60.6 9.0 L57.4 9.0 Q57.0 9.0 56.8 9.4 L56.2 10.6 Q56.0 11.0 55.6 11.0 L54.4 11.0 Q54.0 11.0 54.0 11.4 L54.0 11.6 Q54.0 12.0 53.6 12.0 L52.4 12.0 Q52.0 12.0 52.0 12.4 L52.0 12.6 Q52.0 13.0 51.6 13.0 L48.4 13.0 Q48.0 13.0 48.0 12.6 L48.0 12.4 Q48.0 12.0 47.6 11.9 L44.4 11.1 Q44.0 11.0 43.8 10.6 L43.2 9.4 Q43.0 9.0 42.6 9.0 L39.4 9.0 Q39.0 9.0 39.2 8.7 L40.8 6.3 Q41.0 6.0 41.4 6.0 L43.6 6.0 Q44.0 6.0 44.0 6.4 L44.0 7.6 Q44.0 8.0 44.4 8.0 L44.6 8.0 Q45.0 8.0 45.2 8.3 L46.8 10.7 Q47.0 11.0 47.4 11.1 L50.6 11.9 Q51.0 12.0 51.0 11.6 L51.0 11.4 Q51.0 11.0 51.4 11.0 L52.6 11.0 Q53.0 11.0 53.0 10.6 L53.0 10.4 Q53.0 10.0 53.3 9.8 L55.7 8.2 Q56.0 8.0 56.0 7.6 L56.0 6.4 Q56.0 6.0 56.4 6.0 L58.6 6.0 Q59.0 6.0 59.0 6.4 L59.0 6.6 Q59.0 7.0 59.4 7.2 Z M31.0 18.4 Q31.0 18.0 31.4 18.0 L35.6 18.0 Q36.0 18.0 36.0 18.4 L36.0 19.6 Q36.0 20.0 35.6 20.0 L35.4 20.0 Q35.0 20.0 35.0 19.6 L35.0 19.4 Q35.0 19.0 34.6 19.0 L31.4 19.0 Q31.0 19.0 31.0 18.6 Z M59.0 20.6 Q59.0 21.0 58.6 21.0 L41.4 21.0 Q41.0 21.0 41.0 20.6 L41.0 20.4 Q41.0 20.0 41.4 20.0 L42.6 20.0 Q43.0 20.0 43.2 19.6 L43.8 18.4 Q44.0 18.0 44.4 18.0 L48.6 18.0 Q49.0 18.0 49.0 18.4 L49.0 18.6 Q49.0 19.0 49.4 19.0 L58.6 20.0 Q59.0 20.0 59.0 20.4 Z M54.0 18.4 Q54.0 18.0 54.4 18.0 L68.6 18.0 Q69.0 18.0 69.0 18.4 L69.0 20.6 Q69.0 21.0 68.6 21.0 L64.4 21.0 Q64.0 21.0 64.0 20.6 L64.0 20.4 Q64.0 20.0 63.6 20.0 L54.4 19.0 Q54.0 19.0 54.0 18.6 Z M31.0 20.4 Q31.0 20.0 31.4 20.0 L33.6 20.0 Q34.0 20.0 34.0 20.4 L34.0 20.6 Q34.0 21.0 33.6 21.0 L31.4 21.0 Q31.0 21.0 31.0 20.6 Z M14.0 22.4 Q14.0 22.0 14.4 22.0 L14.6 22.0 Q15.0 22.0 15.0 22.4 L15.0 22.6 Q15.0 23.0 15.4 23.0 L15.6 23.0 Q16.0 23.0 16.0 23.4 L16.0 23.6 Q16.0 24.0 16.4 24.0 L16.6 24.0 Q17.0 24.0 17.0 24.4 L17.0 24.6 Q17.0 25.0 17.4 25.0 L17.6 25.0 Q18.0 25.0 18.0 25.4 L18.0 25.6 Q18.0 26.0 18.4 26.0 L18.6 26.0 Q19.0 26.0 19.0 26.4 L19.0 26.6 Q19.0 27.0 19.4 27.0 L19.6 27.0 Q20.0 27.0 20.0 27.4 L20.0 27.6 Q20.0 28.0 20.4 28.0 L20.6 28.0 Q21.0 28.0 21.0 28.4 L21.0 28.6 Q21.0 29.0 21.3 29.3 L24.7 31.7 Q25.0 32.0 24.8 32.4 L24.2 33.6 Q24.0 34.0 23.6 34.0 L22.4 34.0 Q22.0 34.0 22.0 33.6 L22.0 33.4 Q22.0 33.0 21.6 33.0 L21.4 33.0 Q21.0 33.0 21.0 32.6 L21.0 32.4 Q21.0 32.0 20.6 32.0 L20.4 32.0 Q20.0 32.0 20.0 31.6 L20.0 31.4 Q20.0 31.0 19.6 31.0 L19.4 31.0 Q19.0 31.0 19.0 30.6 L19.0 30.4 Q19.0 30.0 18.6 30.0 L18.4 30.0 Q18.0 30.0 18.0 29.6 L18.0 29.4 Q18.0 29.0 17.6 29.0 L17.4 29.0 Q17.0 29.0 17.0 28.6 L17.0 28.4 Q17.0 28.0 16.7 27.7 L13.3 25.3 Q13.0 25.0 13.0 24.6 L13.0 23.4 Q13.0 23.0 13.4 23.0 L13.6 23.0 Q14.0 23.0 14.0 22.6 Z M75.4 33.0 Q75.0 33.0 75.0 32.6 L75.0 32.4 Q75.0 32.0 75.4 32.0 L75.6 32.0 Q76.0 32.0 76.0 31.6 L76.0 31.4 Q76.0 31.0 76.4 31.0 L76.6 31.0 Q77.0 31.0 77.0 30.6 L77.0 30.4 Q77.0 30.0 77.4 30.0 L77.6 30.0 Q78.0 30.0 78.0 29.6 L78.0 29.4 Q78.0 29.0 78.4 29.0 L78.6 29.0 Q79.0 29.0 79.0 28.6 L79.0 28.4 Q79.0 28.0 79.4 28.0 L79.6 28.0 Q80.0 28.0 80.0 27.6 L80.0 27.4 Q80.0 27.0 80.4 27.0 L80.6 27.0 Q81.0 27.0 81.0 26.6 L81.0 26.4 Q81.0 26.0 81.4 26.0 L81.6 26.0 Q82.0 26.0 82.3 25.7 L84.7 22.3 Q85.0 22.0 85.4 22.2 L86.6 22.8 Q87.0 23.0 87.0 23.4 L87.0 24.6 Q87.0 25.0 86.6 25.0 L86.4 25.0 Q86.0 25.0 86.0 25.4 L86.0 25.6 Q86.0 26.0 85.6 26.0 L85.4 26.0 Q85.0 26.0 85.0 26.4 L85.0 26.6 Q85.0 27.0 84.6 27.0 L84.4 27.0 Q84.0 27.0 84.0 27.4 L84.0 27.6 Q84.0 28.0 83.6 28.0 L83.4 28.0 Q83.0 28.0 83.0 28.4 L83.0 28.6 Q83.0 29.0 82.6 29.0 L82.4 29.0 Q82.0 29.0 82.0 29.4 L82.0 29.6 Q82.0 30.0 81.6 30.0 L81.4 30.0 Q81.0 30.0 80.7 30.3 L78.3 33.7 Q78.0 34.0 77.6 34.0 L76.4 34.0 Q76.0 34.0 76.0 33.6 L76.0 33.4 Q76.0 33.0 75.6 33.0 Z" fill="rgb(206,165,122)" stroke="rgb(206,165,122)" stroke-width="0.12"/><path d="M33.0 57.6 Q33.0 58.0 32.6 58.0 L31.4 58.0 Q31.0 58.0 31.0 57.6 L31.0 31.4 Q31.0 31.0 30.6 31.0 L30.4 31.0 Q30.0 31.0 30.0 31.4 L30.0 31.6 Q30.0 32.0 29.6 32.0 L29.4 32.0 Q29.0 32.0 28.7 32.3 L26.3 35.7 Q26.0 36.0 25.6 36.0 L24.4 36.0 Q24.0 36.0 24.0 35.6 L24.0 35.4 Q24.0 35.0 23.6 35.0 L23.4 35.0 Q23.0 35.0 23.0 34.6 L23.0 34.4 Q23.0 34.0 23.4 34.0 L23.6 34.0 Q24.0 34.0 24.0 33.6 L24.0 33.4 Q24.0 33.0 24.4 33.0 L24.6 33.0 Q25.0 33.0 25.0 32.6 L25.0 32.4 Q25.0 32.0 25.4 32.0 L25.6 32.0 Q26.0 32.0 26.0 31.6 L26.0 31.4 Q26.0 31.0 26.4 31.0 L26.6 31.0 Q27.0 31.0 27.3 30.7 L29.7 27.3 Q30.0 27.0 30.4 27.0 L31.6 27.0 Q32.0 27.0 32.0 27.4 L32.0 27.6 Q32.0 28.0 32.4 28.0 L32.6 28.0 Q33.0 28.0 33.0 28.4 Z M67.4 58.0 Q67.0 58.0 67.0 57.6 L67.0 28.4 Q67.0 28.0 67.4 28.0 L67.6 28.0 Q68.0 28.0 68.0 27.6 L68.0 27.4 Q68.0 27.0 68.4 27.0 L69.6 27.0 Q70.0 27.0 70.0 27.4 L70.0 27.6 Q70.0 28.0 70.4 28.0 L70.6 28.0 Q71.0 28.0 71.0 28.4 L71.0 28.6 Q71.0 29.0 71.4 29.0 L71.6 29.0 Q72.0 29.0 72.0 29.4 L72.0 29.6 Q72.0 30.0 72.4 30.0 L72.6 30.0 Q73.0 30.0 73.0 30.4 L73.0 30.6 Q73.0 31.0 73.4 31.0 L73.6 31.0 Q74.0 31.0 74.3 31.3 L76.7 34.7 Q77.0 35.0 76.6 35.0 L76.4 35.0 Q76.0 35.0 76.0 35.4 L76.0 35.6 Q76.0 36.0 75.6 36.0 L74.4 36.0 Q74.0 36.0 74.0 35.6 L74.0 35.4 Q74.0 35.0 73.6 35.0 L73.4 35.0 Q73.0 35.0 73.0 34.6 L73.0 34.4 Q73.0 34.0 72.7 33.7 L69.3 31.3 Q69.0 31.0 69.0 31.4 L69.0 57.6 Q69.0 58.0 68.6 58.0 Z" fill="rgb(25,25,25)" stroke="rgb(25,25,25)" stroke-width="0.12"/><path d="M36.0 18.4 Q36.0 18.0 36.4 18.0 L36.6 18.0 Q37.0 18.0 37.0 18.4 L37.0 19.6 Q37.0 20.0 36.6 20.0 L36.4 20.0 Q36.0 20.0 36.0 19.6 Z M42.6 18.9 Q43.0 19.0 43.0 19.4 L43.0 19.6 Q43.0 20.0 42.6 20.0 L41.4 20.0 Q41.0 20.0 41.0 20.4 L41.0 20.6 Q41.0 21.0 40.6 21.0 L39.4 21.0 Q39.0 21.0 39.0 20.6 L39.0 20.4 Q39.0 20.0 39.4 20.0 L40.6 20.0 Q41.0 20.0 41.0 19.6 L41.0 19.4 Q41.0 19.0 40.6 19.0 L39.4 19.0 Q39.0 19.0 39.0 19.4 L39.0 19.6 Q39.0 20.0 38.6 20.0 L38.4 20.0 Q38.0 20.0 38.0 19.6 L38.0 18.4 Q38.0 18.0 38.4 18.1 Z M43.0 18.4 Q43.0 18.0 43.4 18.0 L43.6 18.0 Q44.0 18.0 44.0 18.4 L44.0 18.6 Q44.0 19.0 43.6 19.0 L43.4 19.0 Q43.0 19.0 43.0 18.6 Z" fill="rgb(157,125,92)" stroke="rgb(157,125,92)" stroke-width="0.12"/><path d="M37.0 17.4 Q37.0 17.0 37.4 17.0 L37.6 17.0 Q38.0 17.0 38.0 17.4 L38.0 17.6 Q38.0 18.0 37.6 18.0 L37.4 18.0 Q37.0 18.0 37.0 17.6 Z M41.0 17.4 Q41.0 17.0 41.4 17.0 L42.6 17.0 Q43.0 17.0 43.0 17.4 L43.0 17.6 Q43.0 18.0 42.6 18.0 L41.4 18.0 Q41.0 18.0 41.0 17.6 Z M39.0 21.6 Q39.0 22.0 38.6 22.0 L37.4 22.0 Q37.0 22.0 36.8 21.6 L36.2 20.4 Q36.0 20.0 36.4 20.0 L36.6 20.0 Q37.0 20.0 37.0 20.4 L37.0 20.6 Q37.0 21.0 37.4 21.0 L38.6 21.0 Q39.0 21.0 39.0 21.4 Z" fill="rgb(109,86,62)" stroke="rgb(109,86,62)" stroke-width="0.12"/></svg>