<svg class="camisa" viewBox="0 0 100 59" xmlns="http://www.w3.org/2000/svg" role="img"><path d="M69.0 57.5 Q69.0 58.0 68.5 58.0 L31.4 58.0 Q31.0 58.0 31.0 57.5 L31.0 31.4 Q31.0 31.0 30.6 31.2 L28.3 32.7 Q28.0 33.0 28.0 32.5 L28.0 32.4 Q28.0 32.0 27.5 32.0 L27.4 32.0 Q27.0 32.0 27.0 31.5 L27.0 31.4 Q27.0 31.0 26.5 31.0 L26.4 31.0 Q26.0 31.0 26.0 30.5 L26.0 30.4 Q26.0 30.0 25.5 30.0 L25.4 30.0 Q25.0 30.0 25.0 29.5 L25.0 29.4 Q25.0 29.0 24.5 29.0 L24.4 29.0 Q24.0 29.0 24.0 28.5 L24.0 28.4 Q24.0 28.0 23.5 28.0 L23.4 28.0 Q23.0 28.0 23.0 27.5 L23.0 27.4 Q23.0 27.0 22.5 27.0 L22.4 27.0 Q22.0 27.0 22.0 26.5 L22.0 26.4 Q22.0 26.0 21.5 26.0 L21.4 26.0 Q21.0 26.0 21.0 25.5 L21.0 25.4 Q21.0 25.0 20.5 25.0 L20.4 25.0 Q20.0 25.0 20.0 24.5 L20.0 24.4 Q20.0 24.0 19.5 24.0 L19.4 24.0 Q19.0 24.0 18.7 23.6 L16.2 20.3 Q16.0 20.0 16.4 20.0 L16.5 20.0 Q17.0 20.0 17.0 19.5 L17.0 19.4 Q17.0 19.0 17.4 19.0 L17.5 19.0 Q18.0 19.0 18.0 18.5 L18.0 18.4 Q18.0 18.0 18.4 18.0 L18.5 18.0 Q19.0 18.0 19.0 17.5 L19.0 17.4 Q19.0 17.0 19.4 17.0 L19.5 17.0 Q20.0 17.0 20.0 16.5 L20.0 16.4 Q20.0 16.0 20.4 16.0 L20.5 16.0 Q21.0 16.0 21.0 15.5 L21.0 15.4 Q21.0 15.0 21.4 15.0 L21.5 15.0 Q22.0 15.0 22.0 14.5 L22.0 14.4 Q22.0 14.0 22.4 14.0 L22.5 14.0 Q23.0 14.0 23.0 13.5 L23.0 13.4 Q23.0 13.0 23.4 13.0 L23.5 13.0 Q24.0 13.0 24.0 12.5 L24.0 12.4 Q24.0 12.0 24.4 12.0 L24.5 12.0 Q25.0 12.0 25.0 11.5 L25.0 11.4 Q25.0 11.0 25.4 11.0 L25.5 11.0 Q26.0 11.0 26.0 10.5 L26.0 10.4 Q26.0 10.0 26.4 10.0 L26.5 10.0 Q27.0 10.0 27.2 9.6 L29.7 6.3 Q30.0 6.0 30.4 6.0 L34.5 6.0 Q35.0 6.0 35.2 6.3 L36.7 8.6 Q37.0 9.0 37.4 9.0 L37.5 9.0 Q38.0 9.0 38.0 8.5 L38.0 6.4 Q38.0 6.0 38.4 6.0 L38.5 6.0 Q39.0 6.0 39.0 6.4 L39.0 7.5 Q39.0 8.0 39.4 8.0 L39.5 8.0 Q40.0 8.0 40.0 8.4 L40.0 8.5 Q40.0 9.0 39.5 9.0 L39.4 9.0 Q39.0 9.0 39.0 9.4 L39.0 17.5 Q39.0 18.0 38.5 18.0 L38.4 18.0 Q38.0 18.0 38.0 17.5 L38.0 13.4 Q38.0 13.0 37.5 13.0 L37.4 13.0 Q37.0 13.0 37.0 13.4 L37.0 17.5 Q37.0 18.0 36.5 18.0 L36.4 18.0 Q36.0 18.0 36.0 17.5 L36.0 13.4 Q36.0 13.0 35.5 13.0 L35.4 13.0 Q35.0 13.0 35.0 13.4 L35.0 28.5 Q35.0 29.0 35.4 29.0 L35.5 29.0 Q36.0 29.0 36.0 28.5 L36.0 21.4 Q36.0 21.0 36.4 21.0 L36.5 21.0 Q37.0 21.0 37.0 21.4 L37.0 28.5 Q37.0 29.0 37.4 29.0 L37.5 29.0 Q38.0 29.0 38.0 28.5 L38.0 21.4 Q38.0 21.0 38.4 21.0 L38.5 21.0 Q39.0 21.0 39.0 21.4 L39.0 28.5 Q39.0 29.0 39.4 29.0 L39.5 29.0 Q40.0 29.0 40.0 28.5 L40.0 21.4 Q40.0 21.0 40.4 21.0 L40.5 21.0 Q41.0 21.0 41.0 21.4 L41.0 28.5 Q41.0 29.0 41.4 29.0 L41.5 29.0 Q42.0 29.0 42.0 28.5 L42.0 21.4 Q42.0 21.0 42.4 21.0 L43.5 21.0 Q44.0 21.0 44.0 20.5 L44.0 19.4 Q44.0 19.0 43.5 19.0 L42.4 19.0 Q42.0 19.0 42.0 18.5 L42.0 13.4 Q42.0 13.0 42.4 13.0 L42.5 13.0 Q43.0 13.0 43.0 12.5 L43.0 12.4 Q43.0 12.0 43.4 12.0 L45.5 12.0 Q46.0 12.0 46.0 11.5 L46.0 11.4 Q46.0 11.0 46.4 11.0 L47.5 11.0 Q48.0 11.0 48.1 11.3 L48.8 12.6 Q49.0 13.0 49.4 13.0 L50.5 13.0 Q51.0 13.0 51.1 12.6 L51.8 11.3 Q52.0 11.0 52.4 11.1 L58.6 12.8 Q59.0 13.0 59.0 13.4 L59.0 28.5 Q59.0 29.0 59.4 29.0 L59.5 29.0 Q60.0 29.0 60.0 28.5 L60.0 13.4 Q60.0 13.0 60.4 13.0 L60.5 13.0 Q61.0 13.0 61.0 13.4 L61.0 28.5 Q61.0 29.0 61.4 29.0 L61.5 29.0 Q62.0 29.0 62.0 28.5 L62.0 13.4 Q62.0 13.0 61.5 13.0 L61.4 13.0 Q61.0 13.0 61.0 12.5 L61.0 9.4 Q61.0 9.0 60.5 9.0 L60.4 9.0 Q60.0 9.0 60.0 8.5 L60.0 8.4 Q60.0 8.0 60.3 7.8 L61.6 7.1 Q62.0 7.0 62.0 7.4 L62.0 8.5 Q62.0 9.0 62.4 9.0 L62.5 9.0 Q63.0 9.0 63.0 8.5 L63.0 8.4 Q63.0 8.0 63.4 8.0 L63.5 8.0 Q64.0 8.0 64.0 7.5 L64.0 6.4 Q64.0 6.0 64.4 6.0 L64.5 6.0 Q65.0 6.0 65.0 6.4 L65.0 8.5 Q65.0 9.0 65.4 9.0 L65.5 9.0 Q66.0 9.0 66.0 8.5 L66.0 8.4 Q66.0 8.0 66.4 8.0 L66.5 8.0 Q67.0 8.0 66.8 7.6 L66.1 6.3 Q66.0 6.0 66.4 6.0 L69.5 6.0 Q70.0 6.0 70.0 6.4 L70.0 6.5 Q70.0 7.0 70.4 7.0 L70.5 7.0 Q71.0 7.0 71.0 7.4 L71.0 7.5 Q71.0 8.0 71.4 8.0 L71.5 8.0 Q72.0 8.0 72.0 8.4 L72.0 8.5 Q72.0 9.0 72.4 9.0 L72.5 9.0 Q73.0 9.0 73.0 9.4 L73.0 9.5 Q73.0 10.0 73.4 10.0 L73.5 10.0 Q74.0 10.0 74.0 10.4 L74.0 10.5 Q74.0 11.0 74.4 11.0 L74.5 11.0 Q75.0 11.0 75.0 11.4 L75.0 11.5 Q75.0 12.0 75.4 12.0 L75.5 12.0 Q76.0 12.0 76.0 12.4 L76.0 12.5 Q76.0 13.0 76.4 13.0 L76.5 13.0 Q77.0 13.0 77.0 13.4 L77.0 13.5 Q77.0 14.0 77.4 14.0 L77.5 14.0 Q78.0 14.0 78.0 14.4 L78.0 14.5 Q78.0 15.0 78.4 15.0 L78.5 15.0 Q79.0 15.0 79.0 15.4 L79.0 15.5 Q79.0 16.0 79.4 16.0 L79.5 16.0 Q80.0 16.0 80.0 16.4 L80.0 16.5 Q80.0 17.0 80.4 17.0 L80.5 17.0 Q81.0 17.0 81.2 17.3 L83.7 20.6 Q84.0 21.0 83.5 21.0 L83.4 21.0 Q83.0 21.0 83.0 21.4 L83.0 21.5 Q83.0 22.0 82.5 22.0 L82.4 22.0 Q82.0 22.0 82.0 22.4 L82.0 22.5 Q82.0 23.0 81.5 23.0 L81.4 23.0 Q81.0 23.0 81.0 23.4 L81.0 23.5 Q81.0 24.0 80.5 24.0 L80.4 24.0 Q80.0 24.0 80.0 24.4 L80.0 24.5 Q80.0 25.0 79.5 25.0 L79.4 25.0 Q79.0 25.0 79.0 25.4 L79.0 25.5 Q79.0 26.0 78.5 26.0 L78.4 26.0 Q78.0 26.0 78.0 26.4 L78.0 26.5 Q78.0 27.0 77.5 27.0 L77.4 27.0 Q77.0 27.0 77.0 27.4 L77.0 27.5 Q77.0 28.0 76.5 28.0 L76.4 28.0 Q76.0 28.0 76.0 28.4 L76.0 28.5 Q76.0 29.0 75.5 29.0 L75.4 29.0 Q75.0 29.0 74.7 29.3 L72.2 32.6 Q72.0 33.0 71.6 32.7 L69.3 31.2 Q69.0 31.0 69.0 31.4 Z M33.4 7.0 Q33.0 7.0 33.0 7.4 L33.0 7.5 Q33.0 8.0 33.3 8.1 L34.6 8.8 Q35.0 9.0 35.0 8.5 L35.0 7.4 Q35.0 7.0 34.5 7.0 Z M36.0 6.4 Q36.0 6.0 36.4 6.0 L36.5 6.0 Q37.0 6.0 37.0 6.4 L37.0 6.5 Q37.0 7.0 36.5 7.0 L36.4 7.0 Q36.0 7.0 36.0 6.5 Z M60.0 6.4 Q60.0 6.0 60.4 6.0 L60.5 6.0 Q61.0 6.0 61.0 6.4 L61.0 6.5 Q61.0 7.0 60.5 7.0 L60.4 7.0 Q60.0 7.0 60.0 6.5 Z M62.0 6.4 Q62.0 6.0 62.4 6.0 L62.5 6.0 Q63.0 6.0 63.0 6.4 L63.0 6.5 Q63.0 7.0 62.5 7.0 L62.4 7.0 Q62.0 7.0 62.0 6.5 Z M54.0 13.4 Q54.0 13.0 53.5 13.0 L53.4 13.0 Q53.0 13.0 53.0 13.4 L53.0 28.5 Q53.0 29.0 53.4 29.0 L53.5 29.0 Q54.0 29.0 54.0 28.5 Z M64.0 13.4 Q64.0 13.0 63.5 13.0 L63.4 13.0 Q63.0 13.0 63.0 13.4 L63.0 28.5 Q63.0 29.0 63.4 29.0 L63.5 29.0 Q64.0 29.0 64.0 28.5 Z M66.0 13.4 Q66.0 13.0 65.5 13.0 L65.4 13.0 Q65.0 13.0 65.0 13.4 L65.0 28.5 Q65.0 29.0 65.4 29.0 L65.5 29.0 Q66.0 29.0 66.0 28.5 Z M40.0 13.4 Q40.0 13.0 40.4 13.0 L40.5 13.0 Q41.0 13.0 41.0 13.4 L41.0 18.5 Q41.0 19.0 40.5 19.0 L40.4 19.0 Q40.0 19.0 40.0 18.5 Z M48.0 14.4 Q48.0 14.0 47.5 14.0 L47.4 14.0 Q47.0 14.0 47.0 14.4 L47.0 28.5 Q47.0 29.0 47.4 29.0 L47.5 29.0 Q48.0 29.0 48.0 28.5 Z M52.0 15.4 Q52.0 15.0 51.5 15.0 L51.4 15.0 Q51.0 15.0 51.0 15.4 L51.0 28.5 Q51.0 29.0 51.4 29.0 L51.5 29.0 Q52.0 29.0 52.0 28.5 Z M50.0 16.4 Q50.0 16.0 49.5 16.0 L49.4 16.0 Q49.0 16.0 49.0 16.4 L49.0 28.5 Q49.0 29.0 49.4 29.0 L49.5 29.0 Q50.0 29.0 50.0 28.5 Z" fill="rgb(255,255,255)" stroke="rgb(255,255,255)" stroke-width="0.1"/><path d="M39.4 13.0 Q39.0 13.0 39.0 12.5 L39.0 9.4 Q39.0 9.0 39.4 9.0 L39.5 9.0 Q40.0 9.0 39.8 8.6 L39.1 7.3 Q39.0 7.0 39.4 7.0 L39.5 7.0 Q40.0 7.0 40.0 6.5 L40.0 6.4 Q40.0 6.0 40.4 6.0 L41.5 6.0 Q42.0 6.0 42.0 6.4 L42.0 8.5 Q42.0 9.0 42.4 9.0 L42.5 9.0 Q43.0 9.0 43.0 8.5 L43.0 6.4 Q43.0 6.0 43.4 6.0 L43.5 6.0 Q44.0 6.0 44.0 6.4 L44.0 7.5 Q44.0 8.0 44.4 8.0 L44.5 8.0 Q45.0 8.0 45.2 8.3 L46.7 10.6 Q47.0 11.0 46.6 11.1 L42.3 12.8 Q42.0 13.0 42.0 12.5 L42.0 9.4 Q42.0 9.0 41.5 9.0 L41.4 9.0 Q41.0 9.0 41.0 9.4 L41.0 12.5 Q41.0 13.0 40.5 13.0 Z M58.0 12.5 Q58.0 13.0 57.6 12.8 L53.3 11.1 Q53.0 11.0 53.0 10.5 L53.0 10.4 Q53.0 10.0 53.3 9.7 L55.6 8.2 Q56.0 8.0 56.0 7.5 L56.0 6.4 Q56.0 6.0 56.4 6.0 L56.5 6.0 Q57.0 6.0 57.0 6.4 L57.0 8.5 Q57.0 9.0 57.4 9.0 L57.5 9.0 Q58.0 9.0 58.0 9.4 Z M61.0 12.5 Q61.0 13.0 60.5 13.0 L59.4 13.0 Q59.0 13.0 58.9 12.5 L58.0 6.4 Q58.0 6.0 58.4 6.0 L59.5 6.0 Q60.0 6.0 60.0 6.4 L60.0 6.5 Q60.0 7.0 60.4 7.0 L60.5 7.0 Q61.0 7.0 61.0 7.4 L61.0 7.5 Q61.0 8.0 60.5 8.0 L60.4 8.0 Q60.0 8.0 60.0 8.4 L60.0 8.5 Q60.0 9.0 60.4 9.0 L60.5 9.0 Q61.0 9.0 61.0 9.4 Z M33.1 7.3 Q33.0 7.0 33.4 7.0 L34.5 7.0 Q35.0 7.0 35.0 7.4 L35.0 8.5 Q35.0 9.0 34.5 9.0 L34.4 9.0 Q34.0 9.0 33.8 8.6 Z M36.1 7.3 Q36.0 7.0 36.4 7.0 L37.5 7.0 Q38.0 7.0 38.0 7.4 L38.0 8.5 Q38.0 9.0 37.5 9.0 L37.4 9.0 Q37.0 9.0 36.8 8.6 Z M62.0 7.4 Q62.0 7.0 62.4 7.0 L63.5 7.0 Q64.0 7.0 64.0 7.4 L64.0 7.5 Q64.0 8.0 63.6 8.1 L62.3 8.8 Q62.0 9.0 62.0 8.5 Z M65.0 7.4 Q65.0 7.0 65.4 7.0 L66.5 7.0 Q67.0 7.0 67.0 7.4 L67.0 7.5 Q67.0 8.0 66.6 8.1 L65.3 8.8 Q65.0 9.0 65.0 8.5 Z M15.0 21.4 Q15.0 21.0 15.4 21.0 L16.5 21.0 Q17.0 21.0 17.0 21.4 L17.0 21.5 Q17.0 22.0 17.4 22.0 L17.5 22.0 Q18.0 22.0 18.0 22.4 L18.0 22.5 Q18.0 23.0 18.4 23.0 L18.5 23.0 Q19.0 23.0 19.0 23.4 L19.0 23.5 Q19.0 24.0 19.4 24.0 L19.5 24.0 Q20.0 24.0 20.0 24.4 L20.0 24.5 Q20.0 25.0 20.4 25.0 L20.5 25.0 Q21.0 25.0 21.0 25.4 L21.0 25.5 Q21.0 26.0 21.4 26.0 L21.5 26.0 Q22.0 26.0 22.0 26.4 L22.0 26.5 Q22.0 27.0 22.4 27.0 L22.5 27.0 Q23.0 27.0 23.0 27.4 L23.0 27.5 Q23.0 28.0 23.4 28.0 L23.5 28.0 Q24.0 28.0 24.0 28.4 L24.0 28.5 Q24.0 29.0 24.3 29.2 L27.6 31.7 Q28.0 32.0 28.0 32.4 L28.0 33.5 Q28.0 34.0 27.5 34.0 L26.4 34.0 Q26.0 34.0 26.0 34.4 L26.0 35.5 Q26.0 36.0 25.5 36.0 L24.4 36.0 Q24.0 36.0 24.0 35.5 L24.0 35.4 Q24.0 35.0 23.5 35.0 L23.4 35.0 Q23.0 35.0 23.0 34.5 L23.0 34.4 Q23.0 34.0 22.5 34.0 L22.4 34.0 Q22.0 34.0 22.0 33.5 L22.0 33.4 Q22.0 33.0 21.5 33.0 L21.4 33.0 Q21.0 33.0 21.0 32.5 L21.0 32.4 Q21.0 32.0 20.5 32.0 L20.4 32.0 Q20.0 32.0 20.0 31.5 L20.0 31.4 Q20.0 31.0 19.5 31.0 L19.4 31.0 Q19.0 31.0 19.0 30.5 L19.0 30.4 Q19.0 30.0 18.5 30.0 L18.4 30.0 Q18.0 30.0 18.0 29.5 L18.0 29.4 Q18.0 29.0 17.5 29.0 L17.4 29.0 Q17.0 29.0 17.0 28.5 L17.0 28.4 Q17.0 28.0 16.6 27.7 L13.3 25.2 Q13.0 25.0 13.0 24.5 L13.0 23.4 Q13.0 23.0 13.4 23.0 L14.5 23.0 Q15.0 23.0 15.0 23.4 L15.0 23.5 Q15.0 24.0 15.4 24.0 L15.5 24.0 Q16.0 24.0 16.0 24.4 L16.0 24.5 Q16.0 25.0 16.4 25.0 L16.5 25.0 Q17.0 25.0 17.0 25.4 L17.0 25.5 Q17.0 26.0 17.4 26.0 L17.5 26.0 Q18.0 26.0 18.0 26.4 L18.0 26.5 Q18.0 27.0 18.4 27.0 L18.5 27.0 Q19.0 27.0 19.0 27.4 L19.0 27.5 Q19.0 28.0 19.4 28.0 L19.5 28.0 Q20.0 28.0 20.0 28.4 L20.0 28.5 Q20.0 29.0 20.4 29.0 L20.5 29.0 Q21.0 29.0 21.0 29.4 L21.0 29.5 Q21.0 30.0 21.4 30.0 L21.5 30.0 Q22.0 30.0 22.0 30.4 L22.0 30.5 Q22.0 31.0 22.3 31.2 L25.6 33.7 Q26.0 34.0 26.0 33.5 L26.0 33.4 Q26.0 33.0 25.5 33.0 L25.4 33.0 Q25.0 33.0 25.0 32.5 L25.0 32.4 Q25.0 32.0 24.5 32.0 L24.4 32.0 Q24.0 32.0 24.0 31.5 L24.0 31.4 Q24.0 31.0 23.5 31.0 L23.4 31.0 Q23.0 31.0 23.0 30.5 L23.0 30.4 Q23.0 30.0 22.5 30.0 L22.4 30.0 Q22.0 30.0 22.0 29.5 L22.0 29.4 Q22.0 29.0 21.5 29.0 L21.4 29.0 Q21.0 29.0 21.0 28.5 L21.0 28.4 Q21.0 28.0 20.5 28.0 L20.4 28.0 Q20.0 28.0 20.0 27.5 L20.0 27.4 Q20.0 27.0 19.5 27.0 L19.4 27.0 Q19.0 27.0 19.0 26.5 L19.0 26.4 Q19.0 26.0 18.6 25.7 L15.3 23.2 Q15.0 23.0 15.0 22.5 Z M84.5 21.0 Q85.0 21.0 85.0 21.4 L85.0 22.5 Q85.0 23.0 85.4 23.0 L86.5 23.0 Q87.0 23.0 87.0 23.4 L87.0 24.5 Q87.0 25.0 86.5 25.0 L86.4 25.0 Q86.0 25.0 86.0 25.4 L86.0 25.5 Q86.0 26.0 85.5 26.0 L85.4 26.0 Q85.0 26.0 85.0 26.4 L85.0 26.5 Q85.0 27.0 84.5 27.0 L84.4 27.0 Q84.0 27.0 84.0 27.4 L84.0 27.5 Q84.0 28.0 83.5 28.0 L83.4 28.0 Q83.0 28.0 83.0 28.4 L83.0 28.5 Q83.0 29.0 82.5 29.0 L82.4 29.0 Q82.0 29.0 82.0 29.4 L82.0 29.5 Q82.0 30.0 81.5 30.0 L81.4 30.0 Q81.0 30.0 81.0 30.4 L81.0 30.5 Q81.0 31.0 80.5 31.0 L80.4 31.0 Q80.0 31.0 80.0 31.4 L80.0 31.5 Q80.0 32.0 79.5 32.0 L79.4 32.0 Q79.0 32.0 78.7 32.3 L76.2 35.6 Q76.0 36.0 75.5 36.0 L74.4 36.0 Q74.0 36.0 74.0 35.5 L74.0 34.4 Q74.0 34.0 74.4 34.0 L74.5 34.0 Q75.0 34.0 75.0 33.5 L75.0 33.4 Q75.0 33.0 75.4 33.0 L75.5 33.0 Q76.0 33.0 76.0 32.5 L76.0 32.4 Q76.0 32.0 76.4 32.0 L76.5 32.0 Q77.0 32.0 77.0 31.5 L77.0 31.4 Q77.0 31.0 77.4 31.0 L77.5 31.0 Q78.0 31.0 78.0 30.5 L78.0 30.4 Q78.0 30.0 78.4 30.0 L78.5 30.0 Q79.0 30.0 79.0 29.5 L79.0 29.4 Q79.0 29.0 79.4 29.0 L79.5 29.0 Q80.0 29.0 80.0 28.5 L80.0 28.4 Q80.0 28.0 80.4 28.0 L80.5 28.0 Q81.0 28.0 81.0 27.5 L81.0 27.4 Q81.0 27.0 81.4 27.0 L81.5 27.0 Q82.0 27.0 82.2 26.6 L84.7 23.3 Q85.0 23.0 84.5 23.0 L84.4 23.0 Q84.0 23.0 84.0 23.4 L84.0 23.5 Q84.0 24.0 83.5 24.0 L83.4 24.0 Q83.0 24.0 83.0 24.4 L83.0 24.5 Q83.0 25.0 82.5 25.0 L82.4 25.0 Q82.0 25.0 82.0 25.4 L82.0 25.5 Q82.0 26.0 81.5 26.0 L81.4 26.0 Q81.0 26.0 81.0 26.4 L81.0 26.5 Q81.0 27.0 80.5 27.0 L80.4 27.0 Q80.0 27.0 80.0 27.4 L80.0 27.5 Q80.0 28.0 79.5 28.0 L79.4 28.0 Q79.0 28.0 79.0 28.4 L79.0 28.5 Q79.0 29.0 78.5 29.0 L78.4 29.0 Q78.0 29.0 78.0 29.4 L78.0 29.5 Q78.0 30.0 77.5 30.0 L77.4 30.0 Q77.0 30.0 76.7 30.3 L74.2 33.6 Q74.0 34.0 73.5 34.0 L72.4 34.0 Q72.0 34.0 72.0 33.5 L72.0 32.4 Q72.0 32.0 72.4 32.0 L72.5 32.0 Q73.0 32.0 73.0 31.5 L73.0 31.4 Q73.0 31.0 73.4 31.0 L73.5 31.0 Q74.0 31.0 74.0 30.5 L74.0 30.4 Q74.0 30.0 74.4 30.0 L74.5 30.0 Q75.0 30.0 75.0 29.5 L75.0 29.4 Q75.0 29.0 75.4 29.0 L75.5 29.0 Q76.0 29.0 76.0 28.5 L76.0 28.4 Q76.0 28.0 76.4 28.0 L76.5 28.0 Q77.0 28.0 77.0 27.5 L77.0 27.4 Q77.0 27.0 77.4 27.0 L77.5 27.0 Q78.0 27.0 78.0 26.5 L78.0 26.4 Q78.0 26.0 78.4 26.0 L78.5 26.0 Q79.0 26.0 79.0 25.5 L79.0 25.4 Q79.0 25.0 79.4 25.0 L79.5 25.0 Q80.0 25.0 80.2 24.6 L82.7 21.3 Q83.0 21.0 83.4 21.0 Z" fill="rgb(7,79,23)" stroke="rgb(7,79,23)" stroke-width="0.1"/><path d="M50.5 12.0 Q51.0 12.0 51.0 12.4 L51.0 12.5 Q51.0 13.0 50.5 13.0 L49.4 13.0 Q49.0 13.0 49.0 12.5 L49.0 12.4 Q49.0 12.0 48.5 12.0 L48.4 12.0 Q48.0 12.0 48.0 11.5 L48.0 11.4 Q48.0 11.0 47.6 10.7 L44.3 8.2 Q44.0 8.0 44.0 7.5 L44.0 6.4 Q44.0 6.0 43.5 6.0 L30.4 6.0 Q30.0 6.0 30.0 6.4 L30.0 6.5 Q30.0 7.0 29.5 7.0 L29.4 7.0 Q29.0 7.0 29.0 7.4 L29.0 7.5 Q29.0 8.0 28.5 8.0 L28.4 8.0 Q28.0 8.0 28.0 8.4 L28.0 8.5 Q28.0 9.0 27.5 9.0 L27.4 9.0 Q27.0 9.0 27.0 9.4 L27.0 9.5 Q27.0 10.0 26.5 10.0 L26.4 10.0 Q26.0 10.0 26.0 10.4 L26.0 10.5 Q26.0 11.0 25.5 11.0 L25.4 11.0 Q25.0 11.0 25.0 11.4 L25.0 11.5 Q25.0 12.0 24.5 12.0 L24.4 12.0 Q24.0 12.0 24.0 12.4 L24.0 12.5 Q24.0 13.0 23.5 13.0 L23.4 13.0 Q23.0 13.0 23.0 13.4 L23.0 13.5 Q23.0 14.0 22.5 14.0 L22.4 14.0 Q22.0 14.0 22.0 14.4 L22.0 14.5 Q22.0 15.0 21.5 15.0 L21.4 15.0 Q21.0 15.0 21.0 15.4 L21.0 15.5 Q21.0 16.0 20.5 16.0 L20.4 16.0 Q20.0 16.0 20.0 16.4 L20.0 16.5 Q20.0 17.0 19.5 17.0 L19.4 17.0 Q19.0 17.0 19.0 17.4 L19.0 17.5 Q19.0 18.0 18.5 18.0 L18.4 18.0 Q18.0 18.0 18.0 18.4 L18.0 18.5 Q18.0 19.0 17.5 19.0 L17.4 19.0 Q17.0 19.0 17.0 19.4 L17.0 19.5 Q17.0 20.0 16.6 20.2 L13.3 22.7 Q13.0 23.0 13.0 23.4 L13.0 24.5 Q13.0 25.0 13.4 25.0 L13.5 25.0 Q14.0 25.0 14.0 25.4 L14.0 25.5 Q14.0 26.0 14.4 26.0 L14.5 26.0 Q15.0 26.0 15.0 26.4 L15.0 26.5 Q15.0 27.0 15.4 27.0 L15.5 27.0 Q16.0 27.0 16.0 27.4 L16.0 27.5 Q16.0 28.0 16.4 28.0 L16.5 28.0 Q17.0 28.0 17.0 28.4 L17.0 28.5 Q17.0 29.0 17.4 29.0 L17.5 29.0 Q18.0 29.0 18.0 29.4 L18.0 29.5 Q18.0 30.0 18.4 30.0 L18.5 30.0 Q19.0 30.0 19.0 30.4 L19.0 30.5 Q19.0 31.0 19.4 31.0 L19.5 31.0 Q20.0 31.0 20.0 31.4 L20.0 31.5 Q20.0 32.0 20.4 32.0 L20.5 32.0 Q21.0 32.0 21.2 32.3 L23.7 35.6 Q24.0 36.0 24.4 36.0 L25.5 36.0 Q26.0 36.0 26.0 36.4 L26.0 36.5 Q26.0 37.0 25.5 37.0 L24.4 37.0 Q24.0 37.0 24.0 36.5 L24.0 36.4 Q24.0 36.0 23.5 36.0 L23.4 36.0 Q23.0 36.0 23.0 35.5 L23.0 35.4 Q23.0 35.0 22.5 35.0 L22.4 35.0 Q22.0 35.0 22.0 34.5 L22.0 34.4 Q22.0 34.0 21.5 34.0 L21.4 34.0 Q21.0 34.0 21.0 33.5 L21.0 33.4 Q21.0 33.0 20.5 33.0 L20.4 33.0 Q20.0 33.0 20.0 32.5 L20.0 32.4 Q20.0 32.0 19.5 32.0 L19.4 32.0 Q19.0 32.0 19.0 31.5 L19.0 31.4 Q19.0 31.0 18.5 31.0 L18.4 31.0 Q18.0 31.0 18.0 30.5 L18.0 30.4 Q18.0 30.0 17.5 30.0 L17.4 30.0 Q17.0 30.0 17.0 29.5 L17.0 29.4 Q17.0 29.0 16.5 29.0 L16.4 29.0 Q16.0 29.0 16.0 28.5 L16.0 28.4 Q16.0 28.0 15.6 27.7 L12.3 25.2 Q12.0 25.0 12.0 24.5 L12.0 23.4 Q12.0 23.0 12.4 23.0 L12.5 23.0 Q13.0 23.0 13.0 22.5 L13.0 22.4 Q13.0 22.0 13.4 22.0 L13.5 22.0 Q14.0 22.0 14.0 21.5 L14.0 21.4 Q14.0 21.0 14.4 21.0 L14.5 21.0 Q15.0 21.0 15.0 20.5 L15.0 20.4 Q15.0 20.0 15.4 20.0 L15.5 20.0 Q16.0 20.0 16.0 19.5 L16.0 19.4 Q16.0 19.0 16.4 19.0 L16.5 19.0 Q17.0 19.0 17.0 18.5 L17.0 18.4 Q17.0 18.0 17.4 18.0 L17.5 18.0 Q18.0 18.0 18.0 17.5 L18.0 17.4 Q18.0 17.0 18.4 17.0 L18.5 17.0 Q19.0 17.0 19.0 16.5 L19.0 16.4 Q19.0 16.0 19.4 16.0 L19.5 16.0 Q20.0 16.0 20.0 15.5 L20.0 15.4 Q20.0 15.0 20.4 15.0 L20.5 15.0 Q21.0 15.0 21.0 14.5 L21.0 14.4 Q21.0 14.0 21.4 14.0 L21.5 14.0 Q22.0 14.0 22.0 13.5 L22.0 13.4 Q22.0 13.0 22.4 13.0 L22.5 13.0 Q23.0 13.0 23.0 12.5 L23.0 12.4 Q23.0 12.0 23.4 12.0 L23.5 12.0 Q24.0 12.0 24.0 11.5 L24.0 11.4 Q24.0 11.0 24.4 11.0 L24.5 11.0 Q25.0 11.0 25.0 10.5 L25.0 10.4 Q25.0 10.0 25.4 10.0 L25.5 10.0 Q26.0 10.0 26.0 9.5 L26.0 9.4 Q26.0 9.0 26.4 9.0 L26.5 9.0 Q27.0 9.0 27.2 8.6 L29.7 5.3 Q30.0 5.0 30.4 5.0 L43.5 5.0 Q44.0 5.0 44.0 5.4 L44.0 5.5 Q44.0 6.0 44.4 6.0 L44.5 6.0 Q45.0 6.0 45.0 6.4 L45.0 7.5 Q45.0 8.0 45.4 8.0 L45.5 8.0 Q46.0 8.0 46.2 8.3 L48.7 11.6 Q49.0 12.0 49.4 12.0 Z M51.0 11.4 Q51.0 11.0 51.3 10.7 L54.6 8.2 Q55.0 8.0 55.0 7.5 L55.0 6.4 Q55.0 6.0 55.4 6.0 L55.5 6.0 Q56.0 6.0 56.0 5.5 L56.0 5.4 Q56.0 5.0 56.4 5.0 L69.5 5.0 Q70.0 5.0 70.0 5.4 L70.0 5.5 Q70.0 6.0 70.4 6.0 L70.5 6.0 Q71.0 6.0 71.0 6.4 L71.0 6.5 Q71.0 7.0 71.4 7.0 L71.5 7.0 Q72.0 7.0 72.0 7.4 L72.0 7.5 Q72.0 8.0 72.4 8.0 L72.5 8.0 Q73.0 8.0 73.0 8.4 L73.0 8.5 Q73.0 9.0 73.4 9.0 L73.5 9.0 Q74.0 9.0 74.0 9.4 L74.0 9.5 Q74.0 10.0 74.4 10.0 L74.5 10.0 Q75.0 10.0 75.0 10.4 L75.0 10.5 Q75.0 11.0 75.4 11.0 L75.5 11.0 Q76.0 11.0 76.0 11.4 L76.0 11.5 Q76.0 12.0 76.4 12.0 L76.5 12.0 Q77.0 12.0 77.0 12.4 L77.0 12.5 Q77.0 13.0 77.4 13.0 L77.5 13.0 Q78.0 13.0 78.0 13.4 L78.0 13.5 Q78.0 14.0 78.4 14.0 L78.5 14.0 Q79.0 14.0 79.0 14.4 L79.0 14.5 Q79.0 15.0 79.4 15.0 L79.5 15.0 Q80.0 15.0 80.0 15.4 L80.0 15.5 Q80.0 16.0 80.4 16.0 L80.5 16.0 Q81.0 16.0 81.0 16.4 L81.0 16.5 Q81.0 17.0 81.4 17.0 L81.5 17.0 Q82.0 17.0 82.0 17.4 L82.0 17.5 Q82.0 18.0 82.4 18.0 L82.5 18.0 Q83.0 18.0 83.0 18.4 L83.0 18.5 Q83.0 19.0 83.4 19.0 L83.5 19.0 Q84.0 19.0 84.0 19.4 L84.0 19.5 Q84.0 20.0 84.3 20.2 L87.6 22.7 Q88.0 23.0 88.0 23.4 L88.0 24.5 Q88.0 25.0 87.5 25.0 L87.4 25.0 Q87.0 25.0 87.0 25.4 L87.0 25.5 Q87.0 26.0 86.5 26.0 L86.4 26.0 Q86.0 26.0 86.0 26.4 L86.0 26.5 Q86.0 27.0 85.5 27.0 L85.4 27.0 Q85.0 27.0 85.0 27.4 L85.0 27.5 Q85.0 28.0 84.5 28.0 L84.4 28.0 Q84.0 28.0 84.0 28.4 L84.0 28.5 Q84.0 29.0 83.5 29.0 L83.4 29.0 Q83.0 29.0 83.0 29.4 L83.0 29.5 Q83.0 30.0 82.5 30.0 L82.4 30.0 Q82.0 30.0 82.0 30.4 L82.0 30.5 Q82.0 31.0 81.5 31.0 L81.4 31.0 Q81.0 31.0 81.0 31.4 L81.0 31.5 Q81.0 32.0 80.5 32.0 L80.4 32.0 Q80.0 32.0 80.0 32.4 L80.0 32.5 Q80.0 33.0 79.5 33.0 L79.4 33.0 Q79.0 33.0 78.7 33.3 L76.2 36.6 Q76.0 37.0 75.5 37.0 L74.4 37.0 Q74.0 37.0 74.0 36.5 L74.0 36.4 Q74.0 36.0 74.4 36.0 L75.5 36.0 Q76.0 36.0 76.0 35.5 L76.0 35.4 Q76.0 35.0 76.4 35.0 L76.5 35.0 Q77.0 35.0 77.0 34.5 L77.0 34.4 Q77.0 34.0 77.4 34.0 L77.5 34.0 Q78.0 34.0 78.0 33.5 L78.0 33.4 Q78.0 33.0 78.4 33.0 L78.5 33.0 Q79.0 33.0 79.0 32.5 L79.0 32.4 Q79.0 32.0 79.4 32.0 L79.5 32.0 Q80.0 32.0 80.0 31.5 L80.0 31.4 Q80.0 31.0 80.4 31.0 L80.5 31.0 Q81.0 31.0 81.0 30.5 L81.0 30.4 Q81.0 30.0 81.4 30.0 L81.5 30.0 Q82.0 30.0 82.0 29.5 L82.0 29.4 Q82.0 29.0 82.4 29.0 L82.5 29.0 Q83.0 29.0 83.0 28.5 L83.0 28.4 Q83.0 28.0 83.3 27.7 L86.6 25.2 Q87.0 25.0 87.0 24.5 L87.0 23.4 Q87.0 23.0 86.5 23.0 L86.4 23.0 Q86.0 23.0 86.0 22.5 L86.0 22.4 Q86.0 22.0 85.5 22.0 L85.4 22.0 Q85.0 22.0 85.0 21.5 L85.0 21.4 Q85.0 21.0 84.5 21.0 L84.4 21.0 Q84.0 21.0 84.0 20.5 L84.0 20.4 Q84.0 20.0 83.5 20.0 L83.4 20.0 Q83.0 20.0 83.0 19.5 L83.0 19.4 Q83.0 19.0 82.5 19.0 L82.4 19.0 Q82.0 19.0 82.0 18.5 L82.0 18.4 Q82.0 18.0 81.5 18.0 L81.4 18.0 Q81.0 18.0 81.0 17.5 L81.0 17.4 Q81.0 17.0 80.5 17.0 L80.4 17.0 Q80.0 17.0 80.0 16.5 L80.0 16.4 Q80.0 16.0 79.5 16.0 L79.4 16.0 Q79.0 16.0 79.0 15.5 L79.0 15.4 Q79.0 15.0 78.5 15.0 L78.4 15.0 Q78.0 15.0 78.0 14.5 L78.0 14.4 Q78.0 14.0 77.5 14.0 L77.4 14.0 Q77.0 14.0 77.0 13.5 L77.0 13.4 Q77.0 13.0 76.5 13.0 L76.4 13.0 Q76.0 13.0 76.0 12.5 L76.0 12.4 Q76.0 12.0 75.5 12.0 L75.4 12.0 Q75.0 12.0 75.0 11.5 L75.0 11.4 Q75.0 11.0 74.5 11.0 L74.4 11.0 Q74.0 11.0 74.0 10.5 L74.0 10.4 Q74.0 10.0 73.5 10.0 L73.4 10.0 Q73.0 10.0 72.7 9.6 L70.2 6.3 Q70.0 6.0 69.5 6.0 L56.4 6.0 Q56.0 6.0 56.0 6.4 L56.0 7.5 Q56.0 8.0 55.5 8.0 L55.4 8.0 Q55.0 8.0 54.7 8.3 L52.2 11.6 Q52.0 12.0 51.5 12.0 L51.4 12.0 Q51.0 12.0 51.0 11.5 Z M70.0 58.5 Q70.0 59.0 69.5 59.0 L30.4 59.0 Q30.0 59.0 30.0 58.5 L30.0 33.4 Q30.0 33.0 29.5 33.0 L29.4 33.0 Q29.0 33.0 28.7 33.3 L27.2 35.6 Q27.0 36.0 26.5 36.0 L26.4 36.0 Q26.0 36.0 26.0 35.5 L26.0 35.4 Q26.0 35.0 26.4 35.0 L26.5 35.0 Q27.0 35.0 27.0 34.5 L27.0 34.4 Q27.0 34.0 27.3 33.7 L30.6 31.2 Q31.0 31.0 31.0 31.4 L31.0 57.5 Q31.0 58.0 31.4 58.0 L68.5 58.0 Q69.0 58.0 69.0 57.5 L69.0 31.4 Q69.0 31.0 69.4 31.0 L69.5 31.0 Q70.0 31.0 70.0 31.4 L70.0 31.5 Q70.0 32.0 70.3 32.2 L73.6 34.7 Q74.0 35.0 74.0 35.4 L74.0 35.5 Q74.0 36.0 73.5 36.0 L73.4 36.0 Q73.0 36.0 73.0 35.5 L73.0 35.4 Q73.0 35.0 72.6 34.7 L70.3 33.2 Q70.0 33.0 70.0 33.4 Z" fill="rgb(0,0,0)" stroke="rgb(0,0,0)" stroke-width="0.1"/><path d="M35.0 6.4 Q35.0 6.0 35.4 6.0 L35.5 6.0 Q36.0 6.0 36.0 6.4 L36.0 6.5 Q36.0 7.0 35.5 7.0 L35.4 7.0 Q35.0 7.0 35.0 6.5 Z M37.0 6.4 Q37.0 6.0 37.4 6.0 L37.5 6.0 Q38.0 6.0 38.0 6.4 L38.0 6.5 Q38.0 7.0 37.5 7.0 L37.4 7.0 Q37.0 7.0 37.0 6.5 Z M39.0 6.4 Q39.0 6.0 39.4 6.0 L39.5 6.0 Q40.0 6.0 40.0 6.4 L40.0 6.5 Q40.0 7.0 39.5 7.0 L39.4 7.0 Q39.0 7.0 39.0 6.5 Z M61.0 6.4 Q61.0 6.0 61.4 6.0 L61.5 6.0 Q62.0 6.0 62.0 6.4 L62.0 6.5 Q62.0 7.0 61.5 7.0 L61.4 7.0 Q61.0 7.0 61.0 6.5 Z M63.0 6.4 Q63.0 6.0 63.4 6.0 L63.5 6.0 Q64.0 6.0 64.0 6.4 L64.0 6.5 Q64.0 7.0 63.5 7.0 L63.4 7.0 Q63.0 7.0 63.0 6.5 Z M65.0 6.4 Q65.0 6.0 65.4 6.0 L65.5 6.0 Q66.0 6.0 66.0 6.4 L66.0 6.5 Q66.0 7.0 65.5 7.0 L65.4 7.0 Q65.0 7.0 65.0 6.5 Z M35.0 13.4 Q35.0 13.0 35.4 13.0 L35.5 13.0 Q36.0 13.0 36.0 13.4 L36.0 28.5 Q36.0 29.0 35.5 29.0 L35.4 29.0 Q35.0 29.0 35.0 28.5 Z M37.0 13.4 Q37.0 13.0 37.4 13.0 L37.5 13.0 Q38.0 13.0 38.0 13.4 L38.0 17.5 Q38.0 18.0 37.5 18.0 L37.4 18.0 Q37.0 18.0 37.0 17.5 Z M39.0 13.4 Q39.0 13.0 39.4 13.0 L39.5 13.0 Q40.0 13.0 40.0 13.4 L40.0 18.5 Q40.0 19.0 39.5 19.0 L39.4 19.0 Q39.0 19.0 39.0 18.5 Z M41.0 13.4 Q41.0 13.0 41.4 13.0 L41.5 13.0 Q42.0 13.0 42.0 13.4 L42.0 18.5 Q42.0 19.0 41.5 19.0 L41.4 19.0 Q41.0 19.0 41.0 18.5 Z M53.0 13.4 Q53.0 13.0 53.4 13.0 L53.5 13.0 Q54.0 13.0 54.0 13.4 L54.0 28.5 Q54.0 29.0 53.5 29.0 L53.4 29.0 Q53.0 29.0 53.0 28.5 Z M59.0 13.4 Q59.0 13.0 59.4 13.0 L59.5 13.0 Q60.0 13.0 60.0 13.4 L60.0 28.5 Q60.0 29.0 59.5 29.0 L59.4 29.0 Q59.0 29.0 59.0 28.5 Z M61.0 13.4 Q61.0 13.0 61.4 13.0 L61.5 13.0 Q62.0 13.0 62.0 13.4 L62.0 28.5 Q62.0 29.0 61.5 29.0 L61.4 29.0 Q61.0 29.0 61.0 28.5 Z M63.0 13.4 Q63.0 13.0 63.4 13.0 L63.5 13.0 Q64.0 13.0 64.0 13.4 L64.0 28.5 Q64.0 29.0 63.5 29.0 L63.4 29.0 Q63.0 29.0 63.0 28.5 Z M65.0 13.4 Q65.0 13.0 65.4 13.0 L65.5 13.0 Q66.0 13.0 66.0 13.4 L66.0 28.5 Q66.0 29.0 65.5 29.0 L65.4 29.0 Q65.0 29.0 65.0 28.5 Z M47.0 14.4 Q47.0 14.0 47.4 14.0 L47.5 14.0 Q48.0 14.0 48.0 14.4 L48.0 28.5 Q48.0 29.0 47.5 29.0 L47.4 29.0 Q47.0 29.0 47.0 28.5 Z M51.0 15.4 Q51.0 15.0 51.4 15.0 L51.5 15.0 Q52.0 15.0 52.0 15.4 L52.0 28.5 Q52.0 29.0 51.5 29.0 L51.4 29.0 Q51.0 29.0 51.0 28.5 Z M49.0 16.4 Q49.0 16.0 49.4 16.0 L49.5 16.0 Q50.0 16.0 50.0 16.4 L50.0 28.5 Q50.0 29.0 49.5 29.0 L49.4 29.0 Q49.0 29.0 49.0 28.5 Z M37.0 21.4 Q37.0 21.0 37.4 21.0 L37.5 21.0 Q38.0 21.0 38.0 21.4 L38.0 28.5 Q38.0 29.0 37.5 29.0 L37.4 29.0 Q37.0 29.0 37.0 28.5 Z M39.0 21.4 Q39.0 21.0 39.4 21.0 L39.5 21.0 Q40.0 21.0 40.0 21.4 L40.0 28.5 Q40.0 29.0 39.5 29.0 L39.4 29.0 Q39.0 29.0 39.0 28.5 Z M41.0 21.4 Q41.0 21.0 41.4 21.0 L41.5 21.0 Q42.0 21.0 42.0 21.4 L42.0 28.5 Q42.0 29.0 41.5 29.0 L41.4 29.0 Q41.0 29.0 41.0 28.5 Z" fill="rgb(228,228,228)" stroke="rgb(228,228,228)" stroke-width="0.1"/><path d="M42.5 6.0 Q43.0 6.0 43.0 6.4 L43.0 8.5 Q43.0 9.0 42.5 9.0 L42.4 9.0 Q42.0 9.0 42.0 9.4 L42.0 11.5 Q42.0 12.0 41.5 12.0 L41.4 12.0 Q41.0 12.0 41.0 11.5 L41.0 9.4 Q41.0 9.0 41.4 9.0 L41.5 9.0 Q42.0 9.0 42.0 8.5 L42.0 6.4 Q42.0 6.0 42.4 6.0 Z M57.0 6.4 Q57.0 6.0 57.4 6.0 L57.5 6.0 Q58.0 6.0 58.0 6.4 L58.9 11.5 Q59.0 12.0 58.5 12.0 L58.4 12.0 Q58.0 12.0 57.9 11.5 Z M14.2 22.3 Q14.0 22.0 14.4 22.0 L14.5 22.0 Q15.0 22.0 15.0 22.4 L15.0 22.5 Q15.0 23.0 15.4 23.0 L15.5 23.0 Q16.0 23.0 16.0 23.4 L16.0 23.5 Q16.0 24.0 16.4 24.0 L16.5 24.0 Q17.0 24.0 17.0 24.4 L17.0 24.5 Q17.0 25.0 17.4 25.0 L17.5 25.0 Q18.0 25.0 18.0 25.4 L18.0 25.5 Q18.0 26.0 18.4 26.0 L18.5 26.0 Q19.0 26.0 19.0 26.4 L19.0 26.5 Q19.0 27.0 19.4 27.0 L19.5 27.0 Q20.0 27.0 20.0 27.4 L20.0 27.5 Q20.0 28.0 20.4 28.0 L20.5 28.0 Q21.0 28.0 21.0 28.4 L21.0 28.5 Q21.0 29.0 21.4 29.0 L21.5 29.0 Q22.0 29.0 22.0 29.4 L22.0 29.5 Q22.0 30.0 22.4 30.0 L22.5 30.0 Q23.0 30.0 23.0 30.4 L23.0 30.5 Q23.0 31.0 23.4 31.0 L23.5 31.0 Q24.0 31.0 24.2 31.3 L26.7 34.6 Q27.0 35.0 26.5 35.0 L26.4 35.0 Q26.0 35.0 26.0 34.5 L26.0 34.4 Q26.0 34.0 25.5 34.0 L25.4 34.0 Q25.0 34.0 25.0 33.5 L25.0 33.4 Q25.0 33.0 24.5 33.0 L24.4 33.0 Q24.0 33.0 24.0 32.5 L24.0 32.4 Q24.0 32.0 23.5 32.0 L23.4 32.0 Q23.0 32.0 23.0 31.5 L23.0 31.4 Q23.0 31.0 22.5 31.0 L22.4 31.0 Q22.0 31.0 22.0 30.5 L22.0 30.4 Q22.0 30.0 21.5 30.0 L21.4 30.0 Q21.0 30.0 21.0 29.5 L21.0 29.4 Q21.0 29.0 20.5 29.0 L20.4 29.0 Q20.0 29.0 20.0 28.5 L20.0 28.4 Q20.0 28.0 19.5 28.0 L19.4 28.0 Q19.0 28.0 19.0 27.5 L19.0 27.4 Q19.0 27.0 18.5 27.0 L18.4 27.0 Q18.0 27.0 18.0 26.5 L18.0 26.4 Q18.0 26.0 17.5 26.0 L17.4 26.0 Q17.0 26.0 16.7 25.6 Z M85.6 22.2 Q86.0 22.0 86.0 22.4 L86.0 22.5 Q86.0 23.0 85.5 23.0 L85.4 23.0 Q85.0 23.0 85.0 23.4 L85.0 23.5 Q85.0 24.0 84.5 24.0 L84.4 24.0 Q84.0 24.0 84.0 24.4 L84.0 24.5 Q84.0 25.0 83.5 25.0 L83.4 25.0 Q83.0 25.0 83.0 25.4 L83.0 25.5 Q83.0 26.0 82.5 26.0 L82.4 26.0 Q82.0 26.0 82.0 26.4 L82.0 26.5 Q82.0 27.0 81.5 27.0 L81.4 27.0 Q81.0 27.0 81.0 27.4 L81.0 27.5 Q81.0 28.0 80.5 28.0 L80.4 28.0 Q80.0 28.0 80.0 28.4 L80.0 28.5 Q80.0 29.0 79.5 29.0 L79.4 29.0 Q79.0 29.0 79.0 29.4 L79.0 29.5 Q79.0 30.0 78.5 30.0 L78.4 30.0 Q78.0 30.0 78.0 30.4 L78.0 30.5 Q78.0 31.0 77.5 31.0 L77.4 31.0 Q77.0 31.0 77.0 31.4 L77.0 31.5 Q77.0 32.0 76.6 32.2 L73.3 34.7 Q73.0 35.0 73.0 34.5 L73.0 34.4 Q73.0 34.0 73.4 34.0 L73.5 34.0 Q74.0 34.0 74.0 33.5 L74.0 33.4 Q74.0 33.0 74.4 33.0 L74.5 33.0 Q75.0 33.0 75.0 32.5 L75.0 32.4 Q75.0 32.0 75.4 32.0 L75.5 32.0 Q76.0 32.0 76.0 31.5 L76.0 31.4 Q76.0 31.0 76.4 31.0 L76.5 31.0 Q77.0 31.0 77.0 30.5 L77.0 30.4 Q77.0 30.0 77.4 30.0 L77.5 30.0 Q78.0 30.0 78.0 29.5 L78.0 29.4 Q78.0 29.0 78.4 29.0 L78.5 29.0 Q79.0 29.0 79.0 28.5 L79.0 28.4 Q79.0 28.0 79.4 28.0 L79.5 28.0 Q80.0 28.0 80.0 27.5 L80.0 27.4 Q80.0 27.0 80.4 27.0 L80.5 27.0 Q81.0 27.0 81.0 26.5 L81.0 26.4 Q81.0 26.0 81.4 26.0 L81.5 26.0 Q82.0 26.0 82.0 25.5 L82.0 25.4 Q82.0 25.0 82.3 24.7 Z" fill="rgb(255,238,0)" stroke="rgb(255,238,0)" stroke-width="0.1"/><path d="M36.0 19.4 Q36.0 19.0 36.4 19.0 L43.5 19.0 Q44.0 19.0 44.0 19.4 L44.0 20.5 Q44.0 21.0 43.5 21.0 L36.4 21.0 Q36.0 21.0 36.0 20.5 Z" fill="rgb(74,127,86)" stroke="rgb(74,127,86)" stroke-width="0.1"/><path d="M36.0 18.4 Q36.0 18.0 36.4 18.0 L38.5 18.0 Q39.0 18.0 39.0 18.4 L39.0 18.5 Q39.0 19.0 38.5 19.0 L36.4 19.0 Q36.0 19.0 36.0 18.5 Z" fill="rgb(170,195,176)" stroke="rgb(170,195,176)" stroke-width="0.1"/></svg>