<svg class="camisa" viewBox="0 0 100 59" xmlns="http://www.w3.org/2000/svg" role="img"><path d="M87.0 24.6 Q87.0 25.0 86.6 25.0 L86.4 25.0 Q86.0 25.0 86.0 25.4 L86.0 25.6 Q86.0 26.0 85.6 26.0 L85.4 26.0 Q85.0 26.0 85.0 26.4 L85.0 26.6 Q85.0 27.0 84.6 27.0 L84.4 27.0 Q84.0 27.0 84.0 27.4 L84.0 27.6 Q84.0 28.0 83.6 28.0 L83.4 28.0 Q83.0 28.0 83.0 28.4 L83.0 28.6 Q83.0 29.0 82.6 29.0 L82.4 29.0 Q82.0 29.0 82.0 29.4 L82.0 29.6 Q82.0 30.0 81.6 30.0 L81.4 30.0 Q81.0 30.0 81.0 30.4 L81.0 30.6 Q81.0 31.0 80.6 31.0 L80.4 31.0 Q80.0 31.0 80.0 31.4 L80.0 31.6 Q80.0 32.0 79.6 32.0 L79.4 32.0 Q79.0 32.0 78.7 32.3 L76.3 35.7 Q76.0 36.0 75.6 36.0 L74.4 36.0 Q74.0 36.0 74.0 35.6 L74.0 35.4 Q74.0 35.0 73.6 35.0 L73.4 35.0 Q73.0 35.0 72.7 34.7 L70.3 31.3 Q70.0 31.0 69.6 31.0 L69.4 31.0 Q69.0 31.0 69.0 31.4 L69.0 34.6 Q69.0 35.0 68.6 35.0 L68.4 35.0 Q68.0 35.0 68.0 34.6 L68.0 33.4 Q68.0 33.0 67.6 33.0 L67.4 33.0 Q67.0 33.0 67.0 33.4 L67.0 33.6 Q67.0 34.0 66.7 34.2 L64.3 35.8 Q64.0 36.0 64.0 35.6 L64.0 35.4 Q64.0 35.0 64.4 34.8 L65.6 34.2 Q66.0 34.0 66.0 33.6 L66.0 32.4 Q66.0 32.0 66.4 32.0 L66.6 32.0 Q67.0 32.0 67.0 31.6 L67.0 29.4 Q67.0 29.0 67.4 29.0 L67.6 29.0 Q68.0 29.0 68.0 28.6 L68.0 25.4 Q68.0 25.0 67.6 25.2 L66.4 25.8 Q66.0 26.0 66.2 25.7 L67.8 23.3 Q68.0 23.0 67.6 23.0 L67.4 23.0 Q67.0 23.0 67.0 23.4 L67.0 23.6 Q67.0 24.0 66.6 24.0 L64.4 24.0 Q64.0 24.0 64.0 24.4 L64.0 24.6 Q64.0 25.0 63.6 25.0 L63.4 25.0 Q63.0 25.0 63.2 24.6 L63.8 23.4 Q64.0 23.0 63.6 23.0 L63.4 23.0 Q63.0 23.0 63.0 23.4 L63.0 23.6 Q63.0 24.0 62.6 24.0 L60.4 24.0 Q60.0 24.0 60.2 23.6 L60.8 22.4 Q61.0 22.0 60.6 22.0 L60.4 22.0 Q60.0 22.0 59.8 22.4 L59.2 23.6 Q59.0 24.0 58.6 24.0 L56.4 24.0 Q56.0 24.0 56.0 23.6 L56.0 23.4 Q56.0 23.0 56.4 22.8 L57.6 22.2 Q58.0 22.0 58.0 21.6 L58.0 21.4 Q58.0 21.0 57.6 21.0 L57.4 21.0 Q57.0 21.0 56.8 21.3 L55.2 23.7 Q55.0 24.0 54.6 24.0 L53.4 24.0 Q53.0 24.0 53.0 23.6 L53.0 22.4 Q53.0 22.0 53.4 22.0 L53.6 22.0 Q54.0 22.0 54.0 21.6 L54.0 21.4 Q54.0 21.0 53.6 21.0 L53.4 21.0 Q53.0 21.0 52.8 21.3 L51.2 23.7 Q51.0 24.0 50.6 24.0 L49.4 24.0 Q49.0 24.0 49.0 23.6 L49.0 23.4 Q49.0 23.0 49.4 23.0 L49.6 23.0 Q50.0 23.0 50.0 22.6 L50.0 21.4 Q50.0 21.0 50.4 21.0 L50.6 21.0 Q51.0 21.0 51.0 20.6 L51.0 20.4 Q51.0 20.0 50.6 20.0 L50.4 20.0 Q50.0 20.0 49.7 20.3 L47.3 23.7 Q47.0 24.0 46.6 24.0 L45.4 24.0 Q45.0 24.0 45.0 23.6 L45.0 23.4 Q45.0 23.0 45.4 23.0 L45.6 23.0 Q46.0 23.0 46.0 22.6 L46.0 21.4 Q46.0 21.0 46.4 20.8 L47.6 20.2 Q48.0 20.0 48.0 19.6 L48.0 19.4 Q48.0 19.0 47.6 19.0 L47.4 19.0 Q47.0 19.0 47.0 19.4 L47.0 19.6 Q47.0 20.0 46.7 20.3 L43.3 22.7 Q43.0 23.0 43.0 23.4 L43.0 24.6 Q43.0 25.0 42.6 25.2 L41.4 25.8 Q41.0 26.0 41.0 26.4 L41.0 27.6 Q41.0 28.0 40.7 28.3 L37.3 30.7 Q37.0 31.0 37.0 30.6 L37.0 30.4 Q37.0 30.0 37.4 29.8 L38.6 29.2 Q39.0 29.0 39.0 28.6 L39.0 27.4 Q39.0 27.0 39.3 26.8 L41.7 25.2 Q42.0 25.0 41.8 24.6 L41.2 23.4 Q41.0 23.0 41.4 22.8 L42.6 22.2 Q43.0 22.0 43.0 21.6 L43.0 20.4 Q43.0 20.0 43.4 20.0 L43.6 20.0 Q44.0 20.0 44.0 19.6 L44.0 19.4 Q44.0 19.0 43.6 19.0 L43.4 19.0 Q43.0 19.0 43.0 19.4 L43.0 19.6 Q43.0 20.0 42.7 20.3 L39.3 22.7 Q39.0 23.0 38.9 23.4 L38.1 26.6 Q38.0 27.0 37.6 27.0 L37.4 27.0 Q37.0 27.0 36.8 27.3 L35.2 29.7 Q35.0 30.0 34.6 30.0 L34.4 30.0 Q34.0 30.0 34.0 29.6 L34.0 29.4 Q34.0 29.0 34.4 29.0 L34.6 29.0 Q35.0 29.0 35.0 28.6 L35.0 27.4 Q35.0 27.0 35.3 26.8 L37.7 25.2 Q38.0 25.0 37.8 24.6 L37.2 23.4 Q37.0 23.0 37.3 22.8 L39.7 21.2 Q40.0 21.0 40.0 20.6 L40.0 19.4 Q40.0 19.0 40.4 19.0 L40.6 19.0 Q41.0 19.0 41.0 18.6 L41.0 18.4 Q41.0 18.0 41.4 18.0 L42.6 18.0 Q43.0 18.0 43.0 17.6 L43.0 17.4 Q43.0 17.0 43.3 16.7 L46.7 14.3 Q47.0 14.0 47.0 13.6 L47.0 13.4 Q47.0 13.0 46.6 13.0 L45.4 13.0 Q45.0 13.0 45.0 13.4 L45.0 14.6 Q45.0 15.0 44.6 15.0 L44.4 15.0 Q44.0 15.0 43.8 15.4 L43.2 16.6 Q43.0 17.0 42.6 17.0 L41.4 17.0 Q41.0 17.0 41.0 17.4 L41.0 17.6 Q41.0 18.0 40.6 18.0 L39.4 18.0 Q39.0 18.0 39.0 18.4 L39.0 18.6 Q39.0 19.0 38.6 19.0 L38.4 19.0 Q38.0 19.0 38.0 18.6 L38.0 17.4 Q38.0 17.0 37.6 17.2 L36.4 17.8 Q36.0 18.0 36.2 18.3 L37.8 20.7 Q38.0 21.0 37.6 21.2 L36.4 21.8 Q36.0 22.0 35.9 22.4 L35.1 25.6 Q35.0 26.0 34.7 26.2 L32.3 27.8 Q32.0 28.0 32.0 28.4 L32.0 28.6 Q32.0 29.0 32.4 29.0 L32.6 29.0 Q33.0 29.0 33.0 29.4 L33.0 32.6 Q33.0 33.0 33.4 33.0 L33.6 33.0 Q34.0 33.0 34.0 33.4 L34.0 33.6 Q34.0 34.0 33.6 34.0 L33.4 34.0 Q33.0 34.0 33.0 34.4 L33.0 35.6 Q33.0 36.0 32.6 35.8 L31.4 35.2 Q31.0 35.0 31.0 34.6 L31.0 31.4 Q31.0 31.0 30.6 31.0 L30.4 31.0 Q30.0 31.0 30.0 31.4 L30.0 31.6 Q30.0 32.0 29.6 32.0 L29.4 32.0 Q29.0 32.0 28.7 32.3 L26.3 35.7 Q26.0 36.0 25.6 36.0 L24.4 36.0 Q24.0 36.0 24.0 35.6 L24.0 35.4 Q24.0 35.0 23.6 35.0 L23.4 35.0 Q23.0 35.0 23.0 34.6 L23.0 34.4 Q23.0 34.0 22.6 34.0 L22.4 34.0 Q22.0 34.0 22.0 33.6 L22.0 33.4 Q22.0 33.0 21.6 33.0 L21.4 33.0 Q21.0 33.0 21.0 32.6 L21.0 32.4 Q21.0 32.0 20.6 32.0 L20.4 32.0 Q20.0 32.0 20.0 31.6 L20.0 31.4 Q20.0 31.0 19.6 31.0 L19.4 31.0 Q19.0 31.0 19.0 30.6 L19.0 30.4 Q19.0 30.0 18.6 30.0 L18.4 30.0 Q18.0 30.0 18.0 29.6 L18.0 29.4 Q18.0 29.0 17.6 29.0 L17.4 29.0 Q17.0 29.0 17.0 28.6 L17.0 28.4 Q17.0 28.0 16.7 27.7 L13.3 25.3 Q13.0 25.0 13.0 24.6 L13.0 23.4 Q13.0 23.0 13.4 23.0 L13.6 23.0 Q14.0 23.0 14.0 22.6 L14.0 22.4 Q14.0 22.0 14.4 22.0 L14.6 22.0 Q15.0 22.0 15.0 21.6 L15.0 21.4 Q15.0 21.0 15.4 21.0 L15.6 21.0 Q16.0 21.0 16.0 20.6 L16.0 20.4 Q16.0 20.0 16.4 20.0 L16.6 20.0 Q17.0 20.0 17.0 19.6 L17.0 19.4 Q17.0 19.0 17.4 19.0 L17.6 19.0 Q18.0 19.0 18.0 18.6 L18.0 18.4 Q18.0 18.0 18.4 18.0 L18.6 18.0 Q19.0 18.0 19.0 17.6 L19.0 17.4 Q19.0 17.0 19.4 17.0 L19.6 17.0 Q20.0 17.0 20.0 16.6 L20.0 16.4 Q20.0 16.0 20.4 16.0 L20.6 16.0 Q21.0 16.0 21.0 15.6 L21.0 15.4 Q21.0 15.0 21.4 15.0 L21.6 15.0 Q22.0 15.0 22.0 14.6 L22.0 14.4 Q22.0 14.0 22.4 14.0 L22.6 14.0 Q23.0 14.0 23.0 13.6 L23.0 13.4 Q23.0 13.0 23.4 13.0 L23.6 13.0 Q24.0 13.0 24.0 12.6 L24.0 12.4 Q24.0 12.0 24.4 12.0 L24.6 12.0 Q25.0 12.0 25.0 11.6 L25.0 11.4 Q25.0 11.0 25.4 11.0 L25.6 11.0 Q26.0 11.0 26.0 10.6 L26.0 10.4 Q26.0 10.0 26.4 10.0 L26.6 10.0 Q27.0 10.0 27.3 9.7 L29.7 6.3 Q30.0 6.0 30.4 6.0 L30.6 6.0 Q31.0 6.0 31.0 6.4 L31.0 6.6 Q31.0 7.0 31.4 7.0 L31.6 7.0 Q32.0 7.0 32.0 7.4 L32.0 7.6 Q32.0 8.0 32.4 8.0 L32.6 8.0 Q33.0 8.0 33.3 8.3 L35.7 11.7 Q36.0 12.0 36.4 11.8 L37.6 11.2 Q38.0 11.0 38.0 10.6 L38.0 9.4 Q38.0 9.0 38.4 9.0 L38.6 9.0 Q39.0 9.0 39.2 8.6 L39.8 7.4 Q40.0 7.0 39.6 7.0 L39.4 7.0 Q39.0 7.0 38.8 7.3 L37.2 9.7 Q37.0 10.0 36.6 10.0 L35.4 10.0 Q35.0 10.0 35.0 9.6 L35.0 8.4 Q35.0 8.0 35.4 8.0 L35.6 8.0 Q36.0 8.0 36.0 7.6 L36.0 7.4 Q36.0 7.0 35.6 7.0 L35.4 7.0 Q35.0 7.0 35.0 7.4 L35.0 7.6 Q35.0 8.0 34.6 8.0 L33.4 8.0 Q33.0 8.0 33.0 7.6 L33.0 6.4 Q33.0 6.0 33.4 6.0 L42.6 6.0 Q43.0 6.0 43.0 6.4 L43.0 7.6 Q43.0 8.0 43.4 8.0 L43.6 8.0 Q44.0 8.0 44.2 8.4 L44.8 9.6 Q45.0 10.0 45.4 10.0 L46.6 10.0 Q47.0 10.0 47.0 10.4 L47.0 10.6 Q47.0 11.0 47.4 11.0 L52.6 11.0 Q53.0 11.0 53.0 10.6 L53.0 10.4 Q53.0 10.0 53.4 10.0 L54.6 10.0 Q55.0 10.0 55.0 9.6 L55.0 9.4 Q55.0 9.0 55.4 8.8 L56.6 8.2 Q57.0 8.0 57.0 7.6 L57.0 6.4 Q57.0 6.0 57.4 6.0 L59.6 6.0 Q60.0 6.0 60.0 6.4 L60.0 7.6 Q60.0 8.0 60.4 8.0 L60.6 8.0 Q61.0 8.0 61.2 7.6 L61.8 6.4 Q62.0 6.0 62.4 6.0 L63.6 6.0 Q64.0 6.0 64.0 6.4 L64.0 7.6 Q64.0 8.0 64.4 8.0 L64.6 8.0 Q65.0 8.0 65.2 7.6 L65.8 6.4 Q66.0 6.0 66.4 6.0 L67.6 6.0 Q68.0 6.0 68.0 6.4 L68.0 6.6 Q68.0 7.0 68.4 6.8 L69.6 6.2 Q70.0 6.0 70.0 6.4 L70.0 6.6 Q70.0 7.0 70.4 7.0 L70.6 7.0 Q71.0 7.0 71.0 7.4 L71.0 7.6 Q71.0 8.0 71.4 8.0 L71.6 8.0 Q72.0 8.0 72.0 8.4 L72.0 8.6 Q72.0 9.0 72.4 9.0 L72.6 9.0 Q73.0 9.0 73.0 9.4 L73.0 9.6 Q73.0 10.0 73.4 10.0 L73.6 10.0 Q74.0 10.0 74.0 10.4 L74.0 10.6 Q74.0 11.0 74.4 11.0 L74.6 11.0 Q75.0 11.0 75.0 11.4 L75.0 11.6 Q75.0 12.0 75.4 12.0 L75.6 12.0 Q76.0 12.0 76.0 12.4 L76.0 12.6 Q76.0 13.0 76.4 13.0 L76.6 13.0 Q77.0 13.0 77.0 13.4 L77.0 13.6 Q77.0 14.0 77.4 14.0 L77.6 14.0 Q78.0 14.0 78.0 14.4 L78.0 14.6 Q78.0 15.0 78.4 15.0 L78.6 15.0 Q79.0 15.0 79.0 15.4 L79.0 15.6 Q79.0 16.0 79.4 16.0 L79.6 16.0 Q80.0 16.0 80.0 16.4 L80.0 16.6 Q80.0 17.0 80.4 17.0 L80.6 17.0 Q81.0 17.0 81.0 17.4 L81.0 17.6 Q81.0 18.0 81.4 18.0 L81.6 18.0 Q82.0 18.0 82.0 18.4 L82.0 18.6 Q82.0 19.0 82.4 19.0 L82.6 19.0 Q83.0 19.0 83.0 19.4 L83.0 19.6 Q83.0 20.0 83.3 20.3 L86.7 22.7 Q87.0 23.0 87.0 23.4 Z M68.0 7.4 Q68.0 7.0 67.6 7.0 L67.4 7.0 Q67.0 7.0 67.0 7.4 L67.0 7.6 Q67.0 8.0 67.4 8.0 L67.6 8.0 Q68.0 8.0 68.0 7.6 Z M60.0 8.4 Q60.0 8.0 59.6 8.0 L59.4 8.0 Q59.0 8.0 59.0 8.4 L59.0 8.6 Q59.0 9.0 59.4 9.0 L59.6 9.0 Q60.0 9.0 60.0 8.6 Z M64.0 8.4 Q64.0 8.0 63.6 8.0 L63.4 8.0 Q63.0 8.0 63.0 8.4 L63.0 8.6 Q63.0 9.0 63.4 9.0 L63.6 9.0 Q64.0 9.0 64.0 8.6 Z M67.0 8.4 Q67.0 8.0 66.6 8.0 L66.4 8.0 Q66.0 8.0 66.0 8.4 L66.0 8.6 Q66.0 9.0 66.4 9.0 L66.6 9.0 Q67.0 9.0 67.0 8.6 Z M42.0 9.4 Q42.0 9.0 41.7 9.3 L38.3 11.7 Q38.0 12.0 38.0 12.4 L38.0 13.6 Q38.0 14.0 38.3 13.7 L41.7 11.3 Q42.0 11.0 42.0 10.6 Z M63.0 9.4 Q63.0 9.0 62.6 9.0 L62.4 9.0 Q62.0 9.0 62.0 9.4 L62.0 9.6 Q62.0 10.0 62.4 10.0 L62.6 10.0 Q63.0 10.0 63.0 9.6 Z M66.0 9.4 Q66.0 9.0 65.6 9.0 L65.4 9.0 Q65.0 9.0 65.0 9.4 L65.0 9.6 Q65.0 10.0 65.4 10.0 L65.6 10.0 Q66.0 10.0 66.0 9.6 Z M65.0 10.4 Q65.0 10.0 64.6 10.0 L64.4 10.0 Q64.0 10.0 64.0 10.4 L64.0 10.6 Q64.0 11.0 64.4 11.0 L64.6 11.0 Q65.0 11.0 65.0 10.6 Z M44.0 11.4 Q44.0 11.0 43.7 11.2 L41.3 12.8 Q41.0 13.0 41.0 13.4 L41.0 14.6 Q41.0 15.0 41.3 14.8 L43.7 13.2 Q44.0 13.0 44.0 12.6 Z M60.0 11.4 Q60.0 11.0 59.6 11.0 L59.4 11.0 Q59.0 11.0 59.0 11.4 L59.0 11.6 Q59.0 12.0 59.4 12.0 L59.6 12.0 Q60.0 12.0 60.0 11.6 Z M64.0 11.4 Q64.0 11.0 63.6 11.0 L63.4 11.0 Q63.0 11.0 63.0 11.4 L63.0 11.6 Q63.0 12.0 63.4 12.0 L63.6 12.0 Q64.0 12.0 64.0 11.6 Z M55.0 12.4 Q55.0 12.0 54.7 12.2 L52.3 13.8 Q52.0 14.0 52.0 14.4 L52.0 15.6 Q52.0 16.0 52.3 15.8 L54.7 14.2 Q55.0 14.0 55.0 13.6 Z M59.0 12.4 Q59.0 12.0 58.6 12.0 L58.4 12.0 Q58.0 12.0 58.0 12.4 L58.0 12.6 Q58.0 13.0 58.4 13.0 L58.6 13.0 Q59.0 13.0 59.0 12.6 Z M63.0 12.4 Q63.0 12.0 62.6 12.0 L62.4 12.0 Q62.0 12.0 62.0 12.4 L62.0 12.6 Q62.0 13.0 62.4 13.0 L62.6 13.0 Q63.0 13.0 63.0 12.6 Z M58.0 13.4 Q58.0 13.0 57.7 13.2 L55.3 14.8 Q55.0 15.0 55.0 15.4 L55.0 16.6 Q55.0 17.0 55.3 16.8 L57.7 15.2 Q58.0 15.0 58.0 14.6 Z M62.0 13.4 Q62.0 13.0 61.7 13.3 L58.3 15.7 Q58.0 16.0 58.0 16.4 L58.0 17.6 Q58.0 18.0 58.3 17.7 L61.7 15.3 Q62.0 15.0 62.0 14.6 Z M38.0 14.4 Q38.0 14.0 37.6 14.0 L37.4 14.0 Q37.0 14.0 37.0 14.4 L37.0 14.6 Q37.0 15.0 37.4 15.0 L37.6 15.0 Q38.0 15.0 38.0 14.6 Z M49.0 14.4 Q49.0 14.0 48.6 14.0 L48.4 14.0 Q48.0 14.0 48.0 14.4 L48.0 15.6 Q48.0 16.0 48.4 16.0 L48.6 16.0 Q49.0 16.0 49.0 15.6 Z M65.0 14.4 Q65.0 14.0 64.7 14.2 L62.3 15.8 Q62.0 16.0 62.0 16.4 L62.0 17.6 Q62.0 18.0 62.3 17.8 L64.7 16.2 Q65.0 16.0 65.0 15.6 Z M41.0 15.4 Q41.0 15.0 40.6 15.0 L40.4 15.0 Q40.0 15.0 40.0 15.4 L40.0 15.6 Q40.0 16.0 40.4 16.0 L40.6 16.0 Q41.0 16.0 41.0 15.6 Z M48.0 16.4 Q48.0 16.0 47.6 16.0 L47.4 16.0 Q47.0 16.0 47.0 16.4 L47.0 16.6 Q47.0 17.0 47.4 17.0 L47.6 17.0 Q48.0 17.0 48.0 16.6 Z M52.0 16.4 Q52.0 16.0 51.6 16.0 L51.4 16.0 Q51.0 16.0 51.0 16.4 L51.0 16.6 Q51.0 17.0 51.4 17.0 L51.6 17.0 Q52.0 17.0 52.0 16.6 Z M34.0 17.4 Q34.0 17.0 33.6 17.0 L33.4 17.0 Q33.0 17.0 33.0 17.4 L33.0 17.6 Q33.0 18.0 33.4 18.0 L33.6 18.0 Q34.0 18.0 34.0 17.6 Z M51.0 17.4 Q51.0 17.0 50.6 17.0 L50.4 17.0 Q50.0 17.0 50.0 17.4 L50.0 17.6 Q50.0 18.0 50.4 18.0 L50.6 18.0 Q51.0 18.0 51.0 17.6 Z M55.0 17.4 Q55.0 17.0 54.6 17.0 L54.4 17.0 Q54.0 17.0 54.0 17.4 L54.0 17.6 Q54.0 18.0 54.4 18.0 L54.6 18.0 Q55.0 18.0 55.0 17.6 Z M65.4 17.0 Q65.0 17.0 65.0 17.4 L65.0 18.6 Q65.0 19.0 65.4 19.0 L65.6 19.0 Q66.0 19.0 66.2 18.6 L66.8 17.4 Q67.0 17.0 66.6 17.0 Z M58.0 18.4 Q58.0 18.0 57.6 18.0 L57.4 18.0 Q57.0 18.0 57.0 18.4 L57.0 18.6 Q57.0 19.0 57.4 19.0 L57.6 19.0 Q58.0 19.0 58.0 18.6 Z M62.0 18.4 Q62.0 18.0 61.6 18.0 L61.4 18.0 Q61.0 18.0 61.0 18.4 L61.0 18.6 Q61.0 19.0 61.4 19.0 L61.6 19.0 Q62.0 19.0 62.0 18.6 Z M36.0 19.4 Q36.0 19.0 35.7 19.2 L33.3 20.8 Q33.0 21.0 33.0 21.4 L33.0 22.6 Q33.0 23.0 33.3 22.8 L35.7 21.2 Q36.0 21.0 36.0 20.6 Z M61.0 19.4 Q61.0 19.0 60.6 19.0 L60.4 19.0 Q60.0 19.0 60.0 19.4 L60.0 19.6 Q60.0 20.0 60.4 20.0 L60.6 20.0 Q61.0 20.0 61.0 19.6 Z M65.0 19.4 Q65.0 19.0 64.6 19.0 L64.4 19.0 Q64.0 19.0 64.0 19.4 L64.0 19.6 Q64.0 20.0 64.4 20.0 L64.6 20.0 Q65.0 20.0 65.0 19.6 Z M32.4 23.2 Q32.0 23.0 32.0 23.4 L32.0 25.6 Q32.0 26.0 32.4 26.0 L32.6 26.0 Q33.0 26.0 33.2 25.6 L33.8 24.4 Q34.0 24.0 33.6 23.8 Z M45.7 25.3 Q46.0 25.0 46.0 25.4 L46.0 25.6 Q46.0 26.0 45.6 26.0 L45.4 26.0 Q45.0 26.0 45.0 26.4 L45.0 27.6 Q45.0 28.0 44.7 28.3 L41.3 30.7 Q41.0 31.0 41.0 30.6 L41.0 30.4 Q41.0 30.0 41.4 30.0 L41.6 30.0 Q42.0 30.0 42.0 29.6 L42.0 28.4 Q42.0 28.0 42.3 27.7 Z M48.7 26.2 Q49.0 26.0 49.0 26.4 L49.0 26.6 Q49.0 27.0 48.6 27.0 L48.4 27.0 Q48.0 27.0 48.0 27.4 L48.0 28.6 Q48.0 29.0 47.7 29.3 L44.3 31.7 Q44.0 32.0 44.0 31.6 L44.0 31.4 Q44.0 31.0 44.4 30.8 L45.6 30.2 Q46.0 30.0 46.0 29.6 L46.0 28.4 Q46.0 28.0 46.3 27.8 Z M48.3 31.8 Q48.0 32.0 48.0 31.6 L48.0 31.4 Q48.0 31.0 48.4 31.0 L48.6 31.0 Q49.0 31.0 49.0 30.6 L49.0 29.4 Q49.0 29.0 49.3 28.7 L52.7 26.3 Q53.0 26.0 53.0 26.4 L53.0 26.6 Q53.0 27.0 52.6 27.2 L51.4 27.8 Q51.0 28.0 51.0 28.4 L51.0 29.6 Q51.0 30.0 50.7 30.2 Z M55.7 27.3 Q56.0 27.0 56.0 27.4 L56.0 27.6 Q56.0 28.0 55.6 28.0 L55.4 28.0 Q55.0 28.0 55.0 28.4 L55.0 29.6 Q55.0 30.0 54.7 30.3 L51.3 32.7 Q51.0 33.0 51.0 32.6 L51.0 32.4 Q51.0 32.0 51.4 32.0 L51.6 32.0 Q52.0 32.0 52.0 31.6 L52.0 30.4 Q52.0 30.0 52.3 29.7 Z M59.7 27.3 Q60.0 27.0 60.0 27.4 L60.0 27.6 Q60.0 28.0 59.6 28.2 L58.4 28.8 Q58.0 29.0 58.0 29.4 L58.0 30.6 Q58.0 31.0 57.7 31.3 L54.3 33.7 Q54.0 34.0 54.0 33.6 L54.0 33.4 Q54.0 33.0 54.4 32.8 L55.6 32.2 Q56.0 32.0 56.0 31.6 L56.0 30.4 Q56.0 30.0 56.3 29.7 Z M62.7 28.3 Q63.0 28.0 63.0 28.4 L63.0 28.6 Q63.0 29.0 62.6 29.0 L62.4 29.0 Q62.0 29.0 62.0 29.4 L62.0 30.6 Q62.0 31.0 61.7 31.3 L58.3 33.7 Q58.0 34.0 58.0 33.6 L58.0 33.4 Q58.0 33.0 58.4 33.0 L58.6 33.0 Q59.0 33.0 59.0 32.6 L59.0 31.4 Q59.0 31.0 59.3 30.7 Z M65.7 29.3 Q66.0 29.0 66.0 29.4 L66.0 29.6 Q66.0 30.0 65.6 30.0 L65.4 30.0 Q65.0 30.0 65.0 30.4 L65.0 31.6 Q65.0 32.0 64.7 32.3 L61.3 34.7 Q61.0 35.0 61.0 34.6 L61.0 34.4 Q61.0 34.0 61.4 34.0 L61.6 34.0 Q62.0 34.0 62.0 33.6 L62.0 32.4 Q62.0 32.0 62.3 31.7 Z M33.0 33.4 Q33.0 33.0 32.6 33.0 L32.4 33.0 Q32.0 33.0 32.0 33.4 L32.0 33.6 Q32.0 34.0 32.4 34.0 L32.6 34.0 Q33.0 34.0 33.0 33.6 Z M33.3 38.8 Q33.0 39.0 33.0 38.6 L33.0 37.4 Q33.0 37.0 33.3 36.7 L36.7 34.3 Q37.0 34.0 37.0 34.4 L37.0 34.6 Q37.0 35.0 36.6 35.0 L36.4 35.0 Q36.0 35.0 36.0 35.4 L36.0 36.6 Q36.0 37.0 35.7 37.2 Z M40.7 34.3 Q41.0 34.0 41.0 34.4 L41.0 34.6 Q41.0 35.0 40.6 35.2 L39.4 35.8 Q39.0 36.0 39.0 36.4 L39.0 37.6 Q39.0 38.0 38.7 38.3 L35.3 40.7 Q35.0 41.0 35.0 40.6 L35.0 40.4 Q35.0 40.0 35.4 39.8 L36.6 39.2 Q37.0 39.0 37.0 38.6 L37.0 37.4 Q37.0 37.0 37.3 36.7 Z M43.7 35.3 Q44.0 35.0 44.0 35.4 L44.0 35.6 Q44.0 36.0 43.6 36.0 L43.4 36.0 Q43.0 36.0 43.0 36.4 L43.0 37.6 Q43.0 38.0 42.7 38.3 L39.3 40.7 Q39.0 41.0 39.0 40.6 L39.0 40.4 Q39.0 40.0 39.4 40.0 L39.6 40.0 Q40.0 40.0 40.0 39.6 L40.0 38.4 Q40.0 38.0 40.3 37.7 Z M46.7 36.3 Q47.0 36.0 47.0 36.4 L47.0 36.6 Q47.0 37.0 46.6 37.0 L46.4 37.0 Q46.0 37.0 46.0 37.4 L46.0 38.6 Q46.0 39.0 45.7 39.3 L42.3 41.7 Q42.0 42.0 42.0 41.6 L42.0 41.4 Q42.0 41.0 42.4 41.0 L42.6 41.0 Q43.0 41.0 43.0 40.6 L43.0 39.4 Q43.0 39.0 43.3 38.7 Z M50.7 36.3 Q51.0 36.0 51.0 36.4 L51.0 36.6 Q51.0 37.0 50.6 37.2 L49.4 37.8 Q49.0 38.0 49.0 38.4 L49.0 39.6 Q49.0 40.0 48.7 40.3 L45.3 42.7 Q45.0 43.0 45.0 42.6 L45.0 42.4 Q45.0 42.0 45.4 41.8 L46.6 41.2 Q47.0 41.0 47.0 40.6 L47.0 39.4 Q47.0 39.0 47.3 38.7 Z M31.0 37.4 Q31.0 37.0 31.4 37.0 L31.6 37.0 Q32.0 37.0 32.0 37.4 L32.0 40.6 Q32.0 41.0 32.4 41.0 L32.6 41.0 Q33.0 41.0 33.0 41.4 L33.0 43.6 Q33.0 44.0 33.4 44.0 L33.6 44.0 Q34.0 44.0 34.0 44.4 L34.0 46.6 Q34.0 47.0 33.6 47.0 L33.4 47.0 Q33.0 47.0 33.0 47.4 L33.0 49.6 Q33.0 50.0 33.4 50.0 L33.6 50.0 Q34.0 50.0 34.0 50.4 L34.0 50.6 Q34.0 51.0 33.6 50.8 L32.4 50.2 Q32.0 50.0 32.0 49.6 Z M53.7 37.3 Q54.0 37.0 54.0 37.4 L54.0 37.6 Q54.0 38.0 53.6 38.0 L53.4 38.0 Q53.0 38.0 53.0 38.4 L53.0 39.6 Q53.0 40.0 52.7 40.3 L49.3 42.7 Q49.0 43.0 49.0 42.6 L49.0 42.4 Q49.0 42.0 49.4 42.0 L49.6 42.0 Q50.0 42.0 50.0 41.6 L50.0 40.4 Q50.0 40.0 50.3 39.7 Z M68.6 37.0 Q69.0 37.0 69.0 37.4 L69.0 44.6 Q69.0 45.0 68.6 45.0 L68.4 45.0 Q68.0 45.0 68.0 45.4 L68.0 49.6 Q68.0 50.0 68.4 50.0 L68.6 50.0 Q69.0 50.0 69.0 50.4 L69.0 50.6 Q69.0 51.0 68.6 51.0 L68.4 51.0 Q68.0 51.0 68.0 50.6 L68.0 50.4 Q68.0 50.0 67.6 50.0 L67.4 50.0 Q67.0 50.0 67.0 49.6 L67.0 47.4 Q67.0 47.0 66.6 47.0 L66.4 47.0 Q66.0 47.0 66.0 46.6 L66.0 44.4 Q66.0 44.0 66.4 44.0 L66.6 44.0 Q67.0 44.0 67.1 43.6 L67.9 37.4 Q68.0 37.0 68.4 37.0 Z M56.7 38.2 Q57.0 38.0 57.0 38.4 L57.0 38.6 Q57.0 39.0 56.6 39.0 L56.4 39.0 Q56.0 39.0 56.0 39.4 L56.0 40.6 Q56.0 41.0 55.7 41.3 L52.3 43.7 Q52.0 44.0 52.0 43.6 L52.0 43.4 Q52.0 43.0 52.4 42.8 L53.6 42.2 Q54.0 42.0 54.0 41.6 L54.0 40.4 Q54.0 40.0 54.3 39.8 Z M56.3 43.8 Q56.0 44.0 56.0 43.6 L56.0 43.4 Q56.0 43.0 56.4 43.0 L56.6 43.0 Q57.0 43.0 57.0 42.6 L57.0 41.4 Q57.0 41.0 57.3 40.7 L60.7 38.3 Q61.0 38.0 61.0 38.4 L61.0 38.6 Q61.0 39.0 60.6 39.2 L59.4 39.8 Q59.0 40.0 59.0 40.4 L59.0 41.6 Q59.0 42.0 58.7 42.2 Z M63.7 39.3 Q64.0 39.0 64.0 39.4 L64.0 39.6 Q64.0 40.0 63.6 40.0 L63.4 40.0 Q63.0 40.0 63.0 40.4 L63.0 41.6 Q63.0 42.0 62.7 42.3 L59.3 44.7 Q59.0 45.0 59.0 44.6 L59.0 44.4 Q59.0 44.0 59.4 44.0 L59.6 44.0 Q60.0 44.0 60.0 43.6 L60.0 42.4 Q60.0 42.0 60.3 41.7 Z M66.7 40.2 Q67.0 40.0 67.0 40.4 L67.0 40.6 Q67.0 41.0 66.6 41.0 L66.4 41.0 Q66.0 41.0 66.0 41.4 L66.0 42.6 Q66.0 43.0 65.7 43.3 L62.3 45.7 Q62.0 46.0 62.0 45.6 L62.0 45.4 Q62.0 45.0 62.4 44.8 L63.6 44.2 Q64.0 44.0 64.0 43.6 L64.0 42.4 Q64.0 42.0 64.3 41.8 Z M34.3 49.8 Q34.0 50.0 34.0 49.6 L34.0 48.4 Q34.0 48.0 34.4 48.0 L34.6 48.0 Q35.0 48.0 35.0 47.6 L35.0 47.4 Q35.0 47.0 35.3 46.7 L38.7 44.3 Q39.0 44.0 39.0 44.4 L39.0 44.6 Q39.0 45.0 38.6 45.2 L37.4 45.8 Q37.0 46.0 37.0 46.4 L37.0 47.6 Q37.0 48.0 36.7 48.2 Z M41.7 45.3 Q42.0 45.0 42.0 45.4 L42.0 45.6 Q42.0 46.0 41.6 46.0 L41.4 46.0 Q41.0 46.0 41.0 46.4 L41.0 47.6 Q41.0 48.0 40.6 48.0 L40.4 48.0 Q40.0 48.0 40.0 48.4 L40.0 48.6 Q40.0 49.0 39.7 49.3 L36.3 51.7 Q36.0 52.0 36.0 51.6 L36.0 51.4 Q36.0 51.0 36.4 50.8 L37.6 50.2 Q38.0 50.0 38.0 49.6 L38.0 48.4 Q38.0 48.0 38.3 47.7 Z M44.7 46.3 Q45.0 46.0 45.0 46.4 L45.0 46.6 Q45.0 47.0 44.6 47.0 L44.4 47.0 Q44.0 47.0 44.0 47.4 L44.0 48.6 Q44.0 49.0 43.7 49.3 L40.3 51.7 Q40.0 52.0 40.0 51.6 L40.0 51.4 Q40.0 51.0 40.4 51.0 L40.6 51.0 Q41.0 51.0 41.0 50.6 L41.0 49.4 Q41.0 49.0 41.3 48.7 Z M48.7 46.3 Q49.0 46.0 49.0 46.4 L49.0 46.6 Q49.0 47.0 48.6 47.2 L47.4 47.8 Q47.0 48.0 47.0 48.4 L47.0 49.6 Q47.0 50.0 46.7 50.3 L43.3 52.7 Q43.0 53.0 43.0 52.6 L43.0 52.4 Q43.0 52.0 43.4 51.8 L44.6 51.2 Q45.0 51.0 45.0 50.6 L45.0 49.4 Q45.0 49.0 45.3 48.7 Z M51.7 47.3 Q52.0 47.0 52.0 47.4 L52.0 47.6 Q52.0 48.0 51.6 48.0 L51.4 48.0 Q51.0 48.0 51.0 48.4 L51.0 49.6 Q51.0 50.0 50.7 50.3 L47.3 52.7 Q47.0 53.0 47.0 52.6 L47.0 52.4 Q47.0 52.0 47.4 52.0 L47.6 52.0 Q48.0 52.0 48.0 51.6 L48.0 50.4 Q48.0 50.0 48.3 49.7 Z M54.7 48.3 Q55.0 48.0 55.0 48.4 L55.0 48.6 Q55.0 49.0 54.6 49.0 L54.4 49.0 Q54.0 49.0 54.0 49.4 L54.0 50.6 Q54.0 51.0 53.7 51.3 L50.3 53.7 Q50.0 54.0 50.0 53.6 L50.0 53.4 Q50.0 53.0 50.4 53.0 L50.6 53.0 Q51.0 53.0 51.0 52.6 L51.0 51.4 Q51.0 51.0 51.3 50.7 Z M58.7 48.3 Q59.0 48.0 59.0 48.4 L59.0 48.6 Q59.0 49.0 58.6 49.2 L57.4 49.8 Q57.0 50.0 57.0 50.4 L57.0 51.6 Q57.0 52.0 56.7 52.3 L53.3 54.7 Q53.0 55.0 53.0 54.6 L53.0 54.4 Q53.0 54.0 53.4 53.8 L54.6 53.2 Q55.0 53.0 55.0 52.6 L55.0 51.4 Q55.0 51.0 55.3 50.7 Z M61.7 49.3 Q62.0 49.0 62.0 49.4 L62.0 49.6 Q62.0 50.0 61.6 50.0 L61.4 50.0 Q61.0 50.0 61.0 50.4 L61.0 51.6 Q61.0 52.0 60.7 52.3 L57.3 54.7 Q57.0 55.0 57.0 54.6 L57.0 54.4 Q57.0 54.0 57.4 54.0 L57.6 54.0 Q58.0 54.0 58.0 53.6 L58.0 52.4 Q58.0 52.0 58.3 51.7 Z M64.7 50.2 Q65.0 50.0 65.0 50.4 L65.0 50.6 Q65.0 51.0 64.6 51.0 L64.4 51.0 Q64.0 51.0 64.0 51.4 L64.0 52.6 Q64.0 53.0 63.7 53.3 L60.3 55.7 Q60.0 56.0 60.0 55.6 L60.0 55.4 Q60.0 55.0 60.4 54.8 L61.6 54.2 Q62.0 54.0 62.0 53.6 L62.0 52.4 Q62.0 52.0 62.3 51.8 Z M66.6 52.2 Q67.0 52.0 67.0 52.4 L67.0 53.6 Q67.0 54.0 66.7 54.2 L64.3 55.8 Q64.0 56.0 64.0 55.6 L64.0 55.4 Q64.0 55.0 64.4 55.0 L64.6 55.0 Q65.0 55.0 65.0 54.6 L65.0 53.4 Q65.0 53.0 65.4 52.8 Z M32.0 54.4 Q32.0 54.0 32.4 54.0 L32.6 54.0 Q33.0 54.0 33.0 54.4 L33.0 54.6 Q33.0 55.0 32.6 55.0 L32.4 55.0 Q32.0 55.0 32.0 54.6 Z M33.4 58.0 Q33.0 58.0 33.0 57.6 L33.0 57.4 Q33.0 57.0 33.3 56.8 L35.7 55.2 Q36.0 55.0 36.0 55.4 L36.0 55.6 Q36.0 56.0 35.6 56.0 L35.4 56.0 Q35.0 56.0 35.0 56.4 L35.0 57.6 Q35.0 58.0 34.6 58.0 Z M39.7 55.2 Q40.0 55.0 40.0 55.4 L40.0 55.6 Q40.0 56.0 39.7 56.2 L37.3 57.8 Q37.0 58.0 37.0 57.6 L37.0 57.4 Q37.0 57.0 37.3 56.8 Z M42.6 56.2 Q43.0 56.0 43.0 56.4 L43.0 56.6 Q43.0 57.0 42.6 57.2 L41.4 57.8 Q41.0 58.0 41.0 57.6 L41.0 57.4 Q41.0 57.0 41.4 56.8 Z M46.6 56.2 Q47.0 56.0 47.0 56.4 L47.0 56.6 Q47.0 57.0 46.6 57.2 L45.4 57.8 Q45.0 58.0 45.0 57.6 L45.0 57.4 Q45.0 57.0 45.4 56.8 Z M67.0 56.4 Q67.0 56.0 67.4 56.0 L67.6 56.0 Q68.0 56.0 68.0 56.4 L68.0 56.6 Q68.0 57.0 67.6 57.0 L67.4 57.0 Q67.0 57.0 67.0 56.6 Z M49.0 57.4 Q49.0 57.0 49.4 57.0 L49.6 57.0 Q50.0 57.0 50.0 57.4 L50.0 57.6 Q50.0 58.0 49.6 58.0 L49.4 58.0 Q49.0 58.0 49.0 57.6 Z" fill="rgb(0,14,76)" stroke="rgb(0,14,76)" stroke-width="0.12"/><path d="M31.3 6.3 Q31.0 6.0 31.4 6.0 L31.6 6.0 Q32.0 6.0 32.0 6.4 L32.0 6.6 Q32.0 7.0 32.4 7.0 L32.6 7.0 Q33.0 7.0 33.0 7.4 L33.0 7.6 Q33.0 8.0 33.4 8.0 L33.6 8.0 Q34.0 8.0 34.3 8.3 L36.7 11.7 Q37.0 12.0 36.6 12.0 L36.4 12.0 Q36.0 12.0 36.0 11.6 L36.0 11.4 Q36.0 11.0 35.6 11.0 L35.4 11.0 Q35.0 11.0 35.0 10.6 L35.0 10.4 Q35.0 10.0 34.6 10.0 L34.4 10.0 Q34.0 10.0 33.7 9.7 Z M68.7 6.3 Q69.0 6.0 69.0 6.4 L69.0 6.6 Q69.0 7.0 68.6 7.0 L68.4 7.0 Q68.0 7.0 68.0 7.4 L68.0 7.6 Q68.0 8.0 67.6 8.0 L67.4 8.0 Q67.0 8.0 67.0 8.4 L67.0 8.6 Q67.0 9.0 66.7 9.3 L63.3 11.7 Q63.0 12.0 63.0 11.6 L63.0 11.4 Q63.0 11.0 63.4 11.0 L63.6 11.0 Q64.0 11.0 64.0 10.6 L64.0 10.4 Q64.0 10.0 64.4 10.0 L64.6 10.0 Q65.0 10.0 65.0 9.6 L65.0 9.4 Q65.0 9.0 65.3 8.7 Z M47.0 24.4 Q47.0 24.0 47.4 24.0 L47.6 24.0 Q48.0 24.0 48.0 24.4 L48.0 24.6 Q48.0 25.0 47.6 25.0 L47.4 25.0 Q47.0 25.0 47.0 24.6 Z M51.6 24.2 Q52.0 24.0 52.0 24.4 L52.0 24.6 Q52.0 25.0 51.6 25.2 L50.4 25.8 Q50.0 26.0 50.0 25.6 L50.0 25.4 Q50.0 25.0 50.4 24.8 Z M55.6 24.2 Q56.0 24.0 56.0 24.4 L56.0 24.6 Q56.0 25.0 55.6 25.2 L54.4 25.8 Q54.0 26.0 54.0 25.6 L54.0 25.4 Q54.0 25.0 54.4 24.8 Z M62.0 24.4 Q62.0 24.0 62.4 24.0 L62.6 24.0 Q63.0 24.0 63.0 24.4 L63.0 24.6 Q63.0 25.0 62.6 25.0 L62.4 25.0 Q62.0 25.0 62.0 24.6 Z M66.6 24.2 Q67.0 24.0 67.0 24.4 L67.0 24.6 Q67.0 25.0 66.6 25.2 L65.4 25.8 Q65.0 26.0 65.0 25.6 L65.0 25.4 Q65.0 25.0 65.4 24.8 Z M58.6 25.2 Q59.0 25.0 59.0 25.4 L59.0 25.6 Q59.0 26.0 58.6 26.2 L57.4 26.8 Q57.0 27.0 57.0 26.6 L57.0 26.4 Q57.0 26.0 57.4 25.8 Z M46.0 26.4 Q46.0 26.0 46.4 26.0 L46.6 26.0 Q47.0 26.0 47.0 26.4 L47.0 26.6 Q47.0 27.0 46.6 27.0 L46.4 27.0 Q46.0 27.0 46.0 26.6 Z M61.0 26.4 Q61.0 26.0 61.4 26.0 L61.6 26.0 Q62.0 26.0 62.0 26.4 L62.0 26.6 Q62.0 27.0 61.6 27.0 L61.4 27.0 Q61.0 27.0 61.0 26.6 Z M49.0 27.4 Q49.0 27.0 49.4 27.0 L49.6 27.0 Q50.0 27.0 50.0 27.4 L50.0 27.6 Q50.0 28.0 49.6 28.0 L49.4 28.0 Q49.0 28.0 49.0 27.6 Z M64.0 27.4 Q64.0 27.0 64.4 27.0 L64.6 27.0 Q65.0 27.0 65.0 27.4 L65.0 27.6 Q65.0 28.0 64.6 28.0 L64.4 28.0 Q64.0 28.0 64.0 27.6 Z M34.6 28.2 Q35.0 28.0 35.0 28.4 L35.0 28.6 Q35.0 29.0 34.6 29.2 L33.4 29.8 Q33.0 30.0 33.0 29.6 L33.0 29.4 Q33.0 29.0 33.4 28.8 Z M38.7 28.2 Q39.0 28.0 39.0 28.4 L39.0 28.6 Q39.0 29.0 38.7 29.2 L36.3 30.8 Q36.0 31.0 36.0 30.6 L36.0 30.4 Q36.0 30.0 36.3 29.8 Z M52.0 28.4 Q52.0 28.0 52.4 28.0 L53.6 28.0 Q54.0 28.0 54.0 28.4 L54.0 28.6 Q54.0 29.0 53.6 29.0 L52.4 29.0 Q52.0 29.0 52.0 28.6 Z M67.0 28.4 Q67.0 28.0 67.4 28.0 L67.6 28.0 Q68.0 28.0 68.0 28.4 L68.0 28.6 Q68.0 29.0 67.6 29.0 L67.4 29.0 Q67.0 29.0 67.0 28.6 Z M41.7 29.2 Q42.0 29.0 42.0 29.4 L42.0 29.6 Q42.0 30.0 41.7 30.2 L39.3 31.8 Q39.0 32.0 39.0 31.6 L39.0 31.4 Q39.0 31.0 39.3 30.8 Z M45.7 29.2 Q46.0 29.0 46.0 29.4 L46.0 29.6 Q46.0 30.0 45.7 30.2 L43.3 31.8 Q43.0 32.0 43.0 31.6 L43.0 31.4 Q43.0 31.0 43.3 30.8 Z M56.0 29.4 Q56.0 29.0 56.4 29.0 L56.6 29.0 Q57.0 29.0 57.0 29.4 L57.0 29.6 Q57.0 30.0 56.6 30.0 L56.4 30.0 Q56.0 30.0 56.0 29.6 Z M48.7 30.2 Q49.0 30.0 49.0 30.4 L49.0 30.6 Q49.0 31.0 48.7 31.2 L46.3 32.8 Q46.0 33.0 46.0 32.6 L46.0 32.4 Q46.0 32.0 46.3 31.8 Z M59.0 30.4 Q59.0 30.0 59.4 30.0 L59.6 30.0 Q60.0 30.0 60.0 30.4 L60.0 30.6 Q60.0 31.0 59.6 31.0 L59.4 31.0 Q59.0 31.0 59.0 30.6 Z M51.7 31.2 Q52.0 31.0 52.0 31.4 L52.0 31.6 Q52.0 32.0 51.7 32.2 L49.3 33.8 Q49.0 34.0 49.0 33.6 L49.0 33.4 Q49.0 33.0 49.3 32.8 Z M55.7 31.2 Q56.0 31.0 56.0 31.4 L56.0 31.6 Q56.0 32.0 55.7 32.2 L53.3 33.8 Q53.0 34.0 53.0 33.6 L53.0 33.4 Q53.0 33.0 53.3 32.8 Z M62.0 31.4 Q62.0 31.0 62.4 31.0 L62.6 31.0 Q63.0 31.0 63.0 31.4 L63.0 31.6 Q63.0 32.0 62.6 32.0 L62.4 32.0 Q62.0 32.0 62.0 31.6 Z M35.0 32.4 Q35.0 32.0 35.4 32.0 L35.6 32.0 Q36.0 32.0 36.0 32.4 L36.0 32.6 Q36.0 33.0 35.6 33.0 L35.4 33.0 Q35.0 33.0 35.0 32.6 Z M58.7 32.2 Q59.0 32.0 59.0 32.4 L59.0 32.6 Q59.0 33.0 58.7 33.2 L56.3 34.8 Q56.0 35.0 56.0 34.6 L56.0 34.4 Q56.0 34.0 56.3 33.8 Z M65.6 32.0 Q66.0 32.0 66.0 32.4 L66.0 33.6 Q66.0 34.0 65.7 34.2 L63.3 35.8 Q63.0 36.0 63.0 35.6 L63.0 35.4 Q63.0 35.0 63.4 34.8 L64.6 34.2 Q65.0 34.0 65.0 33.6 L65.0 32.4 Q65.0 32.0 65.4 32.0 Z M32.0 33.4 Q32.0 33.0 32.4 33.0 L32.6 33.0 Q33.0 33.0 33.0 33.4 L33.0 33.6 Q33.0 34.0 32.6 34.0 L32.4 34.0 Q32.0 34.0 32.0 33.6 Z M38.0 33.4 Q38.0 33.0 38.4 33.0 L38.6 33.0 Q39.0 33.0 39.0 33.4 L39.0 33.6 Q39.0 34.0 38.6 34.0 L38.4 34.0 Q38.0 34.0 38.0 33.6 Z M42.0 33.4 Q42.0 33.0 42.4 33.0 L42.6 33.0 Q43.0 33.0 43.0 33.4 L43.0 33.6 Q43.0 34.0 42.6 34.0 L42.4 34.0 Q42.0 34.0 42.0 33.6 Z M61.7 33.2 Q62.0 33.0 62.0 33.4 L62.0 33.6 Q62.0 34.0 61.7 34.2 L59.3 35.8 Q59.0 36.0 59.0 35.6 L59.0 35.4 Q59.0 35.0 59.3 34.8 Z M34.0 34.4 Q34.0 34.0 34.4 34.0 L35.6 34.0 Q36.0 34.0 36.0 34.4 L36.0 34.6 Q36.0 35.0 35.6 35.2 L34.4 35.8 Q34.0 36.0 34.0 35.6 Z M45.0 34.4 Q45.0 34.0 45.4 34.0 L45.6 34.0 Q46.0 34.0 46.0 34.4 L46.0 34.6 Q46.0 35.0 45.6 35.0 L45.4 35.0 Q45.0 35.0 45.0 34.6 Z M31.4 56.0 Q31.0 56.0 31.0 55.6 L31.0 51.4 Q31.0 51.0 31.4 50.8 L32.6 50.2 Q33.0 50.0 33.0 49.6 L33.0 47.4 Q33.0 47.0 33.4 47.0 L33.6 47.0 Q34.0 47.0 34.0 46.6 L34.0 44.4 Q34.0 44.0 33.6 44.0 L33.4 44.0 Q33.0 44.0 33.0 43.6 L33.0 41.4 Q33.0 41.0 32.6 41.0 L32.4 41.0 Q32.0 41.0 32.0 40.6 L32.0 37.4 Q32.0 37.0 31.6 37.0 L31.4 37.0 Q31.0 37.0 31.0 36.6 L31.0 35.4 Q31.0 35.0 31.4 35.0 L31.6 35.0 Q32.0 35.0 32.0 35.4 L32.0 36.6 Q32.0 37.0 32.4 37.0 L32.6 37.0 Q33.0 37.0 33.0 37.4 L33.0 40.6 Q33.0 41.0 33.4 41.0 L33.6 41.0 Q34.0 41.0 34.0 41.4 L34.0 43.6 Q34.0 44.0 34.4 44.0 L34.6 44.0 Q35.0 44.0 35.2 43.6 L35.8 42.4 Q36.0 42.0 36.4 42.0 L36.6 42.0 Q37.0 42.0 37.0 42.4 L37.0 43.6 Q37.0 44.0 36.6 44.2 L35.4 44.8 Q35.0 45.0 34.9 45.4 L34.1 49.6 Q34.0 50.0 33.6 50.0 L33.4 50.0 Q33.0 50.0 33.0 50.4 L33.0 52.6 Q33.0 53.0 32.6 53.0 L32.4 53.0 Q32.0 53.0 32.0 53.4 L32.0 55.6 Q32.0 56.0 31.6 56.0 Z M37.0 35.4 Q37.0 35.0 37.4 35.0 L38.6 35.0 Q39.0 35.0 39.0 35.4 L39.0 35.6 Q39.0 36.0 38.6 36.2 L37.4 36.8 Q37.0 37.0 37.0 36.6 Z M48.0 35.4 Q48.0 35.0 48.4 35.0 L48.6 35.0 Q49.0 35.0 49.0 35.4 L49.0 35.6 Q49.0 36.0 48.6 36.0 L48.4 36.0 Q48.0 36.0 48.0 35.6 Z M52.0 35.4 Q52.0 35.0 52.4 35.0 L52.6 35.0 Q53.0 35.0 53.0 35.4 L53.0 35.6 Q53.0 36.0 52.6 36.0 L52.4 36.0 Q52.0 36.0 52.0 35.6 Z M68.6 35.0 Q69.0 35.0 69.0 35.4 L69.0 36.6 Q69.0 37.0 68.6 37.0 L68.4 37.0 Q68.0 37.0 68.0 37.4 L68.0 40.6 Q68.0 41.0 67.6 41.0 L67.4 41.0 Q67.0 41.0 67.0 41.4 L67.0 43.6 Q67.0 44.0 66.6 44.0 L66.4 44.0 Q66.0 44.0 66.0 44.4 L66.0 46.6 Q66.0 47.0 66.4 47.0 L66.6 47.0 Q67.0 47.0 67.0 47.4 L67.0 49.6 Q67.0 50.0 67.4 50.0 L67.6 50.0 Q68.0 50.0 68.1 50.4 L68.9 55.6 Q69.0 56.0 68.6 56.0 L67.4 56.0 Q67.0 56.0 66.8 56.4 L66.2 57.6 Q66.0 58.0 65.6 58.0 L63.4 58.0 Q63.0 58.0 63.0 57.6 L63.0 57.4 Q63.0 57.0 63.4 57.0 L65.6 57.0 Q66.0 57.0 66.0 56.6 L66.0 56.4 Q66.0 56.0 66.4 55.8 L67.6 55.2 Q68.0 55.0 67.9 54.6 L67.1 50.4 Q67.0 50.0 66.6 50.0 L66.4 50.0 Q66.0 50.0 66.0 49.6 L66.0 47.4 Q66.0 47.0 65.6 47.0 L65.4 47.0 Q65.0 47.0 64.8 47.4 L64.2 48.6 Q64.0 49.0 63.6 49.0 L63.4 49.0 Q63.0 49.0 63.0 48.6 L63.0 48.4 Q63.0 48.0 63.4 48.0 L63.6 48.0 Q64.0 48.0 64.0 47.6 L64.0 46.4 Q64.0 46.0 64.4 46.0 L64.6 46.0 Q65.0 46.0 65.0 45.6 L65.0 44.4 Q65.0 44.0 65.4 44.0 L65.6 44.0 Q66.0 44.0 66.0 43.6 L66.0 41.4 Q66.0 41.0 66.4 41.0 L66.6 41.0 Q67.0 41.0 67.0 40.6 L67.0 38.4 Q67.0 38.0 66.6 38.0 L66.4 38.0 Q66.0 38.0 66.0 38.4 L66.0 38.6 Q66.0 39.0 65.6 39.0 L65.4 39.0 Q65.0 39.0 65.0 38.6 L65.0 38.4 Q65.0 38.0 65.4 38.0 L65.6 38.0 Q66.0 38.0 66.0 37.6 L66.0 36.4 Q66.0 36.0 66.4 36.0 L66.6 36.0 Q67.0 36.0 67.0 35.6 L67.0 35.4 Q67.0 35.0 67.4 35.0 Z M40.0 36.4 Q40.0 36.0 40.4 36.0 L41.6 36.0 Q42.0 36.0 42.0 36.4 L42.0 36.6 Q42.0 37.0 41.6 37.2 L40.4 37.8 Q40.0 38.0 40.0 37.6 Z M55.0 36.4 Q55.0 36.0 55.4 36.0 L55.6 36.0 Q56.0 36.0 56.0 36.4 L56.0 36.6 Q56.0 37.0 55.6 37.0 L55.4 37.0 Q55.0 37.0 55.0 36.6 Z M44.6 37.2 Q45.0 37.0 45.0 37.4 L45.0 37.6 Q45.0 38.0 44.6 38.2 L43.4 38.8 Q43.0 39.0 43.0 38.6 L43.0 38.4 Q43.0 38.0 43.4 37.8 Z M58.0 37.4 Q58.0 37.0 58.4 37.0 L58.6 37.0 Q59.0 37.0 59.0 37.4 L59.0 37.6 Q59.0 38.0 58.6 38.0 L58.4 38.0 Q58.0 38.0 58.0 37.6 Z M62.0 37.4 Q62.0 37.0 62.4 37.0 L62.6 37.0 Q63.0 37.0 63.0 37.4 L63.0 37.6 Q63.0 38.0 62.6 38.0 L62.4 38.0 Q62.0 38.0 62.0 37.6 Z M36.7 38.2 Q37.0 38.0 37.0 38.4 L37.0 38.6 Q37.0 39.0 36.7 39.2 L34.3 40.8 Q34.0 41.0 34.0 40.6 L34.0 40.4 Q34.0 40.0 34.3 39.8 Z M47.6 38.2 Q48.0 38.0 48.0 38.4 L48.0 38.6 Q48.0 39.0 47.6 39.0 L47.4 39.0 Q47.0 39.0 47.0 39.4 L47.0 40.6 Q47.0 41.0 46.7 41.2 L44.3 42.8 Q44.0 43.0 44.0 42.6 L44.0 42.4 Q44.0 42.0 44.4 41.8 L45.6 41.2 Q46.0 41.0 46.0 40.6 L46.0 39.4 Q46.0 39.0 46.4 38.8 Z M39.7 39.2 Q40.0 39.0 40.0 39.4 L40.0 39.6 Q40.0 40.0 39.7 40.2 L37.3 41.8 Q37.0 42.0 37.0 41.6 L37.0 41.4 Q37.0 41.0 37.3 40.8 Z M50.6 39.2 Q51.0 39.0 51.0 39.4 L51.0 39.6 Q51.0 40.0 50.6 40.0 L50.4 40.0 Q50.0 40.0 50.0 40.4 L50.0 41.6 Q50.0 42.0 49.7 42.2 L47.3 43.8 Q47.0 44.0 47.0 43.6 L47.0 43.4 Q47.0 43.0 47.4 42.8 L48.6 42.2 Q49.0 42.0 49.0 41.6 L49.0 40.4 Q49.0 40.0 49.4 39.8 Z M42.6 40.2 Q43.0 40.0 43.0 40.4 L43.0 40.6 Q43.0 41.0 42.6 41.2 L41.4 41.8 Q41.0 42.0 41.0 41.6 L41.0 41.4 Q41.0 41.0 41.4 40.8 Z M53.6 40.2 Q54.0 40.0 54.0 40.4 L54.0 41.6 Q54.0 42.0 53.7 42.2 L51.3 43.8 Q51.0 44.0 51.0 43.6 L51.0 43.4 Q51.0 43.0 51.4 43.0 L51.6 43.0 Q52.0 43.0 52.0 42.6 L52.0 41.4 Q52.0 41.0 52.4 40.8 Z M56.6 41.2 Q57.0 41.0 57.0 41.4 L57.0 42.6 Q57.0 43.0 56.7 43.2 L54.3 44.8 Q54.0 45.0 54.0 44.6 L54.0 44.4 Q54.0 44.0 54.4 44.0 L54.6 44.0 Q55.0 44.0 55.0 43.6 L55.0 42.4 Q55.0 42.0 55.4 41.8 Z M40.0 43.4 Q40.0 43.0 40.4 43.0 L40.6 43.0 Q41.0 43.0 41.0 43.4 L41.0 43.6 Q41.0 44.0 40.6 44.0 L40.4 44.0 Q40.0 44.0 40.0 43.6 Z M59.6 43.0 Q60.0 43.0 60.0 43.4 L60.0 43.6 Q60.0 44.0 59.7 44.2 L57.3 45.8 Q57.0 46.0 57.0 45.6 L57.0 45.4 Q57.0 45.0 57.4 45.0 L57.6 45.0 Q58.0 45.0 58.0 44.6 L58.0 43.4 Q58.0 43.0 58.4 43.0 Z M61.3 45.8 Q61.0 46.0 61.0 45.6 L61.0 44.4 Q61.0 44.0 61.4 44.0 L62.6 44.0 Q63.0 44.0 63.0 43.6 L63.0 43.4 Q63.0 43.0 63.4 43.0 L63.6 43.0 Q64.0 43.0 64.0 43.4 L64.0 43.6 Q64.0 44.0 63.7 44.2 Z M43.0 44.4 Q43.0 44.0 43.4 44.0 L43.6 44.0 Q44.0 44.0 44.0 44.4 L44.0 44.6 Q44.0 45.0 43.6 45.0 L43.4 45.0 Q43.0 45.0 43.0 44.6 Z M46.0 45.4 Q46.0 45.0 46.4 45.0 L46.6 45.0 Q47.0 45.0 47.0 45.4 L47.0 45.6 Q47.0 46.0 46.6 46.0 L46.4 46.0 Q46.0 46.0 46.0 45.6 Z M50.0 45.4 Q50.0 45.0 50.4 45.0 L50.6 45.0 Q51.0 45.0 51.0 45.4 L51.0 45.6 Q51.0 46.0 50.6 46.0 L50.4 46.0 Q50.0 46.0 50.0 45.6 Z M53.0 46.4 Q53.0 46.0 53.4 46.0 L53.6 46.0 Q54.0 46.0 54.0 46.4 L54.0 46.6 Q54.0 47.0 53.6 47.0 L53.4 47.0 Q53.0 47.0 53.0 46.6 Z M68.0 46.4 Q68.0 46.0 68.4 46.0 L68.6 46.0 Q69.0 46.0 69.0 46.4 L69.0 47.6 Q69.0 48.0 68.6 48.0 L68.4 48.0 Q68.0 48.0 68.0 47.6 Z M56.0 47.4 Q56.0 47.0 56.4 47.0 L56.6 47.0 Q57.0 47.0 57.0 47.4 L57.0 47.6 Q57.0 48.0 56.6 48.0 L56.4 48.0 Q56.0 48.0 56.0 47.6 Z M60.0 47.4 Q60.0 47.0 60.4 47.0 L60.6 47.0 Q61.0 47.0 61.0 47.4 L61.0 47.6 Q61.0 48.0 60.6 48.0 L60.4 48.0 Q60.0 48.0 60.0 47.6 Z M37.6 49.0 Q38.0 49.0 38.0 49.4 L38.0 49.6 Q38.0 50.0 37.7 50.2 L35.3 51.8 Q35.0 52.0 35.0 51.6 L35.0 51.4 Q35.0 51.0 35.4 51.0 L35.6 51.0 Q36.0 51.0 36.0 50.6 L36.0 49.4 Q36.0 49.0 36.4 49.0 Z M40.6 49.2 Q41.0 49.0 41.0 49.4 L41.0 50.6 Q41.0 51.0 40.7 51.2 L38.3 52.8 Q38.0 53.0 38.0 52.6 L38.0 52.4 Q38.0 52.0 38.4 52.0 L38.6 52.0 Q39.0 52.0 39.0 51.6 L39.0 50.4 Q39.0 50.0 39.4 49.8 Z M44.6 50.0 Q45.0 50.0 45.0 50.4 L45.0 50.6 Q45.0 51.0 44.7 51.2 L42.3 52.8 Q42.0 53.0 42.0 52.6 L42.0 51.4 Q42.0 51.0 42.4 51.0 L42.6 51.0 Q43.0 51.0 43.0 50.6 L43.0 50.4 Q43.0 50.0 43.4 50.0 Z M47.6 51.0 Q48.0 51.0 48.0 51.4 L48.0 51.6 Q48.0 52.0 47.7 52.2 L45.3 53.8 Q45.0 54.0 45.0 53.6 L45.0 52.4 Q45.0 52.0 45.4 52.0 L45.6 52.0 Q46.0 52.0 46.0 51.6 L46.0 51.4 Q46.0 51.0 46.4 51.0 Z M50.6 52.0 Q51.0 52.0 50.8 52.4 L50.2 53.6 Q50.0 54.0 49.6 54.0 L48.4 54.0 Q48.0 54.0 48.2 53.6 L48.8 52.4 Q49.0 52.0 49.4 52.0 Z M51.4 55.0 Q51.0 55.0 51.2 54.6 L51.8 53.4 Q52.0 53.0 52.4 53.0 L53.6 53.0 Q54.0 53.0 54.0 52.6 L54.0 52.4 Q54.0 52.0 54.4 52.0 L54.6 52.0 Q55.0 52.0 54.8 52.3 L53.2 54.7 Q53.0 55.0 52.6 55.0 Z M34.0 53.4 Q34.0 53.0 34.4 53.0 L34.6 53.0 Q35.0 53.0 35.0 53.4 L35.0 53.6 Q35.0 54.0 34.6 54.0 L34.4 54.0 Q34.0 54.0 34.0 53.6 Z M61.0 57.6 Q61.0 58.0 60.6 58.0 L58.4 58.0 Q58.0 58.0 58.0 57.6 L58.0 57.4 Q58.0 57.0 57.6 57.0 L56.4 57.0 Q56.0 57.0 56.0 56.6 L56.0 56.4 Q56.0 56.0 55.6 56.0 L54.4 56.0 Q54.0 56.0 54.0 55.6 L54.0 55.4 Q54.0 55.0 54.4 54.8 L57.6 53.2 Q58.0 53.0 57.8 53.3 L56.2 55.7 Q56.0 56.0 56.4 56.1 L60.6 56.9 Q61.0 57.0 61.0 57.4 Z M58.4 56.0 Q58.0 56.0 58.0 55.6 L58.0 55.4 Q58.0 55.0 58.4 55.0 L59.6 55.0 Q60.0 55.0 60.0 54.6 L60.0 54.4 Q60.0 54.0 60.4 53.8 L61.6 53.2 Q62.0 53.0 61.8 53.3 L60.2 55.7 Q60.0 56.0 59.6 56.0 Z M37.0 54.4 Q37.0 54.0 37.4 54.0 L37.6 54.0 Q38.0 54.0 38.0 54.4 L38.0 54.6 Q38.0 55.0 37.6 55.0 L37.4 55.0 Q37.0 55.0 37.0 54.6 Z M41.0 54.4 Q41.0 54.0 41.4 54.0 L41.6 54.0 Q42.0 54.0 42.0 54.4 L42.0 54.6 Q42.0 55.0 41.6 55.0 L41.4 55.0 Q41.0 55.0 41.0 54.6 Z M61.4 57.0 Q61.0 57.0 61.0 56.6 L61.0 56.4 Q61.0 56.0 61.4 56.0 L62.6 56.0 Q63.0 56.0 63.0 55.6 L63.0 55.4 Q63.0 55.0 63.4 54.8 L64.6 54.2 Q65.0 54.0 64.8 54.3 L63.2 56.7 Q63.0 57.0 62.6 57.0 Z M44.0 55.4 Q44.0 55.0 44.4 55.0 L44.6 55.0 Q45.0 55.0 45.0 55.4 L45.0 55.6 Q45.0 56.0 44.6 56.0 L44.4 56.0 Q44.0 56.0 44.0 55.6 Z M48.0 55.4 Q48.0 55.0 48.4 55.0 L48.6 55.0 Q49.0 55.0 49.0 55.4 L49.0 55.6 Q49.0 56.0 48.6 56.0 L48.4 56.0 Q48.0 56.0 48.0 55.6 Z M51.0 56.4 Q51.0 56.0 51.4 56.0 L51.6 56.0 Q52.0 56.0 52.0 56.4 L52.0 56.6 Q52.0 57.0 51.6 57.0 L51.4 57.0 Q51.0 57.0 51.0 56.6 Z M54.0 57.4 Q54.0 57.0 54.4 57.0 L54.6 57.0 Q55.0 57.0 55.0 57.4 L55.0 57.6 Q55.0 58.0 54.6 58.0 L54.4 58.0 Q54.0 58.0 54.0 57.6 Z" fill="rgb(28,57,129)" stroke="rgb(28,57,129)" stroke-width="0.12"/><path d="M52.6 10.0 Q53.0 10.0 53.0 10.4 L53.0 10.6 Q53.0 11.0 52.6 11.0 L47.4 11.0 Q47.0 11.0 47.0 10.6 L47.0 10.4 Q47.0 10.0 46.6 10.0 L45.4 10.0 Q45.0 10.0 45.0 9.6 L45.0 9.4 Q45.0 9.0 44.6 8.8 L43.4 8.2 Q43.0 8.0 43.0 7.6 L43.0 6.4 Q43.0 6.0 42.6 6.0 L30.4 6.0 Q30.0 6.0 30.0 6.4 L30.0 6.6 Q30.0 7.0 29.6 7.0 L29.4 7.0 Q29.0 7.0 29.0 7.4 L29.0 7.6 Q29.0 8.0 28.6 8.0 L28.4 8.0 Q28.0 8.0 28.0 8.4 L28.0 8.6 Q28.0 9.0 27.6 9.0 L27.4 9.0 Q27.0 9.0 27.0 9.4 L27.0 9.6 Q27.0 10.0 26.6 10.0 L26.4 10.0 Q26.0 10.0 26.0 10.4 L26.0 10.6 Q26.0 11.0 25.6 11.0 L25.4 11.0 Q25.0 11.0 25.0 11.4 L25.0 11.6 Q25.0 12.0 24.6 12.0 L24.4 12.0 Q24.0 12.0 24.0 12.4 L24.0 12.6 Q24.0 13.0 23.6 13.0 L23.4 13.0 Q23.0 13.0 23.0 13.4 L23.0 13.6 Q23.0 14.0 22.6 14.0 L22.4 14.0 Q22.0 14.0 22.0 14.4 L22.0 14.6 Q22.0 15.0 21.6 15.0 L21.4 15.0 Q21.0 15.0 21.0 15.4 L21.0 15.6 Q21.0 16.0 20.6 16.0 L20.4 16.0 Q20.0 16.0 20.0 16.4 L20.0 16.6 Q20.0 17.0 19.6 17.0 L19.4 17.0 Q19.0 17.0 19.0 17.4 L19.0 17.6 Q19.0 18.0 18.6 18.0 L18.4 18.0 Q18.0 18.0 18.0 18.4 L18.0 18.6 Q18.0 19.0 17.6 19.0 L17.4 19.0 Q17.0 19.0 17.0 19.4 L17.0 19.6 Q17.0 20.0 16.7 20.3 L13.3 22.7 Q13.0 23.0 13.0 23.4 L13.0 24.6 Q13.0 25.0 13.4 25.0 L13.6 25.0 Q14.0 25.0 14.0 25.4 L14.0 25.6 Q14.0 26.0 14.4 26.0 L14.6 26.0 Q15.0 26.0 15.0 26.4 L15.0 26.6 Q15.0 27.0 15.4 27.0 L15.6 27.0 Q16.0 27.0 16.0 27.4 L16.0 27.6 Q16.0 28.0 16.4 28.0 L16.6 28.0 Q17.0 28.0 17.0 28.4 L17.0 28.6 Q17.0 29.0 17.4 29.0 L17.6 29.0 Q18.0 29.0 18.0 29.4 L18.0 29.6 Q18.0 30.0 18.4 30.0 L18.6 30.0 Q19.0 30.0 19.0 30.4 L19.0 30.6 Q19.0 31.0 19.4 31.0 L19.6 31.0 Q20.0 31.0 20.0 31.4 L20.0 31.6 Q20.0 32.0 20.4 32.0 L20.6 32.0 Q21.0 32.0 21.3 32.3 L23.7 35.7 Q24.0 36.0 24.4 36.0 L25.6 36.0 Q26.0 36.0 26.0 36.4 L26.0 36.6 Q26.0 37.0 25.6 37.0 L24.4 37.0 Q24.0 37.0 24.0 36.6 L24.0 36.4 Q24.0 36.0 23.6 36.0 L23.4 36.0 Q23.0 36.0 23.0 35.6 L23.0 35.4 Q23.0 35.0 22.6 35.0 L22.4 35.0 Q22.0 35.0 22.0 34.6 L22.0 34.4 Q22.0 34.0 21.6 34.0 L21.4 34.0 Q21.0 34.0 21.0 33.6 L21.0 33.4 Q21.0 33.0 20.6 33.0 L20.4 33.0 Q20.0 33.0 20.0 32.6 L20.0 32.4 Q20.0 32.0 19.6 32.0 L19.4 32.0 Q19.0 32.0 19.0 31.6 L19.0 31.4 Q19.0 31.0 18.6 31.0 L18.4 31.0 Q18.0 31.0 18.0 30.6 L18.0 30.4 Q18.0 30.0 17.6 30.0 L17.4 30.0 Q17.0 30.0 17.0 29.6 L17.0 29.4 Q17.0 29.0 16.6 29.0 L16.4 29.0 Q16.0 29.0 16.0 28.6 L16.0 28.4 Q16.0 28.0 15.7 27.7 L12.3 25.3 Q12.0 25.0 12.0 24.6 L12.0 23.4 Q12.0 23.0 12.4 23.0 L12.6 23.0 Q13.0 23.0 13.0 22.6 L13.0 22.4 Q13.0 22.0 13.4 22.0 L13.6 22.0 Q14.0 22.0 14.0 21.6 L14.0 21.4 Q14.0 21.0 14.4 21.0 L14.6 21.0 Q15.0 21.0 15.0 20.6 L15.0 20.4 Q15.0 20.0 15.4 20.0 L15.6 20.0 Q16.0 20.0 16.0 19.6 L16.0 19.4 Q16.0 19.0 16.4 19.0 L16.6 19.0 Q17.0 19.0 17.0 18.6 L17.0 18.4 Q17.0 18.0 17.4 18.0 L17.6 18.0 Q18.0 18.0 18.0 17.6 L18.0 17.4 Q18.0 17.0 18.4 17.0 L18.6 17.0 Q19.0 17.0 19.0 16.6 L19.0 16.4 Q19.0 16.0 19.4 16.0 L19.6 16.0 Q20.0 16.0 20.0 15.6 L20.0 15.4 Q20.0 15.0 20.4 15.0 L20.6 15.0 Q21.0 15.0 21.0 14.6 L21.0 14.4 Q21.0 14.0 21.4 14.0 L21.6 14.0 Q22.0 14.0 22.0 13.6 L22.0 13.4 Q22.0 13.0 22.4 13.0 L22.6 13.0 Q23.0 13.0 23.0 12.6 L23.0 12.4 Q23.0 12.0 23.4 12.0 L23.6 12.0 Q24.0 12.0 24.0 11.6 L24.0 11.4 Q24.0 11.0 24.4 11.0 L24.6 11.0 Q25.0 11.0 25.0 10.6 L25.0 10.4 Q25.0 10.0 25.4 10.0 L25.6 10.0 Q26.0 10.0 26.0 9.6 L26.0 9.4 Q26.0 9.0 26.4 9.0 L26.6 9.0 Q27.0 9.0 27.3 8.7 L29.7 5.3 Q30.0 5.0 30.4 5.0 L42.6 5.0 Q43.0 5.0 43.2 5.4 L44.8 8.6 Q45.0 9.0 45.4 9.0 L46.6 9.0 Q47.0 9.0 47.0 9.4 L47.0 9.6 Q47.0 10.0 47.4 10.0 Z M53.0 9.4 Q53.0 9.0 53.4 9.0 L54.6 9.0 Q55.0 9.0 55.2 8.6 L56.8 5.4 Q57.0 5.0 57.4 5.0 L69.6 5.0 Q70.0 5.0 70.0 5.4 L70.0 5.6 Q70.0 6.0 70.4 6.0 L70.6 6.0 Q71.0 6.0 71.0 6.4 L71.0 6.6 Q71.0 7.0 71.4 7.0 L71.6 7.0 Q72.0 7.0 72.0 7.4 L72.0 7.6 Q72.0 8.0 72.4 8.0 L72.6 8.0 Q73.0 8.0 73.0 8.4 L73.0 8.6 Q73.0 9.0 73.4 9.0 L73.6 9.0 Q74.0 9.0 74.0 9.4 L74.0 9.6 Q74.0 10.0 74.4 10.0 L74.6 10.0 Q75.0 10.0 75.0 10.4 L75.0 10.6 Q75.0 11.0 75.4 11.0 L75.6 11.0 Q76.0 11.0 76.0 11.4 L76.0 11.6 Q76.0 12.0 76.4 12.0 L76.6 12.0 Q77.0 12.0 77.0 12.4 L77.0 12.6 Q77.0 13.0 77.4 13.0 L77.6 13.0 Q78.0 13.0 78.0 13.4 L78.0 13.6 Q78.0 14.0 78.4 14.0 L78.6 14.0 Q79.0 14.0 79.0 14.4 L79.0 14.6 Q79.0 15.0 79.4 15.0 L79.6 15.0 Q80.0 15.0 80.0 15.4 L80.0 15.6 Q80.0 16.0 80.4 16.0 L80.6 16.0 Q81.0 16.0 81.0 16.4 L81.0 16.6 Q81.0 17.0 81.4 17.0 L81.6 17.0 Q82.0 17.0 82.0 17.4 L82.0 17.6 Q82.0 18.0 82.4 18.0 L82.6 18.0 Q83.0 18.0 83.0 18.4 L83.0 18.6 Q83.0 19.0 83.4 19.0 L83.6 19.0 Q84.0 19.0 84.0 19.4 L84.0 19.6 Q84.0 20.0 84.3 20.3 L87.7 22.7 Q88.0 23.0 88.0 23.4 L88.0 24.6 Q88.0 25.0 87.6 25.0 L87.4 25.0 Q87.0 25.0 87.0 25.4 L87.0 25.6 Q87.0 26.0 86.6 26.0 L86.4 26.0 Q86.0 26.0 86.0 26.4 L86.0 26.6 Q86.0 27.0 85.6 27.0 L85.4 27.0 Q85.0 27.0 85.0 27.4 L85.0 27.6 Q85.0 28.0 84.6 28.0 L84.4 28.0 Q84.0 28.0 84.0 28.4 L84.0 28.6 Q84.0 29.0 83.6 29.0 L83.4 29.0 Q83.0 29.0 83.0 29.4 L83.0 29.6 Q83.0 30.0 82.6 30.0 L82.4 30.0 Q82.0 30.0 82.0 30.4 L82.0 30.6 Q82.0 31.0 81.6 31.0 L81.4 31.0 Q81.0 31.0 81.0 31.4 L81.0 31.6 Q81.0 32.0 80.6 32.0 L80.4 32.0 Q80.0 32.0 80.0 32.4 L80.0 32.6 Q80.0 33.0 79.6 33.0 L79.4 33.0 Q79.0 33.0 78.7 33.3 L76.3 36.7 Q76.0 37.0 75.6 37.0 L74.4 37.0 Q74.0 37.0 74.0 36.6 L74.0 36.4 Q74.0 36.0 74.4 36.0 L75.6 36.0 Q76.0 36.0 76.0 35.6 L76.0 35.4 Q76.0 35.0 76.4 35.0 L76.6 35.0 Q77.0 35.0 77.0 34.6 L77.0 34.4 Q77.0 34.0 77.4 34.0 L77.6 34.0 Q78.0 34.0 78.0 33.6 L78.0 33.4 Q78.0 33.0 78.4 33.0 L78.6 33.0 Q79.0 33.0 79.0 32.6 L79.0 32.4 Q79.0 32.0 79.4 32.0 L79.6 32.0 Q80.0 32.0 80.0 31.6 L80.0 31.4 Q80.0 31.0 80.4 31.0 L80.6 31.0 Q81.0 31.0 81.0 30.6 L81.0 30.4 Q81.0 30.0 81.4 30.0 L81.6 30.0 Q82.0 30.0 82.0 29.6 L82.0 29.4 Q82.0 29.0 82.4 29.0 L82.6 29.0 Q83.0 29.0 83.0 28.6 L83.0 28.4 Q83.0 28.0 83.3 27.7 L86.7 25.3 Q87.0 25.0 87.0 24.6 L87.0 23.4 Q87.0 23.0 86.6 23.0 L86.4 23.0 Q86.0 23.0 86.0 22.6 L86.0 22.4 Q86.0 22.0 85.6 22.0 L85.4 22.0 Q85.0 22.0 85.0 21.6 L85.0 21.4 Q85.0 21.0 84.6 21.0 L84.4 21.0 Q84.0 21.0 84.0 20.6 L84.0 20.4 Q84.0 20.0 83.6 20.0 L83.4 20.0 Q83.0 20.0 83.0 19.6 L83.0 19.4 Q83.0 19.0 82.6 19.0 L82.4 19.0 Q82.0 19.0 82.0 18.6 L82.0 18.4 Q82.0 18.0 81.6 18.0 L81.4 18.0 Q81.0 18.0 81.0 17.6 L81.0 17.4 Q81.0 17.0 80.6 17.0 L80.4 17.0 Q80.0 17.0 80.0 16.6 L80.0 16.4 Q80.0 16.0 79.6 16.0 L79.4 16.0 Q79.0 16.0 79.0 15.6 L79.0 15.4 Q79.0 15.0 78.6 15.0 L78.4 15.0 Q78.0 15.0 78.0 14.6 L78.0 14.4 Q78.0 14.0 77.6 14.0 L77.4 14.0 Q77.0 14.0 77.0 13.6 L77.0 13.4 Q77.0 13.0 76.6 13.0 L76.4 13.0 Q76.0 13.0 76.0 12.6 L76.0 12.4 Q76.0 12.0 75.6 12.0 L75.4 12.0 Q75.0 12.0 75.0 11.6 L75.0 11.4 Q75.0 11.0 74.6 11.0 L74.4 11.0 Q74.0 11.0 74.0 10.6 L74.0 10.4 Q74.0 10.0 73.6 10.0 L73.4 10.0 Q73.0 10.0 72.7 9.7 L70.3 6.3 Q70.0 6.0 69.6 6.0 L57.4 6.0 Q57.0 6.0 57.0 6.4 L57.0 7.6 Q57.0 8.0 56.6 8.0 L56.4 8.0 Q56.0 8.0 55.8 8.4 L55.2 9.6 Q55.0 10.0 54.6 10.0 L53.4 10.0 Q53.0 10.0 53.0 9.6 Z M70.0 58.6 Q70.0 59.0 69.6 59.0 L30.4 59.0 Q30.0 59.0 30.0 58.6 L30.0 33.4 Q30.0 33.0 29.6 33.0 L29.4 33.0 Q29.0 33.0 28.8 33.3 L27.2 35.7 Q27.0 36.0 26.6 36.0 L26.4 36.0 Q26.0 36.0 26.0 35.6 L26.0 35.4 Q26.0 35.0 26.4 35.0 L26.6 35.0 Q27.0 35.0 27.0 34.6 L27.0 34.4 Q27.0 34.0 27.3 33.7 L30.7 31.3 Q31.0 31.0 31.0 31.4 L31.0 57.6 Q31.0 58.0 31.4 58.0 L68.6 58.0 Q69.0 58.0 69.0 57.6 L69.0 31.4 Q69.0 31.0 69.4 31.0 L69.6 31.0 Q70.0 31.0 70.0 31.4 L70.0 31.6 Q70.0 32.0 70.3 32.3 L73.7 34.7 Q74.0 35.0 74.0 35.4 L74.0 35.6 Q74.0 36.0 73.6 36.0 L73.4 36.0 Q73.0 36.0 73.0 35.6 L73.0 35.4 Q73.0 35.0 72.7 34.8 L70.3 33.2 Q70.0 33.0 70.0 33.4 Z" fill="rgb(0,0,0)" stroke="rgb(0,0,0)" stroke-width="0.12"/><path d="M35.6 24.0 Q36.0 24.0 36.0 24.4 L36.0 25.6 Q36.0 26.0 35.6 26.2 L34.4 26.8 Q34.0 27.0 34.0 26.6 L34.0 26.4 Q34.0 26.0 34.4 26.0 L34.6 26.0 Q35.0 26.0 35.0 25.6 L35.0 24.4 Q35.0 24.0 35.4 24.0 Z M39.6 24.2 Q40.0 24.0 40.0 24.4 L40.0 24.6 Q40.0 25.0 39.6 25.0 L39.4 25.0 Q39.0 25.0 39.0 25.4 L39.0 26.6 Q39.0 27.0 38.6 27.2 L37.4 27.8 Q37.0 28.0 37.0 27.6 L37.0 27.4 Q37.0 27.0 37.4 27.0 L37.6 27.0 Q38.0 27.0 38.0 26.6 L38.0 25.4 Q38.0 25.0 38.4 24.8 Z M41.4 28.0 Q41.0 28.0 41.0 27.6 L41.0 26.4 Q41.0 26.0 41.3 25.8 L43.7 24.2 Q44.0 24.0 44.0 24.4 L44.0 24.6 Q44.0 25.0 43.6 25.2 L42.4 25.8 Q42.0 26.0 42.0 26.4 L42.0 27.6 Q42.0 28.0 41.6 28.0 Z M46.6 24.0 Q47.0 24.0 46.9 24.4 L46.1 27.6 Q46.0 28.0 45.6 28.2 L44.4 28.8 Q44.0 29.0 44.0 28.6 L44.0 28.4 Q44.0 28.0 44.4 28.0 L44.6 28.0 Q45.0 28.0 45.0 27.6 L45.0 26.4 Q45.0 26.0 45.4 26.0 L45.6 26.0 Q46.0 26.0 46.0 25.6 L46.0 24.4 Q46.0 24.0 46.4 24.0 Z M50.6 24.2 Q51.0 24.0 51.0 24.4 L51.0 24.6 Q51.0 25.0 50.6 25.0 L50.4 25.0 Q50.0 25.0 50.0 25.4 L50.0 26.6 Q50.0 27.0 49.6 27.0 L49.4 27.0 Q49.0 27.0 49.0 27.4 L49.0 28.6 Q49.0 29.0 48.6 29.2 L47.4 29.8 Q47.0 30.0 47.0 29.6 L47.0 29.4 Q47.0 29.0 47.4 29.0 L47.6 29.0 Q48.0 29.0 48.0 28.6 L48.0 27.4 Q48.0 27.0 48.4 27.0 L48.6 27.0 Q49.0 27.0 49.0 26.6 L49.0 25.4 Q49.0 25.0 49.4 24.8 Z M54.6 24.2 Q55.0 24.0 55.0 24.4 L55.0 24.6 Q55.0 25.0 54.6 25.0 L54.4 25.0 Q54.0 25.0 54.0 25.4 L54.0 26.6 Q54.0 27.0 53.6 27.2 L52.4 27.8 Q52.0 28.0 52.0 28.4 L52.0 29.6 Q52.0 30.0 51.6 30.2 L50.4 30.8 Q50.0 31.0 50.0 30.6 L50.0 30.4 Q50.0 30.0 50.4 30.0 L50.6 30.0 Q51.0 30.0 51.0 29.6 L51.0 28.4 Q51.0 28.0 51.4 27.8 L52.6 27.2 Q53.0 27.0 53.0 26.6 L53.0 25.4 Q53.0 25.0 53.4 24.8 Z M57.6 25.2 Q58.0 25.0 58.0 25.4 L58.0 25.6 Q58.0 26.0 57.6 26.0 L57.4 26.0 Q57.0 26.0 57.0 26.4 L57.0 27.6 Q57.0 28.0 56.6 28.0 L56.4 28.0 Q56.0 28.0 56.0 28.4 L56.0 29.6 Q56.0 30.0 55.6 30.2 L54.4 30.8 Q54.0 31.0 54.0 30.6 L54.0 30.4 Q54.0 30.0 54.4 30.0 L54.6 30.0 Q55.0 30.0 55.0 29.6 L55.0 28.4 Q55.0 28.0 55.4 28.0 L55.6 28.0 Q56.0 28.0 56.0 27.6 L56.0 26.4 Q56.0 26.0 56.4 25.8 Z M61.6 25.2 Q62.0 25.0 62.0 25.4 L62.0 25.6 Q62.0 26.0 61.6 26.0 L61.4 26.0 Q61.0 26.0 61.0 26.4 L61.0 27.6 Q61.0 28.0 60.6 28.2 L59.4 28.8 Q59.0 29.0 59.0 29.4 L59.0 30.6 Q59.0 31.0 58.6 31.2 L57.4 31.8 Q57.0 32.0 57.0 31.6 L57.0 31.4 Q57.0 31.0 57.4 31.0 L57.6 31.0 Q58.0 31.0 58.0 30.6 L58.0 29.4 Q58.0 29.0 58.4 28.8 L59.6 28.2 Q60.0 28.0 60.0 27.6 L60.0 26.4 Q60.0 26.0 60.4 25.8 Z M64.6 26.2 Q65.0 26.0 65.0 26.4 L65.0 26.6 Q65.0 27.0 64.6 27.0 L64.4 27.0 Q64.0 27.0 64.0 27.4 L64.0 28.6 Q64.0 29.0 63.6 29.0 L63.4 29.0 Q63.0 29.0 63.0 29.4 L63.0 30.6 Q63.0 31.0 62.6 31.2 L61.4 31.8 Q61.0 32.0 61.0 31.6 L61.0 31.4 Q61.0 31.0 61.4 31.0 L61.6 31.0 Q62.0 31.0 62.0 30.6 L62.0 29.4 Q62.0 29.0 62.4 29.0 L62.6 29.0 Q63.0 29.0 63.0 28.6 L63.0 27.4 Q63.0 27.0 63.4 26.8 Z M67.6 27.2 Q68.0 27.0 68.0 27.4 L68.0 27.6 Q68.0 28.0 67.6 28.0 L67.4 28.0 Q67.0 28.0 67.0 28.4 L67.0 29.6 Q67.0 30.0 66.6 30.0 L66.4 30.0 Q66.0 30.0 66.0 30.4 L66.0 31.6 Q66.0 32.0 65.6 32.2 L64.4 32.8 Q64.0 33.0 64.0 32.6 L64.0 32.4 Q64.0 32.0 64.4 32.0 L64.6 32.0 Q65.0 32.0 65.0 31.6 L65.0 30.4 Q65.0 30.0 65.4 30.0 L65.6 30.0 Q66.0 30.0 66.0 29.6 L66.0 28.4 Q66.0 28.0 66.4 27.8 Z M35.6 31.2 Q36.0 31.0 36.0 31.4 L36.0 31.6 Q36.0 32.0 35.6 32.0 L35.4 32.0 Q35.0 32.0 35.0 32.4 L35.0 33.6 Q35.0 34.0 34.6 34.0 L34.4 34.0 Q34.0 34.0 34.0 34.4 L34.0 35.6 Q34.0 36.0 33.6 36.2 L32.4 36.8 Q32.0 37.0 32.0 36.6 L32.0 36.4 Q32.0 36.0 32.4 36.0 L32.6 36.0 Q33.0 36.0 33.0 35.6 L33.0 34.4 Q33.0 34.0 33.4 34.0 L33.6 34.0 Q34.0 34.0 34.0 33.6 L34.0 32.4 Q34.0 32.0 34.4 31.8 Z M38.6 32.2 Q39.0 32.0 39.0 32.4 L39.0 32.6 Q39.0 33.0 38.6 33.0 L38.4 33.0 Q38.0 33.0 38.0 33.4 L38.0 34.6 Q38.0 35.0 37.6 35.0 L37.4 35.0 Q37.0 35.0 37.0 35.4 L37.0 36.6 Q37.0 37.0 36.6 37.2 L35.4 37.8 Q35.0 38.0 35.0 37.6 L35.0 37.4 Q35.0 37.0 35.4 37.0 L35.6 37.0 Q36.0 37.0 36.0 36.6 L36.0 35.4 Q36.0 35.0 36.4 35.0 L36.6 35.0 Q37.0 35.0 37.0 34.6 L37.0 33.4 Q37.0 33.0 37.4 32.8 Z M39.4 38.0 Q39.0 38.0 39.0 37.6 L39.0 36.4 Q39.0 36.0 39.4 36.0 L39.6 36.0 Q40.0 36.0 40.0 35.6 L40.0 35.4 Q40.0 35.0 40.4 35.0 L40.6 35.0 Q41.0 35.0 41.0 34.6 L41.0 33.4 Q41.0 33.0 41.4 32.8 L42.6 32.2 Q43.0 32.0 43.0 32.4 L43.0 32.6 Q43.0 33.0 42.6 33.0 L42.4 33.0 Q42.0 33.0 42.0 33.4 L42.0 34.6 Q42.0 35.0 41.6 35.0 L41.4 35.0 Q41.0 35.0 41.0 35.4 L41.0 35.6 Q41.0 36.0 40.6 36.0 L40.4 36.0 Q40.0 36.0 40.0 36.4 L40.0 37.6 Q40.0 38.0 39.6 38.0 Z M45.6 33.2 Q46.0 33.0 46.0 33.4 L46.0 33.6 Q46.0 34.0 45.6 34.0 L45.4 34.0 Q45.0 34.0 45.0 34.4 L45.0 35.6 Q45.0 36.0 44.6 36.0 L44.4 36.0 Q44.0 36.0 44.0 36.4 L44.0 37.6 Q44.0 38.0 43.6 38.2 L42.4 38.8 Q42.0 39.0 42.0 38.6 L42.0 38.4 Q42.0 38.0 42.4 38.0 L42.6 38.0 Q43.0 38.0 43.0 37.6 L43.0 36.4 Q43.0 36.0 43.4 36.0 L43.6 36.0 Q44.0 36.0 44.0 35.6 L44.0 34.4 Q44.0 34.0 44.4 33.8 Z M48.6 34.2 Q49.0 34.0 49.0 34.4 L49.0 34.6 Q49.0 35.0 48.6 35.0 L48.4 35.0 Q48.0 35.0 48.0 35.4 L48.0 36.6 Q48.0 37.0 47.6 37.0 L47.4 37.0 Q47.0 37.0 47.0 37.4 L47.0 38.6 Q47.0 39.0 46.6 39.2 L45.4 39.8 Q45.0 40.0 45.0 39.6 L45.0 39.4 Q45.0 39.0 45.4 39.0 L45.6 39.0 Q46.0 39.0 46.0 38.6 L46.0 37.4 Q46.0 37.0 46.4 37.0 L46.6 37.0 Q47.0 37.0 47.0 36.6 L47.0 35.4 Q47.0 35.0 47.4 34.8 Z M49.4 40.0 Q49.0 40.0 49.0 39.6 L49.0 38.4 Q49.0 38.0 49.4 38.0 L49.6 38.0 Q50.0 38.0 50.0 37.6 L50.0 37.4 Q50.0 37.0 50.4 37.0 L50.6 37.0 Q51.0 37.0 51.0 36.6 L51.0 35.4 Q51.0 35.0 51.4 34.8 L52.6 34.2 Q53.0 34.0 53.0 34.4 L53.0 34.6 Q53.0 35.0 52.6 35.0 L52.4 35.0 Q52.0 35.0 52.0 35.4 L52.0 36.6 Q52.0 37.0 51.6 37.0 L51.4 37.0 Q51.0 37.0 51.0 37.4 L51.0 37.6 Q51.0 38.0 50.6 38.0 L50.4 38.0 Q50.0 38.0 50.0 38.4 L50.0 39.6 Q50.0 40.0 49.6 40.0 Z M55.6 35.2 Q56.0 35.0 56.0 35.4 L56.0 35.6 Q56.0 36.0 55.6 36.0 L55.4 36.0 Q55.0 36.0 55.0 36.4 L55.0 37.6 Q55.0 38.0 54.6 38.0 L54.4 38.0 Q54.0 38.0 54.0 38.4 L54.0 39.6 Q54.0 40.0 53.6 40.2 L52.4 40.8 Q52.0 41.0 52.0 40.6 L52.0 40.4 Q52.0 40.0 52.4 40.0 L52.6 40.0 Q53.0 40.0 53.0 39.6 L53.0 38.4 Q53.0 38.0 53.4 38.0 L53.6 38.0 Q54.0 38.0 54.0 37.6 L54.0 36.4 Q54.0 36.0 54.4 35.8 Z M58.6 36.2 Q59.0 36.0 59.0 36.4 L59.0 36.6 Q59.0 37.0 58.6 37.0 L58.4 37.0 Q58.0 37.0 58.0 37.4 L58.0 38.6 Q58.0 39.0 57.6 39.0 L57.4 39.0 Q57.0 39.0 57.0 39.4 L57.0 40.6 Q57.0 41.0 56.6 41.2 L55.4 41.8 Q55.0 42.0 55.0 41.6 L55.0 41.4 Q55.0 41.0 55.4 41.0 L55.6 41.0 Q56.0 41.0 56.0 40.6 L56.0 39.4 Q56.0 39.0 56.4 39.0 L56.6 39.0 Q57.0 39.0 57.0 38.6 L57.0 37.4 Q57.0 37.0 57.4 36.8 Z M59.4 42.0 Q59.0 42.0 59.0 41.6 L59.0 40.4 Q59.0 40.0 59.4 40.0 L59.6 40.0 Q60.0 40.0 60.0 39.6 L60.0 39.4 Q60.0 39.0 60.4 39.0 L60.6 39.0 Q61.0 39.0 61.0 38.6 L61.0 37.4 Q61.0 37.0 61.4 36.8 L62.6 36.2 Q63.0 36.0 63.0 36.4 L63.0 36.6 Q63.0 37.0 62.6 37.0 L62.4 37.0 Q62.0 37.0 62.0 37.4 L62.0 38.6 Q62.0 39.0 61.6 39.0 L61.4 39.0 Q61.0 39.0 61.0 39.4 L61.0 39.6 Q61.0 40.0 60.6 40.0 L60.4 40.0 Q60.0 40.0 60.0 40.4 L60.0 41.6 Q60.0 42.0 59.6 42.0 Z M65.6 37.2 Q66.0 37.0 66.0 37.4 L66.0 37.6 Q66.0 38.0 65.6 38.0 L65.4 38.0 Q65.0 38.0 65.0 38.4 L65.0 39.6 Q65.0 40.0 64.6 40.0 L64.4 40.0 Q64.0 40.0 64.0 40.4 L64.0 41.6 Q64.0 42.0 63.6 42.2 L62.4 42.8 Q62.0 43.0 62.0 42.6 L62.0 42.4 Q62.0 42.0 62.4 42.0 L62.6 42.0 Q63.0 42.0 63.0 41.6 L63.0 40.4 Q63.0 40.0 63.4 40.0 L63.6 40.0 Q64.0 40.0 64.0 39.6 L64.0 38.4 Q64.0 38.0 64.4 37.8 Z M40.6 42.2 Q41.0 42.0 41.0 42.4 L41.0 42.6 Q41.0 43.0 40.6 43.0 L40.4 43.0 Q40.0 43.0 40.0 43.4 L40.0 44.6 Q40.0 45.0 39.6 45.2 L38.4 45.8 Q38.0 46.0 38.0 46.4 L38.0 47.6 Q38.0 48.0 37.6 48.2 L36.4 48.8 Q36.0 49.0 36.0 48.6 L36.0 48.4 Q36.0 48.0 36.4 48.0 L36.6 48.0 Q37.0 48.0 37.0 47.6 L37.0 46.4 Q37.0 46.0 37.4 45.8 L38.6 45.2 Q39.0 45.0 39.0 44.6 L39.0 43.4 Q39.0 43.0 39.4 42.8 Z M43.6 43.2 Q44.0 43.0 44.0 43.4 L44.0 43.6 Q44.0 44.0 43.6 44.0 L43.4 44.0 Q43.0 44.0 43.0 44.4 L43.0 45.6 Q43.0 46.0 42.6 46.0 L42.4 46.0 Q42.0 46.0 42.0 46.4 L42.0 47.6 Q42.0 48.0 41.6 48.2 L40.4 48.8 Q40.0 49.0 40.0 48.6 L40.0 48.4 Q40.0 48.0 40.4 48.0 L40.6 48.0 Q41.0 48.0 41.0 47.6 L41.0 46.4 Q41.0 46.0 41.4 46.0 L41.6 46.0 Q42.0 46.0 42.0 45.6 L42.0 44.4 Q42.0 44.0 42.4 43.8 Z M46.6 44.2 Q47.0 44.0 47.0 44.4 L47.0 44.6 Q47.0 45.0 46.6 45.0 L46.4 45.0 Q46.0 45.0 46.0 45.4 L46.0 46.6 Q46.0 47.0 45.6 47.0 L45.4 47.0 Q45.0 47.0 45.0 47.4 L45.0 48.6 Q45.0 49.0 44.6 49.2 L43.4 49.8 Q43.0 50.0 43.0 49.6 L43.0 49.4 Q43.0 49.0 43.4 49.0 L43.6 49.0 Q44.0 49.0 44.0 48.6 L44.0 47.4 Q44.0 47.0 44.4 47.0 L44.6 47.0 Q45.0 47.0 45.0 46.6 L45.0 45.4 Q45.0 45.0 45.4 44.8 Z M47.4 50.0 Q47.0 50.0 47.0 49.6 L47.0 48.4 Q47.0 48.0 47.4 48.0 L47.6 48.0 Q48.0 48.0 48.0 47.6 L48.0 47.4 Q48.0 47.0 48.4 47.0 L48.6 47.0 Q49.0 47.0 49.0 46.6 L49.0 45.4 Q49.0 45.0 49.4 44.8 L50.6 44.2 Q51.0 44.0 51.0 44.4 L51.0 44.6 Q51.0 45.0 50.6 45.0 L50.4 45.0 Q50.0 45.0 50.0 45.4 L50.0 46.6 Q50.0 47.0 49.6 47.0 L49.4 47.0 Q49.0 47.0 49.0 47.4 L49.0 47.6 Q49.0 48.0 48.6 48.0 L48.4 48.0 Q48.0 48.0 48.0 48.4 L48.0 49.6 Q48.0 50.0 47.6 50.0 Z M53.6 45.2 Q54.0 45.0 54.0 45.4 L54.0 45.6 Q54.0 46.0 53.6 46.0 L53.4 46.0 Q53.0 46.0 53.0 46.4 L53.0 47.6 Q53.0 48.0 52.6 48.0 L52.4 48.0 Q52.0 48.0 52.0 48.4 L52.0 49.6 Q52.0 50.0 51.6 50.2 L50.4 50.8 Q50.0 51.0 50.0 50.6 L50.0 50.4 Q50.0 50.0 50.4 50.0 L50.6 50.0 Q51.0 50.0 51.0 49.6 L51.0 48.4 Q51.0 48.0 51.4 48.0 L51.6 48.0 Q52.0 48.0 52.0 47.6 L52.0 46.4 Q52.0 46.0 52.4 45.8 Z M54.4 51.0 Q54.0 51.0 54.1 50.6 L54.9 47.4 Q55.0 47.0 55.4 46.8 L56.6 46.2 Q57.0 46.0 57.0 46.4 L57.0 46.6 Q57.0 47.0 56.6 47.0 L56.4 47.0 Q56.0 47.0 56.0 47.4 L56.0 48.6 Q56.0 49.0 55.6 49.0 L55.4 49.0 Q55.0 49.0 55.0 49.4 L55.0 50.6 Q55.0 51.0 54.6 51.0 Z M57.4 52.0 Q57.0 52.0 57.0 51.6 L57.0 50.4 Q57.0 50.0 57.4 50.0 L57.6 50.0 Q58.0 50.0 58.0 49.6 L58.0 49.4 Q58.0 49.0 58.4 49.0 L58.6 49.0 Q59.0 49.0 59.0 48.6 L59.0 47.4 Q59.0 47.0 59.4 46.8 L60.6 46.2 Q61.0 46.0 61.0 46.4 L61.0 46.6 Q61.0 47.0 60.6 47.0 L60.4 47.0 Q60.0 47.0 60.0 47.4 L60.0 48.6 Q60.0 49.0 59.6 49.0 L59.4 49.0 Q59.0 49.0 59.0 49.4 L59.0 49.6 Q59.0 50.0 58.6 50.0 L58.4 50.0 Q58.0 50.0 58.0 50.4 L58.0 51.6 Q58.0 52.0 57.6 52.0 Z M63.6 47.2 Q64.0 47.0 64.0 47.4 L64.0 47.6 Q64.0 48.0 63.6 48.0 L63.4 48.0 Q63.0 48.0 63.0 48.4 L63.0 49.6 Q63.0 50.0 62.6 50.0 L62.4 50.0 Q62.0 50.0 62.0 50.4 L62.0 51.6 Q62.0 52.0 61.6 52.2 L60.4 52.8 Q60.0 53.0 60.0 52.6 L60.0 52.4 Q60.0 52.0 60.4 52.0 L60.6 52.0 Q61.0 52.0 61.0 51.6 L61.0 50.4 Q61.0 50.0 61.4 50.0 L61.6 50.0 Q62.0 50.0 62.0 49.6 L62.0 48.4 Q62.0 48.0 62.4 47.8 Z M65.6 49.0 Q66.0 49.0 65.9 49.4 L65.1 52.6 Q65.0 53.0 64.6 53.2 L63.4 53.8 Q63.0 54.0 63.0 53.6 L63.0 53.4 Q63.0 53.0 63.4 53.0 L63.6 53.0 Q64.0 53.0 64.0 52.6 L64.0 51.4 Q64.0 51.0 64.4 51.0 L64.6 51.0 Q65.0 51.0 65.0 50.6 L65.0 49.4 Q65.0 49.0 65.4 49.0 Z M68.6 51.0 Q69.0 51.0 69.0 51.4 L69.0 52.6 Q69.0 53.0 68.6 53.2 L67.4 53.8 Q67.0 54.0 67.0 53.6 L67.0 53.4 Q67.0 53.0 67.4 53.0 L67.6 53.0 Q68.0 53.0 68.0 52.6 L68.0 51.4 Q68.0 51.0 68.4 51.0 Z M34.6 52.2 Q35.0 52.0 35.0 52.4 L35.0 52.6 Q35.0 53.0 34.6 53.0 L34.4 53.0 Q34.0 53.0 34.0 53.4 L34.0 54.6 Q34.0 55.0 33.6 55.2 L32.4 55.8 Q32.0 56.0 32.0 55.6 L32.0 55.4 Q32.0 55.0 32.4 55.0 L32.6 55.0 Q33.0 55.0 33.0 54.6 L33.0 53.4 Q33.0 53.0 33.4 52.8 Z M35.4 58.0 Q35.0 58.0 35.1 57.6 L35.9 54.4 Q36.0 54.0 36.4 53.8 L37.6 53.2 Q38.0 53.0 38.0 53.4 L38.0 53.6 Q38.0 54.0 37.6 54.0 L37.4 54.0 Q37.0 54.0 37.0 54.4 L37.0 55.6 Q37.0 56.0 36.6 56.0 L36.4 56.0 Q36.0 56.0 36.0 56.4 L36.0 57.6 Q36.0 58.0 35.6 58.0 Z M41.6 53.2 Q42.0 53.0 42.0 53.4 L42.0 53.6 Q42.0 54.0 41.6 54.0 L41.4 54.0 Q41.0 54.0 41.0 54.4 L41.0 55.6 Q41.0 56.0 40.7 56.2 L38.3 57.8 Q38.0 58.0 38.0 57.6 L38.0 57.4 Q38.0 57.0 38.4 56.8 L39.6 56.2 Q40.0 56.0 40.0 55.6 L40.0 54.4 Q40.0 54.0 40.4 53.8 Z M44.6 54.2 Q45.0 54.0 45.0 54.4 L45.0 54.6 Q45.0 55.0 44.6 55.0 L44.4 55.0 Q44.0 55.0 44.0 55.4 L44.0 56.6 Q44.0 57.0 43.6 57.2 L42.4 57.8 Q42.0 58.0 42.0 57.6 L42.0 57.4 Q42.0 57.0 42.4 57.0 L42.6 57.0 Q43.0 57.0 43.0 56.6 L43.0 55.4 Q43.0 55.0 43.4 54.8 Z M48.6 54.2 Q49.0 54.0 49.0 54.4 L49.0 54.6 Q49.0 55.0 48.6 55.0 L48.4 55.0 Q48.0 55.0 48.0 55.4 L48.0 56.6 Q48.0 57.0 47.6 57.2 L46.4 57.8 Q46.0 58.0 46.0 57.6 L46.0 57.4 Q46.0 57.0 46.4 57.0 L46.6 57.0 Q47.0 57.0 47.0 56.6 L47.0 55.4 Q47.0 55.0 47.4 54.8 Z M50.4 58.0 Q50.0 58.0 50.0 57.6 L50.0 56.4 Q50.0 56.0 50.4 55.8 L51.6 55.2 Q52.0 55.0 52.0 55.4 L52.0 55.6 Q52.0 56.0 51.6 56.0 L51.4 56.0 Q51.0 56.0 51.0 56.4 L51.0 57.6 Q51.0 58.0 50.6 58.0 Z M54.6 56.2 Q55.0 56.0 55.0 56.4 L55.0 56.6 Q55.0 57.0 54.6 57.2 L53.4 57.8 Q53.0 58.0 53.0 57.6 L53.0 57.4 Q53.0 57.0 53.4 56.8 Z M58.6 56.2 Q59.0 56.0 59.0 56.4 L59.0 56.6 Q59.0 57.0 58.6 57.2 L57.4 57.8 Q57.0 58.0 57.0 57.6 L57.0 57.4 Q57.0 57.0 57.4 56.8 Z M61.0 57.4 Q61.0 57.0 61.4 57.0 L61.6 57.0 Q62.0 57.0 62.0 57.4 L62.0 57.6 Q62.0 58.0 61.6 58.0 L61.4 58.0 Q61.0 58.0 61.0 57.6 Z" fill="rgb(255,154,0)" stroke="rgb(255,154,0)" stroke-width="0.12"/><path d="M65.0 6.4 Q65.0 6.0 65.4 6.0 L65.6 6.0 Q66.0 6.0 66.0 6.4 L66.0 6.6 Q66.0 7.0 65.6 7.0 L65.4 7.0 Q65.0 7.0 65.0 6.6 Z M59.0 11.4 Q59.0 11.0 59.4 11.0 L59.6 11.0 Q60.0 11.0 60.0 11.4 L60.0 11.6 Q60.0 12.0 59.6 12.0 L59.4 12.0 Q59.0 12.0 59.0 11.6 Z M62.0 12.4 Q62.0 12.0 62.4 12.0 L62.6 12.0 Q63.0 12.0 63.0 12.4 L63.0 12.6 Q63.0 13.0 62.6 13.0 L62.4 13.0 Q62.0 13.0 62.0 12.6 Z M37.0 14.4 Q37.0 14.0 37.4 14.0 L37.6 14.0 Q38.0 14.0 38.0 14.4 L38.0 14.6 Q38.0 15.0 37.6 15.0 L37.4 15.0 Q37.0 15.0 37.0 14.6 Z M41.6 14.2 Q42.0 14.0 42.0 14.4 L42.0 14.6 Q42.0 15.0 41.6 15.2 L40.4 15.8 Q40.0 16.0 40.0 15.6 L40.0 15.4 Q40.0 15.0 40.4 14.8 Z M44.6 15.2 Q45.0 15.0 45.0 15.4 L45.0 15.6 Q45.0 16.0 44.6 16.2 L43.4 16.8 Q43.0 17.0 43.0 16.6 L43.0 16.4 Q43.0 16.0 43.4 15.8 Z M47.0 16.4 Q47.0 16.0 47.4 16.0 L47.6 16.0 Q48.0 16.0 48.0 16.4 L48.0 16.6 Q48.0 17.0 47.6 17.0 L47.4 17.0 Q47.0 17.0 47.0 16.6 Z M50.0 17.4 Q50.0 17.0 50.4 17.0 L50.6 17.0 Q51.0 17.0 51.0 17.4 L51.0 17.6 Q51.0 18.0 50.6 18.0 L50.4 18.0 Q50.0 18.0 50.0 17.6 Z M57.0 18.4 Q57.0 18.0 57.4 18.0 L57.6 18.0 Q58.0 18.0 58.0 18.4 L58.0 18.6 Q58.0 19.0 57.6 19.0 L57.4 19.0 Q57.0 19.0 57.0 18.6 Z M35.6 19.2 Q36.0 19.0 36.0 19.4 L36.0 20.6 Q36.0 21.0 35.6 21.2 L34.4 21.8 Q34.0 22.0 34.0 21.6 L34.0 20.4 Q34.0 20.0 34.4 19.8 Z M60.0 19.4 Q60.0 19.0 60.4 19.0 L60.6 19.0 Q61.0 19.0 61.0 19.4 L61.0 19.6 Q61.0 20.0 60.6 20.0 L60.4 20.0 Q60.0 20.0 60.0 19.6 Z M38.6 20.2 Q39.0 20.0 39.0 20.4 L39.0 21.6 Q39.0 22.0 38.6 22.2 L37.4 22.8 Q37.0 23.0 37.0 22.6 L37.0 21.4 Q37.0 21.0 37.4 20.8 Z M41.6 21.2 Q42.0 21.0 42.0 21.4 L42.0 22.6 Q42.0 23.0 41.6 23.2 L40.4 23.8 Q40.0 24.0 40.0 23.6 L40.0 22.4 Q40.0 22.0 40.4 21.8 Z M44.0 22.4 Q44.0 22.0 44.4 22.0 L45.6 22.0 Q46.0 22.0 46.0 22.4 L46.0 22.6 Q46.0 23.0 45.6 23.2 L44.4 23.8 Q44.0 24.0 44.0 23.6 Z M48.6 22.2 Q49.0 22.0 49.0 22.4 L49.0 23.6 Q49.0 24.0 48.6 24.0 L47.4 24.0 Q47.0 24.0 47.0 23.6 L47.0 23.4 Q47.0 23.0 47.4 22.8 Z M32.0 23.4 Q32.0 23.0 32.4 23.0 L32.6 23.0 Q33.0 23.0 33.0 23.4 L33.0 23.6 Q33.0 24.0 32.6 24.0 L32.4 24.0 Q32.0 24.0 32.0 23.6 Z M51.0 23.4 Q51.0 23.0 51.4 23.0 L51.6 23.0 Q52.0 23.0 52.0 23.4 L52.0 23.6 Q52.0 24.0 51.6 24.0 L51.4 24.0 Q51.0 24.0 51.0 23.6 Z M55.0 23.4 Q55.0 23.0 55.4 23.0 L55.6 23.0 Q56.0 23.0 56.0 23.4 L56.0 23.6 Q56.0 24.0 55.6 24.0 L55.4 24.0 Q55.0 24.0 55.0 23.6 Z M58.0 24.4 Q58.0 24.0 58.4 24.0 L59.6 24.0 Q60.0 24.0 60.0 24.4 L60.0 24.6 Q60.0 25.0 59.6 25.0 L58.4 25.0 Q58.0 25.0 58.0 24.6 Z M62.4 26.0 Q62.0 26.0 62.0 25.6 L62.0 25.4 Q62.0 25.0 62.4 25.0 L63.6 25.0 Q64.0 25.0 64.0 24.6 L64.0 24.4 Q64.0 24.0 64.4 24.0 L64.6 24.0 Q65.0 24.0 64.8 24.4 L64.2 25.6 Q64.0 26.0 63.6 26.0 Z M65.4 27.0 Q65.0 27.0 65.0 26.6 L65.0 26.4 Q65.0 26.0 65.4 26.0 L66.6 26.0 Q67.0 26.0 67.0 25.6 L67.0 25.4 Q67.0 25.0 67.4 25.0 L67.6 25.0 Q68.0 25.0 67.8 25.4 L67.2 26.6 Q67.0 27.0 66.6 27.0 Z M33.4 31.0 Q33.0 31.0 33.0 30.6 L33.0 30.4 Q33.0 30.0 33.4 30.0 L34.6 30.0 Q35.0 30.0 35.0 29.6 L35.0 29.4 Q35.0 29.0 35.4 28.8 L36.6 28.2 Q37.0 28.0 36.8 28.3 L35.2 30.7 Q35.0 31.0 34.6 31.0 Z M36.4 32.0 Q36.0 32.0 36.0 31.6 L36.0 31.4 Q36.0 31.0 36.4 31.0 L37.6 31.0 Q38.0 31.0 38.0 30.6 L38.0 30.4 Q38.0 30.0 38.3 29.8 L40.7 28.2 Q41.0 28.0 40.7 28.3 L38.3 31.7 Q38.0 32.0 37.6 32.0 Z M39.4 33.0 Q39.0 33.0 39.2 32.6 L39.8 31.4 Q40.0 31.0 40.4 31.0 L41.6 31.0 Q42.0 31.0 42.0 30.6 L42.0 30.4 Q42.0 30.0 42.4 29.8 L43.6 29.2 Q44.0 29.0 43.8 29.3 L42.2 31.7 Q42.0 32.0 41.6 32.0 L40.4 32.0 Q40.0 32.0 40.0 32.4 L40.0 32.6 Q40.0 33.0 39.6 33.0 Z M43.4 33.0 Q43.0 33.0 43.0 32.6 L43.0 32.4 Q43.0 32.0 43.4 32.0 L44.6 32.0 Q45.0 32.0 45.0 31.6 L45.0 31.4 Q45.0 31.0 45.4 30.8 L46.6 30.2 Q47.0 30.0 46.8 30.3 L45.2 32.7 Q45.0 33.0 44.6 33.0 Z M49.6 31.0 Q50.0 31.0 49.8 31.4 L49.2 32.6 Q49.0 33.0 48.6 33.0 L47.4 33.0 Q47.0 33.0 47.0 33.4 L47.0 33.6 Q47.0 34.0 46.6 34.0 L46.4 34.0 Q46.0 34.0 46.2 33.6 L46.8 32.4 Q47.0 32.0 47.4 32.0 L48.6 32.0 Q49.0 32.0 49.0 31.6 L49.0 31.4 Q49.0 31.0 49.4 31.0 Z M49.4 35.0 Q49.0 35.0 49.2 34.6 L49.8 33.4 Q50.0 33.0 50.4 33.0 L51.6 33.0 Q52.0 33.0 52.0 32.6 L52.0 32.4 Q52.0 32.0 52.4 31.8 L53.6 31.2 Q54.0 31.0 53.8 31.3 L52.2 33.7 Q52.0 34.0 51.6 34.0 L50.4 34.0 Q50.0 34.0 50.0 34.4 L50.0 34.6 Q50.0 35.0 49.6 35.0 Z M53.4 35.0 Q53.0 35.0 53.0 34.6 L53.0 34.4 Q53.0 34.0 53.4 34.0 L54.6 34.0 Q55.0 34.0 55.0 33.6 L55.0 33.4 Q55.0 33.0 55.4 32.8 L56.6 32.2 Q57.0 32.0 56.8 32.3 L55.2 34.7 Q55.0 35.0 54.6 35.0 Z M56.4 36.0 Q56.0 36.0 56.2 35.6 L56.8 34.4 Q57.0 34.0 57.4 34.0 L58.6 34.0 Q59.0 34.0 59.0 33.6 L59.0 33.4 Q59.0 33.0 59.4 32.8 L60.6 32.2 Q61.0 32.0 60.8 32.3 L59.2 34.7 Q59.0 35.0 58.6 35.0 L57.4 35.0 Q57.0 35.0 57.0 35.4 L57.0 35.6 Q57.0 36.0 56.6 36.0 Z M59.4 37.0 Q59.0 37.0 59.2 36.6 L59.8 35.4 Q60.0 35.0 60.4 35.0 L61.6 35.0 Q62.0 35.0 62.0 34.6 L62.0 34.4 Q62.0 34.0 62.4 33.8 L63.6 33.2 Q64.0 33.0 63.8 33.3 L62.2 35.7 Q62.0 36.0 61.6 36.0 L60.4 36.0 Q60.0 36.0 60.0 36.4 L60.0 36.6 Q60.0 37.0 59.6 37.0 Z M63.4 37.0 Q63.0 37.0 63.0 36.6 L63.0 36.4 Q63.0 36.0 63.4 36.0 L64.6 36.0 Q65.0 36.0 65.0 35.6 L65.0 35.4 Q65.0 35.0 65.3 34.8 L67.7 33.2 Q68.0 33.0 67.7 33.3 L65.3 36.7 Q65.0 37.0 64.6 37.0 Z M34.6 38.2 Q35.0 38.0 35.0 38.4 L35.0 38.6 Q35.0 39.0 34.6 39.2 L33.4 39.8 Q33.0 40.0 33.0 39.6 L33.0 39.4 Q33.0 39.0 33.4 38.8 Z M34.4 42.0 Q34.0 42.0 34.0 41.6 L34.0 41.4 Q34.0 41.0 34.4 41.0 L35.6 41.0 Q36.0 41.0 36.0 40.6 L36.0 40.4 Q36.0 40.0 36.3 39.8 L38.7 38.2 Q39.0 38.0 38.7 38.3 L36.3 41.7 Q36.0 42.0 35.6 42.0 Z M37.4 43.0 Q37.0 43.0 37.2 42.6 L37.8 41.4 Q38.0 41.0 38.4 41.0 L39.6 41.0 Q40.0 41.0 40.0 40.6 L40.0 40.4 Q40.0 40.0 40.4 39.8 L41.6 39.2 Q42.0 39.0 41.8 39.3 L40.2 41.7 Q40.0 42.0 39.6 42.0 L38.4 42.0 Q38.0 42.0 38.0 42.4 L38.0 42.6 Q38.0 43.0 37.6 43.0 Z M41.4 43.0 Q41.0 43.0 41.0 42.6 L41.0 42.4 Q41.0 42.0 41.4 42.0 L42.6 42.0 Q43.0 42.0 43.0 41.6 L43.0 41.4 Q43.0 41.0 43.4 40.8 L44.6 40.2 Q45.0 40.0 44.8 40.3 L43.2 42.7 Q43.0 43.0 42.6 43.0 Z M44.4 44.0 Q44.0 44.0 44.0 43.6 L44.0 43.4 Q44.0 43.0 44.4 43.0 L45.6 43.0 Q46.0 43.0 46.0 42.6 L46.0 42.4 Q46.0 42.0 46.3 41.8 L48.7 40.2 Q49.0 40.0 48.7 40.3 L46.3 43.7 Q46.0 44.0 45.6 44.0 Z M47.4 45.0 Q47.0 45.0 47.2 44.6 L47.8 43.4 Q48.0 43.0 48.4 43.0 L49.6 43.0 Q50.0 43.0 50.0 42.6 L50.0 42.4 Q50.0 42.0 50.4 41.8 L51.6 41.2 Q52.0 41.0 51.8 41.3 L50.2 43.7 Q50.0 44.0 49.6 44.0 L48.4 44.0 Q48.0 44.0 48.0 44.4 L48.0 44.6 Q48.0 45.0 47.6 45.0 Z M51.4 45.0 Q51.0 45.0 51.0 44.6 L51.0 44.4 Q51.0 44.0 51.4 44.0 L52.6 44.0 Q53.0 44.0 53.0 43.6 L53.0 43.4 Q53.0 43.0 53.4 42.8 L54.6 42.2 Q55.0 42.0 54.8 42.3 L53.2 44.7 Q53.0 45.0 52.6 45.0 Z M54.4 46.0 Q54.0 46.0 54.2 45.6 L54.8 44.4 Q55.0 44.0 55.4 44.0 L56.6 44.0 Q57.0 44.0 57.0 43.6 L57.0 43.4 Q57.0 43.0 57.4 42.8 L58.6 42.2 Q59.0 42.0 58.8 42.3 L57.2 44.7 Q57.0 45.0 56.6 45.0 L55.4 45.0 Q55.0 45.0 55.0 45.4 L55.0 45.6 Q55.0 46.0 54.6 46.0 Z M57.4 47.0 Q57.0 47.0 57.2 46.6 L57.8 45.4 Q58.0 45.0 58.4 45.0 L59.6 45.0 Q60.0 45.0 60.0 44.6 L60.0 44.4 Q60.0 44.0 60.4 43.8 L61.6 43.2 Q62.0 43.0 61.8 43.3 L60.2 45.7 Q60.0 46.0 59.6 46.0 L58.4 46.0 Q58.0 46.0 58.0 46.4 L58.0 46.6 Q58.0 47.0 57.6 47.0 Z M61.4 47.0 Q61.0 47.0 61.0 46.6 L61.0 46.4 Q61.0 46.0 61.4 46.0 L62.6 46.0 Q63.0 46.0 63.0 45.6 L63.0 45.4 Q63.0 45.0 63.3 44.8 L65.7 43.2 Q66.0 43.0 65.7 43.3 L63.3 46.7 Q63.0 47.0 62.6 47.0 Z M35.7 49.2 Q36.0 49.0 36.0 49.4 L36.0 49.6 Q36.0 50.0 35.7 50.2 L33.3 51.8 Q33.0 52.0 33.0 51.6 L33.0 51.4 Q33.0 51.0 33.3 50.8 Z M35.4 53.0 Q35.0 53.0 35.0 52.6 L35.0 52.4 Q35.0 52.0 35.4 52.0 L36.6 52.0 Q37.0 52.0 37.0 51.6 L37.0 51.4 Q37.0 51.0 37.3 50.8 L39.7 49.2 Q40.0 49.0 39.7 49.3 L37.3 52.7 Q37.0 53.0 36.6 53.0 Z M38.4 54.0 Q38.0 54.0 38.2 53.6 L38.8 52.4 Q39.0 52.0 39.4 52.0 L40.6 52.0 Q41.0 52.0 41.0 51.6 L41.0 51.4 Q41.0 51.0 41.4 50.8 L42.6 50.2 Q43.0 50.0 42.8 50.3 L41.2 52.7 Q41.0 53.0 40.6 53.0 L39.4 53.0 Q39.0 53.0 39.0 53.4 L39.0 53.6 Q39.0 54.0 38.6 54.0 Z M42.4 54.0 Q42.0 54.0 42.0 53.6 L42.0 53.4 Q42.0 53.0 42.4 53.0 L43.6 53.0 Q44.0 53.0 44.0 52.6 L44.0 52.4 Q44.0 52.0 44.3 51.8 L46.7 50.2 Q47.0 50.0 46.7 50.3 L44.3 53.7 Q44.0 54.0 43.6 54.0 Z M45.4 55.0 Q45.0 55.0 45.2 54.6 L45.8 53.4 Q46.0 53.0 46.4 53.0 L47.6 53.0 Q48.0 53.0 48.0 52.6 L48.0 52.4 Q48.0 52.0 48.4 51.8 L49.6 51.2 Q50.0 51.0 49.8 51.3 L48.2 53.7 Q48.0 54.0 47.6 54.0 L46.4 54.0 Q46.0 54.0 46.0 54.4 L46.0 54.6 Q46.0 55.0 45.6 55.0 Z M49.4 55.0 Q49.0 55.0 49.0 54.6 L49.0 54.4 Q49.0 54.0 49.4 54.0 L50.6 54.0 Q51.0 54.0 51.0 53.6 L51.0 53.4 Q51.0 53.0 51.3 52.8 L53.7 51.2 Q54.0 51.0 53.7 51.3 L51.3 54.7 Q51.0 55.0 50.6 55.0 Z M52.4 56.0 Q52.0 56.0 52.0 55.6 L52.0 55.4 Q52.0 55.0 52.4 55.0 L53.6 55.0 Q54.0 55.0 54.0 54.6 L54.0 54.4 Q54.0 54.0 54.3 53.8 L56.7 52.2 Q57.0 52.0 56.7 52.3 L54.3 55.7 Q54.0 56.0 53.6 56.0 Z M55.4 57.0 Q55.0 57.0 55.2 56.6 L55.8 55.4 Q56.0 55.0 56.4 55.0 L57.6 55.0 Q58.0 55.0 58.0 54.6 L58.0 54.4 Q58.0 54.0 58.4 53.8 L59.6 53.2 Q60.0 53.0 59.8 53.3 L58.2 55.7 Q58.0 56.0 57.6 56.0 L56.4 56.0 Q56.0 56.0 56.0 56.4 L56.0 56.6 Q56.0 57.0 55.6 57.0 Z M59.4 57.0 Q59.0 57.0 59.0 56.6 L59.0 56.4 Q59.0 56.0 59.4 56.0 L60.6 56.0 Q61.0 56.0 61.0 55.6 L61.0 55.4 Q61.0 55.0 61.4 54.8 L62.6 54.2 Q63.0 54.0 62.8 54.3 L61.2 56.7 Q61.0 57.0 60.6 57.0 Z M62.4 58.0 Q62.0 58.0 62.2 57.6 L62.8 56.4 Q63.0 56.0 63.4 56.0 L64.6 56.0 Q65.0 56.0 65.0 55.6 L65.0 55.4 Q65.0 55.0 65.4 54.8 L66.6 54.2 Q67.0 54.0 66.8 54.3 L65.2 56.7 Q65.0 57.0 64.6 57.0 L63.4 57.0 Q63.0 57.0 63.0 57.4 L63.0 57.6 Q63.0 58.0 62.6 58.0 Z M66.4 58.0 Q66.0 58.0 66.0 57.6 L66.0 57.4 Q66.0 57.0 66.4 57.0 L67.6 57.0 Q68.0 57.0 68.0 56.6 L68.0 56.4 Q68.0 56.0 68.4 56.0 L68.6 56.0 Q69.0 56.0 68.8 56.4 L68.2 57.6 Q68.0 58.0 67.6 58.0 Z" fill="rgb(255,194,0)" stroke="rgb(255,194,0)" stroke-width="0.12"/><path d="M48.0 24.4 Q48.0 24.0 48.4 24.0 L49.6 24.0 Q50.0 24.0 50.0 24.4 L50.0 24.6 Q50.0 25.0 49.6 25.0 L48.4 25.0 Q48.0 25.0 48.0 24.6 Z M53.6 24.0 Q54.0 24.0 53.8 24.4 L53.2 25.6 Q53.0 26.0 52.6 26.0 L51.4 26.0 Q51.0 26.0 51.2 25.6 L51.8 24.4 Q52.0 24.0 52.4 24.0 Z M57.6 24.0 Q58.0 24.0 57.8 24.3 L56.2 26.7 Q56.0 27.0 55.6 27.0 L54.4 27.0 Q54.0 27.0 54.2 26.7 L55.8 24.3 Q56.0 24.0 56.4 24.0 Z M61.6 24.0 Q62.0 24.0 61.7 24.3 L59.3 27.7 Q59.0 28.0 58.6 28.0 L57.4 28.0 Q57.0 28.0 57.3 27.7 L59.7 24.3 Q60.0 24.0 60.4 24.0 Z M61.3 28.7 Q61.0 29.0 61.0 28.6 L61.0 27.4 Q61.0 27.0 61.4 27.0 L61.6 27.0 Q62.0 27.0 62.0 26.6 L62.0 26.4 Q62.0 26.0 62.4 26.0 L63.6 26.0 Q64.0 26.0 64.0 25.6 L64.0 25.4 Q64.0 25.0 64.4 24.8 L65.6 24.2 Q66.0 24.0 66.0 24.4 L66.0 24.6 Q66.0 25.0 65.6 25.0 L65.4 25.0 Q65.0 25.0 65.0 25.4 L65.0 25.6 Q65.0 26.0 64.7 26.3 Z M64.3 29.7 Q64.0 30.0 64.0 29.6 L64.0 28.4 Q64.0 28.0 64.4 27.8 L67.6 26.2 Q68.0 26.0 68.0 26.4 L68.0 26.6 Q68.0 27.0 67.7 27.3 Z M34.6 39.2 Q35.0 39.0 35.0 39.4 L35.0 39.6 Q35.0 40.0 34.6 40.2 L33.4 40.8 Q33.0 41.0 33.0 40.6 L33.0 40.4 Q33.0 40.0 33.4 39.8 Z M34.3 43.7 Q34.0 44.0 34.0 43.6 L34.0 42.4 Q34.0 42.0 34.4 42.0 L35.6 42.0 Q36.0 42.0 36.0 41.6 L36.0 41.4 Q36.0 41.0 36.4 40.8 L37.6 40.2 Q38.0 40.0 38.0 40.4 L38.0 40.6 Q38.0 41.0 37.7 41.3 Z M35.4 46.0 Q35.0 46.0 35.3 45.7 L37.7 42.3 Q38.0 42.0 38.4 42.0 L39.6 42.0 Q40.0 42.0 40.0 41.6 L40.0 41.4 Q40.0 41.0 40.4 41.0 L40.6 41.0 Q41.0 41.0 41.0 41.4 L41.0 41.6 Q41.0 42.0 40.6 42.0 L40.4 42.0 Q40.0 42.0 39.7 42.3 L37.3 45.7 Q37.0 46.0 36.6 46.0 Z M38.4 47.0 Q38.0 47.0 38.3 46.7 L40.7 43.3 Q41.0 43.0 41.4 43.0 L42.6 43.0 Q43.0 43.0 43.0 42.6 L43.0 42.4 Q43.0 42.0 43.4 41.8 L44.6 41.2 Q45.0 41.0 45.0 41.4 L45.0 41.6 Q45.0 42.0 44.6 42.0 L44.4 42.0 Q44.0 42.0 44.0 42.4 L44.0 42.6 Q44.0 43.0 43.6 43.0 L43.4 43.0 Q43.0 43.0 42.7 43.3 L40.3 46.7 Q40.0 47.0 39.6 47.0 Z M42.3 47.7 Q42.0 48.0 42.0 47.6 L42.0 46.4 Q42.0 46.0 42.3 45.8 L47.7 42.2 Q48.0 42.0 48.0 42.4 L48.0 42.6 Q48.0 43.0 47.6 43.0 L47.4 43.0 Q47.0 43.0 47.0 43.4 L47.0 43.6 Q47.0 44.0 46.6 44.0 L46.4 44.0 Q46.0 44.0 46.0 44.4 L46.0 44.6 Q46.0 45.0 45.7 45.3 Z M45.3 48.7 Q45.0 49.0 45.0 48.6 L45.0 47.4 Q45.0 47.0 45.4 47.0 L45.6 47.0 Q46.0 47.0 46.2 46.7 L47.8 44.3 Q48.0 44.0 48.4 44.0 L49.6 44.0 Q50.0 44.0 50.0 43.6 L50.0 43.4 Q50.0 43.0 50.4 43.0 L50.6 43.0 Q51.0 43.0 51.0 43.4 L51.0 43.6 Q51.0 44.0 50.6 44.0 L50.4 44.0 Q50.0 44.0 50.0 44.4 L50.0 44.6 Q50.0 45.0 49.6 45.0 L49.4 45.0 Q49.0 45.0 49.0 45.4 L49.0 45.6 Q49.0 46.0 48.7 46.3 Z M48.3 49.7 Q48.0 50.0 48.0 49.6 L48.0 48.4 Q48.0 48.0 48.4 48.0 L48.6 48.0 Q49.0 48.0 49.2 47.7 L50.8 45.3 Q51.0 45.0 51.4 45.0 L52.6 45.0 Q53.0 45.0 53.0 44.6 L53.0 44.4 Q53.0 44.0 53.4 44.0 L53.6 44.0 Q54.0 44.0 54.0 44.4 L54.0 44.6 Q54.0 45.0 53.6 45.0 L53.4 45.0 Q53.0 45.0 53.0 45.4 L53.0 45.6 Q53.0 46.0 52.6 46.0 L52.4 46.0 Q52.0 46.0 52.0 46.4 L52.0 46.6 Q52.0 47.0 51.7 47.3 Z M56.6 45.0 Q57.0 45.0 57.0 45.4 L57.0 45.6 Q57.0 46.0 56.6 46.0 L56.4 46.0 Q56.0 46.0 56.0 46.4 L56.0 46.6 Q56.0 47.0 55.6 47.0 L55.4 47.0 Q55.0 47.0 55.0 47.4 L55.0 47.6 Q55.0 48.0 54.7 48.3 L51.3 50.7 Q51.0 51.0 51.0 50.6 L51.0 50.4 Q51.0 50.0 51.4 50.0 L51.6 50.0 Q52.0 50.0 52.0 49.6 L52.0 48.4 Q52.0 48.0 52.4 48.0 L52.6 48.0 Q53.0 48.0 53.2 47.7 L54.8 45.3 Q55.0 45.0 55.4 45.0 Z M59.6 46.0 Q60.0 46.0 60.0 46.4 L60.0 46.6 Q60.0 47.0 59.6 47.0 L59.4 47.0 Q59.0 47.0 59.0 47.4 L59.0 47.6 Q59.0 48.0 58.6 48.0 L58.4 48.0 Q58.0 48.0 58.0 48.4 L58.0 48.6 Q58.0 49.0 57.7 49.3 L54.3 51.7 Q54.0 52.0 54.0 51.6 L54.0 51.4 Q54.0 51.0 54.4 51.0 L54.6 51.0 Q55.0 51.0 55.0 50.6 L55.0 49.4 Q55.0 49.0 55.4 49.0 L55.6 49.0 Q56.0 49.0 56.2 48.7 L57.8 46.3 Q58.0 46.0 58.4 46.0 Z M62.6 47.0 Q63.0 47.0 63.0 47.4 L63.0 47.6 Q63.0 48.0 62.6 48.0 L62.4 48.0 Q62.0 48.0 62.0 48.4 L62.0 48.6 Q62.0 49.0 61.6 49.0 L61.4 49.0 Q61.0 49.0 61.0 49.4 L61.0 49.6 Q61.0 50.0 60.7 50.3 L57.3 52.7 Q57.0 53.0 57.0 52.6 L57.0 52.4 Q57.0 52.0 57.4 52.0 L57.6 52.0 Q58.0 52.0 58.0 51.6 L58.0 50.4 Q58.0 50.0 58.4 50.0 L58.6 50.0 Q59.0 50.0 59.2 49.7 L60.8 47.3 Q61.0 47.0 61.4 47.0 Z M65.6 48.0 Q66.0 48.0 66.0 48.4 L66.0 48.6 Q66.0 49.0 65.6 49.0 L65.4 49.0 Q65.0 49.0 65.0 49.4 L65.0 49.6 Q65.0 50.0 64.7 50.3 L61.3 52.7 Q61.0 53.0 61.0 52.6 L61.0 52.4 Q61.0 52.0 61.4 52.0 L61.6 52.0 Q62.0 52.0 62.0 51.6 L62.0 50.4 Q62.0 50.0 62.4 50.0 L62.6 50.0 Q63.0 50.0 63.2 49.6 L63.8 48.4 Q64.0 48.0 64.4 48.0 Z M68.0 49.4 Q68.0 49.0 68.4 49.0 L68.6 49.0 Q69.0 49.0 69.0 49.4 L69.0 49.6 Q69.0 50.0 68.6 50.0 L68.4 50.0 Q68.0 50.0 68.0 49.6 Z M66.6 50.2 Q67.0 50.0 67.0 50.4 L67.0 51.6 Q67.0 52.0 66.7 52.2 L64.3 53.8 Q64.0 54.0 64.0 53.6 L64.0 53.4 Q64.0 53.0 64.4 53.0 L64.6 53.0 Q65.0 53.0 65.0 52.6 L65.0 51.4 Q65.0 51.0 65.4 50.8 Z M67.0 54.4 Q67.0 54.0 67.4 54.0 L67.6 54.0 Q68.0 54.0 68.0 54.4 L68.0 54.6 Q68.0 55.0 67.6 55.0 L67.4 55.0 Q67.0 55.0 67.0 54.6 Z" fill="rgb(220,79,77)" stroke="rgb(220,79,77)" stroke-width="0.12"/><path d="M32.0 24.4 Q32.0 24.0 32.4 24.0 L33.6 24.0 Q34.0 24.0 34.0 24.4 L34.0 24.6 Q34.0 25.0 33.6 25.2 L32.4 25.8 Q32.0 26.0 32.0 25.6 Z M32.4 29.0 Q32.0 29.0 32.2 28.6 L32.8 27.4 Q33.0 27.0 33.4 27.0 L34.6 27.0 Q35.0 27.0 35.0 26.6 L35.0 26.4 Q35.0 26.0 35.4 25.8 L36.6 25.2 Q37.0 25.0 36.7 25.3 L34.3 28.7 Q34.0 29.0 33.6 29.0 Z M39.7 26.3 Q40.0 26.0 40.0 26.4 L40.0 26.6 Q40.0 27.0 39.6 27.0 L39.4 27.0 Q39.0 27.0 39.0 27.4 L39.0 27.6 Q39.0 28.0 38.7 28.3 L35.3 30.7 Q35.0 31.0 35.0 30.6 L35.0 30.4 Q35.0 30.0 35.4 30.0 L35.6 30.0 Q36.0 30.0 36.0 29.6 L36.0 29.4 Q36.0 29.0 36.3 28.7 Z M42.7 27.3 Q43.0 27.0 43.0 27.4 L43.0 27.6 Q43.0 28.0 42.6 28.0 L42.4 28.0 Q42.0 28.0 42.0 28.4 L42.0 28.6 Q42.0 29.0 41.6 29.0 L41.4 29.0 Q41.0 29.0 41.0 29.4 L41.0 29.6 Q41.0 30.0 40.7 30.3 L37.3 32.7 Q37.0 33.0 37.0 32.6 L37.0 32.4 Q37.0 32.0 37.4 32.0 L37.6 32.0 Q38.0 32.0 38.0 31.6 L38.0 31.4 Q38.0 31.0 38.4 31.0 L38.6 31.0 Q39.0 31.0 39.0 30.6 L39.0 30.4 Q39.0 30.0 39.3 29.7 Z M40.3 33.7 Q40.0 34.0 40.0 33.6 L40.0 32.4 Q40.0 32.0 40.4 32.0 L41.6 32.0 Q42.0 32.0 42.0 31.6 L42.0 31.4 Q42.0 31.0 42.3 30.7 L45.7 28.3 Q46.0 28.0 46.0 28.4 L46.0 28.6 Q46.0 29.0 45.6 29.0 L45.4 29.0 Q45.0 29.0 45.0 29.4 L45.0 29.6 Q45.0 30.0 44.6 30.0 L44.4 30.0 Q44.0 30.0 44.0 30.4 L44.0 30.6 Q44.0 31.0 43.7 31.3 Z M43.3 34.7 Q43.0 35.0 43.0 34.6 L43.0 33.4 Q43.0 33.0 43.4 33.0 L44.6 33.0 Q45.0 33.0 45.0 32.6 L45.0 32.4 Q45.0 32.0 45.3 31.7 L48.7 29.3 Q49.0 29.0 49.0 29.4 L49.0 29.6 Q49.0 30.0 48.6 30.0 L48.4 30.0 Q48.0 30.0 48.0 30.4 L48.0 30.6 Q48.0 31.0 47.6 31.0 L47.4 31.0 Q47.0 31.0 47.0 31.4 L47.0 31.6 Q47.0 32.0 46.7 32.3 Z M46.3 35.7 Q46.0 36.0 46.0 35.6 L46.0 34.4 Q46.0 34.0 46.4 34.0 L46.6 34.0 Q47.0 34.0 47.0 33.6 L47.0 33.4 Q47.0 33.0 47.4 33.0 L48.6 33.0 Q49.0 33.0 49.0 32.6 L49.0 32.4 Q49.0 32.0 49.4 31.8 L50.6 31.2 Q51.0 31.0 51.0 31.4 L51.0 31.6 Q51.0 32.0 50.6 32.0 L50.4 32.0 Q50.0 32.0 50.0 32.4 L50.0 32.6 Q50.0 33.0 49.7 33.3 Z M49.3 36.7 Q49.0 37.0 49.0 36.6 L49.0 35.4 Q49.0 35.0 49.4 35.0 L49.6 35.0 Q50.0 35.0 50.0 34.6 L50.0 34.4 Q50.0 34.0 50.4 34.0 L51.6 34.0 Q52.0 34.0 52.0 33.6 L52.0 33.4 Q52.0 33.0 52.4 32.8 L53.6 32.2 Q54.0 32.0 54.0 32.4 L54.0 32.6 Q54.0 33.0 53.6 33.0 L53.4 33.0 Q53.0 33.0 53.0 33.4 L53.0 33.6 Q53.0 34.0 52.7 34.3 Z M52.3 37.7 Q52.0 38.0 52.0 37.6 L52.0 36.4 Q52.0 36.0 52.4 36.0 L52.6 36.0 Q53.0 36.0 53.0 35.6 L53.0 35.4 Q53.0 35.0 53.4 35.0 L54.6 35.0 Q55.0 35.0 55.0 34.6 L55.0 34.4 Q55.0 34.0 55.4 33.8 L56.6 33.2 Q57.0 33.0 57.0 33.4 L57.0 33.6 Q57.0 34.0 56.6 34.0 L56.4 34.0 Q56.0 34.0 56.0 34.4 L56.0 34.6 Q56.0 35.0 55.7 35.3 Z M55.3 38.7 Q55.0 39.0 55.0 38.6 L55.0 37.4 Q55.0 37.0 55.4 37.0 L55.6 37.0 Q56.0 37.0 56.2 36.6 L56.8 35.4 Q57.0 35.0 57.4 35.0 L58.6 35.0 Q59.0 35.0 59.0 34.6 L59.0 34.4 Q59.0 34.0 59.4 34.0 L59.6 34.0 Q60.0 34.0 60.0 34.4 L60.0 34.6 Q60.0 35.0 59.6 35.0 L59.4 35.0 Q59.0 35.0 59.0 35.4 L59.0 35.6 Q59.0 36.0 58.7 36.3 Z M57.4 40.0 Q57.0 40.0 57.3 39.7 L59.7 36.3 Q60.0 36.0 60.4 36.0 L61.6 36.0 Q62.0 36.0 62.0 35.6 L62.0 35.4 Q62.0 35.0 62.4 35.0 L62.6 35.0 Q63.0 35.0 63.0 35.4 L63.0 35.6 Q63.0 36.0 62.6 36.0 L62.4 36.0 Q62.0 36.0 61.7 36.3 L59.3 39.7 Q59.0 40.0 58.6 40.0 Z M60.4 41.0 Q60.0 41.0 60.3 40.7 L62.7 37.3 Q63.0 37.0 63.4 37.0 L64.6 37.0 Q65.0 37.0 65.0 36.6 L65.0 36.4 Q65.0 36.0 65.4 36.0 L65.6 36.0 Q66.0 36.0 66.0 36.4 L66.0 36.6 Q66.0 37.0 65.6 37.0 L65.4 37.0 Q65.0 37.0 64.7 37.3 L62.3 40.7 Q62.0 41.0 61.6 41.0 Z M66.7 38.2 Q67.0 38.0 67.0 38.4 L67.0 39.6 Q67.0 40.0 66.7 40.2 L64.3 41.8 Q64.0 42.0 64.0 41.6 L64.0 40.4 Q64.0 40.0 64.3 39.8 Z M33.6 52.2 Q34.0 52.0 34.0 52.4 L34.0 52.6 Q34.0 53.0 33.6 53.2 L32.4 53.8 Q32.0 54.0 32.0 53.6 L32.0 53.4 Q32.0 53.0 32.4 52.8 Z M36.6 53.0 Q37.0 53.0 37.0 53.4 L37.0 53.6 Q37.0 54.0 36.6 54.0 L36.4 54.0 Q36.0 54.0 36.0 54.4 L36.0 54.6 Q36.0 55.0 35.7 55.3 L32.3 57.7 Q32.0 58.0 32.0 57.6 L32.0 56.4 Q32.0 56.0 32.4 56.0 L32.6 56.0 Q33.0 56.0 33.2 55.7 L34.8 53.3 Q35.0 53.0 35.4 53.0 Z M39.7 53.3 Q40.0 53.0 40.0 53.4 L40.0 54.6 Q40.0 55.0 39.7 55.3 L36.3 57.7 Q36.0 58.0 36.0 57.6 L36.0 56.4 Q36.0 56.0 36.3 55.7 Z M42.7 54.3 Q43.0 54.0 43.0 54.4 L43.0 55.6 Q43.0 56.0 42.6 56.0 L42.4 56.0 Q42.0 56.0 41.8 56.4 L41.2 57.6 Q41.0 58.0 40.6 58.0 L39.4 58.0 Q39.0 58.0 39.0 57.6 L39.0 57.4 Q39.0 57.0 39.3 56.7 Z M45.7 55.2 Q46.0 55.0 46.0 55.4 L46.0 56.6 Q46.0 57.0 45.6 57.0 L45.4 57.0 Q45.0 57.0 45.0 57.4 L45.0 57.6 Q45.0 58.0 44.6 58.0 L43.4 58.0 Q43.0 58.0 43.0 57.6 L43.0 57.4 Q43.0 57.0 43.3 56.8 Z M48.6 56.2 Q49.0 56.0 49.0 56.4 L49.0 57.6 Q49.0 58.0 48.6 58.0 L47.4 58.0 Q47.0 58.0 47.0 57.6 L47.0 57.4 Q47.0 57.0 47.4 56.8 Z" fill="rgb(210,140,228)" stroke="rgb(210,140,228)" stroke-width="0.12"/><path d="M32.0 6.4 Q32.0 6.0 32.4 6.0 L32.6 6.0 Q33.0 6.0 33.0 6.4 L33.0 6.6 Q33.0 7.0 32.6 7.0 L32.4 7.0 Q32.0 7.0 32.0 6.6 Z M60.0 6.4 Q60.0 6.0 60.4 6.0 L61.6 6.0 Q62.0 6.0 62.0 6.4 L62.0 6.6 Q62.0 7.0 61.6 7.0 L60.4 7.0 Q60.0 7.0 60.0 6.6 Z M64.0 6.4 Q64.0 6.0 64.4 6.0 L64.6 6.0 Q65.0 6.0 65.0 6.4 L65.0 7.6 Q65.0 8.0 64.6 8.0 L64.4 8.0 Q64.0 8.0 64.0 7.6 Z M35.6 7.2 Q36.0 7.0 36.0 7.4 L36.0 7.6 Q36.0 8.0 35.6 8.2 L34.4 8.8 Q34.0 9.0 34.0 8.6 L34.0 8.4 Q34.0 8.0 34.4 7.8 Z M37.4 11.0 Q37.0 11.0 37.0 10.6 L37.0 9.4 Q37.0 9.0 37.4 8.8 L38.6 8.2 Q39.0 8.0 39.0 8.4 L39.0 8.6 Q39.0 9.0 38.6 9.0 L38.4 9.0 Q38.0 9.0 38.0 9.4 L38.0 10.6 Q38.0 11.0 37.6 11.0 Z M41.0 9.4 Q41.0 9.0 41.4 9.0 L41.6 9.0 Q42.0 9.0 42.0 9.4 L42.0 10.6 Q42.0 11.0 41.6 11.0 L41.4 11.0 Q41.0 11.0 41.0 10.6 Z M38.0 12.4 Q38.0 12.0 38.4 12.0 L38.6 12.0 Q39.0 12.0 39.0 12.4 L39.0 12.6 Q39.0 13.0 38.6 13.0 L38.4 13.0 Q38.0 13.0 38.0 12.6 Z M41.0 13.4 Q41.0 13.0 41.4 13.0 L42.6 13.0 Q43.0 13.0 43.0 13.4 L43.0 13.6 Q43.0 14.0 42.6 14.0 L41.4 14.0 Q41.0 14.0 41.0 13.6 Z M45.0 13.4 Q45.0 13.0 45.4 13.0 L45.6 13.0 Q46.0 13.0 46.0 13.4 L46.0 14.6 Q46.0 15.0 45.6 15.0 L45.4 15.0 Q45.0 15.0 45.0 14.6 Z M61.0 13.4 Q61.0 13.0 61.4 13.0 L61.6 13.0 Q62.0 13.0 62.0 13.4 L62.0 13.6 Q62.0 14.0 61.6 14.0 L61.4 14.0 Q61.0 14.0 61.0 13.6 Z M48.0 14.4 Q48.0 14.0 48.4 14.0 L48.6 14.0 Q49.0 14.0 49.0 14.4 L49.0 14.6 Q49.0 15.0 48.6 15.0 L48.4 15.0 Q48.0 15.0 48.0 14.6 Z M52.0 14.4 Q52.0 14.0 52.4 14.0 L52.6 14.0 Q53.0 14.0 53.0 14.4 L53.0 15.6 Q53.0 16.0 52.6 16.0 L52.4 16.0 Q52.0 16.0 52.0 15.6 Z M55.0 15.4 Q55.0 15.0 55.4 15.0 L55.6 15.0 Q56.0 15.0 56.0 15.4 L56.0 16.6 Q56.0 17.0 55.6 17.0 L55.4 17.0 Q55.0 17.0 55.0 16.6 Z M58.0 16.4 Q58.0 16.0 58.4 16.0 L59.6 16.0 Q60.0 16.0 60.0 16.4 L60.0 16.6 Q60.0 17.0 59.6 17.2 L58.4 17.8 Q58.0 18.0 58.0 17.6 Z M62.0 16.4 Q62.0 16.0 62.4 16.0 L62.6 16.0 Q63.0 16.0 63.0 16.4 L63.0 17.6 Q63.0 18.0 62.6 18.0 L62.4 18.0 Q62.0 18.0 62.0 17.6 Z M65.0 17.4 Q65.0 17.0 65.4 17.0 L65.6 17.0 Q66.0 17.0 66.0 17.4 L66.0 18.6 Q66.0 19.0 65.6 19.0 L65.4 19.0 Q65.0 19.0 65.0 18.6 Z M36.0 18.4 Q36.0 18.0 36.4 18.0 L36.6 18.0 Q37.0 18.0 37.0 18.4 L37.0 18.6 Q37.0 19.0 36.6 19.0 L36.4 19.0 Q36.0 19.0 36.0 18.6 Z M39.0 19.4 Q39.0 19.0 39.4 19.0 L39.6 19.0 Q40.0 19.0 40.0 19.4 L40.0 20.6 Q40.0 21.0 39.6 21.0 L39.4 21.0 Q39.0 21.0 39.0 20.6 Z M42.0 20.4 Q42.0 20.0 42.4 20.0 L42.6 20.0 Q43.0 20.0 43.0 20.4 L43.0 21.6 Q43.0 22.0 42.6 22.0 L42.4 22.0 Q42.0 22.0 42.0 21.6 Z M33.0 21.4 Q33.0 21.0 33.4 21.0 L33.6 21.0 Q34.0 21.0 34.0 21.4 L34.0 22.6 Q34.0 23.0 33.6 23.0 L33.4 23.0 Q33.0 23.0 33.0 22.6 Z M45.0 21.4 Q45.0 21.0 45.4 21.0 L45.6 21.0 Q46.0 21.0 46.0 21.4 L46.0 21.6 Q46.0 22.0 45.6 22.0 L45.4 22.0 Q45.0 22.0 45.0 21.6 Z M36.0 22.4 Q36.0 22.0 36.4 22.0 L36.6 22.0 Q37.0 22.0 37.0 22.4 L37.0 22.6 Q37.0 23.0 36.6 23.0 L36.4 23.0 Q36.0 23.0 36.0 22.6 Z M49.0 22.4 Q49.0 22.0 49.4 22.0 L49.6 22.0 Q50.0 22.0 50.0 22.4 L50.0 22.6 Q50.0 23.0 49.6 23.0 L49.4 23.0 Q49.0 23.0 49.0 22.6 Z M52.0 22.4 Q52.0 22.0 52.4 22.0 L52.6 22.0 Q53.0 22.0 53.0 22.4 L53.0 23.6 Q53.0 24.0 52.6 24.0 L52.4 24.0 Q52.0 24.0 52.0 23.6 Z M39.0 23.4 Q39.0 23.0 39.4 23.0 L39.6 23.0 Q40.0 23.0 40.0 23.4 L40.0 23.6 Q40.0 24.0 39.6 24.0 L39.4 24.0 Q39.0 24.0 39.0 23.6 Z M43.0 23.4 Q43.0 23.0 43.4 23.0 L43.6 23.0 Q44.0 23.0 44.0 23.4 L44.0 23.6 Q44.0 24.0 43.6 24.0 L43.4 24.0 Q43.0 24.0 43.0 23.6 Z" fill="rgb(109,86,52)" stroke="rgb(109,86,52)" stroke-width="0.12"/><path d="M44.0 24.4 Q44.0 24.0 44.4 24.0 L45.6 24.0 Q46.0 24.0 46.0 24.4 L46.0 24.6 Q46.0 25.0 45.6 25.0 L44.4 25.0 Q44.0 25.0 44.0 24.6 Z M47.0 25.4 Q47.0 25.0 47.4 25.0 L48.6 25.0 Q49.0 25.0 49.0 25.4 L49.0 25.6 Q49.0 26.0 48.6 26.0 L47.4 26.0 Q47.0 26.0 47.0 25.6 Z M50.0 26.4 Q50.0 26.0 50.4 26.0 L51.6 26.0 Q52.0 26.0 52.0 26.4 L52.0 26.6 Q52.0 27.0 51.6 27.0 L50.4 27.0 Q50.0 27.0 50.0 26.6 Z M53.0 27.4 Q53.0 27.0 53.4 27.0 L54.6 27.0 Q55.0 27.0 55.0 27.4 L55.0 27.6 Q55.0 28.0 54.6 28.0 L53.4 28.0 Q53.0 28.0 53.0 27.6 Z M56.0 28.4 Q56.0 28.0 56.4 28.0 L57.6 28.0 Q58.0 28.0 58.0 28.4 L58.0 28.6 Q58.0 29.0 57.6 29.0 L56.4 29.0 Q56.0 29.0 56.0 28.6 Z M59.0 29.4 Q59.0 29.0 59.4 29.0 L60.6 29.0 Q61.0 29.0 61.0 29.4 L61.0 29.6 Q61.0 30.0 60.6 30.0 L59.4 30.0 Q59.0 30.0 59.0 29.6 Z M63.0 30.4 Q63.0 30.0 63.4 30.0 L63.6 30.0 Q64.0 30.0 64.0 30.4 L64.0 30.6 Q64.0 31.0 63.6 31.0 L63.4 31.0 Q63.0 31.0 63.0 30.6 Z M66.0 31.4 Q66.0 31.0 66.4 31.0 L66.6 31.0 Q67.0 31.0 67.0 31.4 L67.0 31.6 Q67.0 32.0 66.6 32.0 L66.4 32.0 Q66.0 32.0 66.0 31.6 Z M36.0 37.4 Q36.0 37.0 36.4 37.0 L36.6 37.0 Q37.0 37.0 37.0 37.4 L37.0 37.6 Q37.0 38.0 36.6 38.0 L36.4 38.0 Q36.0 38.0 36.0 37.6 Z M39.0 38.4 Q39.0 38.0 39.4 38.0 L39.6 38.0 Q40.0 38.0 40.0 38.4 L40.0 38.6 Q40.0 39.0 39.6 39.0 L39.4 39.0 Q39.0 39.0 39.0 38.6 Z M42.0 39.4 Q42.0 39.0 42.4 39.0 L42.6 39.0 Q43.0 39.0 43.0 39.4 L43.0 39.6 Q43.0 40.0 42.6 40.0 L42.4 40.0 Q42.0 40.0 42.0 39.6 Z M45.0 40.4 Q45.0 40.0 45.4 40.0 L45.6 40.0 Q46.0 40.0 46.0 40.4 L46.0 40.6 Q46.0 41.0 45.6 41.0 L45.4 41.0 Q45.0 41.0 45.0 40.6 Z M48.0 41.4 Q48.0 41.0 48.4 41.0 L48.6 41.0 Q49.0 41.0 49.0 41.4 L49.0 41.6 Q49.0 42.0 48.6 42.0 L48.4 42.0 Q48.0 42.0 48.0 41.6 Z M51.0 42.4 Q51.0 42.0 51.4 42.0 L51.6 42.0 Q52.0 42.0 52.0 42.4 L52.0 42.6 Q52.0 43.0 51.6 43.0 L51.4 43.0 Q51.0 43.0 51.0 42.6 Z M54.0 43.4 Q54.0 43.0 54.4 43.0 L54.6 43.0 Q55.0 43.0 55.0 43.4 L55.0 43.6 Q55.0 44.0 54.6 44.0 L54.4 44.0 Q54.0 44.0 54.0 43.6 Z M57.0 44.4 Q57.0 44.0 57.4 44.0 L57.6 44.0 Q58.0 44.0 58.0 44.4 L58.0 44.6 Q58.0 45.0 57.6 45.0 L57.4 45.0 Q57.0 45.0 57.0 44.6 Z M31.0 45.4 Q31.0 45.0 31.4 45.0 L31.6 45.0 Q32.0 45.0 32.0 45.4 L32.0 45.6 Q32.0 46.0 31.6 46.0 L31.4 46.0 Q31.0 46.0 31.0 45.6 Z M60.0 45.4 Q60.0 45.0 60.4 45.0 L60.6 45.0 Q61.0 45.0 61.0 45.4 L61.0 45.6 Q61.0 46.0 60.6 46.0 L60.4 46.0 Q60.0 46.0 60.0 45.6 Z M35.0 46.4 Q35.0 46.0 35.4 46.0 L35.6 46.0 Q36.0 46.0 36.0 46.4 L36.0 46.6 Q36.0 47.0 35.6 47.0 L35.4 47.0 Q35.0 47.0 35.0 46.6 Z M63.0 46.4 Q63.0 46.0 63.4 46.0 L63.6 46.0 Q64.0 46.0 64.0 46.4 L64.0 46.6 Q64.0 47.0 63.6 47.0 L63.4 47.0 Q63.0 47.0 63.0 46.6 Z M38.0 47.4 Q38.0 47.0 38.4 47.0 L38.6 47.0 Q39.0 47.0 39.0 47.4 L39.0 47.6 Q39.0 48.0 38.6 48.0 L38.4 48.0 Q38.0 48.0 38.0 47.6 Z M65.0 47.4 Q65.0 47.0 65.4 47.0 L65.6 47.0 Q66.0 47.0 66.0 47.4 L66.0 47.6 Q66.0 48.0 65.6 48.0 L65.4 48.0 Q65.0 48.0 65.0 47.6 Z M41.0 48.4 Q41.0 48.0 41.4 48.0 L41.6 48.0 Q42.0 48.0 42.0 48.4 L42.0 48.6 Q42.0 49.0 41.6 49.0 L41.4 49.0 Q41.0 49.0 41.0 48.6 Z M68.0 48.4 Q68.0 48.0 68.4 48.0 L68.6 48.0 Q69.0 48.0 69.0 48.4 L69.0 48.6 Q69.0 49.0 68.6 49.0 L68.4 49.0 Q68.0 49.0 68.0 48.6 Z M44.0 49.4 Q44.0 49.0 44.4 49.0 L44.6 49.0 Q45.0 49.0 45.0 49.4 L45.0 49.6 Q45.0 50.0 44.6 50.0 L44.4 50.0 Q44.0 50.0 44.0 49.6 Z M47.0 50.4 Q47.0 50.0 47.4 50.0 L47.6 50.0 Q48.0 50.0 48.0 50.4 L48.0 50.6 Q48.0 51.0 47.6 51.0 L47.4 51.0 Q47.0 51.0 47.0 50.6 Z M50.0 51.4 Q50.0 51.0 50.4 51.0 L50.6 51.0 Q51.0 51.0 51.0 51.4 L51.0 51.6 Q51.0 52.0 50.6 52.0 L50.4 52.0 Q50.0 52.0 50.0 51.6 Z M53.0 52.4 Q53.0 52.0 53.4 52.0 L53.6 52.0 Q54.0 52.0 54.0 52.4 L54.0 52.6 Q54.0 53.0 53.6 53.0 L53.4 53.0 Q53.0 53.0 53.0 52.6 Z M56.0 53.4 Q56.0 53.0 56.4 53.0 L56.6 53.0 Q57.0 53.0 57.0 53.4 L57.0 53.6 Q57.0 54.0 56.6 54.0 L56.4 54.0 Q56.0 54.0 56.0 53.6 Z M59.0 54.4 Q59.0 54.0 59.4 54.0 L59.6 54.0 Q60.0 54.0 60.0 54.4 L60.0 54.6 Q60.0 55.0 59.6 55.0 L59.4 55.0 Q59.0 55.0 59.0 54.6 Z M62.0 55.4 Q62.0 55.0 62.4 55.0 L62.6 55.0 Q63.0 55.0 63.0 55.4 L63.0 55.6 Q63.0 56.0 62.6 56.0 L62.4 56.0 Q62.0 56.0 62.0 55.6 Z M65.0 56.4 Q65.0 56.0 65.4 56.0 L65.6 56.0 Q66.0 56.0 66.0 56.4 L66.0 56.6 Q66.0 57.0 65.6 57.0 L65.4 57.0 Q65.0 57.0 65.0 56.6 Z" fill="rgb(146,67,112)" stroke="rgb(146,67,112)" stroke-width="0.12"/><path d="M37.0 24.4 Q37.0 24.0 37.4 24.0 L37.6 24.0 Q38.0 24.0 38.0 24.4 L38.0 24.6 Q38.0 25.0 37.6 25.0 L37.4 25.0 Q37.0 25.0 37.0 24.6 Z M40.0 25.4 Q40.0 25.0 40.4 25.0 L40.6 25.0 Q41.0 25.0 41.0 25.4 L41.0 25.6 Q41.0 26.0 40.6 26.0 L40.4 26.0 Q40.0 26.0 40.0 25.6 Z M43.0 26.4 Q43.0 26.0 43.4 26.0 L43.6 26.0 Q44.0 26.0 44.0 26.4 L44.0 26.6 Q44.0 27.0 43.6 27.0 L43.4 27.0 Q43.0 27.0 43.0 26.6 Z M46.0 27.4 Q46.0 27.0 46.4 27.0 L46.6 27.0 Q47.0 27.0 47.0 27.4 L47.0 27.6 Q47.0 28.0 46.6 28.0 L46.4 28.0 Q46.0 28.0 46.0 27.6 Z M49.0 28.4 Q49.0 28.0 49.4 28.0 L49.6 28.0 Q50.0 28.0 50.0 28.4 L50.0 28.6 Q50.0 29.0 49.6 29.0 L49.4 29.0 Q49.0 29.0 49.0 28.6 Z M52.0 29.4 Q52.0 29.0 52.4 29.0 L52.6 29.0 Q53.0 29.0 53.0 29.4 L53.0 29.6 Q53.0 30.0 52.6 30.0 L52.4 30.0 Q52.0 30.0 52.0 29.6 Z M55.0 30.4 Q55.0 30.0 55.4 30.0 L55.6 30.0 Q56.0 30.0 56.0 30.4 L56.0 30.6 Q56.0 31.0 55.6 31.0 L55.4 31.0 Q55.0 31.0 55.0 30.6 Z M58.0 31.4 Q58.0 31.0 58.4 31.0 L58.6 31.0 Q59.0 31.0 59.0 31.4 L59.0 31.6 Q59.0 32.0 58.6 32.0 L58.4 32.0 Q58.0 32.0 58.0 31.6 Z M33.0 32.4 Q33.0 32.0 33.4 32.0 L33.6 32.0 Q34.0 32.0 34.0 32.4 L34.0 32.6 Q34.0 33.0 33.6 33.0 L33.4 33.0 Q33.0 33.0 33.0 32.6 Z M61.0 32.4 Q61.0 32.0 61.4 32.0 L61.6 32.0 Q62.0 32.0 62.0 32.4 L62.0 32.6 Q62.0 33.0 61.6 33.0 L61.4 33.0 Q61.0 33.0 61.0 32.6 Z M35.0 33.4 Q35.0 33.0 35.4 33.0 L36.6 33.0 Q37.0 33.0 37.0 33.4 L37.0 33.6 Q37.0 34.0 36.6 34.0 L35.4 34.0 Q35.0 34.0 35.0 33.6 Z M64.0 33.4 Q64.0 33.0 64.4 33.0 L64.6 33.0 Q65.0 33.0 65.0 33.4 L65.0 33.6 Q65.0 34.0 64.6 34.0 L64.4 34.0 Q64.0 34.0 64.0 33.6 Z M38.0 34.4 Q38.0 34.0 38.4 34.0 L39.6 34.0 Q40.0 34.0 40.0 34.4 L40.0 34.6 Q40.0 35.0 39.6 35.0 L38.4 35.0 Q38.0 35.0 38.0 34.6 Z M67.0 34.4 Q67.0 34.0 67.4 34.0 L67.6 34.0 Q68.0 34.0 68.0 34.4 L68.0 34.6 Q68.0 35.0 67.6 35.0 L67.4 35.0 Q67.0 35.0 67.0 34.6 Z M41.0 35.4 Q41.0 35.0 41.4 35.0 L42.6 35.0 Q43.0 35.0 43.0 35.4 L43.0 35.6 Q43.0 36.0 42.6 36.0 L41.4 36.0 Q41.0 36.0 41.0 35.6 Z M44.0 36.4 Q44.0 36.0 44.4 36.0 L45.6 36.0 Q46.0 36.0 46.0 36.4 L46.0 36.6 Q46.0 37.0 45.6 37.0 L44.4 37.0 Q44.0 37.0 44.0 36.6 Z M47.0 37.4 Q47.0 37.0 47.4 37.0 L48.6 37.0 Q49.0 37.0 49.0 37.4 L49.0 37.6 Q49.0 38.0 48.6 38.0 L47.4 38.0 Q47.0 38.0 47.0 37.6 Z M50.0 38.4 Q50.0 38.0 50.4 38.0 L51.6 38.0 Q52.0 38.0 52.0 38.4 L52.0 38.6 Q52.0 39.0 51.6 39.0 L50.4 39.0 Q50.0 39.0 50.0 38.6 Z M54.0 39.4 Q54.0 39.0 54.4 39.0 L54.6 39.0 Q55.0 39.0 55.0 39.4 L55.0 39.6 Q55.0 40.0 54.6 40.0 L54.4 40.0 Q54.0 40.0 54.0 39.6 Z M31.0 49.4 Q31.0 49.0 31.4 49.0 L31.6 49.0 Q32.0 49.0 32.0 49.4 L32.0 49.6 Q32.0 50.0 31.6 50.0 L31.4 50.0 Q31.0 50.0 31.0 49.6 Z M35.0 50.4 Q35.0 50.0 35.4 50.0 L35.6 50.0 Q36.0 50.0 36.0 50.4 L36.0 50.6 Q36.0 51.0 35.6 51.0 L35.4 51.0 Q35.0 51.0 35.0 50.6 Z M38.0 51.4 Q38.0 51.0 38.4 51.0 L38.6 51.0 Q39.0 51.0 39.0 51.4 L39.0 51.6 Q39.0 52.0 38.6 52.0 L38.4 52.0 Q38.0 52.0 38.0 51.6 Z M41.0 52.4 Q41.0 52.0 41.4 52.0 L41.6 52.0 Q42.0 52.0 42.0 52.4 L42.0 52.6 Q42.0 53.0 41.6 53.0 L41.4 53.0 Q41.0 53.0 41.0 52.6 Z M44.0 53.4 Q44.0 53.0 44.4 53.0 L44.6 53.0 Q45.0 53.0 45.0 53.4 L45.0 53.6 Q45.0 54.0 44.6 54.0 L44.4 54.0 Q44.0 54.0 44.0 53.6 Z M46.0 54.4 Q46.0 54.0 46.4 54.0 L47.6 54.0 Q48.0 54.0 48.0 54.4 L48.0 54.6 Q48.0 55.0 47.6 55.0 L46.4 55.0 Q46.0 55.0 46.0 54.6 Z M49.0 55.4 Q49.0 55.0 49.4 55.0 L50.6 55.0 Q51.0 55.0 51.0 55.4 L51.0 55.6 Q51.0 56.0 50.6 56.0 L49.4 56.0 Q49.0 56.0 49.0 55.6 Z M52.0 56.4 Q52.0 56.0 52.4 56.0 L53.6 56.0 Q54.0 56.0 54.0 56.4 L54.0 56.6 Q54.0 57.0 53.6 57.0 L52.4 57.0 Q52.0 57.0 52.0 56.6 Z M55.0 57.4 Q55.0 57.0 55.4 57.0 L56.6 57.0 Q57.0 57.0 57.0 57.4 L57.0 57.6 Q57.0 58.0 56.6 58.0 L55.4 58.0 Q55.0 58.0 55.0 57.6 Z" fill="rgb(125,93,168)" stroke="rgb(125,93,168)" stroke-width="0.12"/><path d="M59.0 8.4 Q59.0 8.0 59.4 8.0 L59.6 8.0 Q60.0 8.0 60.0 8.4 L60.0 8.6 Q60.0 9.0 59.6 9.0 L59.4 9.0 Q59.0 9.0 59.0 8.6 Z M62.0 9.4 Q62.0 9.0 62.4 9.0 L62.6 9.0 Q63.0 9.0 63.0 9.4 L63.0 9.6 Q63.0 10.0 62.6 10.0 L62.4 10.0 Q62.0 10.0 62.0 9.6 Z M36.0 10.4 Q36.0 10.0 36.4 10.0 L36.6 10.0 Q37.0 10.0 37.0 10.4 L37.0 10.6 Q37.0 11.0 36.6 11.0 L36.4 11.0 Q36.0 11.0 36.0 10.6 Z M40.6 10.2 Q41.0 10.0 41.0 10.4 L41.0 11.6 Q41.0 12.0 40.6 12.2 L39.4 12.8 Q39.0 13.0 39.0 12.6 L39.0 11.4 Q39.0 11.0 39.4 10.8 Z M43.6 11.2 Q44.0 11.0 44.0 11.4 L44.0 12.6 Q44.0 13.0 43.6 13.0 L42.4 13.0 Q42.0 13.0 42.0 12.6 L42.0 12.4 Q42.0 12.0 42.4 11.8 Z M54.6 12.2 Q55.0 12.0 55.0 12.4 L55.0 13.6 Q55.0 14.0 54.6 14.2 L53.4 14.8 Q53.0 15.0 53.0 14.6 L53.0 13.4 Q53.0 13.0 53.4 12.8 Z M46.0 13.4 Q46.0 13.0 46.4 13.0 L46.6 13.0 Q47.0 13.0 47.0 13.4 L47.0 13.6 Q47.0 14.0 46.6 14.0 L46.4 14.0 Q46.0 14.0 46.0 13.6 Z M57.6 13.2 Q58.0 13.0 58.0 13.4 L58.0 14.6 Q58.0 15.0 57.6 15.2 L56.4 15.8 Q56.0 16.0 56.0 15.6 L56.0 14.4 Q56.0 14.0 56.4 13.8 Z M61.6 14.0 Q62.0 14.0 61.8 14.4 L61.2 15.6 Q61.0 16.0 60.6 16.0 L59.4 16.0 Q59.0 16.0 59.2 15.6 L59.8 14.4 Q60.0 14.0 60.4 14.0 Z M64.6 14.2 Q65.0 14.0 65.0 14.4 L65.0 15.6 Q65.0 16.0 64.6 16.2 L63.4 16.8 Q63.0 17.0 63.0 16.6 L63.0 15.4 Q63.0 15.0 63.4 14.8 Z M66.0 17.4 Q66.0 17.0 66.4 17.0 L66.6 17.0 Q67.0 17.0 67.0 17.4 L67.0 17.6 Q67.0 18.0 66.6 18.0 L66.4 18.0 Q66.0 18.0 66.0 17.6 Z M47.0 19.4 Q47.0 19.0 47.4 19.0 L47.6 19.0 Q48.0 19.0 48.0 19.4 L48.0 19.6 Q48.0 20.0 47.6 20.0 L47.4 20.0 Q47.0 20.0 47.0 19.6 Z M50.0 20.4 Q50.0 20.0 50.4 20.0 L50.6 20.0 Q51.0 20.0 51.0 20.4 L51.0 20.6 Q51.0 21.0 50.6 21.0 L50.4 21.0 Q50.0 21.0 50.0 20.6 Z M53.0 21.4 Q53.0 21.0 53.4 21.0 L53.6 21.0 Q54.0 21.0 54.0 21.4 L54.0 21.6 Q54.0 22.0 53.6 22.0 L53.4 22.0 Q53.0 22.0 53.0 21.6 Z M57.0 21.4 Q57.0 21.0 57.4 21.0 L57.6 21.0 Q58.0 21.0 58.0 21.4 L58.0 21.6 Q58.0 22.0 57.6 22.0 L57.4 22.0 Q57.0 22.0 57.0 21.6 Z M60.0 22.4 Q60.0 22.0 60.4 22.0 L60.6 22.0 Q61.0 22.0 61.0 22.4 L61.0 22.6 Q61.0 23.0 60.6 23.0 L60.4 23.0 Q60.0 23.0 60.0 22.6 Z M63.0 23.4 Q63.0 23.0 63.4 23.0 L63.6 23.0 Q64.0 23.0 64.0 23.4 L64.0 23.6 Q64.0 24.0 63.6 24.0 L63.4 24.0 Q63.0 24.0 63.0 23.6 Z M67.0 23.4 Q67.0 23.0 67.4 23.0 L67.6 23.0 Q68.0 23.0 68.0 23.4 L68.0 23.6 Q68.0 24.0 67.6 24.0 L67.4 24.0 Q67.0 24.0 67.0 23.6 Z" fill="rgb(255,86,34)" stroke="rgb(255,86,34)" stroke-width="0.12"/><path d="M51.0 30.4 Q51.0 30.0 51.4 30.0 L51.6 30.0 Q52.0 30.0 52.0 30.4 L52.0 30.6 Q52.0 31.0 51.6 31.0 L51.4 31.0 Q51.0 31.0 51.0 30.6 Z M33.0 31.4 Q33.0 31.0 33.4 31.0 L34.6 31.0 Q35.0 31.0 35.0 31.4 L35.0 31.6 Q35.0 32.0 34.6 32.0 L33.4 32.0 Q33.0 32.0 33.0 31.6 Z M54.0 31.4 Q54.0 31.0 54.4 31.0 L54.6 31.0 Q55.0 31.0 55.0 31.4 L55.0 31.6 Q55.0 32.0 54.6 32.0 L54.4 32.0 Q54.0 32.0 54.0 31.6 Z M36.0 32.4 Q36.0 32.0 36.4 32.0 L36.6 32.0 Q37.0 32.0 37.0 32.4 L37.0 32.6 Q37.0 33.0 36.6 33.0 L36.4 33.0 Q36.0 33.0 36.0 32.6 Z M57.0 32.4 Q57.0 32.0 57.4 32.0 L57.6 32.0 Q58.0 32.0 58.0 32.4 L58.0 32.6 Q58.0 33.0 57.6 33.0 L57.4 33.0 Q57.0 33.0 57.0 32.6 Z M39.0 33.4 Q39.0 33.0 39.4 33.0 L39.6 33.0 Q40.0 33.0 40.0 33.4 L40.0 33.6 Q40.0 34.0 39.6 34.0 L39.4 34.0 Q39.0 34.0 39.0 33.6 Z M60.0 33.4 Q60.0 33.0 60.4 33.0 L60.6 33.0 Q61.0 33.0 61.0 33.4 L61.0 33.6 Q61.0 34.0 60.6 34.0 L60.4 34.0 Q60.0 34.0 60.0 33.6 Z M42.0 34.4 Q42.0 34.0 42.4 34.0 L42.6 34.0 Q43.0 34.0 43.0 34.4 L43.0 34.6 Q43.0 35.0 42.6 35.0 L42.4 35.0 Q42.0 35.0 42.0 34.6 Z M63.0 34.4 Q63.0 34.0 63.4 34.0 L63.6 34.0 Q64.0 34.0 64.0 34.4 L64.0 34.6 Q64.0 35.0 63.6 35.0 L63.4 35.0 Q63.0 35.0 63.0 34.6 Z M45.0 35.4 Q45.0 35.0 45.4 35.0 L45.6 35.0 Q46.0 35.0 46.0 35.4 L46.0 35.6 Q46.0 36.0 45.6 36.0 L45.4 36.0 Q45.0 36.0 45.0 35.6 Z M66.0 35.4 Q66.0 35.0 66.4 35.0 L66.6 35.0 Q67.0 35.0 67.0 35.4 L67.0 35.6 Q67.0 36.0 66.6 36.0 L66.4 36.0 Q66.0 36.0 66.0 35.6 Z M48.0 36.4 Q48.0 36.0 48.4 36.0 L48.6 36.0 Q49.0 36.0 49.0 36.4 L49.0 36.6 Q49.0 37.0 48.6 37.0 L48.4 37.0 Q48.0 37.0 48.0 36.6 Z M51.0 37.4 Q51.0 37.0 51.4 37.0 L51.6 37.0 Q52.0 37.0 52.0 37.4 L52.0 37.6 Q52.0 38.0 51.6 38.0 L51.4 38.0 Q51.0 38.0 51.0 37.6 Z M54.0 38.4 Q54.0 38.0 54.4 38.0 L54.6 38.0 Q55.0 38.0 55.0 38.4 L55.0 38.6 Q55.0 39.0 54.6 39.0 L54.4 39.0 Q54.0 39.0 54.0 38.6 Z M31.0 50.4 Q31.0 50.0 31.4 50.0 L31.6 50.0 Q32.0 50.0 32.0 50.4 L32.0 50.6 Q32.0 51.0 31.6 51.0 L31.4 51.0 Q31.0 51.0 31.0 50.6 Z M34.0 51.4 Q34.0 51.0 34.4 51.0 L34.6 51.0 Q35.0 51.0 35.0 51.4 L35.0 51.6 Q35.0 52.0 34.6 52.0 L34.4 52.0 Q34.0 52.0 34.0 51.6 Z M37.0 52.4 Q37.0 52.0 37.4 52.0 L37.6 52.0 Q38.0 52.0 38.0 52.4 L38.0 52.6 Q38.0 53.0 37.6 53.0 L37.4 53.0 Q37.0 53.0 37.0 52.6 Z M40.0 53.4 Q40.0 53.0 40.4 53.0 L40.6 53.0 Q41.0 53.0 41.0 53.4 L41.0 53.6 Q41.0 54.0 40.6 54.0 L40.4 54.0 Q40.0 54.0 40.0 53.6 Z M43.0 54.4 Q43.0 54.0 43.4 54.0 L43.6 54.0 Q44.0 54.0 44.0 54.4 L44.0 54.6 Q44.0 55.0 43.6 55.0 L43.4 55.0 Q43.0 55.0 43.0 54.6 Z M46.0 55.4 Q46.0 55.0 46.4 55.0 L46.6 55.0 Q47.0 55.0 47.0 55.4 L47.0 55.6 Q47.0 56.0 46.6 56.0 L46.4 56.0 Q46.0 56.0 46.0 55.6 Z M49.0 56.4 Q49.0 56.0 49.4 56.0 L49.6 56.0 Q50.0 56.0 50.0 56.4 L50.0 56.6 Q50.0 57.0 49.6 57.0 L49.4 57.0 Q49.0 57.0 49.0 56.6 Z M31.0 57.4 Q31.0 57.0 31.4 57.0 L31.6 57.0 Q32.0 57.0 32.0 57.4 L32.0 57.6 Q32.0 58.0 31.6 58.0 L31.4 58.0 Q31.0 58.0 31.0 57.6 Z M51.0 57.4 Q51.0 57.0 51.4 57.0 L52.6 57.0 Q53.0 57.0 53.0 57.4 L53.0 57.6 Q53.0 58.0 52.6 58.0 L51.4 58.0 Q51.0 58.0 51.0 57.6 Z" fill="rgb(184,125,208)" stroke="rgb(184,125,208)" stroke-width="0.12"/><path d="M40.0 24.4 Q40.0 24.0 40.4 24.0 L41.6 24.0 Q42.0 24.0 42.0 24.4 L42.0 24.6 Q42.0 25.0 41.6 25.0 L40.4 25.0 Q40.0 25.0 40.0 24.6 Z M43.0 25.4 Q43.0 25.0 43.4 25.0 L44.6 25.0 Q45.0 25.0 45.0 25.4 L45.0 25.6 Q45.0 26.0 44.6 26.0 L43.4 26.0 Q43.0 26.0 43.0 25.6 Z M47.0 26.4 Q47.0 26.0 47.4 26.0 L47.6 26.0 Q48.0 26.0 48.0 26.4 L48.0 26.6 Q48.0 27.0 47.6 27.0 L47.4 27.0 Q47.0 27.0 47.0 26.6 Z M50.0 27.4 Q50.0 27.0 50.4 27.0 L50.6 27.0 Q51.0 27.0 51.0 27.4 L51.0 27.6 Q51.0 28.0 50.6 28.0 L50.4 28.0 Q50.0 28.0 50.0 27.6 Z M59.0 42.4 Q59.0 42.0 59.4 42.0 L59.6 42.0 Q60.0 42.0 60.0 42.4 L60.0 42.6 Q60.0 43.0 59.6 43.0 L59.4 43.0 Q59.0 43.0 59.0 42.6 Z M62.0 43.4 Q62.0 43.0 62.4 43.0 L62.6 43.0 Q63.0 43.0 63.0 43.4 L63.0 43.6 Q63.0 44.0 62.6 44.0 L62.4 44.0 Q62.0 44.0 62.0 43.6 Z M64.0 45.4 Q64.0 45.0 64.4 45.0 L64.6 45.0 Q65.0 45.0 65.0 45.4 L65.0 45.6 Q65.0 46.0 64.6 46.0 L64.4 46.0 Q64.0 46.0 64.0 45.6 Z M68.0 45.4 Q68.0 45.0 68.4 45.0 L68.6 45.0 Q69.0 45.0 69.0 45.4 L69.0 45.6 Q69.0 46.0 68.6 46.0 L68.4 46.0 Q68.0 46.0 68.0 45.6 Z M31.0 46.4 Q31.0 46.0 31.4 46.0 L31.6 46.0 Q32.0 46.0 32.0 46.4 L32.0 46.6 Q32.0 47.0 31.6 47.0 L31.4 47.0 Q31.0 47.0 31.0 46.6 Z M34.0 47.4 Q34.0 47.0 34.4 47.0 L34.6 47.0 Q35.0 47.0 35.0 47.4 L35.0 47.6 Q35.0 48.0 34.6 48.0 L34.4 48.0 Q34.0 48.0 34.0 47.6 Z M37.0 48.4 Q37.0 48.0 37.4 48.0 L37.6 48.0 Q38.0 48.0 38.0 48.4 L38.0 48.6 Q38.0 49.0 37.6 49.0 L37.4 49.0 Q37.0 49.0 37.0 48.6 Z" fill="rgb(76,59,126)" stroke="rgb(76,59,126)" stroke-width="0.12"/><path d="M60.0 28.4 Q60.0 28.0 60.4 28.0 L60.6 28.0 Q61.0 28.0 61.0 28.4 L61.0 28.6 Q61.0 29.0 60.6 29.0 L60.4 29.0 Q60.0 29.0 60.0 28.6 Z M63.0 29.4 Q63.0 29.0 63.4 29.0 L63.6 29.0 Q64.0 29.0 64.0 29.4 L64.0 29.6 Q64.0 30.0 63.6 30.0 L63.4 30.0 Q63.0 30.0 63.0 29.6 Z M66.0 30.4 Q66.0 30.0 66.4 30.0 L66.6 30.0 Q67.0 30.0 67.0 30.4 L67.0 30.6 Q67.0 31.0 66.6 31.0 L66.4 31.0 Q66.0 31.0 66.0 30.6 Z M35.0 38.4 Q35.0 38.0 35.4 38.0 L35.6 38.0 Q36.0 38.0 36.0 38.4 L36.0 38.6 Q36.0 39.0 35.6 39.0 L35.4 39.0 Q35.0 39.0 35.0 38.6 Z M38.0 39.4 Q38.0 39.0 38.4 39.0 L38.6 39.0 Q39.0 39.0 39.0 39.4 L39.0 39.6 Q39.0 40.0 38.6 40.0 L38.4 40.0 Q38.0 40.0 38.0 39.6 Z M41.0 40.4 Q41.0 40.0 41.4 40.0 L41.6 40.0 Q42.0 40.0 42.0 40.4 L42.0 40.6 Q42.0 41.0 41.6 41.0 L41.4 41.0 Q41.0 41.0 41.0 40.6 Z M60.0 53.4 Q60.0 53.0 60.4 53.0 L60.6 53.0 Q61.0 53.0 61.0 53.4 L61.0 53.6 Q61.0 54.0 60.6 54.0 L60.4 54.0 Q60.0 54.0 60.0 53.6 Z M63.0 54.4 Q63.0 54.0 63.4 54.0 L63.6 54.0 Q64.0 54.0 64.0 54.4 L64.0 54.6 Q64.0 55.0 63.6 55.0 L63.4 55.0 Q63.0 55.0 63.0 54.6 Z M66.0 55.4 Q66.0 55.0 66.4 55.0 L66.6 55.0 Q67.0 55.0 67.0 55.4 L67.0 55.6 Q67.0 56.0 66.6 56.0 L66.4 56.0 Q66.0 56.0 66.0 55.6 Z" fill="rgb(182,72,99)" stroke="rgb(182,72,99)" stroke-width="0.12"/><path d="M37.0 17.4 Q37.0 17.0 37.4 17.0 L37.6 17.0 Q38.0 17.0 38.0 17.4 L38.0 18.6 Q38.0 19.0 38.4 19.0 L38.6 19.0 Q39.0 19.0 39.0 19.4 L39.0 19.6 Q39.0 20.0 38.6 20.0 L37.4 20.0 Q37.0 20.0 37.0 19.6 Z M42.6 17.1 Q43.0 17.0 43.0 17.4 L43.0 17.6 Q43.0 18.0 42.6 18.1 L39.4 18.9 Q39.0 19.0 39.0 18.6 L39.0 18.4 Q39.0 18.0 39.4 17.9 Z" fill="rgb(255,255,255)" stroke="rgb(255,255,255)" stroke-width="0.12"/><path d="M36.0 24.4 Q36.0 24.0 36.4 24.0 L36.6 24.0 Q37.0 24.0 37.0 24.4 L37.0 24.6 Q37.0 25.0 36.6 25.0 L36.4 25.0 Q36.0 25.0 36.0 24.6 Z M39.0 25.4 Q39.0 25.0 39.4 25.0 L39.6 25.0 Q40.0 25.0 40.0 25.4 L40.0 25.6 Q40.0 26.0 39.6 26.0 L39.4 26.0 Q39.0 26.0 39.0 25.6 Z M42.0 26.4 Q42.0 26.0 42.4 26.0 L42.6 26.0 Q43.0 26.0 43.0 26.4 L43.0 26.6 Q43.0 27.0 42.6 27.0 L42.4 27.0 Q42.0 27.0 42.0 26.6 Z M57.0 40.4 Q57.0 40.0 57.4 40.0 L57.6 40.0 Q58.0 40.0 58.0 40.4 L58.0 40.6 Q58.0 41.0 57.6 41.0 L57.4 41.0 Q57.0 41.0 57.0 40.6 Z M60.0 41.4 Q60.0 41.0 60.4 41.0 L60.6 41.0 Q61.0 41.0 61.0 41.4 L61.0 41.6 Q61.0 42.0 60.6 42.0 L60.4 42.0 Q60.0 42.0 60.0 41.6 Z M63.0 42.4 Q63.0 42.0 63.4 42.0 L63.6 42.0 Q64.0 42.0 64.0 42.4 L64.0 42.6 Q64.0 43.0 63.6 43.0 L63.4 43.0 Q63.0 43.0 63.0 42.6 Z" fill="rgb(152,107,185)" stroke="rgb(152,107,185)" stroke-width="0.12"/><path d="M60.0 7.4 Q60.0 7.0 60.4 7.0 L60.6 7.0 Q61.0 7.0 61.0 7.4 L61.0 7.6 Q61.0 8.0 60.6 8.0 L60.4 8.0 Q60.0 8.0 60.0 7.6 Z M33.0 17.4 Q33.0 17.0 33.4 17.0 L33.6 17.0 Q34.0 17.0 34.0 17.4 L34.0 17.6 Q34.0 18.0 33.6 18.0 L33.4 18.0 Q33.0 18.0 33.0 17.6 Z M43.0 19.4 Q43.0 19.0 43.4 19.0 L43.6 19.0 Q44.0 19.0 44.0 19.4 L44.0 19.6 Q44.0 20.0 43.6 20.0 L43.4 20.0 Q43.0 20.0 43.0 19.6 Z M46.0 20.4 Q46.0 20.0 46.4 20.0 L46.6 20.0 Q47.0 20.0 47.0 20.4 L47.0 20.6 Q47.0 21.0 46.6 21.0 L46.4 21.0 Q46.0 21.0 46.0 20.6 Z M56.0 22.4 Q56.0 22.0 56.4 22.0 L56.6 22.0 Q57.0 22.0 57.0 22.4 L57.0 22.6 Q57.0 23.0 56.6 23.0 L56.4 23.0 Q56.0 23.0 56.0 22.6 Z M59.0 23.4 Q59.0 23.0 59.4 23.0 L59.6 23.0 Q60.0 23.0 60.0 23.4 L60.0 23.6 Q60.0 24.0 59.6 24.0 L59.4 24.0 Q59.0 24.0 59.0 23.6 Z" fill="rgb(171,65,49)" stroke="rgb(171,65,49)" stroke-width="0.12"/><path d="M58.0 12.4 Q58.0 12.0 58.4 12.0 L58.6 12.0 Q59.0 12.0 59.0 12.4 L59.0 12.6 Q59.0 13.0 58.6 13.0 L58.4 13.0 Q58.0 13.0 58.0 12.6 Z M48.0 15.4 Q48.0 15.0 48.4 15.0 L48.6 15.0 Q49.0 15.0 49.0 15.4 L49.0 15.6 Q49.0 16.0 48.6 16.0 L48.4 16.0 Q48.0 16.0 48.0 15.6 Z M61.0 18.4 Q61.0 18.0 61.4 18.0 L61.6 18.0 Q62.0 18.0 62.0 18.4 L62.0 18.6 Q62.0 19.0 61.6 19.0 L61.4 19.0 Q61.0 19.0 61.0 18.6 Z M36.0 23.4 Q36.0 23.0 36.4 23.0 L36.6 23.0 Q37.0 23.0 37.0 23.4 L37.0 23.6 Q37.0 24.0 36.6 24.0 L36.4 24.0 Q36.0 24.0 36.0 23.6 Z" fill="rgb(141,109,48)" stroke="rgb(141,109,48)" stroke-width="0.12"/><path d="M39.0 7.4 Q39.0 7.0 39.4 7.0 L39.6 7.0 Q40.0 7.0 40.0 7.4 L40.0 7.6 Q40.0 8.0 39.6 8.0 L39.4 8.0 Q39.0 8.0 39.0 7.6 Z M38.0 13.4 Q38.0 13.0 38.4 13.0 L38.6 13.0 Q39.0 13.0 39.0 13.4 L39.0 13.6 Q39.0 14.0 38.6 14.0 L38.4 14.0 Q38.0 14.0 38.0 13.6 Z M51.0 16.4 Q51.0 16.0 51.4 16.0 L51.6 16.0 Q52.0 16.0 52.0 16.4 L52.0 16.6 Q52.0 17.0 51.6 17.0 L51.4 17.0 Q51.0 17.0 51.0 16.6 Z M64.0 19.4 Q64.0 19.0 64.4 19.0 L64.6 19.0 Q65.0 19.0 65.0 19.4 L65.0 19.6 Q65.0 20.0 64.6 20.0 L64.4 20.0 Q64.0 20.0 64.0 19.6 Z" fill="rgb(187,143,39)" stroke="rgb(187,143,39)" stroke-width="0.12"/><path d="M31.0 47.4 Q31.0 47.0 31.4 47.0 L31.6 47.0 Q32.0 47.0 32.0 47.4 L32.0 48.6 Q32.0 49.0 31.6 49.0 L31.4 49.0 Q31.0 49.0 31.0 48.6 Z M31.0 56.4 Q31.0 56.0 31.4 56.0 L31.6 56.0 Q32.0 56.0 32.0 56.4 L32.0 56.6 Q32.0 57.0 31.6 57.0 L31.4 57.0 Q31.0 57.0 31.0 56.6 Z" fill="rgb(46,46,56)" stroke="rgb(46,46,56)" stroke-width="0.12"/></svg>